<svg xmlns="http://www.w3.org/2000/svg" width="1920" height="1080"><path d="M427,1308L-158,1289L601,1333Z" fill="#759d67" stroke="#759d67" stroke-width="1.51"/><path d="M86,-257L589,-212L786,-234Z" fill="#e2f3ba" stroke="#e2f3ba" stroke-width="1.51"/><path d="M86,-257L786,-234L1149,-236Z" fill="#d5edb4" stroke="#d5edb4" stroke-width="1.51"/><path d="M1165,1289L790,1316L1467,1302Z" fill="#2f814a" stroke="#2f814a" stroke-width="1.51"/><path d="M790,1316L601,1333L1467,1302Z" fill="#418851" stroke="#418851" stroke-width="1.51"/><path d="M1149,-236L1288,-209L1748,-219Z" fill="#9ecc92" stroke="#9ecc92" stroke-width="1.51"/><path d="M1786,1307L1467,1302L1903,1319Z" fill="#086135" stroke="#086135" stroke-width="1.51"/><path d="M1467,1302L601,1333L1903,1319Z" fill="#1f7741" stroke="#1f7741" stroke-width="1.51"/><path d="M86,-257L1149,-236L1929,-248Z" fill="#b5dea5" stroke="#b5dea5" stroke-width="1.51"/><path d="M1149,-236L1748,-219L1929,-248Z" fill="#93be8a" stroke="#93be8a" stroke-width="1.51"/><path d="M1990,280L1958,409L2076,435Z" fill="#58955b" stroke="#58955b" stroke-width="1.51"/><path d="M1961,501L2070,590L2076,435Z" fill="#458c54" stroke="#458c54" stroke-width="1.51"/><path d="M1967,1112L2059,1187L2080,990Z" fill="#066135" stroke="#066135" stroke-width="1.51"/><path d="M1915,-57L2063,-11L2081,-167Z" fill="#82a571" stroke="#82a571" stroke-width="1.51"/><path d="M2045,44L1937,124L2082,235Z" fill="#739f66" stroke="#739f66" stroke-width="1.51"/><path d="M1937,124L1990,280L2082,235Z" fill="#6b9d62" stroke="#6b9d62" stroke-width="1.51"/><path d="M1990,280L2076,435L2082,235Z" fill="#5f965d" stroke="#5f965d" stroke-width="1.51"/><path d="M2063,-11L2045,44L2082,235Z" fill="#759e67" stroke="#759e67" stroke-width="1.51"/><path d="M2081,-167L2063,-11L2082,235Z" fill="#7a9f6a" stroke="#7a9f6a" stroke-width="1.51"/><path d="M2080,990L2059,1187L2083,1285Z" fill="#015c32" stroke="#015c32" stroke-width="1.51"/><path d="M1927,886L2080,990L2094,833Z" fill="#166f3c" stroke="#166f3c" stroke-width="1.51"/><path d="M2037,726L1927,886L2094,833Z" fill="#1e7942" stroke="#1e7942" stroke-width="1.51"/><path d="M2070,590L2037,726L2094,833Z" fill="#287e46" stroke="#287e46" stroke-width="1.51"/><path d="M2076,435L2070,590L2094,833Z" fill="#36834c" stroke="#36834c" stroke-width="1.51"/><path d="M2082,235L2076,435L2094,833Z" fill="#468a53" stroke="#468a53" stroke-width="1.51"/><path d="M2080,990L2083,1285L2094,833Z" fill="#0b6335" stroke="#0b6335" stroke-width="1.51"/><path d="M1921,1030L1967,1112L2080,990Z" fill="#0b6837" stroke="#0b6837" stroke-width="1.51"/><path d="M1927,886L1921,1030L2080,990Z" fill="#126e3a" stroke="#126e3a" stroke-width="1.51"/><path d="M2059,1187L1903,1319L2083,1285Z" fill="#005630" stroke="#005630" stroke-width="1.51"/><path d="M1929,-248L1915,-57L2081,-167Z" fill="#84a97a" stroke="#84a97a" stroke-width="1.51"/><path d="M1904,745L1927,886L2037,726Z" fill="#217f45" stroke="#217f45" stroke-width="1.51"/><path d="M1904,745L2037,726L2070,590Z" fill="#2d844a" stroke="#2d844a" stroke-width="1.51"/><path d="M1958,409L1961,501L2076,435Z" fill="#4f9258" stroke="#4f9258" stroke-width="1.51"/><path d="M1961,501L1904,745L2070,590Z" fill="#398a4f" stroke="#398a4f" stroke-width="1.51"/><path d="M1967,1112L1903,1319L2059,1187Z" fill="#005d33" stroke="#005d33" stroke-width="1.51"/><path d="M1915,-57L2045,44L2063,-11Z" fill="#7da46d" stroke="#7da46d" stroke-width="1.51"/><path d="M1817,552L1904,745L1961,501Z" fill="#3c9052" stroke="#3c9052" stroke-width="1.51"/><path d="M1915,-57L1937,124L2045,44Z" fill="#7ba56c" stroke="#7ba56c" stroke-width="1.51"/><path d="M1620,1272L1467,1302L1786,1307Z" fill="#0f6737" stroke="#0f6737" stroke-width="1.51"/><path d="M1823,-90L1915,-57L1929,-248Z" fill="#87af79" stroke="#87af79" stroke-width="1.51"/><path d="M1915,-57L1815,62L1937,124Z" fill="#7dab6e" stroke="#7dab6e" stroke-width="1.51"/><path d="M1782,1169L1903,1319L1967,1112Z" fill="#006335" stroke="#006335" stroke-width="1.51"/><path d="M1937,124L1833,242L1990,280Z" fill="#6ca265" stroke="#6ca265" stroke-width="1.51"/><path d="M1805,342L1958,409L1990,280Z" fill="#5f9d5f" stroke="#5f9d5f" stroke-width="1.51"/><path d="M1833,242L1805,342L1990,280Z" fill="#66a263" stroke="#66a263" stroke-width="1.51"/><path d="M1288,-209L1473,-155L1748,-219Z" fill="#98c48a" stroke="#98c48a" stroke-width="1.51"/><path d="M1810,938L1921,1030L1927,886Z" fill="#14743c" stroke="#14743c" stroke-width="1.51"/><path d="M1958,409L1817,552L1961,501Z" fill="#4b9558" stroke="#4b9558" stroke-width="1.51"/><path d="M1921,1030L1782,1169L1967,1112Z" fill="#056938" stroke="#056938" stroke-width="1.51"/><path d="M1805,342L1817,552L1958,409Z" fill="#549c5c" stroke="#549c5c" stroke-width="1.51"/><path d="M1473,-155L1666,-178L1748,-219Z" fill="#91bd85" stroke="#91bd85" stroke-width="1.51"/><path d="M1782,1169L1786,1307L1903,1319Z" fill="#026034" stroke="#026034" stroke-width="1.51"/><path d="M1817,552L1744,650L1904,745Z" fill="#379151" stroke="#379151" stroke-width="1.51"/><path d="M1904,745L1780,832L1927,886Z" fill="#1f8245" stroke="#1f8245" stroke-width="1.51"/><path d="M1748,-219L1823,-90L1929,-248Z" fill="#89b280" stroke="#89b280" stroke-width="1.51"/><path d="M1815,62L1833,242L1937,124Z" fill="#76aa6a" stroke="#76aa6a" stroke-width="1.51"/><path d="M1823,-90L1815,62L1915,-57Z" fill="#84af72" stroke="#84af72" stroke-width="1.51"/><path d="M1780,832L1810,938L1927,886Z" fill="#1b7d41" stroke="#1b7d41" stroke-width="1.51"/><path d="M1810,938L1782,1169L1921,1030Z" fill="#0d703b" stroke="#0d703b" stroke-width="1.51"/><path d="M1744,650L1780,832L1904,745Z" fill="#288c4b" stroke="#288c4b" stroke-width="1.51"/><path d="M1664,964L1782,1169L1810,938Z" fill="#14763d" stroke="#14763d" stroke-width="1.51"/><path d="M1604,-85L1662,102L1815,62Z" fill="#86b574" stroke="#86b574" stroke-width="1.51"/><path d="M1805,342L1608,412L1817,552Z" fill="#58a15f" stroke="#58a15f" stroke-width="1.51"/><path d="M1608,412L1648,592L1817,552Z" fill="#4e9f5c" stroke="#4e9f5c" stroke-width="1.51"/><path d="M1604,-85L1815,62L1823,-90Z" fill="#88b575" stroke="#88b575" stroke-width="1.51"/><path d="M1645,234L1805,342L1833,242Z" fill="#6ca966" stroke="#6ca966" stroke-width="1.51"/><path d="M1815,62L1662,102L1833,242Z" fill="#7aae6c" stroke="#7aae6c" stroke-width="1.51"/><path d="M1662,102L1645,234L1833,242Z" fill="#76af6b" stroke="#76af6b" stroke-width="1.51"/><path d="M1666,-178L1604,-85L1823,-90Z" fill="#8eb97c" stroke="#8eb97c" stroke-width="1.51"/><path d="M1748,-219L1666,-178L1823,-90Z" fill="#8db780" stroke="#8db780" stroke-width="1.51"/><path d="M1664,964L1605,1160L1782,1169Z" fill="#12743c" stroke="#12743c" stroke-width="1.51"/><path d="M1648,592L1744,650L1817,552Z" fill="#429856" stroke="#429856" stroke-width="1.51"/><path d="M1780,832L1664,964L1810,938Z" fill="#1d7f41" stroke="#1d7f41" stroke-width="1.51"/><path d="M1782,1169L1620,1272L1786,1307Z" fill="#086636" stroke="#086636" stroke-width="1.51"/><path d="M1645,234L1608,412L1805,342Z" fill="#68aa65" stroke="#68aa65" stroke-width="1.51"/><path d="M1587,637L1532,828L1744,650Z" fill="#369752" stroke="#369752" stroke-width="1.51"/><path d="M1744,650L1532,828L1780,832Z" fill="#2b8f4c" stroke="#2b8f4c" stroke-width="1.51"/><path d="M1532,828L1596,894L1780,832Z" fill="#278a48" stroke="#278a48" stroke-width="1.51"/><path d="M1596,894L1664,964L1780,832Z" fill="#218344" stroke="#218344" stroke-width="1.51"/><path d="M1605,1160L1620,1272L1782,1169Z" fill="#0d6d39" stroke="#0d6d39" stroke-width="1.51"/><path d="M1648,592L1587,637L1744,650Z" fill="#409a55" stroke="#409a55" stroke-width="1.51"/><path d="M-16,1274L-158,1289L427,1308Z" fill="#80a36f" stroke="#80a36f" stroke-width="1.51"/><path d="M851,1297L790,1316L1090,1278Z" fill="#458b53" stroke="#458b53" stroke-width="1.51"/><path d="M1090,1278L790,1316L1165,1289Z" fill="#3c8750" stroke="#3c8750" stroke-width="1.51"/><path d="M1471,939L1539,1174L1605,1160Z" fill="#1b7c40" stroke="#1b7c40" stroke-width="1.51"/><path d="M1448,245L1608,412L1645,234Z" fill="#70b169" stroke="#70b169" stroke-width="1.51"/><path d="M1608,412L1498,545L1648,592Z" fill="#52a55e" stroke="#52a55e" stroke-width="1.51"/><path d="M1536,54L1645,234L1662,102Z" fill="#81b770" stroke="#81b770" stroke-width="1.51"/><path d="M1604,-85L1536,54L1662,102Z" fill="#89ba75" stroke="#89ba75" stroke-width="1.51"/><path d="M1471,939L1605,1160L1664,964Z" fill="#1e7e40" stroke="#1e7e40" stroke-width="1.51"/><path d="M1596,894L1471,939L1664,964Z" fill="#248543" stroke="#248543" stroke-width="1.51"/><path d="M1473,-155L1604,-85L1666,-178Z" fill="#93bf81" stroke="#93bf81" stroke-width="1.51"/><path d="M1536,54L1448,245L1645,234Z" fill="#7eb870" stroke="#7eb870" stroke-width="1.51"/><path d="M1498,545L1587,637L1648,592Z" fill="#48a059" stroke="#48a059" stroke-width="1.51"/><path d="M1605,1160L1539,1174L1620,1272Z" fill="#12703b" stroke="#12703b" stroke-width="1.51"/><path d="M1434,740L1532,828L1587,637Z" fill="#369a53" stroke="#369a53" stroke-width="1.51"/><path d="M1481,-98L1536,54L1604,-85Z" fill="#91c07b" stroke="#91c07b" stroke-width="1.51"/><path d="M1473,-155L1481,-98L1604,-85Z" fill="#95c281" stroke="#95c281" stroke-width="1.51"/><path d="M1440,430L1498,545L1608,412Z" fill="#5eac63" stroke="#5eac63" stroke-width="1.51"/><path d="M1448,245L1440,430L1608,412Z" fill="#6cb369" stroke="#6cb369" stroke-width="1.51"/><path d="M1539,1174L1467,1302L1620,1272Z" fill="#146f3b" stroke="#146f3b" stroke-width="1.51"/><path d="M1336,1256L1165,1289L1467,1302Z" fill="#207a43" stroke="#207a43" stroke-width="1.51"/><path d="M1471,939L1348,1043L1539,1174Z" fill="#228444" stroke="#228444" stroke-width="1.51"/><path d="M1532,828L1471,939L1596,894Z" fill="#2a8b48" stroke="#2a8b48" stroke-width="1.51"/><path d="M1498,545L1434,740L1587,637Z" fill="#45a259" stroke="#45a259" stroke-width="1.51"/><path d="M1383,362L1440,430L1448,245Z" fill="#71b96d" stroke="#71b96d" stroke-width="1.51"/><path d="M1348,119L1448,245L1536,54Z" fill="#87c176" stroke="#87c176" stroke-width="1.51"/><path d="M1481,-98L1308,-24L1536,54Z" fill="#94c67e" stroke="#94c67e" stroke-width="1.51"/><path d="M1308,-24L1348,119L1536,54Z" fill="#91c77d" stroke="#91c77d" stroke-width="1.51"/><path d="M1332,1150L1467,1302L1539,1174Z" fill="#1a7940" stroke="#1a7940" stroke-width="1.51"/><path d="M1348,1043L1332,1150L1539,1174Z" fill="#208244" stroke="#208244" stroke-width="1.51"/><path d="M1332,1150L1336,1256L1467,1302Z" fill="#1d7a42" stroke="#1d7a42" stroke-width="1.51"/><path d="M1326,840L1471,939L1532,828Z" fill="#2f934d" stroke="#2f934d" stroke-width="1.51"/><path d="M1434,740L1326,840L1532,828Z" fill="#359a52" stroke="#359a52" stroke-width="1.51"/><path d="M1289,573L1299,689L1434,740Z" fill="#49aa5f" stroke="#49aa5f" stroke-width="1.51"/><path d="M1440,430L1289,573L1498,545Z" fill="#5ab065" stroke="#5ab065" stroke-width="1.51"/><path d="M1289,573L1434,740L1498,545Z" fill="#4daa5f" stroke="#4daa5f" stroke-width="1.51"/><path d="M1473,-155L1308,-24L1481,-98Z" fill="#9ac984" stroke="#9ac984" stroke-width="1.51"/><path d="M1288,-209L1308,-24L1473,-155Z" fill="#9ece8b" stroke="#9ece8b" stroke-width="1.51"/><path d="M1326,840L1348,1043L1471,939Z" fill="#2d904b" stroke="#2d904b" stroke-width="1.51"/><path d="M786,-234L868,-210L1149,-236Z" fill="#bee3a9" stroke="#bee3a9" stroke-width="1.51"/><path d="M1301,249L1383,362L1448,245Z" fill="#7abe72" stroke="#7abe72" stroke-width="1.51"/><path d="M1348,119L1301,249L1448,245Z" fill="#84c377" stroke="#84c377" stroke-width="1.51"/><path d="M1383,362L1289,573L1440,430Z" fill="#65b66a" stroke="#65b66a" stroke-width="1.51"/><path d="M1299,689L1326,840L1434,740Z" fill="#3ca458" stroke="#3ca458" stroke-width="1.51"/><path d="M86,-257L414,-198L589,-212Z" fill="#ebf7bd" stroke="#ebf7bd" stroke-width="1.51"/><path d="M1326,840L1157,976L1348,1043Z" fill="#31964f" stroke="#31964f" stroke-width="1.51"/><path d="M1301,249L1235,365L1383,362Z" fill="#79c173" stroke="#79c173" stroke-width="1.51"/><path d="M1235,365L1289,573L1383,362Z" fill="#6bbb6e" stroke="#6bbb6e" stroke-width="1.51"/><path d="M1235,365L1226,576L1289,573Z" fill="#64bb6d" stroke="#64bb6d" stroke-width="1.51"/><path d="M1332,1150L1193,1167L1336,1256Z" fill="#238448" stroke="#238448" stroke-width="1.51"/><path d="M1219,239L1301,249L1348,119Z" fill="#88c87a" stroke="#88c87a" stroke-width="1.51"/><path d="M1164,51L1219,239L1348,119Z" fill="#92ce7f" stroke="#92ce7f" stroke-width="1.51"/><path d="M1308,-24L1164,51L1348,119Z" fill="#97cf83" stroke="#97cf83" stroke-width="1.51"/><path d="M1193,1167L1332,1150L1348,1043Z" fill="#268949" stroke="#268949" stroke-width="1.51"/><path d="M1157,976L1193,1167L1348,1043Z" fill="#2f914e" stroke="#2f914e" stroke-width="1.51"/><path d="M1288,-209L1135,-40L1308,-24Z" fill="#a3d48c" stroke="#a3d48c" stroke-width="1.51"/><path d="M1299,689L1169,698L1326,840Z" fill="#41ab5d" stroke="#41ab5d" stroke-width="1.51"/><path d="M1169,698L1140,849L1326,840Z" fill="#43a85c" stroke="#43a85c" stroke-width="1.51"/><path d="M1140,849L1157,976L1326,840Z" fill="#3da056" stroke="#3da056" stroke-width="1.51"/><path d="M1193,1167L1165,1289L1336,1256Z" fill="#278348" stroke="#278348" stroke-width="1.51"/><path d="M1289,573L1226,576L1299,689Z" fill="#54b265" stroke="#54b265" stroke-width="1.51"/><path d="M1149,-236L1135,-40L1288,-209Z" fill="#a9d796" stroke="#a9d796" stroke-width="1.51"/><path d="M1226,576L1169,698L1299,689Z" fill="#51b264" stroke="#51b264" stroke-width="1.51"/><path d="M1219,239L1235,365L1301,249Z" fill="#81c778" stroke="#81c778" stroke-width="1.51"/><path d="M1135,-40L1164,51L1308,-24Z" fill="#a0d489" stroke="#a0d489" stroke-width="1.51"/><path d="M1067,-98L1135,-40L1149,-236Z" fill="#aedb96" stroke="#aedb96" stroke-width="1.51"/><path d="M1164,51L1081,266L1219,239Z" fill="#94d082" stroke="#94d082" stroke-width="1.51"/><path d="M1038,415L1009,568L1226,576Z" fill="#6fc174" stroke="#6fc174" stroke-width="1.51"/><path d="M1219,239L1081,266L1235,365Z" fill="#86ca7b" stroke="#86ca7b" stroke-width="1.51"/><path d="M1081,266L1038,415L1235,365Z" fill="#84ca7b" stroke="#84ca7b" stroke-width="1.51"/><path d="M1038,415L1226,576L1235,365Z" fill="#73c174" stroke="#73c174" stroke-width="1.51"/><path d="M1157,976L1064,987L1193,1167Z" fill="#3a9653" stroke="#3a9653" stroke-width="1.51"/><path d="M1009,568L1169,698L1226,576Z" fill="#60b96c" stroke="#60b96c" stroke-width="1.51"/><path d="M987,143L1081,266L1164,51Z" fill="#9ed587" stroke="#9ed587" stroke-width="1.51"/><path d="M868,-210L1025,-169L1149,-236Z" fill="#b7e0a3" stroke="#b7e0a3" stroke-width="1.51"/><path d="M1064,987L1002,1151L1193,1167Z" fill="#3c9553" stroke="#3c9553" stroke-width="1.51"/><path d="M1090,1278L1165,1289L1193,1167Z" fill="#30864b" stroke="#30864b" stroke-width="1.51"/><path d="M1002,1151L1090,1278L1193,1167Z" fill="#378c4f" stroke="#378c4f" stroke-width="1.51"/><path d="M1041,858L1064,987L1140,849Z" fill="#48a45c" stroke="#48a45c" stroke-width="1.51"/><path d="M1025,-169L1067,-98L1149,-236Z" fill="#b1dc9c" stroke="#b1dc9c" stroke-width="1.51"/><path d="M1140,849L1064,987L1157,976Z" fill="#429f57" stroke="#429f57" stroke-width="1.51"/><path d="M1041,858L1140,849L1169,698Z" fill="#4cac60" stroke="#4cac60" stroke-width="1.51"/><path d="M985,665L1041,858L1169,698Z" fill="#55b466" stroke="#55b466" stroke-width="1.51"/><path d="M1009,568L985,665L1169,698Z" fill="#63ba6d" stroke="#63ba6d" stroke-width="1.51"/><path d="M1135,-40L987,143L1164,51Z" fill="#a5d78b" stroke="#a5d78b" stroke-width="1.51"/><path d="M918,47L987,143L1135,-40Z" fill="#abdb8f" stroke="#abdb8f" stroke-width="1.51"/><path d="M1067,-98L918,47L1135,-40Z" fill="#afdc92" stroke="#afdc92" stroke-width="1.51"/><path d="M893,209L1038,415L1081,266Z" fill="#94d183" stroke="#94d183" stroke-width="1.51"/><path d="M1002,1151L851,1297L1090,1278Z" fill="#408d53" stroke="#408d53" stroke-width="1.51"/><path d="M921,1125L1002,1151L1064,987Z" fill="#459a58" stroke="#459a58" stroke-width="1.51"/><path d="M899,996L921,1125L1064,987Z" fill="#4b9f5b" stroke="#4b9f5b" stroke-width="1.51"/><path d="M987,143L893,209L1081,266Z" fill="#9fd788" stroke="#9fd788" stroke-width="1.51"/><path d="M985,665L842,724L1041,858Z" fill="#5fb86b" stroke="#5fb86b" stroke-width="1.51"/><path d="M842,724L829,797L1041,858Z" fill="#60b66a" stroke="#60b66a" stroke-width="1.51"/><path d="M1041,858L899,996L1064,987Z" fill="#4da35c" stroke="#4da35c" stroke-width="1.51"/><path d="M1025,-169L860,-23L1067,-98Z" fill="#b8e099" stroke="#b8e099" stroke-width="1.51"/><path d="M860,-23L918,47L1067,-98Z" fill="#b6e096" stroke="#b6e096" stroke-width="1.51"/><path d="M927,571L1009,568L1038,415Z" fill="#79c678" stroke="#79c678" stroke-width="1.51"/><path d="M832,425L927,571L1038,415Z" fill="#84cb7d" stroke="#84cb7d" stroke-width="1.51"/><path d="M893,209L832,425L1038,415Z" fill="#94d284" stroke="#94d284" stroke-width="1.51"/><path d="M829,797L899,996L1041,858Z" fill="#58ad64" stroke="#58ad64" stroke-width="1.51"/><path d="M868,-210L860,-23L1025,-169Z" fill="#bee3a0" stroke="#bee3a0" stroke-width="1.51"/><path d="M921,1125L851,1297L1002,1151Z" fill="#479457" stroke="#479457" stroke-width="1.51"/><path d="M927,571L985,665L1009,568Z" fill="#70c174" stroke="#70c174" stroke-width="1.51"/><path d="M918,47L893,209L987,143Z" fill="#abdc8e" stroke="#abdc8e" stroke-width="1.51"/><path d="M927,571L842,724L985,665Z" fill="#6ec072" stroke="#6ec072" stroke-width="1.51"/><path d="M780,397L832,425L893,209Z" fill="#9dd687" stroke="#9dd687" stroke-width="1.51"/><path d="M829,797L747,831L899,996Z" fill="#63b167" stroke="#63b167" stroke-width="1.51"/><path d="M747,831L727,963L899,996Z" fill="#62ad65" stroke="#62ad65" stroke-width="1.51"/><path d="M760,74L893,209L918,47Z" fill="#b4e092" stroke="#b4e092" stroke-width="1.51"/><path d="M899,996L741,1147L921,1125Z" fill="#539e5c" stroke="#539e5c" stroke-width="1.51"/><path d="M741,1147L851,1297L921,1125Z" fill="#50975a" stroke="#50975a" stroke-width="1.51"/><path d="M832,425L781,497L927,571Z" fill="#88cd7f" stroke="#88cd7f" stroke-width="1.51"/><path d="M773,705L842,724L927,571Z" fill="#73c274" stroke="#73c274" stroke-width="1.51"/><path d="M781,497L773,705L927,571Z" fill="#7ec87a" stroke="#7ec87a" stroke-width="1.51"/><path d="M733,-55L860,-23L868,-210Z" fill="#c5e7a0" stroke="#c5e7a0" stroke-width="1.51"/><path d="M860,-23L760,74L918,47Z" fill="#bbe397" stroke="#bbe397" stroke-width="1.51"/><path d="M786,-234L733,-55L868,-210Z" fill="#c9e8a8" stroke="#c9e8a8" stroke-width="1.51"/><path d="M694,200L780,397L893,209Z" fill="#a9db8d" stroke="#a9db8d" stroke-width="1.51"/><path d="M760,74L694,200L893,209Z" fill="#b5e192" stroke="#b5e192" stroke-width="1.51"/><path d="M727,963L741,1147L899,996Z" fill="#5ca560" stroke="#5ca560" stroke-width="1.51"/><path d="M741,1147L790,1316L851,1297Z" fill="#529359" stroke="#529359" stroke-width="1.51"/><path d="M733,-55L760,74L860,-23Z" fill="#c2e69b" stroke="#c2e69b" stroke-width="1.51"/><path d="M773,705L829,797L842,724Z" fill="#6dbf70" stroke="#6dbf70" stroke-width="1.51"/><path d="M598,559L773,705L781,497Z" fill="#88cd7e" stroke="#88cd7e" stroke-width="1.51"/><path d="M773,705L747,831L829,797Z" fill="#6dbc6f" stroke="#6dbc6f" stroke-width="1.51"/><path d="M780,397L781,497L832,425Z" fill="#94d283" stroke="#94d283" stroke-width="1.51"/><path d="M727,963L634,976L741,1147Z" fill="#65a964" stroke="#65a964" stroke-width="1.51"/><path d="M598,559L583,652L773,705Z" fill="#88cc7d" stroke="#88cc7d" stroke-width="1.51"/><path d="M694,200L592,388L780,397Z" fill="#abdd8d" stroke="#abdd8d" stroke-width="1.51"/><path d="M780,397L592,388L781,497Z" fill="#9cd687" stroke="#9cd687" stroke-width="1.51"/><path d="M589,-212L733,-55L786,-234Z" fill="#d1ecab" stroke="#d1ecab" stroke-width="1.51"/><path d="M741,1147L601,1333L790,1316Z" fill="#59955b" stroke="#59955b" stroke-width="1.51"/><path d="M634,976L589,1107L741,1147Z" fill="#66a764" stroke="#66a764" stroke-width="1.51"/><path d="M592,388L598,559L781,497Z" fill="#9bd586" stroke="#9bd586" stroke-width="1.51"/><path d="M583,652L747,831L773,705Z" fill="#79c475" stroke="#79c475" stroke-width="1.51"/><path d="M589,-212L579,-81L733,-55Z" fill="#d5eea8" stroke="#d5eea8" stroke-width="1.51"/><path d="M589,1107L601,1333L741,1147Z" fill="#619e60" stroke="#619e60" stroke-width="1.51"/><path d="M634,976L727,963L747,831Z" fill="#6bb168" stroke="#6bb168" stroke-width="1.51"/><path d="M583,652L550,850L747,831Z" fill="#7bc274" stroke="#7bc274" stroke-width="1.51"/><path d="M539,117L694,200L760,74Z" fill="#c2e798" stroke="#c2e798" stroke-width="1.51"/><path d="M733,-55L579,-81L760,74Z" fill="#ccea9f" stroke="#ccea9f" stroke-width="1.51"/><path d="M579,-81L539,117L760,74Z" fill="#ccea9e" stroke="#ccea9e" stroke-width="1.51"/><path d="M305,1263L-16,1274L427,1308Z" fill="#79a16a" stroke="#79a16a" stroke-width="1.51"/><path d="M550,850L634,976L747,831Z" fill="#72b76c" stroke="#72b76c" stroke-width="1.51"/><path d="M536,249L592,388L694,200Z" fill="#b7e193" stroke="#b7e193" stroke-width="1.51"/><path d="M539,117L536,249L694,200Z" fill="#c2e698" stroke="#c2e698" stroke-width="1.51"/><path d="M86,-257L237,-185L414,-198Z" fill="#f1fac1" stroke="#f1fac1" stroke-width="1.51"/><path d="M444,-29L539,117L579,-81Z" fill="#d7efa4" stroke="#d7efa4" stroke-width="1.51"/><path d="M589,1107L427,1308L601,1333Z" fill="#679c61" stroke="#679c61" stroke-width="1.51"/><path d="M490,935L589,1107L634,976Z" fill="#70af69" stroke="#70af69" stroke-width="1.51"/><path d="M550,850L490,935L634,976Z" fill="#77b66d" stroke="#77b66d" stroke-width="1.51"/><path d="M134,1239L-16,1274L305,1263Z" fill="#7ea56e" stroke="#7ea56e" stroke-width="1.51"/><path d="M388,740L392,785L550,850Z" fill="#88c679" stroke="#88c679" stroke-width="1.51"/><path d="M388,740L550,850L583,652Z" fill="#87c97a" stroke="#87c97a" stroke-width="1.51"/><path d="M414,-198L579,-81L589,-212Z" fill="#def1b1" stroke="#def1b1" stroke-width="1.51"/><path d="M490,935L389,1090L589,1107Z" fill="#74ae6a" stroke="#74ae6a" stroke-width="1.51"/><path d="M389,1090L427,1308L589,1107Z" fill="#6fa666" stroke="#6fa666" stroke-width="1.51"/><path d="M536,249L473,269L592,388Z" fill="#bae394" stroke="#bae394" stroke-width="1.51"/><path d="M416,364L432,591L592,388Z" fill="#acdc8e" stroke="#acdc8e" stroke-width="1.51"/><path d="M592,388L432,591L598,559Z" fill="#a0d789" stroke="#a0d789" stroke-width="1.51"/><path d="M432,591L583,652L598,559Z" fill="#95d284" stroke="#95d284" stroke-width="1.51"/><path d="M473,269L416,364L592,388Z" fill="#b9e293" stroke="#b9e293" stroke-width="1.51"/><path d="M414,-198L444,-29L579,-81Z" fill="#e0f2ac" stroke="#e0f2ac" stroke-width="1.51"/><path d="M432,591L388,740L583,652Z" fill="#93d081" stroke="#93d081" stroke-width="1.51"/><path d="M459,131L536,249L539,117Z" fill="#caea9b" stroke="#caea9b" stroke-width="1.51"/><path d="M459,131L473,269L536,249Z" fill="#c6e89a" stroke="#c6e89a" stroke-width="1.51"/><path d="M444,-29L459,131L539,117Z" fill="#d4eea1" stroke="#d4eea1" stroke-width="1.51"/><path d="M392,785L490,935L550,850Z" fill="#81bf74" stroke="#81bf74" stroke-width="1.51"/><path d="M389,1090L305,1263L427,1308Z" fill="#74a468" stroke="#74a468" stroke-width="1.51"/><path d="M459,131L332,256L473,269Z" fill="#cbea9c" stroke="#cbea9c" stroke-width="1.51"/><path d="M392,785L286,866L490,935Z" fill="#87c176" stroke="#87c176" stroke-width="1.51"/><path d="M286,866L315,1021L490,935Z" fill="#84ba72" stroke="#84ba72" stroke-width="1.51"/><path d="M315,1021L389,1090L490,935Z" fill="#7cb36e" stroke="#7cb36e" stroke-width="1.51"/><path d="M288,355L276,589L416,364Z" fill="#b8e294" stroke="#b8e294" stroke-width="1.51"/><path d="M416,364L276,589L432,591Z" fill="#acdc8f" stroke="#acdc8f" stroke-width="1.51"/><path d="M414,-198L277,-83L444,-29Z" fill="#e7f6b0" stroke="#e7f6b0" stroke-width="1.51"/><path d="M444,-29L260,115L459,131Z" fill="#dbf1a5" stroke="#dbf1a5" stroke-width="1.51"/><path d="M332,256L416,364L473,269Z" fill="#c4e799" stroke="#c4e799" stroke-width="1.51"/><path d="M315,637L388,740L432,591Z" fill="#9bd385" stroke="#9bd385" stroke-width="1.51"/><path d="M260,115L332,256L459,131Z" fill="#d6eea1" stroke="#d6eea1" stroke-width="1.51"/><path d="M277,-83L260,115L444,-29Z" fill="#e4f4aa" stroke="#e4f4aa" stroke-width="1.51"/><path d="M276,589L315,637L432,591Z" fill="#a3d78a" stroke="#a3d78a" stroke-width="1.51"/><path d="M237,1138L305,1263L389,1090Z" fill="#7aab6c" stroke="#7aab6c" stroke-width="1.51"/><path d="M332,256L288,355L416,364Z" fill="#c5e899" stroke="#c5e899" stroke-width="1.51"/><path d="M237,-185L277,-83L414,-198Z" fill="#ecf8b8" stroke="#ecf8b8" stroke-width="1.51"/><path d="M176,415L276,589L288,355Z" fill="#bae396" stroke="#bae396" stroke-width="1.51"/><path d="M388,740L286,866L392,785Z" fill="#8ec87c" stroke="#8ec87c" stroke-width="1.51"/><path d="M315,1021L237,1138L389,1090Z" fill="#7eb16e" stroke="#7eb16e" stroke-width="1.51"/><path d="M315,637L286,866L388,740Z" fill="#93ce80" stroke="#93ce80" stroke-width="1.51"/><path d="M176,415L174,575L276,589Z" fill="#b3df94" stroke="#b3df94" stroke-width="1.51"/><path d="M167,665L125,846L286,866Z" fill="#97cd82" stroke="#97cd82" stroke-width="1.51"/><path d="M167,665L286,866L315,637Z" fill="#9ad185" stroke="#9ad185" stroke-width="1.51"/><path d="M286,866L168,1017L315,1021Z" fill="#87ba75" stroke="#87ba75" stroke-width="1.51"/><path d="M89,250L288,355L332,256Z" fill="#ceeb9f" stroke="#ceeb9f" stroke-width="1.51"/><path d="M260,115L89,250L332,256Z" fill="#d7efa4" stroke="#d7efa4" stroke-width="1.51"/><path d="M93,36L260,115L277,-83Z" fill="#e8f6ae" stroke="#e8f6ae" stroke-width="1.51"/><path d="M276,589L167,665L315,637Z" fill="#a5d78b" stroke="#a5d78b" stroke-width="1.51"/><path d="M168,1017L237,1138L315,1021Z" fill="#83b472" stroke="#83b472" stroke-width="1.51"/><path d="M237,1138L134,1239L305,1263Z" fill="#7ca86d" stroke="#7ca86d" stroke-width="1.51"/><path d="M137,1180L134,1239L237,1138Z" fill="#80ab70" stroke="#80ab70" stroke-width="1.51"/><path d="M83,-5L93,36L277,-83Z" fill="#eef8b2" stroke="#eef8b2" stroke-width="1.51"/><path d="M125,846L168,1017L286,866Z" fill="#8fc17a" stroke="#8fc17a" stroke-width="1.51"/><path d="M89,250L176,415L288,355Z" fill="#cbea9e" stroke="#cbea9e" stroke-width="1.51"/><path d="M174,575L167,665L276,589Z" fill="#a9da8e" stroke="#a9da8e" stroke-width="1.51"/><path d="M237,-185L83,-5L277,-83Z" fill="#f1f9b5" stroke="#f1f9b5" stroke-width="1.51"/><path d="M93,36L89,250L260,115Z" fill="#e3f4aa" stroke="#e3f4aa" stroke-width="1.51"/><path d="M31,83L89,250L93,36Z" fill="#e8f6ad" stroke="#e8f6ad" stroke-width="1.51"/><path d="M168,1017L137,1180L237,1138Z" fill="#83b172" stroke="#83b172" stroke-width="1.51"/><path d="M86,-257L83,-5L237,-185Z" fill="#f5fbbe" stroke="#f5fbbe" stroke-width="1.51"/><path d="M-45,-199L83,-5L86,-257Z" fill="#f9fcc3" stroke="#f9fcc3" stroke-width="1.51"/><path d="M-30,286L-60,388L89,250Z" fill="#d6eea9" stroke="#d6eea9" stroke-width="1.51"/><path d="M21,807L125,846L167,665Z" fill="#9dd087" stroke="#9dd087" stroke-width="1.51"/><path d="M125,846L-64,1013L168,1017Z" fill="#91be7b" stroke="#91be7b" stroke-width="1.51"/><path d="M11,1092L137,1180L168,1017Z" fill="#88b476" stroke="#88b476" stroke-width="1.51"/><path d="M-37,661L167,665L174,575Z" fill="#acda90" stroke="#acda90" stroke-width="1.51"/><path d="M89,250L-60,388L176,415Z" fill="#d0eca2" stroke="#d0eca2" stroke-width="1.51"/><path d="M-55,498L174,575L176,415Z" fill="#bce399" stroke="#bce399" stroke-width="1.51"/><path d="M-60,388L-55,498L176,415Z" fill="#c7e7a1" stroke="#c7e7a1" stroke-width="1.51"/><path d="M-37,661L21,807L167,665Z" fill="#a6d68d" stroke="#a6d68d" stroke-width="1.51"/><path d="M-64,1013L11,1092L168,1017Z" fill="#8eb97a" stroke="#8eb97a" stroke-width="1.51"/><path d="M-55,498L-37,661L174,575Z" fill="#b5df98" stroke="#b5df98" stroke-width="1.51"/><path d="M-45,-199L-17,-12L83,-5Z" fill="#f8fdbd" stroke="#f8fdbd" stroke-width="1.51"/><path d="M21,807L-64,1013L125,846Z" fill="#98c683" stroke="#98c683" stroke-width="1.51"/><path d="M-16,1274L134,1239L137,1180Z" fill="#82a871" stroke="#82a871" stroke-width="1.51"/><path d="M11,1092L-16,1274L137,1180Z" fill="#86ae75" stroke="#86ae75" stroke-width="1.51"/><path d="M31,83L-30,286L89,250Z" fill="#e0f3ac" stroke="#e0f3ac" stroke-width="1.51"/><path d="M83,-5L31,83L93,36Z" fill="#eef9b2" stroke="#eef9b2" stroke-width="1.51"/><path d="M-17,-12L31,83L83,-5Z" fill="#f0f9b5" stroke="#f0f9b5" stroke-width="1.51"/><path d="M-187,118L-195,210L-30,286Z" fill="#e3f4b8" stroke="#e3f4b8" stroke-width="1.51"/><path d="M-45,-199L-114,-167L-17,-12Z" fill="#fafdc7" stroke="#fafdc7" stroke-width="1.51"/><path d="M-169,1175L-16,1274L11,1092Z" fill="#87af7c" stroke="#87af7c" stroke-width="1.51"/><path d="M-177,824L-64,1013L21,807Z" fill="#9ac78a" stroke="#9ac78a" stroke-width="1.51"/><path d="M-17,-12L-187,118L31,83Z" fill="#eef9ba" stroke="#eef9ba" stroke-width="1.51"/><path d="M-187,118L-30,286L31,83Z" fill="#e7f5b5" stroke="#e7f5b5" stroke-width="1.51"/><path d="M-149,666L-177,824L-37,661Z" fill="#a7d799" stroke="#a7d799" stroke-width="1.51"/><path d="M-37,661L-177,824L21,807Z" fill="#a2d392" stroke="#a2d392" stroke-width="1.51"/><path d="M-64,1013L-169,1175L11,1092Z" fill="#8cb681" stroke="#8cb681" stroke-width="1.51"/><path d="M-55,498L-143,505L-37,661Z" fill="#b9e1a1" stroke="#b9e1a1" stroke-width="1.51"/><path d="M-143,505L-149,666L-37,661Z" fill="#b3dea0" stroke="#b3dea0" stroke-width="1.51"/><path d="M-114,-167L-206,-99L-17,-12Z" fill="#fafdc7" stroke="#fafdc7" stroke-width="1.51"/><path d="M-206,-99L-187,118L-17,-12Z" fill="#f4fbc3" stroke="#f4fbc3" stroke-width="1.51"/><path d="M-169,1175L-158,1289L-16,1274Z" fill="#85a97d" stroke="#85a97d" stroke-width="1.51"/><path d="M-204,1033L-169,1175L-64,1013Z" fill="#8eb786" stroke="#8eb786" stroke-width="1.51"/><path d="M-160,370L-60,388L-30,286Z" fill="#d2ecad" stroke="#d2ecad" stroke-width="1.51"/><path d="M-195,210L-160,370L-30,286Z" fill="#daf0b4" stroke="#daf0b4" stroke-width="1.51"/><path d="M-177,824L-204,1033L-64,1013Z" fill="#95c08a" stroke="#95c08a" stroke-width="1.51"/><path d="M-60,388L-143,505L-55,498Z" fill="#c4e6a7" stroke="#c4e6a7" stroke-width="1.51"/><path d="M-160,370L-143,505L-60,388Z" fill="#cae9ac" stroke="#cae9ac" stroke-width="1.51"/><path d="M-160,370L-149,666L-143,505Z" fill="#bfe4a9" stroke="#bfe4a9" stroke-width="1.51"/><path d="M-195,210L-177,824L-160,370Z" fill="#c5e6ad" stroke="#c5e6ad" stroke-width="1.51"/><path d="M-160,370L-177,824L-149,666Z" fill="#b3dda3" stroke="#b3dda3" stroke-width="1.51"/><path d="M-169,1175L-204,1033L-158,1289Z" fill="#8ab185" stroke="#8ab185" stroke-width="1.51"/><path d="M-195,210L-204,1033L-177,824Z" fill="#abd9a0" stroke="#abd9a0" stroke-width="1.51"/><path d="M-206,-99L-195,210L-187,118Z" fill="#eff9c3" stroke="#eff9c3" stroke-width="1.51"/><path d="M-206,-99L-204,1033L-195,210Z" fill="#d0ecb4" stroke="#d0ecb4" stroke-width="1.51"/></svg>