<svg xmlns="http://www.w3.org/2000/svg" width="1920" height="200"><path d="M790,400L379,446L1152,432Z" fill="#5d5d5d" stroke="#5d5d5d" stroke-width="1.51"/><path d="M1362,-240L1476,-222L1633,-223Z" fill="#a5a5a5" stroke="#a5a5a5" stroke-width="1.51"/><path d="M1521,400L1377,411L1898,421Z" fill="#333333" stroke="#333333" stroke-width="1.51"/><path d="M1377,411L1152,432L1898,421Z" fill="#383838" stroke="#383838" stroke-width="1.51"/><path d="M1362,-240L1633,-223L2045,-200Z" fill="#959595" stroke="#959595" stroke-width="1.51"/><path d="M1633,-223L1938,-190L2045,-200Z" fill="#848484" stroke="#848484" stroke-width="1.51"/><path d="M2074,-69L1976,60L2104,87Z" fill="#5d5d5d" stroke="#5d5d5d" stroke-width="1.51"/><path d="M1976,60L2068,275L2104,87Z" fill="#494949" stroke="#494949" stroke-width="1.51"/><path d="M2068,275L1898,421L2121,401Z" fill="#202020" stroke="#202020" stroke-width="1.51"/><path d="M2104,87L2068,275L2121,401Z" fill="#333333" stroke="#333333" stroke-width="1.51"/><path d="M-112,-234L385,-189L777,-252Z" fill="#e8e8e8" stroke="#e8e8e8" stroke-width="1.51"/><path d="M1633,-223L1839,-159L1938,-190Z" fill="#888888" stroke="#888888" stroke-width="1.51"/><path d="M1976,60L1883,275L2068,275Z" fill="#434343" stroke="#434343" stroke-width="1.51"/><path d="M1883,275L1898,421L2068,275Z" fill="#2d2d2d" stroke="#2d2d2d" stroke-width="1.51"/><path d="M1948,-44L1976,60L2074,-69Z" fill="#676767" stroke="#676767" stroke-width="1.51"/><path d="M2045,-200L1938,-190L2074,-69Z" fill="#767676" stroke="#767676" stroke-width="1.51"/><path d="M1938,-190L1948,-44L2074,-69Z" fill="#727272" stroke="#727272" stroke-width="1.51"/><path d="M1689,349L1521,400L1898,421Z" fill="#2f2f2f" stroke="#2f2f2f" stroke-width="1.51"/><path d="M1938,-190L1839,-159L1948,-44Z" fill="#7a7a7a" stroke="#7a7a7a" stroke-width="1.51"/><path d="M1948,-44L1779,47L1976,60Z" fill="#676767" stroke="#676767" stroke-width="1.51"/><path d="M1779,47L1883,275L1976,60Z" fill="#555555" stroke="#555555" stroke-width="1.51"/><path d="M1883,275L1808,351L1898,421Z" fill="#2c2c2c" stroke="#2c2c2c" stroke-width="1.51"/><path d="M1813,-95L1779,47L1948,-44Z" fill="#727272" stroke="#727272" stroke-width="1.51"/><path d="M1839,-159L1813,-95L1948,-44Z" fill="#797979" stroke="#797979" stroke-width="1.51"/><path d="M1679,99L1772,294L1779,47Z" fill="#5c5c5c" stroke="#5c5c5c" stroke-width="1.51"/><path d="M1779,47L1772,294L1883,275Z" fill="#4c4c4c" stroke="#4c4c4c" stroke-width="1.51"/><path d="M1808,351L1689,349L1898,421Z" fill="#2b2b2b" stroke="#2b2b2b" stroke-width="1.51"/><path d="M777,-252L889,-215L1362,-240Z" fill="#c3c3c3" stroke="#c3c3c3" stroke-width="1.51"/><path d="M1772,294L1808,351L1883,275Z" fill="#393939" stroke="#393939" stroke-width="1.51"/><path d="M1633,-223L1813,-95L1839,-159Z" fill="#898989" stroke="#898989" stroke-width="1.51"/><path d="M1679,99L1604,217L1772,294Z" fill="#575757" stroke="#575757" stroke-width="1.51"/><path d="M1623,-69L1779,47L1813,-95Z" fill="#7c7c7c" stroke="#7c7c7c" stroke-width="1.51"/><path d="M1633,-223L1623,-69L1813,-95Z" fill="#8c8c8c" stroke="#8c8c8c" stroke-width="1.51"/><path d="M1772,294L1689,349L1808,351Z" fill="#383838" stroke="#383838" stroke-width="1.51"/><path d="M1604,217L1689,349L1772,294Z" fill="#484848" stroke="#484848" stroke-width="1.51"/><path d="M1623,-69L1679,99L1779,47Z" fill="#767676" stroke="#767676" stroke-width="1.51"/><path d="M889,-215L987,-191L1362,-240Z" fill="#bdbdbd" stroke="#bdbdbd" stroke-width="1.51"/><path d="M1623,-69L1524,4L1679,99Z" fill="#808080" stroke="#808080" stroke-width="1.51"/><path d="M1604,217L1521,400L1689,349Z" fill="#464646" stroke="#464646" stroke-width="1.51"/><path d="M1524,4L1604,217L1679,99Z" fill="#6e6e6e" stroke="#6e6e6e" stroke-width="1.51"/><path d="M1441,224L1521,400L1604,217Z" fill="#555555" stroke="#555555" stroke-width="1.51"/><path d="M1524,4L1438,71L1604,217Z" fill="#767676" stroke="#767676" stroke-width="1.51"/><path d="M1476,-222L1623,-69L1633,-223Z" fill="#9b9b9b" stroke="#9b9b9b" stroke-width="1.51"/><path d="M1438,71L1441,224L1604,217Z" fill="#6a6a6a" stroke="#6a6a6a" stroke-width="1.51"/><path d="M1476,-222L1524,4L1623,-69Z" fill="#959595" stroke="#959595" stroke-width="1.51"/><path d="M550,404L379,446L790,400Z" fill="#696969" stroke="#696969" stroke-width="1.51"/><path d="M987,-191L1240,-187L1362,-240Z" fill="#b5b5b5" stroke="#b5b5b5" stroke-width="1.51"/><path d="M1362,-240L1297,-30L1476,-222Z" fill="#a6a6a6" stroke="#a6a6a6" stroke-width="1.51"/><path d="M1441,224L1377,411L1521,400Z" fill="#4a4a4a" stroke="#4a4a4a" stroke-width="1.51"/><path d="M1476,-222L1297,-30L1524,4Z" fill="#9a9a9a" stroke="#9a9a9a" stroke-width="1.51"/><path d="M1297,-30L1438,71L1524,4Z" fill="#8c8c8c" stroke="#8c8c8c" stroke-width="1.51"/><path d="M1438,71L1314,121L1441,224Z" fill="#757575" stroke="#757575" stroke-width="1.51"/><path d="M1240,-187L1297,-30L1362,-240Z" fill="#aaaaaa" stroke="#aaaaaa" stroke-width="1.51"/><path d="M1297,-30L1314,121L1438,71Z" fill="#888888" stroke="#888888" stroke-width="1.51"/><path d="M1278,236L1377,411L1441,224Z" fill="#5c5c5c" stroke="#5c5c5c" stroke-width="1.51"/><path d="M1314,121L1278,236L1441,224Z" fill="#6e6e6e" stroke="#6e6e6e" stroke-width="1.51"/><path d="M1278,236L1184,260L1377,411Z" fill="#5e5e5e" stroke="#5e5e5e" stroke-width="1.51"/><path d="M1184,260L1152,432L1377,411Z" fill="#4f4f4f" stroke="#4f4f4f" stroke-width="1.51"/><path d="M1297,-30L1228,99L1314,121Z" fill="#8b8b8b" stroke="#8b8b8b" stroke-width="1.51"/><path d="M1029,383L790,400L1152,432Z" fill="#545454" stroke="#545454" stroke-width="1.51"/><path d="M1240,-187L1220,0L1297,-30Z" fill="#a3a3a3" stroke="#a3a3a3" stroke-width="1.51"/><path d="M1220,0L1228,99L1297,-30Z" fill="#949494" stroke="#949494" stroke-width="1.51"/><path d="M1228,99L1278,236L1314,121Z" fill="#797979" stroke="#797979" stroke-width="1.51"/><path d="M1228,99L1184,260L1278,236Z" fill="#737373" stroke="#737373" stroke-width="1.51"/><path d="M1082,246L1184,260L1228,99Z" fill="#777777" stroke="#777777" stroke-width="1.51"/><path d="M1007,-82L1220,0L1240,-187Z" fill="#ababab" stroke="#ababab" stroke-width="1.51"/><path d="M987,-191L1007,-82L1240,-187Z" fill="#b7b7b7" stroke="#b7b7b7" stroke-width="1.51"/><path d="M1220,0L999,111L1228,99Z" fill="#919191" stroke="#919191" stroke-width="1.51"/><path d="M999,111L1082,246L1228,99Z" fill="#838383" stroke="#838383" stroke-width="1.51"/><path d="M1082,246L1152,432L1184,260Z" fill="#626262" stroke="#626262" stroke-width="1.51"/><path d="M1007,-82L999,111L1220,0Z" fill="#a2a2a2" stroke="#a2a2a2" stroke-width="1.51"/><path d="M1082,246L1029,383L1152,432Z" fill="#5b5b5b" stroke="#5b5b5b" stroke-width="1.51"/><path d="M856,369L790,400L1029,383Z" fill="#5e5e5e" stroke="#5e5e5e" stroke-width="1.51"/><path d="M-112,-234L248,-174L385,-189Z" fill="#ededed" stroke="#ededed" stroke-width="1.51"/><path d="M999,111L932,136L1082,246Z" fill="#878787" stroke="#878787" stroke-width="1.51"/><path d="M858,225L1029,383L1082,246Z" fill="#727272" stroke="#727272" stroke-width="1.51"/><path d="M932,136L858,225L1082,246Z" fill="#838383" stroke="#838383" stroke-width="1.51"/><path d="M875,4L999,111L1007,-82Z" fill="#a8a8a8" stroke="#a8a8a8" stroke-width="1.51"/><path d="M858,225L856,369L1029,383Z" fill="#6c6c6c" stroke="#6c6c6c" stroke-width="1.51"/><path d="M875,4L932,136L999,111Z" fill="#9b9b9b" stroke="#9b9b9b" stroke-width="1.51"/><path d="M987,-191L889,-215L1007,-82Z" fill="#c0c0c0" stroke="#c0c0c0" stroke-width="1.51"/><path d="M889,-215L875,4L1007,-82Z" fill="#bababa" stroke="#bababa" stroke-width="1.51"/><path d="M385,-189L568,-175L777,-252Z" fill="#dcdcdc" stroke="#dcdcdc" stroke-width="1.51"/><path d="M714,-41L875,4L889,-215Z" fill="#bfbfbf" stroke="#bfbfbf" stroke-width="1.51"/><path d="M875,4L754,193L932,136Z" fill="#9b9b9b" stroke="#9b9b9b" stroke-width="1.51"/><path d="M754,193L858,225L932,136Z" fill="#8d8d8d" stroke="#8d8d8d" stroke-width="1.51"/><path d="M689,89L754,193L875,4Z" fill="#a3a3a3" stroke="#a3a3a3" stroke-width="1.51"/><path d="M777,-252L714,-41L889,-215Z" fill="#cbcbcb" stroke="#cbcbcb" stroke-width="1.51"/><path d="M790,400L856,369L858,225Z" fill="#6f6f6f" stroke="#6f6f6f" stroke-width="1.51"/><path d="M754,193L790,400L858,225Z" fill="#808080" stroke="#808080" stroke-width="1.51"/><path d="M714,-41L689,89L875,4Z" fill="#b4b4b4" stroke="#b4b4b4" stroke-width="1.51"/><path d="M568,-175L714,-41L777,-252Z" fill="#d2d2d2" stroke="#d2d2d2" stroke-width="1.51"/><path d="M754,193L612,282L790,400Z" fill="#818181" stroke="#818181" stroke-width="1.51"/><path d="M612,282L550,404L790,400Z" fill="#727272" stroke="#727272" stroke-width="1.51"/><path d="M-112,-234L82,-173L248,-174Z" fill="#f0f0f0" stroke="#f0f0f0" stroke-width="1.51"/><path d="M689,89L623,149L754,193Z" fill="#9f9f9f" stroke="#9f9f9f" stroke-width="1.51"/><path d="M623,149L612,282L754,193Z" fill="#959595" stroke="#959595" stroke-width="1.51"/><path d="M-112,-234L9,-187L82,-173Z" fill="#f3f3f3" stroke="#f3f3f3" stroke-width="1.51"/><path d="M558,-56L689,89L714,-41Z" fill="#bfbfbf" stroke="#bfbfbf" stroke-width="1.51"/><path d="M568,-175L558,-56L714,-41Z" fill="#cdcdcd" stroke="#cdcdcd" stroke-width="1.51"/><path d="M88,415L-19,447L379,446Z" fill="#757575" stroke="#757575" stroke-width="1.51"/><path d="M558,-56L623,149L689,89Z" fill="#b3b3b3" stroke="#b3b3b3" stroke-width="1.51"/><path d="M419,-25L439,148L558,-56Z" fill="#c2c2c2" stroke="#c2c2c2" stroke-width="1.51"/><path d="M439,148L612,282L623,149Z" fill="#9b9b9b" stroke="#9b9b9b" stroke-width="1.51"/><path d="M558,-56L439,148L623,149Z" fill="#b3b3b3" stroke="#b3b3b3" stroke-width="1.51"/><path d="M392,221L550,404L612,282Z" fill="#888888" stroke="#888888" stroke-width="1.51"/><path d="M439,148L392,221L612,282Z" fill="#9b9b9b" stroke="#9b9b9b" stroke-width="1.51"/><path d="M392,221L323,364L550,404Z" fill="#848484" stroke="#848484" stroke-width="1.51"/><path d="M385,-189L419,-25L558,-56Z" fill="#d5d5d5" stroke="#d5d5d5" stroke-width="1.51"/><path d="M385,-189L558,-56L568,-175Z" fill="#d9d9d9" stroke="#d9d9d9" stroke-width="1.51"/><path d="M323,364L379,446L550,404Z" fill="#717171" stroke="#717171" stroke-width="1.51"/><path d="M327,271L323,364L392,221Z" fill="#949494" stroke="#949494" stroke-width="1.51"/><path d="M385,-189L338,-105L419,-25Z" fill="#dadada" stroke="#dadada" stroke-width="1.51"/><path d="M419,-25L320,114L439,148Z" fill="#bababa" stroke="#bababa" stroke-width="1.51"/><path d="M320,114L392,221L439,148Z" fill="#aaaaaa" stroke="#aaaaaa" stroke-width="1.51"/><path d="M338,-105L320,114L419,-25Z" fill="#cccccc" stroke="#cccccc" stroke-width="1.51"/><path d="M320,114L327,271L392,221Z" fill="#a3a3a3" stroke="#a3a3a3" stroke-width="1.51"/><path d="M161,-86L320,114L338,-105Z" fill="#d3d3d3" stroke="#d3d3d3" stroke-width="1.51"/><path d="M323,364L88,415L379,446Z" fill="#767676" stroke="#767676" stroke-width="1.51"/><path d="M248,-174L338,-105L385,-189Z" fill="#e3e3e3" stroke="#e3e3e3" stroke-width="1.51"/><path d="M161,-86L166,138L320,114Z" fill="#c6c6c6" stroke="#c6c6c6" stroke-width="1.51"/><path d="M320,114L166,138L327,271Z" fill="#acacac" stroke="#acacac" stroke-width="1.51"/><path d="M248,-174L161,-86L338,-105Z" fill="#e1e1e1" stroke="#e1e1e1" stroke-width="1.51"/><path d="M118,257L323,364L327,271Z" fill="#949494" stroke="#949494" stroke-width="1.51"/><path d="M166,138L118,257L327,271Z" fill="#a5a5a5" stroke="#a5a5a5" stroke-width="1.51"/><path d="M118,257L88,415L323,364Z" fill="#898989" stroke="#898989" stroke-width="1.51"/><path d="M82,-173L161,-86L248,-174Z" fill="#e7e7e7" stroke="#e7e7e7" stroke-width="1.51"/><path d="M12,74L118,257L166,138Z" fill="#b5b5b5" stroke="#b5b5b5" stroke-width="1.51"/><path d="M161,-86L13,-17L166,138Z" fill="#d3d3d3" stroke="#d3d3d3" stroke-width="1.51"/><path d="M13,-17L12,74L166,138Z" fill="#c9c9c9" stroke="#c9c9c9" stroke-width="1.51"/><path d="M82,-173L13,-17L161,-86Z" fill="#e4e4e4" stroke="#e4e4e4" stroke-width="1.51"/><path d="M-66,301L88,415L118,257Z" fill="#939393" stroke="#939393" stroke-width="1.51"/><path d="M12,74L-66,301L118,257Z" fill="#adadad" stroke="#adadad" stroke-width="1.51"/><path d="M-135,203L-66,301L12,74Z" fill="#b2b2b2" stroke="#b2b2b2" stroke-width="1.51"/><path d="M9,-187L13,-17L82,-173Z" fill="#e9e9e9" stroke="#e9e9e9" stroke-width="1.51"/><path d="M-66,301L-19,447L88,415Z" fill="#838383" stroke="#838383" stroke-width="1.51"/><path d="M-66,301L-121,352L-19,447Z" fill="#8a8a8a" stroke="#8a8a8a" stroke-width="1.51"/><path d="M-112,-234L-167,-22L9,-187Z" fill="#efefef" stroke="#efefef" stroke-width="1.51"/><path d="M-201,71L-135,203L12,74Z" fill="#c3c3c3" stroke="#c3c3c3" stroke-width="1.51"/><path d="M-167,-22L-201,71L12,74Z" fill="#d3d3d3" stroke="#d3d3d3" stroke-width="1.51"/><path d="M-167,-22L12,74L13,-17Z" fill="#d8d8d8" stroke="#d8d8d8" stroke-width="1.51"/><path d="M9,-187L-167,-22L13,-17Z" fill="#e5e5e5" stroke="#e5e5e5" stroke-width="1.51"/><path d="M-135,203L-121,352L-66,301Z" fill="#a2a2a2" stroke="#a2a2a2" stroke-width="1.51"/><path d="M-201,71L-167,-22L-112,-234Z" fill="#e6e6e6" stroke="#e6e6e6" stroke-width="1.51"/><path d="M-135,203L-201,71L-121,352Z" fill="#b2b2b2" stroke="#b2b2b2" stroke-width="1.51"/></svg>