<svg xmlns="http://www.w3.org/2000/svg" width="1920" height="1080"><path d="M4,-234L377,-219L738,-257Z" fill="#dcf1d7" stroke="#dcf1d7" stroke-width="1.51"/><path d="M81,1329L9,1338L909,1347Z" fill="#68966b" stroke="#68966b" stroke-width="1.51"/><path d="M4,-234L738,-257L1128,-270Z" fill="#cdebc8" stroke="#cdebc8" stroke-width="1.51"/><path d="M738,-257L856,-255L1128,-270Z" fill="#bae2b7" stroke="#bae2b7" stroke-width="1.51"/><path d="M1128,-270L1339,-226L1430,-223Z" fill="#9ed1a3" stroke="#9ed1a3" stroke-width="1.51"/><path d="M1128,-270L1430,-223L1668,-249Z" fill="#99cb9f" stroke="#99cb9f" stroke-width="1.51"/><path d="M1821,1280L1600,1264L1995,1317Z" fill="#036228" stroke="#036228" stroke-width="1.51"/><path d="M1600,1264L1177,1295L1995,1317Z" fill="#106c31" stroke="#106c31" stroke-width="1.51"/><path d="M1177,1295L909,1347L1995,1317Z" fill="#1c7539" stroke="#1c7539" stroke-width="1.51"/><path d="M1986,677L2023,697L2064,477Z" fill="#358747" stroke="#358747" stroke-width="1.51"/><path d="M1995,1317L909,1347L2067,1327Z" fill="#0c652d" stroke="#0c652d" stroke-width="1.51"/><path d="M2064,477L2023,697L2074,783Z" fill="#318243" stroke="#318243" stroke-width="1.51"/><path d="M2047,89L1989,120L2081,301Z" fill="#669a69" stroke="#669a69" stroke-width="1.51"/><path d="M2063,428L2064,477L2081,301Z" fill="#4e8f55" stroke="#4e8f55" stroke-width="1.51"/><path d="M1668,-249L1877,-162L2121,-201Z" fill="#83b087" stroke="#83b087" stroke-width="1.51"/><path d="M2121,-201L1877,-162L2125,-15Z" fill="#7aa37e" stroke="#7aa37e" stroke-width="1.51"/><path d="M1877,-162L1884,-8L2125,-15Z" fill="#7aa87d" stroke="#7aa87d" stroke-width="1.51"/><path d="M2047,89L2081,301L2125,-15Z" fill="#68996b" stroke="#68996b" stroke-width="1.51"/><path d="M2074,783L1994,862L2141,1018Z" fill="#177235" stroke="#177235" stroke-width="1.51"/><path d="M1994,862L1993,1004L2141,1018Z" fill="#116e33" stroke="#116e33" stroke-width="1.51"/><path d="M2081,301L2064,477L2141,1018Z" fill="#378345" stroke="#378345" stroke-width="1.51"/><path d="M2064,477L2074,783L2141,1018Z" fill="#21793c" stroke="#21793c" stroke-width="1.51"/><path d="M1993,1004L2096,1173L2141,1018Z" fill="#08642b" stroke="#08642b" stroke-width="1.51"/><path d="M2096,1173L2067,1327L2141,1018Z" fill="#005b24" stroke="#005b24" stroke-width="1.51"/><path d="M2125,-15L2081,301L2141,1018Z" fill="#498a50" stroke="#498a50" stroke-width="1.51"/><path d="M1995,1317L2067,1327L2096,1173Z" fill="#005422" stroke="#005422" stroke-width="1.51"/><path d="M1884,-8L2047,89L2125,-15Z" fill="#72a175" stroke="#72a175" stroke-width="1.51"/><path d="M1893,581L1986,677L2064,477Z" fill="#3b8c4a" stroke="#3b8c4a" stroke-width="1.51"/><path d="M1989,120L1910,182L2081,301Z" fill="#649c68" stroke="#649c68" stroke-width="1.51"/><path d="M1921,351L2063,428L2081,301Z" fill="#54945a" stroke="#54945a" stroke-width="1.51"/><path d="M1904,1115L1995,1317L2096,1173Z" fill="#005f26" stroke="#005f26" stroke-width="1.51"/><path d="M1993,1004L1904,1115L2096,1173Z" fill="#06682b" stroke="#06682b" stroke-width="1.51"/><path d="M1910,182L1921,351L2081,301Z" fill="#5d9b63" stroke="#5d9b63" stroke-width="1.51"/><path d="M2023,697L1994,862L2074,783Z" fill="#207c3d" stroke="#207c3d" stroke-width="1.51"/><path d="M1668,-249L1736,-189L1877,-162Z" fill="#88b78c" stroke="#88b78c" stroke-width="1.51"/><path d="M1884,-8L1989,120L2047,89Z" fill="#70a373" stroke="#70a373" stroke-width="1.51"/><path d="M2063,428L1921,351L2064,477Z" fill="#4e9155" stroke="#4e9155" stroke-width="1.51"/><path d="M1921,351L1847,499L2064,477Z" fill="#4d9655" stroke="#4d9655" stroke-width="1.51"/><path d="M1847,499L1893,581L2064,477Z" fill="#449350" stroke="#449350" stroke-width="1.51"/><path d="M1986,677L1994,862L2023,697Z" fill="#238140" stroke="#238140" stroke-width="1.51"/><path d="M1986,677L1817,739L1994,862Z" fill="#238541" stroke="#238541" stroke-width="1.51"/><path d="M1904,1115L1821,1280L1995,1317Z" fill="#006127" stroke="#006127" stroke-width="1.51"/><path d="M1747,986L1993,1004L1994,862Z" fill="#137837" stroke="#137837" stroke-width="1.51"/><path d="M1741,805L1747,986L1994,862Z" fill="#1c823e" stroke="#1c823e" stroke-width="1.51"/><path d="M1884,-8L1910,182L1989,120Z" fill="#6fa573" stroke="#6fa573" stroke-width="1.51"/><path d="M1817,739L1741,805L1994,862Z" fill="#228841" stroke="#228841" stroke-width="1.51"/><path d="M1747,986L1904,1115L1993,1004Z" fill="#0c7433" stroke="#0c7433" stroke-width="1.51"/><path d="M1442,1237L1177,1295L1600,1264Z" fill="#1b7839" stroke="#1b7839" stroke-width="1.51"/><path d="M1893,581L1817,739L1986,677Z" fill="#318e48" stroke="#318e48" stroke-width="1.51"/><path d="M1877,-162L1796,-4L1884,-8Z" fill="#7eb081" stroke="#7eb081" stroke-width="1.51"/><path d="M1785,1175L1821,1280L1904,1115Z" fill="#016b2b" stroke="#016b2b" stroke-width="1.51"/><path d="M1727,240L1831,381L1910,182Z" fill="#63a669" stroke="#63a669" stroke-width="1.51"/><path d="M1884,-8L1796,-4L1910,182Z" fill="#75ac78" stroke="#75ac78" stroke-width="1.51"/><path d="M1796,-4L1747,152L1910,182Z" fill="#73ac76" stroke="#73ac76" stroke-width="1.51"/><path d="M1831,381L1847,499L1921,351Z" fill="#539d5b" stroke="#539d5b" stroke-width="1.51"/><path d="M1910,182L1831,381L1921,351Z" fill="#5da163" stroke="#5da163" stroke-width="1.51"/><path d="M1747,986L1785,1175L1904,1115Z" fill="#0b7432" stroke="#0b7432" stroke-width="1.51"/><path d="M1747,152L1727,240L1910,182Z" fill="#6caa70" stroke="#6caa70" stroke-width="1.51"/><path d="M1736,-189L1796,-4L1877,-162Z" fill="#83b487" stroke="#83b487" stroke-width="1.51"/><path d="M1847,499L1817,739L1893,581Z" fill="#3b944d" stroke="#3b944d" stroke-width="1.51"/><path d="M1588,588L1817,739L1847,499Z" fill="#3e9951" stroke="#3e9951" stroke-width="1.51"/><path d="M1588,588L1626,746L1817,739Z" fill="#36984f" stroke="#36984f" stroke-width="1.51"/><path d="M1687,426L1588,588L1847,499Z" fill="#4da15a" stroke="#4da15a" stroke-width="1.51"/><path d="M1831,381L1687,426L1847,499Z" fill="#52a15c" stroke="#52a15c" stroke-width="1.51"/><path d="M1671,110L1747,152L1796,-4Z" fill="#77b17b" stroke="#77b17b" stroke-width="1.51"/><path d="M1727,240L1687,426L1831,381Z" fill="#5ea765" stroke="#5ea765" stroke-width="1.51"/><path d="M1741,805L1692,978L1747,986Z" fill="#1e853f" stroke="#1e853f" stroke-width="1.51"/><path d="M1747,986L1611,1130L1785,1175Z" fill="#117835" stroke="#117835" stroke-width="1.51"/><path d="M1736,-189L1629,-2L1796,-4Z" fill="#83b788" stroke="#83b788" stroke-width="1.51"/><path d="M1689,800L1741,805L1817,739Z" fill="#288e47" stroke="#288e47" stroke-width="1.51"/><path d="M1626,746L1689,800L1817,739Z" fill="#2b9249" stroke="#2b9249" stroke-width="1.51"/><path d="M1785,1175L1600,1264L1821,1280Z" fill="#086b2d" stroke="#086b2d" stroke-width="1.51"/><path d="M1689,800L1692,978L1741,805Z" fill="#248a44" stroke="#248a44" stroke-width="1.51"/><path d="M1692,978L1611,1130L1747,986Z" fill="#187f3b" stroke="#187f3b" stroke-width="1.51"/><path d="M1629,-2L1671,110L1796,-4Z" fill="#7db581" stroke="#7db581" stroke-width="1.51"/><path d="M1648,250L1687,426L1727,240Z" fill="#65ac6b" stroke="#65ac6b" stroke-width="1.51"/><path d="M1611,1130L1600,1264L1785,1175Z" fill="#0d7332" stroke="#0d7332" stroke-width="1.51"/><path d="M1671,110L1648,250L1727,240Z" fill="#70b075" stroke="#70b075" stroke-width="1.51"/><path d="M1668,-249L1629,-2L1736,-189Z" fill="#89ba8e" stroke="#89ba8e" stroke-width="1.51"/><path d="M1671,110L1727,240L1747,152Z" fill="#71b076" stroke="#71b076" stroke-width="1.51"/><path d="M1689,800L1511,893L1692,978Z" fill="#258c45" stroke="#258c45" stroke-width="1.51"/><path d="M1485,-14L1629,-2L1668,-249Z" fill="#8abe8f" stroke="#8abe8f" stroke-width="1.51"/><path d="M1430,-223L1485,-14L1668,-249Z" fill="#8fc395" stroke="#8fc395" stroke-width="1.51"/><path d="M1529,205L1648,250L1671,110Z" fill="#73b479" stroke="#73b479" stroke-width="1.51"/><path d="M1648,250L1443,399L1687,426Z" fill="#63af6b" stroke="#63af6b" stroke-width="1.51"/><path d="M1626,746L1511,893L1689,800Z" fill="#2c934b" stroke="#2c934b" stroke-width="1.51"/><path d="M1504,1114L1611,1130L1692,978Z" fill="#18803b" stroke="#18803b" stroke-width="1.51"/><path d="M1511,893L1504,1114L1692,978Z" fill="#208742" stroke="#208742" stroke-width="1.51"/><path d="M1443,399L1588,588L1687,426Z" fill="#56aa62" stroke="#56aa62" stroke-width="1.51"/><path d="M1441,1034L1504,1114L1511,893Z" fill="#238a44" stroke="#238a44" stroke-width="1.51"/><path d="M1529,205L1443,399L1648,250Z" fill="#6db574" stroke="#6db574" stroke-width="1.51"/><path d="M1629,-2L1510,27L1671,110Z" fill="#80ba85" stroke="#80ba85" stroke-width="1.51"/><path d="M1510,27L1529,205L1671,110Z" fill="#7cba81" stroke="#7cba81" stroke-width="1.51"/><path d="M1443,399L1501,595L1588,588Z" fill="#52aa60" stroke="#52aa60" stroke-width="1.51"/><path d="M1588,588L1474,714L1626,746Z" fill="#3c9f55" stroke="#3c9f55" stroke-width="1.51"/><path d="M1295,1232L1177,1295L1442,1237Z" fill="#217f3e" stroke="#217f3e" stroke-width="1.51"/><path d="M1501,595L1474,714L1588,588Z" fill="#45a459" stroke="#45a459" stroke-width="1.51"/><path d="M1504,1114L1600,1264L1611,1130Z" fill="#137a37" stroke="#137a37" stroke-width="1.51"/><path d="M1474,714L1511,893L1626,746Z" fill="#31994f" stroke="#31994f" stroke-width="1.51"/><path d="M1485,-14L1510,27L1629,-2Z" fill="#85be8a" stroke="#85be8a" stroke-width="1.51"/><path d="M1504,1114L1442,1237L1600,1264Z" fill="#167a38" stroke="#167a38" stroke-width="1.51"/><path d="M1443,399L1285,535L1501,595Z" fill="#59b166" stroke="#59b166" stroke-width="1.51"/><path d="M1474,714L1348,864L1511,893Z" fill="#339b51" stroke="#339b51" stroke-width="1.51"/><path d="M1384,180L1443,399L1529,205Z" fill="#72ba7a" stroke="#72ba7a" stroke-width="1.51"/><path d="M1510,27L1393,94L1529,205Z" fill="#80bf86" stroke="#80bf86" stroke-width="1.51"/><path d="M1393,94L1384,180L1529,205Z" fill="#7dbf83" stroke="#7dbf83" stroke-width="1.51"/><path d="M1384,180L1333,389L1443,399Z" fill="#70bb77" stroke="#70bb77" stroke-width="1.51"/><path d="M1430,-223L1326,-3L1485,-14Z" fill="#91c896" stroke="#91c896" stroke-width="1.51"/><path d="M1388,1097L1442,1237L1504,1114Z" fill="#1c823d" stroke="#1c823d" stroke-width="1.51"/><path d="M1485,-14L1393,94L1510,27Z" fill="#86c18c" stroke="#86c18c" stroke-width="1.51"/><path d="M1348,864L1441,1034L1511,893Z" fill="#2b934b" stroke="#2b934b" stroke-width="1.51"/><path d="M1319,738L1474,714L1501,595Z" fill="#42a65a" stroke="#42a65a" stroke-width="1.51"/><path d="M1285,535L1319,738L1501,595Z" fill="#4dac60" stroke="#4dac60" stroke-width="1.51"/><path d="M1441,1034L1388,1097L1504,1114Z" fill="#218741" stroke="#218741" stroke-width="1.51"/><path d="M1339,-226L1326,-3L1430,-223Z" fill="#97cc9c" stroke="#97cc9c" stroke-width="1.51"/><path d="M1319,738L1348,864L1474,714Z" fill="#39a256" stroke="#39a256" stroke-width="1.51"/><path d="M1348,864L1317,998L1441,1034Z" fill="#2c944b" stroke="#2c944b" stroke-width="1.51"/><path d="M1333,389L1285,535L1443,399Z" fill="#64b76e" stroke="#64b76e" stroke-width="1.51"/><path d="M1326,-3L1393,94L1485,-14Z" fill="#8ac68f" stroke="#8ac68f" stroke-width="1.51"/><path d="M1388,1097L1295,1232L1442,1237Z" fill="#1f823e" stroke="#1f823e" stroke-width="1.51"/><path d="M1317,998L1388,1097L1441,1034Z" fill="#278e46" stroke="#278e46" stroke-width="1.51"/><path d="M1229,353L1333,389L1384,180Z" fill="#74c07b" stroke="#74c07b" stroke-width="1.51"/><path d="M1184,-78L1326,-3L1339,-226Z" fill="#98d09d" stroke="#98d09d" stroke-width="1.51"/><path d="M1150,289L1229,353L1384,180Z" fill="#7ac581" stroke="#7ac581" stroke-width="1.51"/><path d="M1160,73L1384,180L1393,94Z" fill="#87c88c" stroke="#87c88c" stroke-width="1.51"/><path d="M1326,-3L1160,73L1393,94Z" fill="#8dca91" stroke="#8dca91" stroke-width="1.51"/><path d="M1317,998L1224,1018L1388,1097Z" fill="#2b924a" stroke="#2b924a" stroke-width="1.51"/><path d="M1224,1018L1295,1232L1388,1097Z" fill="#268c45" stroke="#268c45" stroke-width="1.51"/><path d="M1160,73L1150,289L1384,180Z" fill="#85c98a" stroke="#85c98a" stroke-width="1.51"/><path d="M426,1238L81,1329L909,1347Z" fill="#629765" stroke="#629765" stroke-width="1.51"/><path d="M1224,1018L1169,1174L1295,1232Z" fill="#2a8e46" stroke="#2a8e46" stroke-width="1.51"/><path d="M1285,535L1224,746L1319,738Z" fill="#4aae61" stroke="#4aae61" stroke-width="1.51"/><path d="M1247,518L1285,535L1333,389Z" fill="#62b96e" stroke="#62b96e" stroke-width="1.51"/><path d="M1224,1018L1317,998L1348,864Z" fill="#31984f" stroke="#31984f" stroke-width="1.51"/><path d="M1145,825L1224,1018L1348,864Z" fill="#38a055" stroke="#38a055" stroke-width="1.51"/><path d="M1224,746L1145,825L1348,864Z" fill="#3fa75a" stroke="#3fa75a" stroke-width="1.51"/><path d="M1319,738L1224,746L1348,864Z" fill="#3ca659" stroke="#3ca659" stroke-width="1.51"/><path d="M643,1250L426,1238L909,1347Z" fill="#57955c" stroke="#57955c" stroke-width="1.51"/><path d="M1229,353L1247,518L1333,389Z" fill="#6abd73" stroke="#6abd73" stroke-width="1.51"/><path d="M1128,-270L1184,-78L1339,-226Z" fill="#a0d5a4" stroke="#a0d5a4" stroke-width="1.51"/><path d="M1247,518L1224,746L1285,535Z" fill="#55b466" stroke="#55b466" stroke-width="1.51"/><path d="M1184,-78L1160,73L1326,-3Z" fill="#95d099" stroke="#95d099" stroke-width="1.51"/><path d="M1093,547L1224,746L1247,518Z" fill="#5ab668" stroke="#5ab668" stroke-width="1.51"/><path d="M1169,1174L1177,1295L1295,1232Z" fill="#298543" stroke="#298543" stroke-width="1.51"/><path d="M1145,825L1048,889L1224,1018Z" fill="#41a358" stroke="#41a358" stroke-width="1.51"/><path d="M1094,337L1093,547L1229,353Z" fill="#74c37a" stroke="#74c37a" stroke-width="1.51"/><path d="M1229,353L1093,547L1247,518Z" fill="#6abe72" stroke="#6abe72" stroke-width="1.51"/><path d="M1027,206L1150,289L1160,73Z" fill="#8ece8f" stroke="#8ece8f" stroke-width="1.51"/><path d="M1096,1256L909,1347L1177,1295Z" fill="#368545" stroke="#368545" stroke-width="1.51"/><path d="M973,713L1145,825L1224,746Z" fill="#4eb062" stroke="#4eb062" stroke-width="1.51"/><path d="M1093,547L973,713L1224,746Z" fill="#5ab668" stroke="#5ab668" stroke-width="1.51"/><path d="M1048,889L1038,1002L1224,1018Z" fill="#41a056" stroke="#41a056" stroke-width="1.51"/><path d="M1038,1002L1169,1174L1224,1018Z" fill="#38984f" stroke="#38984f" stroke-width="1.51"/><path d="M1150,289L1094,337L1229,353Z" fill="#7dc780" stroke="#7dc780" stroke-width="1.51"/><path d="M1128,-270L1072,-68L1184,-78Z" fill="#a4d7a6" stroke="#a4d7a6" stroke-width="1.51"/><path d="M976,-202L1072,-68L1128,-270Z" fill="#abdaab" stroke="#abdaab" stroke-width="1.51"/><path d="M1055,73L1027,206L1160,73Z" fill="#96d296" stroke="#96d296" stroke-width="1.51"/><path d="M1072,-68L1055,73L1160,73Z" fill="#9cd49d" stroke="#9cd49d" stroke-width="1.51"/><path d="M1038,1002L1008,1175L1169,1174Z" fill="#3b964e" stroke="#3b964e" stroke-width="1.51"/><path d="M1169,1174L1096,1256L1177,1295Z" fill="#308744" stroke="#308744" stroke-width="1.51"/><path d="M1072,-68L1160,73L1184,-78Z" fill="#9dd49e" stroke="#9dd49e" stroke-width="1.51"/><path d="M1008,1175L1096,1256L1169,1174Z" fill="#368d48" stroke="#368d48" stroke-width="1.51"/><path d="M856,-255L976,-202L1128,-270Z" fill="#b3dfb1" stroke="#b3dfb1" stroke-width="1.51"/><path d="M973,713L1048,889L1145,825Z" fill="#50ae62" stroke="#50ae62" stroke-width="1.51"/><path d="M1027,206L1094,337L1150,289Z" fill="#87cb88" stroke="#87cb88" stroke-width="1.51"/><path d="M907,332L1093,547L1094,337Z" fill="#7ec87f" stroke="#7ec87f" stroke-width="1.51"/><path d="M907,332L871,584L1093,547Z" fill="#7ac77a" stroke="#7ac77a" stroke-width="1.51"/><path d="M897,634L973,713L1093,547Z" fill="#68bd6f" stroke="#68bd6f" stroke-width="1.51"/><path d="M1027,206L907,332L1094,337Z" fill="#8bce8a" stroke="#8bce8a" stroke-width="1.51"/><path d="M1008,1175L909,1347L1096,1256Z" fill="#3c8b49" stroke="#3c8b49" stroke-width="1.51"/><path d="M871,584L897,634L1093,547Z" fill="#6fc173" stroke="#6fc173" stroke-width="1.51"/><path d="M973,713L859,806L1048,889Z" fill="#58b366" stroke="#58b366" stroke-width="1.51"/><path d="M976,-202L830,-34L1072,-68Z" fill="#afddab" stroke="#afddab" stroke-width="1.51"/><path d="M830,-34L904,63L1072,-68Z" fill="#abdca7" stroke="#abdca7" stroke-width="1.51"/><path d="M904,63L1055,73L1072,-68Z" fill="#a3d8a0" stroke="#a3d8a0" stroke-width="1.51"/><path d="M899,227L907,332L1027,206Z" fill="#94d290" stroke="#94d290" stroke-width="1.51"/><path d="M851,1142L1008,1175L1038,1002Z" fill="#469c53" stroke="#469c53" stroke-width="1.51"/><path d="M887,964L851,1142L1038,1002Z" fill="#4da25a" stroke="#4da25a" stroke-width="1.51"/><path d="M887,964L1038,1002L1048,889Z" fill="#4ca65c" stroke="#4ca65c" stroke-width="1.51"/><path d="M904,63L1027,206L1055,73Z" fill="#9dd69a" stroke="#9dd69a" stroke-width="1.51"/><path d="M859,806L887,964L1048,889Z" fill="#55ad63" stroke="#55ad63" stroke-width="1.51"/><path d="M904,63L899,227L1027,206Z" fill="#9cd698" stroke="#9cd698" stroke-width="1.51"/><path d="M851,1142L909,1347L1008,1175Z" fill="#44924f" stroke="#44924f" stroke-width="1.51"/><path d="M851,1142L789,1260L909,1347Z" fill="#499252" stroke="#499252" stroke-width="1.51"/><path d="M856,-255L830,-34L976,-202Z" fill="#b7e1b3" stroke="#b7e1b3" stroke-width="1.51"/><path d="M897,634L859,806L973,713Z" fill="#64bb6e" stroke="#64bb6e" stroke-width="1.51"/><path d="M737,-108L830,-34L856,-255Z" fill="#bbe3b6" stroke="#bbe3b6" stroke-width="1.51"/><path d="M743,340L773,586L871,584Z" fill="#85cc83" stroke="#85cc83" stroke-width="1.51"/><path d="M782,967L851,1142L887,964Z" fill="#54a560" stroke="#54a560" stroke-width="1.51"/><path d="M859,806L770,848L887,964Z" fill="#5eb269" stroke="#5eb269" stroke-width="1.51"/><path d="M770,848L782,967L887,964Z" fill="#5cae67" stroke="#5cae67" stroke-width="1.51"/><path d="M689,678L859,806L897,634Z" fill="#6cbf75" stroke="#6cbf75" stroke-width="1.51"/><path d="M773,586L689,678L897,634Z" fill="#77c57b" stroke="#77c57b" stroke-width="1.51"/><path d="M738,102L739,257L899,227Z" fill="#a5da9f" stroke="#a5da9f" stroke-width="1.51"/><path d="M738,102L899,227L904,63Z" fill="#a6dba1" stroke="#a6dba1" stroke-width="1.51"/><path d="M743,340L871,584L907,332Z" fill="#8bce88" stroke="#8bce88" stroke-width="1.51"/><path d="M899,227L739,257L907,332Z" fill="#99d595" stroke="#99d595" stroke-width="1.51"/><path d="M739,257L743,340L907,332Z" fill="#9ad594" stroke="#9ad594" stroke-width="1.51"/><path d="M789,1260L643,1250L909,1347Z" fill="#4d9054" stroke="#4d9054" stroke-width="1.51"/><path d="M830,-34L738,102L904,63Z" fill="#afdeaa" stroke="#afdeaa" stroke-width="1.51"/><path d="M782,967L776,1149L851,1142Z" fill="#54a25e" stroke="#54a25e" stroke-width="1.51"/><path d="M871,584L773,586L897,634Z" fill="#76c579" stroke="#76c579" stroke-width="1.51"/><path d="M738,-257L737,-108L856,-255Z" fill="#c1e5bc" stroke="#c1e5bc" stroke-width="1.51"/><path d="M776,1149L789,1260L851,1142Z" fill="#4f9a58" stroke="#4f9a58" stroke-width="1.51"/><path d="M689,678L770,848L859,806Z" fill="#69bb73" stroke="#69bb73" stroke-width="1.51"/><path d="M743,340L616,523L773,586Z" fill="#8ed08a" stroke="#8ed08a" stroke-width="1.51"/><path d="M640,1079L776,1149L782,967Z" fill="#5ba663" stroke="#5ba663" stroke-width="1.51"/><path d="M737,-108L738,102L830,-34Z" fill="#b7e1b2" stroke="#b7e1b2" stroke-width="1.51"/><path d="M737,-108L547,29L738,102Z" fill="#bce4b6" stroke="#bce4b6" stroke-width="1.51"/><path d="M634,-157L737,-108L738,-257Z" fill="#c5e7c0" stroke="#c5e7c0" stroke-width="1.51"/><path d="M639,808L583,985L770,848Z" fill="#6bb773" stroke="#6bb773" stroke-width="1.51"/><path d="M689,678L639,808L770,848Z" fill="#6fbe77" stroke="#6fbe77" stroke-width="1.51"/><path d="M770,848L583,985L782,967Z" fill="#64b16d" stroke="#64b16d" stroke-width="1.51"/><path d="M776,1149L643,1250L789,1260Z" fill="#53995a" stroke="#53995a" stroke-width="1.51"/><path d="M589,359L616,523L743,340Z" fill="#9ad695" stroke="#9ad695" stroke-width="1.51"/><path d="M583,985L640,1079L782,967Z" fill="#63ac6b" stroke="#63ac6b" stroke-width="1.51"/><path d="M291,1236L81,1329L426,1238Z" fill="#6fa072" stroke="#6fa072" stroke-width="1.51"/><path d="M640,1079L643,1250L776,1149Z" fill="#59a160" stroke="#59a160" stroke-width="1.51"/><path d="M738,102L641,273L739,257Z" fill="#a9dda3" stroke="#a9dda3" stroke-width="1.51"/><path d="M616,523L689,678L773,586Z" fill="#82ca83" stroke="#82ca83" stroke-width="1.51"/><path d="M566,-106L547,29L737,-108Z" fill="#c5e8be" stroke="#c5e8be" stroke-width="1.51"/><path d="M634,-157L566,-106L737,-108Z" fill="#c6e9c1" stroke="#c6e9c1" stroke-width="1.51"/><path d="M547,29L641,273L738,102Z" fill="#b5e1ae" stroke="#b5e1ae" stroke-width="1.51"/><path d="M377,-219L634,-157L738,-257Z" fill="#ceecc8" stroke="#ceecc8" stroke-width="1.51"/><path d="M739,257L641,273L743,340Z" fill="#a2d99c" stroke="#a2d99c" stroke-width="1.51"/><path d="M641,273L589,359L743,340Z" fill="#a2da9c" stroke="#a2da9c" stroke-width="1.51"/><path d="M570,666L639,808L689,678Z" fill="#79c47f" stroke="#79c47f" stroke-width="1.51"/><path d="M616,523L570,666L689,678Z" fill="#85cb85" stroke="#85cb85" stroke-width="1.51"/><path d="M4,-234L122,-195L377,-219Z" fill="#e6f6e1" stroke="#e6f6e1" stroke-width="1.51"/><path d="M589,359L491,447L616,523Z" fill="#9cd697" stroke="#9cd697" stroke-width="1.51"/><path d="M377,-219L566,-106L634,-157Z" fill="#cfecc9" stroke="#cfecc9" stroke-width="1.51"/><path d="M384,877L469,980L639,808Z" fill="#76bb7c" stroke="#76bb7c" stroke-width="1.51"/><path d="M570,666L480,709L639,808Z" fill="#7cc682" stroke="#7cc682" stroke-width="1.51"/><path d="M469,980L583,985L639,808Z" fill="#6fb676" stroke="#6fb676" stroke-width="1.51"/><path d="M429,1088L426,1238L640,1079Z" fill="#68a86d" stroke="#68a86d" stroke-width="1.51"/><path d="M547,29L388,231L641,273Z" fill="#b8e3b1" stroke="#b8e3b1" stroke-width="1.51"/><path d="M640,1079L426,1238L643,1250Z" fill="#61a165" stroke="#61a165" stroke-width="1.51"/><path d="M480,709L384,877L639,808Z" fill="#7bc382" stroke="#7bc382" stroke-width="1.51"/><path d="M388,231L589,359L641,273Z" fill="#addea6" stroke="#addea6" stroke-width="1.51"/><path d="M583,985L429,1088L640,1079Z" fill="#69ad6f" stroke="#69ad6f" stroke-width="1.51"/><path d="M122,-195L305,-196L377,-219Z" fill="#e0f3db" stroke="#e0f3db" stroke-width="1.51"/><path d="M439,27L388,231L547,29Z" fill="#c4e8bc" stroke="#c4e8bc" stroke-width="1.51"/><path d="M491,447L381,599L570,666Z" fill="#93d291" stroke="#93d291" stroke-width="1.51"/><path d="M469,980L429,1088L583,985Z" fill="#6eb174" stroke="#6eb174" stroke-width="1.51"/><path d="M491,447L570,666L616,523Z" fill="#91d18e" stroke="#91d18e" stroke-width="1.51"/><path d="M445,-20L547,29L566,-106Z" fill="#c9eac2" stroke="#c9eac2" stroke-width="1.51"/><path d="M381,599L480,709L570,666Z" fill="#8acd8c" stroke="#8acd8c" stroke-width="1.51"/><path d="M388,231L491,447L589,359Z" fill="#abdda4" stroke="#abdda4" stroke-width="1.51"/><path d="M388,231L347,280L491,447Z" fill="#b3e0ac" stroke="#b3e0ac" stroke-width="1.51"/><path d="M377,-219L445,-20L566,-106Z" fill="#d1edcb" stroke="#d1edcb" stroke-width="1.51"/><path d="M445,-20L439,27L547,29Z" fill="#c8eac1" stroke="#c8eac1" stroke-width="1.51"/><path d="M297,143L388,231L439,27Z" fill="#c5e8be" stroke="#c5e8be" stroke-width="1.51"/><path d="M377,-219L325,-18L445,-20Z" fill="#d5efcf" stroke="#d5efcf" stroke-width="1.51"/><path d="M277,781L384,877L480,709Z" fill="#84c689" stroke="#84c689" stroke-width="1.51"/><path d="M315,361L381,599L491,447Z" fill="#a4d99f" stroke="#a4d99f" stroke-width="1.51"/><path d="M347,280L315,361L491,447Z" fill="#b0dfa9" stroke="#b0dfa9" stroke-width="1.51"/><path d="M337,1033L429,1088L469,980Z" fill="#73b278" stroke="#73b278" stroke-width="1.51"/><path d="M381,599L294,653L480,709Z" fill="#91cf92" stroke="#91cf92" stroke-width="1.51"/><path d="M294,653L277,781L480,709Z" fill="#8ccc90" stroke="#8ccc90" stroke-width="1.51"/><path d="M305,-196L325,-18L377,-219Z" fill="#daf1d5" stroke="#daf1d5" stroke-width="1.51"/><path d="M384,877L337,1033L469,980Z" fill="#78b87e" stroke="#78b87e" stroke-width="1.51"/><path d="M315,361L293,597L381,599Z" fill="#a2d89e" stroke="#a2d89e" stroke-width="1.51"/><path d="M310,1105L291,1236L426,1238Z" fill="#6fa672" stroke="#6fa672" stroke-width="1.51"/><path d="M310,1105L426,1238L429,1088Z" fill="#6eaa72" stroke="#6eaa72" stroke-width="1.51"/><path d="M325,-18L297,143L439,27Z" fill="#cdecc6" stroke="#cdecc6" stroke-width="1.51"/><path d="M325,-18L439,27L445,-20Z" fill="#ceecc7" stroke="#ceecc7" stroke-width="1.51"/><path d="M337,1033L310,1105L429,1088Z" fill="#74b078" stroke="#74b078" stroke-width="1.51"/><path d="M194,1010L337,1033L384,877Z" fill="#7db982" stroke="#7db982" stroke-width="1.51"/><path d="M297,143L347,280L388,231Z" fill="#c0e6b9" stroke="#c0e6b9" stroke-width="1.51"/><path d="M293,597L294,653L381,599Z" fill="#98d398" stroke="#98d398" stroke-width="1.51"/><path d="M277,781L194,1010L384,877Z" fill="#83c088" stroke="#83c088" stroke-width="1.51"/><path d="M154,396L293,597L315,361Z" fill="#aedda8" stroke="#aedda8" stroke-width="1.51"/><path d="M151,46L297,143L325,-18Z" fill="#d1edcb" stroke="#d1edcb" stroke-width="1.51"/><path d="M305,-196L112,-67L325,-18Z" fill="#dcf2d7" stroke="#dcf2d7" stroke-width="1.51"/><path d="M177,282L315,361L347,280Z" fill="#bbe4b4" stroke="#bbe4b4" stroke-width="1.51"/><path d="M297,143L177,282L347,280Z" fill="#c2e7bb" stroke="#c2e7bb" stroke-width="1.51"/><path d="M194,1010L310,1105L337,1033Z" fill="#7ab47e" stroke="#7ab47e" stroke-width="1.51"/><path d="M154,396L110,589L293,597Z" fill="#a9dba5" stroke="#a9dba5" stroke-width="1.51"/><path d="M122,-195L112,-67L305,-196Z" fill="#e2f4dd" stroke="#e2f4dd" stroke-width="1.51"/><path d="M112,-67L151,46L325,-18Z" fill="#d9f1d3" stroke="#d9f1d3" stroke-width="1.51"/><path d="M82,808L194,1010L277,781Z" fill="#8ac48f" stroke="#8ac48f" stroke-width="1.51"/><path d="M193,654L277,781L294,653Z" fill="#94cf96" stroke="#94cf96" stroke-width="1.51"/><path d="M87,1178L291,1236L310,1105Z" fill="#75ab79" stroke="#75ab79" stroke-width="1.51"/><path d="M177,282L154,396L315,361Z" fill="#bae4b4" stroke="#bae4b4" stroke-width="1.51"/><path d="M194,1010L87,1178L310,1105Z" fill="#7bb27f" stroke="#7bb27f" stroke-width="1.51"/><path d="M110,589L193,654L293,597Z" fill="#9fd59e" stroke="#9fd59e" stroke-width="1.51"/><path d="M293,597L193,654L294,653Z" fill="#9ad39a" stroke="#9ad39a" stroke-width="1.51"/><path d="M151,46L177,282L297,143Z" fill="#ccebc5" stroke="#ccebc5" stroke-width="1.51"/><path d="M87,1178L81,1329L291,1236Z" fill="#76a479" stroke="#76a479" stroke-width="1.51"/><path d="M193,654L82,808L277,781Z" fill="#92ce97" stroke="#92ce97" stroke-width="1.51"/><path d="M151,46L-5,206L177,282Z" fill="#cfecc9" stroke="#cfecc9" stroke-width="1.51"/><path d="M110,589L82,808L193,654Z" fill="#9bd39d" stroke="#9bd39d" stroke-width="1.51"/><path d="M-2,1131L87,1178L194,1010Z" fill="#80b483" stroke="#80b483" stroke-width="1.51"/><path d="M7,966L-2,1131L194,1010Z" fill="#85b98a" stroke="#85b98a" stroke-width="1.51"/><path d="M82,808L7,966L194,1010Z" fill="#8bc190" stroke="#8bc190" stroke-width="1.51"/><path d="M-18,372L110,589L154,396Z" fill="#b6e1b1" stroke="#b6e1b1" stroke-width="1.51"/><path d="M-18,372L154,396L177,282Z" fill="#c0e5b9" stroke="#c0e5b9" stroke-width="1.51"/><path d="M-5,206L-18,372L177,282Z" fill="#c8e9c2" stroke="#c8e9c2" stroke-width="1.51"/><path d="M-18,372L-57,573L110,589Z" fill="#b2dfae" stroke="#b2dfae" stroke-width="1.51"/><path d="M-41,631L82,808L110,589Z" fill="#a0d5a2" stroke="#a0d5a2" stroke-width="1.51"/><path d="M-67,68L-5,206L151,46Z" fill="#d9f0d2" stroke="#d9f0d2" stroke-width="1.51"/><path d="M-34,-7L-67,68L151,46Z" fill="#def2d8" stroke="#def2d8" stroke-width="1.51"/><path d="M112,-67L-34,-7L151,46Z" fill="#dff3d9" stroke="#dff3d9" stroke-width="1.51"/><path d="M9,1338L81,1329L87,1178Z" fill="#78a27b" stroke="#78a27b" stroke-width="1.51"/><path d="M4,-234L-34,-7L112,-67Z" fill="#e7f6e2" stroke="#e7f6e2" stroke-width="1.51"/><path d="M4,-234L112,-67L122,-195Z" fill="#e8f6e3" stroke="#e8f6e3" stroke-width="1.51"/><path d="M-63,889L7,966L82,808Z" fill="#90c696" stroke="#90c696" stroke-width="1.51"/><path d="M-57,573L-41,631L110,589Z" fill="#aadaa9" stroke="#aadaa9" stroke-width="1.51"/><path d="M-104,446L-57,573L-18,372Z" fill="#b9e2b5" stroke="#b9e2b5" stroke-width="1.51"/><path d="M-41,631L-106,867L82,808Z" fill="#99cf9e" stroke="#99cf9e" stroke-width="1.51"/><path d="M-2,1131L9,1338L87,1178Z" fill="#7daa80" stroke="#7daa80" stroke-width="1.51"/><path d="M-106,867L-63,889L82,808Z" fill="#94c999" stroke="#94c999" stroke-width="1.51"/><path d="M-175,705L-106,867L-41,631Z" fill="#9ed3a3" stroke="#9ed3a3" stroke-width="1.51"/><path d="M-219,263L-18,372L-5,206Z" fill="#ccebc7" stroke="#ccebc7" stroke-width="1.51"/><path d="M-67,68L-153,138L-5,206Z" fill="#d9f0d3" stroke="#d9f0d3" stroke-width="1.51"/><path d="M-173,967L-205,1153L-2,1131Z" fill="#89b88d" stroke="#89b88d" stroke-width="1.51"/><path d="M-205,1153L-196,1328L-2,1131Z" fill="#83ad86" stroke="#83ad86" stroke-width="1.51"/><path d="M-187,-112L-34,-7L4,-234Z" fill="#ebf7e6" stroke="#ebf7e6" stroke-width="1.51"/><path d="M-215,-198L-187,-112L4,-234Z" fill="#eff9eb" stroke="#eff9eb" stroke-width="1.51"/><path d="M-173,967L-2,1131L7,966Z" fill="#8abc8f" stroke="#8abc8f" stroke-width="1.51"/><path d="M-2,1131L-196,1328L9,1338Z" fill="#7da580" stroke="#7da580" stroke-width="1.51"/><path d="M-63,889L-173,967L7,966Z" fill="#90c295" stroke="#90c295" stroke-width="1.51"/><path d="M-153,138L-219,263L-5,206Z" fill="#d5eecf" stroke="#d5eecf" stroke-width="1.51"/><path d="M-219,263L-104,446L-18,372Z" fill="#c6e8c1" stroke="#c6e8c1" stroke-width="1.51"/><path d="M-133,593L-175,705L-41,631Z" fill="#a9d9a9" stroke="#a9d9a9" stroke-width="1.51"/><path d="M-187,-112L-67,68L-34,-7Z" fill="#e5f5e0" stroke="#e5f5e0" stroke-width="1.51"/><path d="M-104,446L-133,593L-57,573Z" fill="#b3dfb0" stroke="#b3dfb0" stroke-width="1.51"/><path d="M-57,573L-133,593L-41,631Z" fill="#acdbab" stroke="#acdbab" stroke-width="1.51"/><path d="M-187,-112L-153,138L-67,68Z" fill="#e3f5de" stroke="#e3f5de" stroke-width="1.51"/><path d="M-106,867L-173,967L-63,889Z" fill="#93c698" stroke="#93c698" stroke-width="1.51"/><path d="M-175,705L-173,967L-106,867Z" fill="#98cb9e" stroke="#98cb9e" stroke-width="1.51"/><path d="M-219,263L-133,593L-104,446Z" fill="#c0e5bb" stroke="#c0e5bb" stroke-width="1.51"/><path d="M-219,263L-175,705L-133,593Z" fill="#b7e1b4" stroke="#b7e1b4" stroke-width="1.51"/><path d="M-187,-112L-219,263L-153,138Z" fill="#e0f3db" stroke="#e0f3db" stroke-width="1.51"/><path d="M-215,-198L-219,263L-187,-112Z" fill="#e9f6e4" stroke="#e9f6e4" stroke-width="1.51"/><path d="M-175,705L-205,1153L-173,967Z" fill="#93c498" stroke="#93c498" stroke-width="1.51"/><path d="M-219,263L-205,1153L-175,705Z" fill="#a5d6a8" stroke="#a5d6a8" stroke-width="1.51"/></svg>