<svg xmlns="http://www.w3.org/2000/svg" width="1920" height="700"><path d="M577,-234L866,-221L1090,-236Z" fill="#ffc69a" stroke="#ffc69a" stroke-width="1.51"/><path d="M1073,921L784,928L1359,932Z" fill="#be5418" stroke="#be5418" stroke-width="1.51"/><path d="M1349,-188L1426,-167L1638,-163Z" fill="#faa275" stroke="#faa275" stroke-width="1.51"/><path d="M1498,924L1359,932L1776,932Z" fill="#ae3904" stroke="#ae3904" stroke-width="1.51"/><path d="M1349,-188L1638,-163L1847,-197Z" fill="#f29c73" stroke="#f29c73" stroke-width="1.51"/><path d="M1090,-236L1349,-188L1847,-197Z" fill="#fca679" stroke="#fca679" stroke-width="1.51"/><path d="M1993,-171L1984,-85L2030,-38Z" fill="#cf8a66" stroke="#cf8a66" stroke-width="1.51"/><path d="M1090,-236L1847,-197L2045,-233Z" fill="#ee9c76" stroke="#ee9c76" stroke-width="1.51"/><path d="M1993,-171L2030,-38L2045,-233Z" fill="#ce8b6a" stroke="#ce8b6a" stroke-width="1.51"/><path d="M2030,-38L1933,124L2085,171Z" fill="#ca7b4b" stroke="#ca7b4b" stroke-width="1.51"/><path d="M2043,584L1917,733L2101,780Z" fill="#ac3803" stroke="#ac3803" stroke-width="1.51"/><path d="M2030,-38L2085,171L2110,212Z" fill="#c67545" stroke="#c67545" stroke-width="1.51"/><path d="M2045,-233L2030,-38L2110,212Z" fill="#c9825a" stroke="#c9825a" stroke-width="1.51"/><path d="M1919,473L2043,584L2129,390Z" fill="#c04c0d" stroke="#c04c0d" stroke-width="1.51"/><path d="M2110,212L1885,270L2129,390Z" fill="#c56329" stroke="#c56329" stroke-width="1.51"/><path d="M1885,270L1919,473L2129,390Z" fill="#c85b1c" stroke="#c85b1c" stroke-width="1.51"/><path d="M2043,584L2101,780L2129,390Z" fill="#b44006" stroke="#b44006" stroke-width="1.51"/><path d="M1948,599L1917,733L2043,584Z" fill="#b93d03" stroke="#b93d03" stroke-width="1.51"/><path d="M1917,733L1988,832L2101,780Z" fill="#9f3304" stroke="#9f3304" stroke-width="1.51"/><path d="M1988,832L2074,899L2101,780Z" fill="#942f04" stroke="#942f04" stroke-width="1.51"/><path d="M2085,171L1885,270L2110,212Z" fill="#c76c35" stroke="#c76c35" stroke-width="1.51"/><path d="M1988,832L1776,932L2074,899Z" fill="#952f04" stroke="#952f04" stroke-width="1.51"/><path d="M1933,124L1885,270L2085,171Z" fill="#cb7139" stroke="#cb7139" stroke-width="1.51"/><path d="M1919,473L1948,599L2043,584Z" fill="#bf4708" stroke="#bf4708" stroke-width="1.51"/><path d="M1847,-197L1993,-171L2045,-233Z" fill="#d4906f" stroke="#d4906f" stroke-width="1.51"/><path d="M1984,-85L1824,31L2030,-38Z" fill="#d2875d" stroke="#d2875d" stroke-width="1.51"/><path d="M1824,31L1933,124L2030,-38Z" fill="#d18253" stroke="#d18253" stroke-width="1.51"/><path d="M1885,270L1824,303L1919,473Z" fill="#d06120" stroke="#d06120" stroke-width="1.51"/><path d="M1847,-197L1984,-85L1993,-171Z" fill="#d48e6b" stroke="#d48e6b" stroke-width="1.51"/><path d="M1917,733L1776,932L1988,832Z" fill="#9f3403" stroke="#9f3403" stroke-width="1.51"/><path d="M1847,-197L1824,31L1984,-85Z" fill="#d78d65" stroke="#d78d65" stroke-width="1.51"/><path d="M1789,709L1776,932L1917,733Z" fill="#aa3703" stroke="#aa3703" stroke-width="1.51"/><path d="M1824,303L1769,459L1919,473Z" fill="#d15b18" stroke="#d15b18" stroke-width="1.51"/><path d="M1789,709L1917,733L1948,599Z" fill="#b83c03" stroke="#b83c03" stroke-width="1.51"/><path d="M1777,580L1789,709L1948,599Z" fill="#c34203" stroke="#c34203" stroke-width="1.51"/><path d="M1919,473L1777,580L1948,599Z" fill="#c54907" stroke="#c54907" stroke-width="1.51"/><path d="M1745,110L1885,270L1933,124Z" fill="#d4763e" stroke="#d4763e" stroke-width="1.51"/><path d="M1824,31L1745,110L1933,124Z" fill="#d7804d" stroke="#d7804d" stroke-width="1.51"/><path d="M1769,459L1777,580L1919,473Z" fill="#ce500a" stroke="#ce500a" stroke-width="1.51"/><path d="M1679,838L1776,932L1789,709Z" fill="#ac3803" stroke="#ac3803" stroke-width="1.51"/><path d="M1638,-163L1824,31L1847,-197Z" fill="#e2926a" stroke="#e2926a" stroke-width="1.51"/><path d="M1745,110L1824,303L1885,270Z" fill="#d67135" stroke="#d67135" stroke-width="1.51"/><path d="M1638,-163L1608,10L1824,31Z" fill="#e89062" stroke="#e89062" stroke-width="1.51"/><path d="M1608,10L1696,91L1824,31Z" fill="#e38a56" stroke="#e38a56" stroke-width="1.51"/><path d="M1696,91L1745,110L1824,31Z" fill="#df854f" stroke="#df854f" stroke-width="1.51"/><path d="M1745,110L1578,215L1824,303Z" fill="#df7738" stroke="#df7738" stroke-width="1.51"/><path d="M1578,215L1634,407L1824,303Z" fill="#e26d28" stroke="#e26d28" stroke-width="1.51"/><path d="M1634,407L1769,459L1824,303Z" fill="#da611b" stroke="#da611b" stroke-width="1.51"/><path d="M1696,91L1578,215L1745,110Z" fill="#e48045" stroke="#e48045" stroke-width="1.51"/><path d="M1769,459L1610,558L1777,580Z" fill="#d55008" stroke="#d55008" stroke-width="1.51"/><path d="M1600,774L1679,838L1789,709Z" fill="#b93c03" stroke="#b93c03" stroke-width="1.51"/><path d="M1777,580L1610,558L1789,709Z" fill="#ce4703" stroke="#ce4703" stroke-width="1.51"/><path d="M1610,558L1600,774L1789,709Z" fill="#ca4302" stroke="#ca4302" stroke-width="1.51"/><path d="M1679,838L1498,924L1776,932Z" fill="#aa3703" stroke="#aa3703" stroke-width="1.51"/><path d="M1634,407L1610,558L1769,459Z" fill="#dc580e" stroke="#dc580e" stroke-width="1.51"/><path d="M1543,582L1600,774L1610,558Z" fill="#d84901" stroke="#d84901" stroke-width="1.51"/><path d="M1578,215L1544,372L1634,407Z" fill="#ea6d25" stroke="#ea6d25" stroke-width="1.51"/><path d="M1608,10L1505,108L1696,91Z" fill="#ed8b53" stroke="#ed8b53" stroke-width="1.51"/><path d="M1505,108L1578,215L1696,91Z" fill="#ec8346" stroke="#ec8346" stroke-width="1.51"/><path d="M1522,-33L1608,10L1638,-163Z" fill="#f19666" stroke="#f19666" stroke-width="1.51"/><path d="M1600,774L1498,924L1679,838Z" fill="#b63b03" stroke="#b63b03" stroke-width="1.51"/><path d="M1544,372L1543,582L1610,558Z" fill="#e4580a" stroke="#e4580a" stroke-width="1.51"/><path d="M1544,372L1610,558L1634,407Z" fill="#e55f14" stroke="#e55f14" stroke-width="1.51"/><path d="M1426,-167L1522,-33L1638,-163Z" fill="#f69d6f" stroke="#f69d6f" stroke-width="1.51"/><path d="M1543,582L1423,748L1600,774Z" fill="#d14702" stroke="#d14702" stroke-width="1.51"/><path d="M1477,241L1544,372L1578,215Z" fill="#ee7630" stroke="#ee7630" stroke-width="1.51"/><path d="M1522,-33L1505,108L1608,10Z" fill="#f2915a" stroke="#f2915a" stroke-width="1.51"/><path d="M1423,748L1498,924L1600,774Z" fill="#bf4104" stroke="#bf4104" stroke-width="1.51"/><path d="M1337,549L1543,582L1544,372Z" fill="#e95e0c" stroke="#e95e0c" stroke-width="1.51"/><path d="M1505,108L1477,241L1578,215Z" fill="#ef813e" stroke="#ef813e" stroke-width="1.51"/><path d="M1337,549L1423,748L1543,582Z" fill="#e05205" stroke="#e05205" stroke-width="1.51"/><path d="M1477,241L1309,391L1544,372Z" fill="#f07327" stroke="#f07327" stroke-width="1.51"/><path d="M1309,391L1337,549L1544,372Z" fill="#ee6919" stroke="#ee6919" stroke-width="1.51"/><path d="M1423,748L1359,932L1498,924Z" fill="#bb4306" stroke="#bb4306" stroke-width="1.51"/><path d="M1357,-83L1505,108L1522,-33Z" fill="#f69860" stroke="#f69860" stroke-width="1.51"/><path d="M1426,-167L1357,-83L1522,-33Z" fill="#f9a06e" stroke="#f9a06e" stroke-width="1.51"/><path d="M1347,219L1309,391L1477,241Z" fill="#f47d32" stroke="#f47d32" stroke-width="1.51"/><path d="M1357,-83L1321,169L1505,108Z" fill="#f69659" stroke="#f69659" stroke-width="1.51"/><path d="M1347,219L1477,241L1505,108Z" fill="#f28440" stroke="#f28440" stroke-width="1.51"/><path d="M1321,169L1347,219L1505,108Z" fill="#f58a46" stroke="#f58a46" stroke-width="1.51"/><path d="M1337,549L1301,727L1423,748Z" fill="#dd5206" stroke="#dd5206" stroke-width="1.51"/><path d="M1090,-236L1139,-187L1349,-188Z" fill="#ffb181" stroke="#ffb181" stroke-width="1.51"/><path d="M1232,102L1321,169L1357,-83Z" fill="#fa9a5b" stroke="#fa9a5b" stroke-width="1.51"/><path d="M1220,-17L1232,102L1357,-83Z" fill="#fda165" stroke="#fda165" stroke-width="1.51"/><path d="M1301,727L1359,932L1423,748Z" fill="#c64a07" stroke="#c64a07" stroke-width="1.51"/><path d="M1349,-188L1357,-83L1426,-167Z" fill="#fca575" stroke="#fca575" stroke-width="1.51"/><path d="M1156,530L1301,727L1337,549Z" fill="#e95e0d" stroke="#e95e0d" stroke-width="1.51"/><path d="M1309,391L1239,395L1337,549Z" fill="#f26e1b" stroke="#f26e1b" stroke-width="1.51"/><path d="M1226,284L1309,391L1347,219Z" fill="#f78032" stroke="#f78032" stroke-width="1.51"/><path d="M1139,-187L1220,-17L1349,-188Z" fill="#ffac78" stroke="#ffac78" stroke-width="1.51"/><path d="M1349,-188L1220,-17L1357,-83Z" fill="#fea672" stroke="#fea672" stroke-width="1.51"/><path d="M1204,848L1073,921L1359,932Z" fill="#be4d0e" stroke="#be4d0e" stroke-width="1.51"/><path d="M1301,727L1204,848L1359,932Z" fill="#c54c0a" stroke="#c54c0a" stroke-width="1.51"/><path d="M1239,395L1156,530L1337,549Z" fill="#f26b16" stroke="#f26b16" stroke-width="1.51"/><path d="M1321,169L1226,284L1347,219Z" fill="#f7883e" stroke="#f7883e" stroke-width="1.51"/><path d="M1226,284L1239,395L1309,391Z" fill="#f77a28" stroke="#f77a28" stroke-width="1.51"/><path d="M1156,530L1130,751L1301,727Z" fill="#e35c10" stroke="#e35c10" stroke-width="1.51"/><path d="M1232,102L1226,284L1321,169Z" fill="#f98e45" stroke="#f98e45" stroke-width="1.51"/><path d="M1130,751L1204,848L1301,727Z" fill="#d0540e" stroke="#d0540e" stroke-width="1.51"/><path d="M1043,675L1130,751L1156,530Z" fill="#e86217" stroke="#e86217" stroke-width="1.51"/><path d="M1139,-187L1093,-65L1220,-17Z" fill="#ffae79" stroke="#ffae79" stroke-width="1.51"/><path d="M1220,-17L1038,78L1232,102Z" fill="#fda363" stroke="#fda363" stroke-width="1.51"/><path d="M1037,227L1226,284L1232,102Z" fill="#fa9248" stroke="#fa9248" stroke-width="1.51"/><path d="M1038,78L1037,227L1232,102Z" fill="#fd9d58" stroke="#fd9d58" stroke-width="1.51"/><path d="M1226,284L1038,437L1239,395Z" fill="#f87e2c" stroke="#f87e2c" stroke-width="1.51"/><path d="M1038,437L1156,530L1239,395Z" fill="#f67623" stroke="#f67623" stroke-width="1.51"/><path d="M1039,592L1043,675L1156,530Z" fill="#ed6a1c" stroke="#ed6a1c" stroke-width="1.51"/><path d="M1037,227L1038,437L1226,284Z" fill="#fb8939" stroke="#fb8939" stroke-width="1.51"/><path d="M1093,-65L1038,78L1220,-17Z" fill="#ffaa6e" stroke="#ffaa6e" stroke-width="1.51"/><path d="M1130,751L1073,921L1204,848Z" fill="#c85515" stroke="#c85515" stroke-width="1.51"/><path d="M538,866L237,913L784,928Z" fill="#c67443" stroke="#c67443" stroke-width="1.51"/><path d="M1038,437L1039,592L1156,530Z" fill="#f47220" stroke="#f47220" stroke-width="1.51"/><path d="M939,693L1073,921L1130,751Z" fill="#d25d1a" stroke="#d25d1a" stroke-width="1.51"/><path d="M1043,675L939,693L1130,751Z" fill="#e0631c" stroke="#e0631c" stroke-width="1.51"/><path d="M1090,-236L1093,-65L1139,-187Z" fill="#ffb483" stroke="#ffb483" stroke-width="1.51"/><path d="M883,870L784,928L1073,921Z" fill="#c35e23" stroke="#c35e23" stroke-width="1.51"/><path d="M939,693L883,870L1073,921Z" fill="#ce5f1f" stroke="#ce5f1f" stroke-width="1.51"/><path d="M941,158L1037,227L1038,78Z" fill="#fea05a" stroke="#fea05a" stroke-width="1.51"/><path d="M1037,227L916,408L1038,437Z" fill="#fc8a39" stroke="#fc8a39" stroke-width="1.51"/><path d="M847,-86L1038,78L1093,-65Z" fill="#ffb279" stroke="#ffb279" stroke-width="1.51"/><path d="M1090,-236L866,-221L1093,-65Z" fill="#ffba89" stroke="#ffba89" stroke-width="1.51"/><path d="M866,-221L847,-86L1093,-65Z" fill="#ffbc8a" stroke="#ffbc8a" stroke-width="1.51"/><path d="M889,244L916,408L1037,227Z" fill="#fe9446" stroke="#fe9446" stroke-width="1.51"/><path d="M847,-86L941,158L1038,78Z" fill="#ffb071" stroke="#ffb071" stroke-width="1.51"/><path d="M916,408L870,551L1038,437Z" fill="#f9812f" stroke="#f9812f" stroke-width="1.51"/><path d="M1038,437L870,551L1039,592Z" fill="#f57726" stroke="#f57726" stroke-width="1.51"/><path d="M1039,592L939,693L1043,675Z" fill="#ea691e" stroke="#ea691e" stroke-width="1.51"/><path d="M870,551L939,693L1039,592Z" fill="#ee7025" stroke="#ee7025" stroke-width="1.51"/><path d="M941,158L889,244L1037,227Z" fill="#fd9d53" stroke="#fd9d53" stroke-width="1.51"/><path d="M889,244L769,415L916,408Z" fill="#fe9244" stroke="#fe9244" stroke-width="1.51"/><path d="M726,673L883,870L939,693Z" fill="#dc6b2a" stroke="#dc6b2a" stroke-width="1.51"/><path d="M870,551L726,673L939,693Z" fill="#ed742c" stroke="#ed742c" stroke-width="1.51"/><path d="M780,144L889,244L941,158Z" fill="#fda55f" stroke="#fda55f" stroke-width="1.51"/><path d="M847,-86L780,144L941,158Z" fill="#ffb274" stroke="#ffb274" stroke-width="1.51"/><path d="M681,34L780,144L847,-86Z" fill="#ffbb81" stroke="#ffbb81" stroke-width="1.51"/><path d="M791,-118L847,-86L866,-221Z" fill="#ffc293" stroke="#ffc293" stroke-width="1.51"/><path d="M769,415L870,551L916,408Z" fill="#fa8638" stroke="#fa8638" stroke-width="1.51"/><path d="M769,415L729,523L870,551Z" fill="#f88638" stroke="#f88638" stroke-width="1.51"/><path d="M726,673L784,928L883,870Z" fill="#cf6a2d" stroke="#cf6a2d" stroke-width="1.51"/><path d="M780,144L684,312L889,244Z" fill="#fea45d" stroke="#fea45d" stroke-width="1.51"/><path d="M684,312L769,415L889,244Z" fill="#fe9a4f" stroke="#fe9a4f" stroke-width="1.51"/><path d="M791,-118L681,34L847,-86Z" fill="#ffc18d" stroke="#ffc18d" stroke-width="1.51"/><path d="M729,523L726,673L870,551Z" fill="#f27e35" stroke="#f27e35" stroke-width="1.51"/><path d="M577,-234L791,-118L866,-221Z" fill="#ffca9e" stroke="#ffca9e" stroke-width="1.51"/><path d="M591,221L684,312L780,144Z" fill="#fdaa65" stroke="#fdaa65" stroke-width="1.51"/><path d="M726,673L538,866L784,928Z" fill="#cf7036" stroke="#cf7036" stroke-width="1.51"/><path d="M637,18L681,34L791,-118Z" fill="#ffc28d" stroke="#ffc28d" stroke-width="1.51"/><path d="M577,-234L637,18L791,-118Z" fill="#ffca9d" stroke="#ffca9d" stroke-width="1.51"/><path d="M589,662L538,866L726,673Z" fill="#df7a3d" stroke="#df7a3d" stroke-width="1.51"/><path d="M681,34L610,90L780,144Z" fill="#feb97d" stroke="#feb97d" stroke-width="1.51"/><path d="M610,90L591,221L780,144Z" fill="#feb474" stroke="#feb474" stroke-width="1.51"/><path d="M595,615L726,673L729,523Z" fill="#f0813b" stroke="#f0813b" stroke-width="1.51"/><path d="M527,416L729,523L769,415Z" fill="#fa9147" stroke="#fa9147" stroke-width="1.51"/><path d="M684,312L527,416L769,415Z" fill="#fd9a50" stroke="#fd9a50" stroke-width="1.51"/><path d="M595,615L589,662L726,673Z" fill="#ed7f3d" stroke="#ed7f3d" stroke-width="1.51"/><path d="M527,416L595,615L729,523Z" fill="#f88d46" stroke="#f88d46" stroke-width="1.51"/><path d="M527,416L497,465L595,615Z" fill="#fa944e" stroke="#fa944e" stroke-width="1.51"/><path d="M577,-234L455,-11L637,18Z" fill="#ffcea2" stroke="#ffcea2" stroke-width="1.51"/><path d="M637,18L610,90L681,34Z" fill="#fec088" stroke="#fec088" stroke-width="1.51"/><path d="M591,221L527,416L684,312Z" fill="#fea55f" stroke="#fea55f" stroke-width="1.51"/><path d="M444,838L237,913L538,866Z" fill="#cb7d4d" stroke="#cb7d4d" stroke-width="1.51"/><path d="M443,782L538,866L589,662Z" fill="#da7d45" stroke="#da7d45" stroke-width="1.51"/><path d="M447,328L527,416L591,221Z" fill="#ffa965" stroke="#ffa965" stroke-width="1.51"/><path d="M497,465L465,546L595,615Z" fill="#f7914e" stroke="#f7914e" stroke-width="1.51"/><path d="M455,-11L610,90L637,18Z" fill="#fec691" stroke="#fec691" stroke-width="1.51"/><path d="M381,-136L455,-11L577,-234Z" fill="#ffd6b0" stroke="#ffd6b0" stroke-width="1.51"/><path d="M475,167L591,221L610,90Z" fill="#feb87c" stroke="#feb87c" stroke-width="1.51"/><path d="M455,-11L475,167L610,90Z" fill="#fec48e" stroke="#fec48e" stroke-width="1.51"/><path d="M475,167L447,328L591,221Z" fill="#feb373" stroke="#feb373" stroke-width="1.51"/><path d="M465,546L589,662L595,615Z" fill="#f28947" stroke="#f28947" stroke-width="1.51"/><path d="M465,546L443,782L589,662Z" fill="#ed8649" stroke="#ed8649" stroke-width="1.51"/><path d="M301,-219L381,-136L577,-234Z" fill="#ffdcbc" stroke="#ffdcbc" stroke-width="1.51"/><path d="M344,745L443,782L465,546Z" fill="#e98950" stroke="#e98950" stroke-width="1.51"/><path d="M443,782L444,838L538,866Z" fill="#d07b48" stroke="#d07b48" stroke-width="1.51"/><path d="M447,328L497,465L527,416Z" fill="#fea25e" stroke="#fea25e" stroke-width="1.51"/><path d="M455,-11L327,17L475,167Z" fill="#fecc9b" stroke="#fecc9b" stroke-width="1.51"/><path d="M327,17L304,131L475,167Z" fill="#feca97" stroke="#feca97" stroke-width="1.51"/><path d="M343,389L465,546L497,465Z" fill="#fc9e5b" stroke="#fc9e5b" stroke-width="1.51"/><path d="M447,328L343,389L497,465Z" fill="#ffa664" stroke="#ffa664" stroke-width="1.51"/><path d="M304,131L260,324L447,328Z" fill="#ffba7f" stroke="#ffba7f" stroke-width="1.51"/><path d="M232,543L344,745L465,546Z" fill="#f4935a" stroke="#f4935a" stroke-width="1.51"/><path d="M304,131L447,328L475,167Z" fill="#febb80" stroke="#febb80" stroke-width="1.51"/><path d="M343,389L232,543L465,546Z" fill="#fc9f60" stroke="#fc9f60" stroke-width="1.51"/><path d="M381,-136L327,17L455,-11Z" fill="#fed5ad" stroke="#fed5ad" stroke-width="1.51"/><path d="M443,782L344,745L444,838Z" fill="#d7814f" stroke="#d7814f" stroke-width="1.51"/><path d="M260,324L343,389L447,328Z" fill="#ffb071" stroke="#ffb071" stroke-width="1.51"/><path d="M344,745L237,913L444,838Z" fill="#d28254" stroke="#d28254" stroke-width="1.51"/><path d="M112,868L-106,902L237,913Z" fill="#cb8764" stroke="#cb8764" stroke-width="1.51"/><path d="M301,-219L109,-84L327,17Z" fill="#fedec0" stroke="#fedec0" stroke-width="1.51"/><path d="M232,543L159,623L344,745Z" fill="#f39460" stroke="#f39460" stroke-width="1.51"/><path d="M301,-219L327,17L381,-136Z" fill="#fedcba" stroke="#fedcba" stroke-width="1.51"/><path d="M-23,-198L93,-142L301,-219Z" fill="#ffe8d2" stroke="#ffe8d2" stroke-width="1.51"/><path d="M157,251L260,324L304,131Z" fill="#ffc089" stroke="#ffc089" stroke-width="1.51"/><path d="M260,324L148,416L343,389Z" fill="#ffb075" stroke="#ffb075" stroke-width="1.51"/><path d="M148,416L232,543L343,389Z" fill="#ffa86d" stroke="#ffa86d" stroke-width="1.51"/><path d="M122,740L237,913L344,745Z" fill="#d7885b" stroke="#d7885b" stroke-width="1.51"/><path d="M159,623L122,740L344,745Z" fill="#e99160" stroke="#e99160" stroke-width="1.51"/><path d="M93,-142L109,-84L301,-219Z" fill="#fee4ca" stroke="#fee4ca" stroke-width="1.51"/><path d="M109,-84L304,131L327,17Z" fill="#fed6ae" stroke="#fed6ae" stroke-width="1.51"/><path d="M122,740L112,868L237,913Z" fill="#d28860" stroke="#d28860" stroke-width="1.51"/><path d="M87,174L157,251L304,131Z" fill="#ffc796" stroke="#ffc796" stroke-width="1.51"/><path d="M109,-84L87,174L304,131Z" fill="#fed4ab" stroke="#fed4ab" stroke-width="1.51"/><path d="M157,251L148,416L260,324Z" fill="#ffb77f" stroke="#ffb77f" stroke-width="1.51"/><path d="M-18,857L-106,902L112,868Z" fill="#cf8b69" stroke="#cf8b69" stroke-width="1.51"/><path d="M148,416L159,623L232,543Z" fill="#fca26a" stroke="#fca26a" stroke-width="1.51"/><path d="M-55,-12L87,174L109,-84Z" fill="#feddbc" stroke="#feddbc" stroke-width="1.51"/><path d="M4,251L148,416L157,251Z" fill="#ffbd89" stroke="#ffbd89" stroke-width="1.51"/><path d="M-67,553L-5,691L159,623Z" fill="#f79d6f" stroke="#f79d6f" stroke-width="1.51"/><path d="M-34,478L-67,553L159,623Z" fill="#fca573" stroke="#fca573" stroke-width="1.51"/><path d="M-5,691L122,740L159,623Z" fill="#ee9669" stroke="#ee9669" stroke-width="1.51"/><path d="M148,416L-34,478L159,623Z" fill="#ffa771" stroke="#ffa771" stroke-width="1.51"/><path d="M87,174L4,251L157,251Z" fill="#ffc697" stroke="#ffc697" stroke-width="1.51"/><path d="M4,251L-34,478L148,416Z" fill="#ffb782" stroke="#ffb782" stroke-width="1.51"/><path d="M-55,-12L-46,163L87,174Z" fill="#ffd6b0" stroke="#ffd6b0" stroke-width="1.51"/><path d="M-18,857L112,868L122,740Z" fill="#d68c66" stroke="#d68c66" stroke-width="1.51"/><path d="M-5,691L-18,857L122,740Z" fill="#e0916a" stroke="#e0916a" stroke-width="1.51"/><path d="M93,-142L-55,-12L109,-84Z" fill="#fee5cb" stroke="#fee5cb" stroke-width="1.51"/><path d="M-23,-198L-55,-12L93,-142Z" fill="#fee8d2" stroke="#fee8d2" stroke-width="1.51"/><path d="M-46,163L4,251L87,174Z" fill="#ffcb9f" stroke="#ffcb9f" stroke-width="1.51"/><path d="M-187,-77L-55,-12L-23,-198Z" fill="#ffe9d4" stroke="#ffe9d4" stroke-width="1.51"/><path d="M-175,740L-18,857L-5,691Z" fill="#e1946e" stroke="#e1946e" stroke-width="1.51"/><path d="M-67,553L-133,628L-5,691Z" fill="#f89f73" stroke="#f89f73" stroke-width="1.51"/><path d="M-46,163L-153,173L4,251Z" fill="#ffcda3" stroke="#ffcda3" stroke-width="1.51"/><path d="M-153,173L-219,298L4,251Z" fill="#ffca9f" stroke="#ffca9f" stroke-width="1.51"/><path d="M-104,481L-34,478L4,251Z" fill="#ffb684" stroke="#ffb684" stroke-width="1.51"/><path d="M-219,298L-104,481L4,251Z" fill="#ffbf8e" stroke="#ffbf8e" stroke-width="1.51"/><path d="M-55,-12L-153,173L-46,163Z" fill="#ffd8b4" stroke="#ffd8b4" stroke-width="1.51"/><path d="M-175,740L-106,902L-18,857Z" fill="#d6906e" stroke="#d6906e" stroke-width="1.51"/><path d="M-133,628L-175,740L-5,691Z" fill="#f09b72" stroke="#f09b72" stroke-width="1.51"/><path d="M-215,-163L-187,-77L-23,-198Z" fill="#ffeddc" stroke="#ffeddc" stroke-width="1.51"/><path d="M-104,481L-67,553L-34,478Z" fill="#ffab7a" stroke="#ffab7a" stroke-width="1.51"/><path d="M-187,-77L-153,173L-55,-12Z" fill="#ffe1c4" stroke="#ffe1c4" stroke-width="1.51"/><path d="M-104,481L-133,628L-67,553Z" fill="#fda779" stroke="#fda779" stroke-width="1.51"/><path d="M-219,298L-133,628L-104,481Z" fill="#ffb281" stroke="#ffb281" stroke-width="1.51"/><path d="M-219,298L-175,740L-133,628Z" fill="#fea97c" stroke="#fea97c" stroke-width="1.51"/><path d="M-187,-77L-219,298L-153,173Z" fill="#ffd8b5" stroke="#ffd8b5" stroke-width="1.51"/><path d="M-215,-163L-219,298L-187,-77Z" fill="#ffe3c9" stroke="#ffe3c9" stroke-width="1.51"/></svg>