<svg xmlns="http://www.w3.org/2000/svg" width="1920" height="1080"><path d="M-112,-244L11,-246L304,-267Z" fill="#996ad1" stroke="#996ad1" stroke-width="1.51"/><path d="M-31,1315L-218,1317L639,1331Z" fill="#6842da" stroke="#6842da" stroke-width="1.51"/><path d="M1163,1326L639,1331L1329,1328Z" fill="#3d35d6" stroke="#3d35d6" stroke-width="1.51"/><path d="M763,-255L1153,-246L1583,-246Z" fill="#7856cc" stroke="#7856cc" stroke-width="1.51"/><path d="M304,-267L763,-255L1583,-246Z" fill="#805fcf" stroke="#805fcf" stroke-width="1.51"/><path d="M2038,943L2064,1106L2071,846Z" fill="#2f2ddd" stroke="#2f2ddd" stroke-width="1.51"/><path d="M1962,589L2037,676L2101,494Z" fill="#3f36d6" stroke="#3f36d6" stroke-width="1.51"/><path d="M2037,676L2071,846L2101,494Z" fill="#3732d5" stroke="#3732d5" stroke-width="1.51"/><path d="M1583,-246L1753,-233L2109,-213Z" fill="#764fd8" stroke="#764fd8" stroke-width="1.51"/><path d="M1753,-233L1932,-202L2109,-213Z" fill="#754cd9" stroke="#754cd9" stroke-width="1.51"/><path d="M2109,-213L2056,-115L2112,37Z" fill="#6c45da" stroke="#6c45da" stroke-width="1.51"/><path d="M1667,1306L1329,1328L2134,1344Z" fill="#2c2be1" stroke="#2c2be1" stroke-width="1.51"/><path d="M1753,1291L1667,1306L2134,1344Z" fill="#2a29e2" stroke="#2a29e2" stroke-width="1.51"/><path d="M1946,1255L1753,1291L2134,1344Z" fill="#2928e3" stroke="#2928e3" stroke-width="1.51"/><path d="M2064,1106L1989,1150L2134,1344Z" fill="#2928e2" stroke="#2928e2" stroke-width="1.51"/><path d="M1989,1150L1946,1255L2134,1344Z" fill="#2828e3" stroke="#2828e3" stroke-width="1.51"/><path d="M2071,846L2064,1106L2134,1344Z" fill="#2b2ae1" stroke="#2b2ae1" stroke-width="1.51"/><path d="M1901,349L2101,494L2138,340Z" fill="#4b40d9" stroke="#4b40d9" stroke-width="1.51"/><path d="M2029,231L1901,349L2138,340Z" fill="#5141d8" stroke="#5141d8" stroke-width="1.51"/><path d="M2112,37L2029,231L2138,340Z" fill="#583fd9" stroke="#583fd9" stroke-width="1.51"/><path d="M2109,-213L2112,37L2138,340Z" fill="#613ed9" stroke="#613ed9" stroke-width="1.51"/><path d="M2071,846L2134,1344L2138,340Z" fill="#312eda" stroke="#312eda" stroke-width="1.51"/><path d="M2101,494L2071,846L2138,340Z" fill="#4037d7" stroke="#4037d7" stroke-width="1.51"/><path d="M1903,61L2029,231L2112,37Z" fill="#5e40d8" stroke="#5e40d8" stroke-width="1.51"/><path d="M2037,676L1973,834L2071,846Z" fill="#3430d7" stroke="#3430d7" stroke-width="1.51"/><path d="M2056,-115L1922,-24L2112,37Z" fill="#6843d9" stroke="#6843d9" stroke-width="1.51"/><path d="M1922,-24L1903,61L2112,37Z" fill="#6342d8" stroke="#6342d8" stroke-width="1.51"/><path d="M1932,-202L2056,-115L2109,-213Z" fill="#7249da" stroke="#7249da" stroke-width="1.51"/><path d="M1901,349L1962,589L2101,494Z" fill="#463cd7" stroke="#463cd7" stroke-width="1.51"/><path d="M1907,286L1901,349L2029,231Z" fill="#5342d8" stroke="#5342d8" stroke-width="1.51"/><path d="M2038,943L1953,942L2064,1106Z" fill="#2f2ede" stroke="#2f2ede" stroke-width="1.51"/><path d="M1953,942L1989,1150L2064,1106Z" fill="#2d2de0" stroke="#2d2de0" stroke-width="1.51"/><path d="M1973,834L2038,943L2071,846Z" fill="#322fda" stroke="#322fda" stroke-width="1.51"/><path d="M1893,710L1973,834L2037,676Z" fill="#3631d5" stroke="#3631d5" stroke-width="1.51"/><path d="M1973,834L1953,942L2038,943Z" fill="#322fda" stroke="#322fda" stroke-width="1.51"/><path d="M1932,-202L1922,-24L2056,-115Z" fill="#6e48d9" stroke="#6e48d9" stroke-width="1.51"/><path d="M1901,349L1801,433L1962,589Z" fill="#493fd6" stroke="#493fd6" stroke-width="1.51"/><path d="M1903,61L1907,286L2029,231Z" fill="#5a42d8" stroke="#5a42d8" stroke-width="1.51"/><path d="M1962,589L1893,710L2037,676Z" fill="#3a34d4" stroke="#3a34d4" stroke-width="1.51"/><path d="M1953,942L1780,1033L1989,1150Z" fill="#302fde" stroke="#302fde" stroke-width="1.51"/><path d="M1903,61L1787,206L1907,286Z" fill="#5a43d7" stroke="#5a43d7" stroke-width="1.51"/><path d="M1731,1192L1946,1255L1989,1150Z" fill="#2d2ce0" stroke="#2d2ce0" stroke-width="1.51"/><path d="M1780,1033L1731,1192L1989,1150Z" fill="#2f2fdf" stroke="#2f2fdf" stroke-width="1.51"/><path d="M1766,-88L1922,-24L1932,-202Z" fill="#6d48d8" stroke="#6d48d8" stroke-width="1.51"/><path d="M1805,809L1953,942L1973,834Z" fill="#3431d8" stroke="#3431d8" stroke-width="1.51"/><path d="M1893,710L1805,809L1973,834Z" fill="#3632d5" stroke="#3632d5" stroke-width="1.51"/><path d="M1801,433L1732,509L1962,589Z" fill="#453dd5" stroke="#453dd5" stroke-width="1.51"/><path d="M1732,509L1792,676L1962,589Z" fill="#403ad3" stroke="#403ad3" stroke-width="1.51"/><path d="M1792,676L1893,710L1962,589Z" fill="#3b35d3" stroke="#3b35d3" stroke-width="1.51"/><path d="M1805,809L1780,1033L1953,942Z" fill="#3331da" stroke="#3331da" stroke-width="1.51"/><path d="M1770,104L1787,206L1903,61Z" fill="#5f43d6" stroke="#5f43d6" stroke-width="1.51"/><path d="M1731,1192L1753,1291L1946,1255Z" fill="#2c2ce1" stroke="#2c2ce1" stroke-width="1.51"/><path d="M1753,-233L1766,-88L1932,-202Z" fill="#724cd8" stroke="#724cd8" stroke-width="1.51"/><path d="M1766,-88L1903,61L1922,-24Z" fill="#6745d7" stroke="#6745d7" stroke-width="1.51"/><path d="M1766,-88L1770,104L1903,61Z" fill="#6444d6" stroke="#6444d6" stroke-width="1.51"/><path d="M1787,206L1901,349L1907,286Z" fill="#5443d7" stroke="#5443d7" stroke-width="1.51"/><path d="M1787,206L1801,433L1901,349Z" fill="#5144d6" stroke="#5144d6" stroke-width="1.51"/><path d="M1787,206L1684,383L1801,433Z" fill="#5145d6" stroke="#5145d6" stroke-width="1.51"/><path d="M1792,676L1805,809L1893,710Z" fill="#3734d3" stroke="#3734d3" stroke-width="1.51"/><path d="M477,1301L-31,1315L639,1331Z" fill="#5d3fd9" stroke="#5d3fd9" stroke-width="1.51"/><path d="M1481,1272L1329,1328L1667,1306Z" fill="#302edb" stroke="#302edb" stroke-width="1.51"/><path d="M1667,-8L1686,45L1766,-88Z" fill="#6847d6" stroke="#6847d6" stroke-width="1.51"/><path d="M1766,-88L1686,45L1770,104Z" fill="#6545d5" stroke="#6545d5" stroke-width="1.51"/><path d="M1685,1167L1731,1192L1780,1033Z" fill="#3130de" stroke="#3130de" stroke-width="1.51"/><path d="M1624,187L1684,383L1787,206Z" fill="#5645d5" stroke="#5645d5" stroke-width="1.51"/><path d="M1580,689L1657,871L1792,676Z" fill="#3936d2" stroke="#3936d2" stroke-width="1.51"/><path d="M1732,509L1622,560L1792,676Z" fill="#413cd3" stroke="#413cd3" stroke-width="1.51"/><path d="M1792,676L1657,871L1805,809Z" fill="#3735d4" stroke="#3735d4" stroke-width="1.51"/><path d="M1657,871L1780,1033L1805,809Z" fill="#3534d8" stroke="#3534d8" stroke-width="1.51"/><path d="M1657,871L1608,1029L1780,1033Z" fill="#3434da" stroke="#3434da" stroke-width="1.51"/><path d="M1684,383L1732,509L1801,433Z" fill="#4a42d5" stroke="#4a42d5" stroke-width="1.51"/><path d="M1770,104L1624,187L1787,206Z" fill="#5c45d5" stroke="#5c45d5" stroke-width="1.51"/><path d="M1622,560L1580,689L1792,676Z" fill="#3e39d1" stroke="#3e39d1" stroke-width="1.51"/><path d="M1608,1029L1685,1167L1780,1033Z" fill="#3232dd" stroke="#3232dd" stroke-width="1.51"/><path d="M1753,-233L1583,-246L1766,-88Z" fill="#734ed7" stroke="#734ed7" stroke-width="1.51"/><path d="M1583,-246L1539,-185L1766,-88Z" fill="#734fd5" stroke="#734fd5" stroke-width="1.51"/><path d="M1539,-185L1667,-8L1766,-88Z" fill="#6e4bd5" stroke="#6e4bd5" stroke-width="1.51"/><path d="M1686,45L1624,187L1770,104Z" fill="#6045d5" stroke="#6045d5" stroke-width="1.51"/><path d="M1731,1192L1667,1306L1753,1291Z" fill="#2d2de0" stroke="#2d2de0" stroke-width="1.51"/><path d="M1153,-246L1383,-177L1583,-246Z" fill="#7652d0" stroke="#7652d0" stroke-width="1.51"/><path d="M1685,1167L1667,1306L1731,1192Z" fill="#2f2fdf" stroke="#2f2fdf" stroke-width="1.51"/><path d="M1684,383L1622,560L1732,509Z" fill="#4841d4" stroke="#4841d4" stroke-width="1.51"/><path d="M1464,227L1534,415L1624,187Z" fill="#5647d2" stroke="#5647d2" stroke-width="1.51"/><path d="M1535,871L1608,1029L1657,871Z" fill="#3735d6" stroke="#3735d6" stroke-width="1.51"/><path d="M1580,689L1535,871L1657,871Z" fill="#3936d2" stroke="#3936d2" stroke-width="1.51"/><path d="M1483,1178L1481,1272L1667,1306Z" fill="#312fdc" stroke="#312fdc" stroke-width="1.51"/><path d="M1624,187L1534,415L1684,383Z" fill="#5246d3" stroke="#5246d3" stroke-width="1.51"/><path d="M1534,415L1622,560L1684,383Z" fill="#4a43d2" stroke="#4a43d2" stroke-width="1.51"/><path d="M1483,1178L1667,1306L1685,1167Z" fill="#312fdd" stroke="#312fdd" stroke-width="1.51"/><path d="M1608,1029L1483,1178L1685,1167Z" fill="#3332db" stroke="#3332db" stroke-width="1.51"/><path d="M1667,-8L1467,100L1686,45Z" fill="#6446d3" stroke="#6446d3" stroke-width="1.51"/><path d="M1467,100L1624,187L1686,45Z" fill="#6046d3" stroke="#6046d3" stroke-width="1.51"/><path d="M1539,-185L1429,-51L1667,-8Z" fill="#6c4bd3" stroke="#6c4bd3" stroke-width="1.51"/><path d="M1429,-51L1467,100L1667,-8Z" fill="#6648d1" stroke="#6648d1" stroke-width="1.51"/><path d="M332,1286L-31,1315L477,1301Z" fill="#613fd9" stroke="#613fd9" stroke-width="1.51"/><path d="M1457,717L1535,871L1580,689Z" fill="#3a37cf" stroke="#3a37cf" stroke-width="1.51"/><path d="M1535,871L1443,1035L1608,1029Z" fill="#3635d6" stroke="#3635d6" stroke-width="1.51"/><path d="M1443,1035L1483,1178L1608,1029Z" fill="#3533d8" stroke="#3533d8" stroke-width="1.51"/><path d="M1505,584L1580,689L1622,560Z" fill="#413bcf" stroke="#413bcf" stroke-width="1.51"/><path d="M1534,415L1505,584L1622,560Z" fill="#4740d0" stroke="#4740d0" stroke-width="1.51"/><path d="M1467,100L1464,227L1624,187Z" fill="#5c46d1" stroke="#5c46d1" stroke-width="1.51"/><path d="M763,-255L904,-223L1153,-246Z" fill="#7d5dce" stroke="#7d5dce" stroke-width="1.51"/><path d="M1505,584L1457,717L1580,689Z" fill="#3e39cd" stroke="#3e39cd" stroke-width="1.51"/><path d="M1383,-177L1539,-185L1583,-246Z" fill="#7451d3" stroke="#7451d3" stroke-width="1.51"/><path d="M1324,494L1505,584L1534,415Z" fill="#4942ce" stroke="#4942ce" stroke-width="1.51"/><path d="M1464,227L1373,335L1534,415Z" fill="#5347d0" stroke="#5347d0" stroke-width="1.51"/><path d="M1457,717L1385,828L1535,871Z" fill="#3a37cf" stroke="#3a37cf" stroke-width="1.51"/><path d="M1385,828L1443,1035L1535,871Z" fill="#3936d3" stroke="#3936d3" stroke-width="1.51"/><path d="M1383,-177L1429,-51L1539,-185Z" fill="#704ed1" stroke="#704ed1" stroke-width="1.51"/><path d="M1373,335L1324,494L1534,415Z" fill="#4e46ce" stroke="#4e46ce" stroke-width="1.51"/><path d="M1385,828L1363,1024L1443,1035Z" fill="#3836d3" stroke="#3836d3" stroke-width="1.51"/><path d="M1443,1035L1358,1141L1483,1178Z" fill="#3533d7" stroke="#3533d7" stroke-width="1.51"/><path d="M1373,684L1457,717L1505,584Z" fill="#3e3acc" stroke="#3e3acc" stroke-width="1.51"/><path d="M1324,494L1373,684L1505,584Z" fill="#443ecc" stroke="#443ecc" stroke-width="1.51"/><path d="M304,-267L576,-232L763,-255Z" fill="#8965d0" stroke="#8965d0" stroke-width="1.51"/><path d="M1429,-51L1284,77L1467,100Z" fill="#6447ce" stroke="#6447ce" stroke-width="1.51"/><path d="M1296,254L1464,227L1467,100Z" fill="#5c47cf" stroke="#5c47cf" stroke-width="1.51"/><path d="M1284,77L1296,254L1467,100Z" fill="#5f47cd" stroke="#5f47cd" stroke-width="1.51"/><path d="M1358,1141L1329,1328L1481,1272Z" fill="#3330d8" stroke="#3330d8" stroke-width="1.51"/><path d="M1358,1141L1481,1272L1483,1178Z" fill="#3331d9" stroke="#3331d9" stroke-width="1.51"/><path d="M1383,-177L1336,-93L1429,-51Z" fill="#6e4dcf" stroke="#6e4dcf" stroke-width="1.51"/><path d="M1373,684L1385,828L1457,717Z" fill="#3c38cc" stroke="#3c38cc" stroke-width="1.51"/><path d="M1296,254L1373,335L1464,227Z" fill="#5648ce" stroke="#5648ce" stroke-width="1.51"/><path d="M1363,1024L1358,1141L1443,1035Z" fill="#3634d6" stroke="#3634d6" stroke-width="1.51"/><path d="M1336,-93L1284,77L1429,-51Z" fill="#694ace" stroke="#694ace" stroke-width="1.51"/><path d="M897,1256L639,1331L1163,1326Z" fill="#443ad7" stroke="#443ad7" stroke-width="1.51"/><path d="M1169,1132L1329,1328L1358,1141Z" fill="#3632d5" stroke="#3632d5" stroke-width="1.51"/><path d="M1161,360L1324,494L1373,335Z" fill="#4f47cc" stroke="#4f47cc" stroke-width="1.51"/><path d="M1324,494L1234,555L1373,684Z" fill="#453fca" stroke="#453fca" stroke-width="1.51"/><path d="M1161,1021L1363,1024L1385,828Z" fill="#3937d1" stroke="#3937d1" stroke-width="1.51"/><path d="M1140,790L1161,1021L1385,828Z" fill="#3c38cc" stroke="#3c38cc" stroke-width="1.51"/><path d="M1373,684L1189,672L1385,828Z" fill="#3d39c9" stroke="#3d39c9" stroke-width="1.51"/><path d="M1189,672L1140,790L1385,828Z" fill="#3d39c9" stroke="#3d39c9" stroke-width="1.51"/><path d="M1153,-246L1336,-93L1383,-177Z" fill="#7251cd" stroke="#7251cd" stroke-width="1.51"/><path d="M1169,1132L1163,1326L1329,1328Z" fill="#3631d5" stroke="#3631d5" stroke-width="1.51"/><path d="M1169,1132L1358,1141L1363,1024Z" fill="#3734d4" stroke="#3734d4" stroke-width="1.51"/><path d="M1296,254L1161,360L1373,335Z" fill="#5448cb" stroke="#5448cb" stroke-width="1.51"/><path d="M1234,555L1189,672L1373,684Z" fill="#423cc8" stroke="#423cc8" stroke-width="1.51"/><path d="M1153,-246L1155,-91L1336,-93Z" fill="#7150cc" stroke="#7150cc" stroke-width="1.51"/><path d="M1161,1021L1169,1132L1363,1024Z" fill="#3836d2" stroke="#3836d2" stroke-width="1.51"/><path d="M1284,77L1192,224L1296,254Z" fill="#5c48cb" stroke="#5c48cb" stroke-width="1.51"/><path d="M1155,-91L1284,77L1336,-93Z" fill="#6a4bcc" stroke="#6a4bcc" stroke-width="1.51"/><path d="M1140,790L1085,943L1161,1021Z" fill="#3f3acd" stroke="#3f3acd" stroke-width="1.51"/><path d="M1161,360L1234,555L1324,494Z" fill="#4b44ca" stroke="#4b44ca" stroke-width="1.51"/><path d="M1136,71L1192,224L1284,77Z" fill="#6048ca" stroke="#6048ca" stroke-width="1.51"/><path d="M1155,-91L1136,71L1284,77Z" fill="#664aca" stroke="#664aca" stroke-width="1.51"/><path d="M1192,224L1161,360L1296,254Z" fill="#5748ca" stroke="#5748ca" stroke-width="1.51"/><path d="M1076,1255L1163,1326L1169,1132Z" fill="#3934d4" stroke="#3934d4" stroke-width="1.51"/><path d="M1161,360L1030,388L1234,555Z" fill="#5048ca" stroke="#5048ca" stroke-width="1.51"/><path d="M1030,388L1015,590L1234,555Z" fill="#4e46c9" stroke="#4e46c9" stroke-width="1.51"/><path d="M1015,590L1189,672L1234,555Z" fill="#4740c8" stroke="#4740c8" stroke-width="1.51"/><path d="M904,-223L982,-197L1153,-246Z" fill="#7a59cd" stroke="#7a59cd" stroke-width="1.51"/><path d="M1072,-34L1136,71L1155,-91Z" fill="#6b4dcb" stroke="#6b4dcb" stroke-width="1.51"/><path d="M1076,1255L897,1256L1163,1326Z" fill="#3d36d5" stroke="#3d36d5" stroke-width="1.51"/><path d="M1071,1150L1076,1255L1169,1132Z" fill="#3c36d3" stroke="#3c36d3" stroke-width="1.51"/><path d="M1015,590L1078,714L1189,672Z" fill="#463fc8" stroke="#463fc8" stroke-width="1.51"/><path d="M1078,714L1140,790L1189,672Z" fill="#413bc7" stroke="#413bc7" stroke-width="1.51"/><path d="M1136,71L1021,101L1192,224Z" fill="#624bca" stroke="#624bca" stroke-width="1.51"/><path d="M1021,101L995,251L1192,224Z" fill="#604dcb" stroke="#604dcb" stroke-width="1.51"/><path d="M995,251L1161,360L1192,224Z" fill="#5a4bca" stroke="#5a4bca" stroke-width="1.51"/><path d="M1153,-246L982,-197L1155,-91Z" fill="#7655cc" stroke="#7655cc" stroke-width="1.51"/><path d="M995,251L1030,388L1161,360Z" fill="#584dcb" stroke="#584dcb" stroke-width="1.51"/><path d="M1161,1021L1071,1150L1169,1132Z" fill="#3c37d2" stroke="#3c37d2" stroke-width="1.51"/><path d="M995,875L1085,943L1140,790Z" fill="#413ccd" stroke="#413ccd" stroke-width="1.51"/><path d="M982,-197L1072,-34L1155,-91Z" fill="#7252cc" stroke="#7252cc" stroke-width="1.51"/><path d="M1085,943L1071,1150L1161,1021Z" fill="#3e39d1" stroke="#3e39d1" stroke-width="1.51"/><path d="M1072,-34L1021,101L1136,71Z" fill="#684ccb" stroke="#684ccb" stroke-width="1.51"/><path d="M1078,714L995,875L1140,790Z" fill="#433dca" stroke="#433dca" stroke-width="1.51"/><path d="M724,1271L639,1331L897,1256Z" fill="#4b40d9" stroke="#4b40d9" stroke-width="1.51"/><path d="M892,974L896,1187L1071,1150Z" fill="#443dd4" stroke="#443dd4" stroke-width="1.51"/><path d="M1071,1150L896,1187L1076,1255Z" fill="#4039d5" stroke="#4039d5" stroke-width="1.51"/><path d="M883,701L995,875L1078,714Z" fill="#4740ca" stroke="#4740ca" stroke-width="1.51"/><path d="M892,974L1071,1150L1085,943Z" fill="#433cd2" stroke="#433cd2" stroke-width="1.51"/><path d="M995,875L892,974L1085,943Z" fill="#443ecf" stroke="#443ecf" stroke-width="1.51"/><path d="M917,590L1015,590L1030,388Z" fill="#5149ca" stroke="#5149ca" stroke-width="1.51"/><path d="M894,389L917,590L1030,388Z" fill="#564dcb" stroke="#564dcb" stroke-width="1.51"/><path d="M982,-197L868,-35L1072,-34Z" fill="#7356cc" stroke="#7356cc" stroke-width="1.51"/><path d="M921,91L1021,101L1072,-34Z" fill="#694fcb" stroke="#694fcb" stroke-width="1.51"/><path d="M896,1187L897,1256L1076,1255Z" fill="#433ad6" stroke="#433ad6" stroke-width="1.51"/><path d="M1015,590L883,701L1078,714Z" fill="#4942c8" stroke="#4942c8" stroke-width="1.51"/><path d="M868,-35L921,91L1072,-34Z" fill="#6e52cc" stroke="#6e52cc" stroke-width="1.51"/><path d="M883,701L893,866L995,875Z" fill="#4841cc" stroke="#4841cc" stroke-width="1.51"/><path d="M917,590L883,701L1015,590Z" fill="#4d45c9" stroke="#4d45c9" stroke-width="1.51"/><path d="M913,224L995,251L1021,101Z" fill="#6350cb" stroke="#6350cb" stroke-width="1.51"/><path d="M921,91L913,224L1021,101Z" fill="#6650cc" stroke="#6650cc" stroke-width="1.51"/><path d="M995,251L894,389L1030,388Z" fill="#5a50cb" stroke="#5a50cb" stroke-width="1.51"/><path d="M913,224L894,389L995,251Z" fill="#5f51cc" stroke="#5f51cc" stroke-width="1.51"/><path d="M904,-223L868,-35L982,-197Z" fill="#795acd" stroke="#795acd" stroke-width="1.51"/><path d="M893,866L892,974L995,875Z" fill="#4740cf" stroke="#4740cf" stroke-width="1.51"/><path d="M698,1011L695,1140L892,974Z" fill="#4d45d4" stroke="#4d45d4" stroke-width="1.51"/><path d="M738,400L748,546L894,389Z" fill="#5b52cc" stroke="#5b52cc" stroke-width="1.51"/><path d="M758,191L738,400L894,389Z" fill="#6155cd" stroke="#6155cd" stroke-width="1.51"/><path d="M892,974L695,1140L896,1187Z" fill="#4941d5" stroke="#4941d5" stroke-width="1.51"/><path d="M729,-113L868,-35L904,-223Z" fill="#795cce" stroke="#795cce" stroke-width="1.51"/><path d="M758,191L894,389L913,224Z" fill="#6253cc" stroke="#6253cc" stroke-width="1.51"/><path d="M776,650L883,701L917,590Z" fill="#4e47c9" stroke="#4e47c9" stroke-width="1.51"/><path d="M894,389L748,546L917,590Z" fill="#564dcb" stroke="#564dcb" stroke-width="1.51"/><path d="M868,-35L722,134L921,91Z" fill="#6e54cc" stroke="#6e54cc" stroke-width="1.51"/><path d="M722,134L758,191L921,91Z" fill="#6b55cd" stroke="#6b55cd" stroke-width="1.51"/><path d="M758,191L913,224L921,91Z" fill="#6753cc" stroke="#6753cc" stroke-width="1.51"/><path d="M883,701L683,865L893,866Z" fill="#4c45cd" stroke="#4c45cd" stroke-width="1.51"/><path d="M763,-255L729,-113L904,-223Z" fill="#7f60cf" stroke="#7f60cf" stroke-width="1.51"/><path d="M748,546L776,650L917,590Z" fill="#534bca" stroke="#534bca" stroke-width="1.51"/><path d="M776,650L683,865L883,701Z" fill="#4e46ca" stroke="#4e46ca" stroke-width="1.51"/><path d="M683,865L892,974L893,866Z" fill="#4c44d0" stroke="#4c44d0" stroke-width="1.51"/><path d="M683,865L698,1011L892,974Z" fill="#4e46d1" stroke="#4e46d1" stroke-width="1.51"/><path d="M896,1187L724,1271L897,1256Z" fill="#483ed7" stroke="#483ed7" stroke-width="1.51"/><path d="M695,1140L724,1271L896,1187Z" fill="#4b41d7" stroke="#4b41d7" stroke-width="1.51"/><path d="M304,-267L429,-227L576,-232Z" fill="#8c64cf" stroke="#8c64cf" stroke-width="1.51"/><path d="M624,-6L722,134L729,-113Z" fill="#765ace" stroke="#765ace" stroke-width="1.51"/><path d="M729,-113L722,134L868,-35Z" fill="#7458cd" stroke="#7458cd" stroke-width="1.51"/><path d="M541,214L621,390L758,191Z" fill="#6958cd" stroke="#6958cd" stroke-width="1.51"/><path d="M621,390L738,400L758,191Z" fill="#6358cd" stroke="#6358cd" stroke-width="1.51"/><path d="M576,-232L729,-113L763,-255Z" fill="#8162cf" stroke="#8162cf" stroke-width="1.51"/><path d="M629,839L683,865L776,650Z" fill="#5148cc" stroke="#5148cc" stroke-width="1.51"/><path d="M573,671L629,839L776,650Z" fill="#5449ca" stroke="#5449ca" stroke-width="1.51"/><path d="M748,546L573,671L776,650Z" fill="#564dcb" stroke="#564dcb" stroke-width="1.51"/><path d="M89,1279L-31,1315L332,1286Z" fill="#6843d9" stroke="#6843d9" stroke-width="1.51"/><path d="M639,1089L695,1140L698,1011Z" fill="#5045d5" stroke="#5045d5" stroke-width="1.51"/><path d="M621,390L583,517L738,400Z" fill="#6155cd" stroke="#6155cd" stroke-width="1.51"/><path d="M738,400L583,517L748,546Z" fill="#5c52cc" stroke="#5c52cc" stroke-width="1.51"/><path d="M583,517L573,671L748,546Z" fill="#5b4ecb" stroke="#5b4ecb" stroke-width="1.51"/><path d="M722,134L541,214L758,191Z" fill="#6d58cd" stroke="#6d58cd" stroke-width="1.51"/><path d="M683,865L554,957L698,1011Z" fill="#5347d2" stroke="#5347d2" stroke-width="1.51"/><path d="M624,-6L538,61L722,134Z" fill="#7458cd" stroke="#7458cd" stroke-width="1.51"/><path d="M695,1140L639,1331L724,1271Z" fill="#4e42d8" stroke="#4e42d8" stroke-width="1.51"/><path d="M576,-232L624,-6L729,-113Z" fill="#7e5fcf" stroke="#7e5fcf" stroke-width="1.51"/><path d="M538,61L541,214L722,134Z" fill="#7158cd" stroke="#7158cd" stroke-width="1.51"/><path d="M576,-232L490,-47L624,-6Z" fill="#805ece" stroke="#805ece" stroke-width="1.51"/><path d="M477,1301L639,1331L639,1089Z" fill="#5342d8" stroke="#5342d8" stroke-width="1.51"/><path d="M629,839L554,957L683,865Z" fill="#5447d0" stroke="#5447d0" stroke-width="1.51"/><path d="M639,1089L639,1331L695,1140Z" fill="#5043d7" stroke="#5043d7" stroke-width="1.51"/><path d="M554,957L639,1089L698,1011Z" fill="#5346d4" stroke="#5346d4" stroke-width="1.51"/><path d="M541,214L478,239L621,390Z" fill="#6c58cd" stroke="#6c58cd" stroke-width="1.51"/><path d="M573,671L397,860L629,839Z" fill="#5848cd" stroke="#5848cd" stroke-width="1.51"/><path d="M378,1126L477,1301L639,1089Z" fill="#5843d7" stroke="#5843d7" stroke-width="1.51"/><path d="M554,957L414,1011L639,1089Z" fill="#5746d4" stroke="#5746d4" stroke-width="1.51"/><path d="M414,1011L378,1126L639,1089Z" fill="#5945d5" stroke="#5945d5" stroke-width="1.51"/><path d="M478,239L434,400L621,390Z" fill="#6a58cd" stroke="#6a58cd" stroke-width="1.51"/><path d="M434,400L583,517L621,390Z" fill="#6455cd" stroke="#6455cd" stroke-width="1.51"/><path d="M397,860L554,957L629,839Z" fill="#5847d0" stroke="#5847d0" stroke-width="1.51"/><path d="M462,650L397,860L573,671Z" fill="#5b48ca" stroke="#5b48ca" stroke-width="1.51"/><path d="M490,-47L538,61L624,-6Z" fill="#7a5ace" stroke="#7a5ace" stroke-width="1.51"/><path d="M538,61L470,140L541,214Z" fill="#7458cd" stroke="#7458cd" stroke-width="1.51"/><path d="M462,650L573,671L583,517Z" fill="#5d4dcb" stroke="#5d4dcb" stroke-width="1.51"/><path d="M429,-227L490,-47L576,-232Z" fill="#8661cf" stroke="#8661cf" stroke-width="1.51"/><path d="M402,572L462,650L583,517Z" fill="#614ecb" stroke="#614ecb" stroke-width="1.51"/><path d="M434,400L402,572L583,517Z" fill="#6452cc" stroke="#6452cc" stroke-width="1.51"/><path d="M397,860L414,1011L554,957Z" fill="#5b46d2" stroke="#5b46d2" stroke-width="1.51"/><path d="M470,140L478,239L541,214Z" fill="#7258cd" stroke="#7258cd" stroke-width="1.51"/><path d="M490,-47L470,140L538,61Z" fill="#7958cd" stroke="#7958cd" stroke-width="1.51"/><path d="M332,426L402,572L434,400Z" fill="#6954cc" stroke="#6954cc" stroke-width="1.51"/><path d="M256,659L397,860L462,650Z" fill="#5f48ca" stroke="#5f48ca" stroke-width="1.51"/><path d="M340,-60L289,75L470,140Z" fill="#7e58cd" stroke="#7e58cd" stroke-width="1.51"/><path d="M378,1126L332,1286L477,1301Z" fill="#5c41d8" stroke="#5c41d8" stroke-width="1.51"/><path d="M275,294L434,400L478,239Z" fill="#7058cd" stroke="#7058cd" stroke-width="1.51"/><path d="M340,-60L470,140L490,-47Z" fill="#7e59ce" stroke="#7e59ce" stroke-width="1.51"/><path d="M429,-227L340,-60L490,-47Z" fill="#855fce" stroke="#855fce" stroke-width="1.51"/><path d="M289,75L275,294L470,140Z" fill="#7958cd" stroke="#7958cd" stroke-width="1.51"/><path d="M470,140L275,294L478,239Z" fill="#7458cd" stroke="#7458cd" stroke-width="1.51"/><path d="M402,572L256,659L462,650Z" fill="#624ccb" stroke="#624ccb" stroke-width="1.51"/><path d="M256,659L237,849L397,860Z" fill="#6248cd" stroke="#6248cd" stroke-width="1.51"/><path d="M397,860L257,958L414,1011Z" fill="#5f46d2" stroke="#5f46d2" stroke-width="1.51"/><path d="M304,-267L340,-60L429,-227Z" fill="#8b62cf" stroke="#8b62cf" stroke-width="1.51"/><path d="M275,294L332,426L434,400Z" fill="#6e58cd" stroke="#6e58cd" stroke-width="1.51"/><path d="M332,426L258,515L402,572Z" fill="#6952cc" stroke="#6952cc" stroke-width="1.51"/><path d="M257,958L378,1126L414,1011Z" fill="#5f45d5" stroke="#5f45d5" stroke-width="1.51"/><path d="M249,1151L332,1286L378,1126Z" fill="#5f42d7" stroke="#5f42d7" stroke-width="1.51"/><path d="M257,958L249,1151L378,1126Z" fill="#6144d5" stroke="#6144d5" stroke-width="1.51"/><path d="M237,849L257,958L397,860Z" fill="#6247d0" stroke="#6247d0" stroke-width="1.51"/><path d="M258,515L256,659L402,572Z" fill="#674ecb" stroke="#674ecb" stroke-width="1.51"/><path d="M304,-267L139,-162L340,-60Z" fill="#8d61cf" stroke="#8d61cf" stroke-width="1.51"/><path d="M162,722L237,849L256,659Z" fill="#6548cb" stroke="#6548cb" stroke-width="1.51"/><path d="M118,265L275,294L289,75Z" fill="#7b59cd" stroke="#7b59cd" stroke-width="1.51"/><path d="M92,-89L289,75L340,-60Z" fill="#865bce" stroke="#865bce" stroke-width="1.51"/><path d="M139,-162L92,-89L340,-60Z" fill="#8d60cf" stroke="#8d60cf" stroke-width="1.51"/><path d="M249,1151L89,1279L332,1286Z" fill="#6341d8" stroke="#6341d8" stroke-width="1.51"/><path d="M275,294L108,384L332,426Z" fill="#7258cd" stroke="#7258cd" stroke-width="1.51"/><path d="M108,384L258,515L332,426Z" fill="#7055cd" stroke="#7055cd" stroke-width="1.51"/><path d="M177,938L249,1151L257,958Z" fill="#6446d4" stroke="#6446d4" stroke-width="1.51"/><path d="M173,589L256,659L258,515Z" fill="#6a4ecb" stroke="#6a4ecb" stroke-width="1.51"/><path d="M79,136L118,265L289,75Z" fill="#805ace" stroke="#805ace" stroke-width="1.51"/><path d="M11,-246L139,-162L304,-267Z" fill="#9566d0" stroke="#9566d0" stroke-width="1.51"/><path d="M177,938L114,1149L249,1151Z" fill="#6646d6" stroke="#6646d6" stroke-width="1.51"/><path d="M92,-89L79,136L289,75Z" fill="#865ace" stroke="#865ace" stroke-width="1.51"/><path d="M114,1149L89,1279L249,1151Z" fill="#6744d8" stroke="#6744d8" stroke-width="1.51"/><path d="M237,849L177,938L257,958Z" fill="#6447d1" stroke="#6447d1" stroke-width="1.51"/><path d="M118,265L108,384L275,294Z" fill="#785ace" stroke="#785ace" stroke-width="1.51"/><path d="M108,384L173,589L258,515Z" fill="#7054cc" stroke="#7054cc" stroke-width="1.51"/><path d="M173,589L162,722L256,659Z" fill="#684cca" stroke="#684cca" stroke-width="1.51"/><path d="M108,384L38,485L173,589Z" fill="#7357cd" stroke="#7357cd" stroke-width="1.51"/><path d="M162,722L100,844L237,849Z" fill="#6849ce" stroke="#6849ce" stroke-width="1.51"/><path d="M16,-22L79,136L92,-89Z" fill="#8b5fcf" stroke="#8b5fcf" stroke-width="1.51"/><path d="M100,844L177,938L237,849Z" fill="#6749d0" stroke="#6749d0" stroke-width="1.51"/><path d="M20,704L162,722L173,589Z" fill="#6c4dcb" stroke="#6c4dcb" stroke-width="1.51"/><path d="M23,954L114,1149L177,938Z" fill="#6a49d5" stroke="#6a49d5" stroke-width="1.51"/><path d="M100,844L23,954L177,938Z" fill="#6b4ad2" stroke="#6b4ad2" stroke-width="1.51"/><path d="M38,485L20,704L173,589Z" fill="#7053cc" stroke="#7053cc" stroke-width="1.51"/><path d="M20,704L100,844L162,722Z" fill="#6b4ccc" stroke="#6b4ccc" stroke-width="1.51"/><path d="M27,861L23,954L100,844Z" fill="#6d4cd1" stroke="#6d4cd1" stroke-width="1.51"/><path d="M23,954L-65,1151L114,1149Z" fill="#6e4bd7" stroke="#6e4bd7" stroke-width="1.51"/><path d="M11,-246L92,-89L139,-162Z" fill="#9466d0" stroke="#9466d0" stroke-width="1.51"/><path d="M16,-22L-32,97L79,136Z" fill="#8a5ece" stroke="#8a5ece" stroke-width="1.51"/><path d="M20,704L27,861L100,844Z" fill="#6d4cce" stroke="#6d4cce" stroke-width="1.51"/><path d="M-62,255L-52,416L108,384Z" fill="#7e5fcf" stroke="#7e5fcf" stroke-width="1.51"/><path d="M-65,1151L89,1279L114,1149Z" fill="#6c48d8" stroke="#6c48d8" stroke-width="1.51"/><path d="M-62,255L108,384L118,265Z" fill="#7d5dce" stroke="#7d5dce" stroke-width="1.51"/><path d="M79,136L-62,255L118,265Z" fill="#825ece" stroke="#825ece" stroke-width="1.51"/><path d="M-52,416L38,485L108,384Z" fill="#795bce" stroke="#795bce" stroke-width="1.51"/><path d="M-65,1151L-31,1315L89,1279Z" fill="#6e48d9" stroke="#6e48d9" stroke-width="1.51"/><path d="M11,-246L16,-22L92,-89Z" fill="#9365d0" stroke="#9365d0" stroke-width="1.51"/><path d="M-141,553L20,704L38,485Z" fill="#7556cd" stroke="#7556cd" stroke-width="1.51"/><path d="M-32,97L-62,255L79,136Z" fill="#865fcf" stroke="#865fcf" stroke-width="1.51"/><path d="M11,-246L-112,-244L16,-22Z" fill="#9969d0" stroke="#9969d0" stroke-width="1.51"/><path d="M-62,255L-121,342L-52,416Z" fill="#8161cf" stroke="#8161cf" stroke-width="1.51"/><path d="M-112,-244L-167,-32L16,-22Z" fill="#9768d0" stroke="#9768d0" stroke-width="1.51"/><path d="M-137,723L-138,814L20,704Z" fill="#7351cd" stroke="#7351cd" stroke-width="1.51"/><path d="M-141,553L-137,723L20,704Z" fill="#7554cc" stroke="#7554cc" stroke-width="1.51"/><path d="M-216,1041L-65,1151L23,954Z" fill="#734ed6" stroke="#734ed6" stroke-width="1.51"/><path d="M20,704L-138,814L27,861Z" fill="#714fce" stroke="#714fce" stroke-width="1.51"/><path d="M-52,416L-141,553L38,485Z" fill="#7a5cce" stroke="#7a5cce" stroke-width="1.51"/><path d="M-138,814L23,954L27,861Z" fill="#704ed1" stroke="#704ed1" stroke-width="1.51"/><path d="M-135,193L-62,255L-32,97Z" fill="#8861cf" stroke="#8861cf" stroke-width="1.51"/><path d="M-138,814L-216,1041L23,954Z" fill="#7450d3" stroke="#7450d3" stroke-width="1.51"/><path d="M-167,-32L-32,97L16,-22Z" fill="#9062cf" stroke="#9062cf" stroke-width="1.51"/><path d="M-167,-32L-201,61L-32,97Z" fill="#9063cf" stroke="#9063cf" stroke-width="1.51"/><path d="M-65,1151L-169,1187L-31,1315Z" fill="#734bd9" stroke="#734bd9" stroke-width="1.51"/><path d="M-169,1187L-218,1317L-31,1315Z" fill="#744bda" stroke="#744bda" stroke-width="1.51"/><path d="M-201,61L-135,193L-32,97Z" fill="#8d63cf" stroke="#8d63cf" stroke-width="1.51"/><path d="M-216,1041L-169,1187L-65,1151Z" fill="#764fd8" stroke="#764fd8" stroke-width="1.51"/><path d="M-121,342L-141,553L-52,416Z" fill="#7e5fcf" stroke="#7e5fcf" stroke-width="1.51"/><path d="M-135,193L-121,342L-62,255Z" fill="#8562cf" stroke="#8562cf" stroke-width="1.51"/><path d="M-201,61L-167,-32L-112,-244Z" fill="#9869d0" stroke="#9869d0" stroke-width="1.51"/><path d="M-135,193L-201,61L-121,342Z" fill="#8a64cf" stroke="#8a64cf" stroke-width="1.51"/><path d="M-201,61L-141,553L-121,342Z" fill="#8564cf" stroke="#8564cf" stroke-width="1.51"/><path d="M-141,553L-216,1041L-137,723Z" fill="#7653ce" stroke="#7653ce" stroke-width="1.51"/><path d="M-216,1041L-138,814L-137,723Z" fill="#7752d1" stroke="#7752d1" stroke-width="1.51"/><path d="M-201,61L-216,1041L-141,553Z" fill="#7d5ccd" stroke="#7d5ccd" stroke-width="1.51"/><path d="M-216,1041L-218,1317L-169,1187Z" fill="#774fd9" stroke="#774fd9" stroke-width="1.51"/></svg>