<svg xmlns="http://www.w3.org/2000/svg" width="1920" height="700"><path d="M577,-234L866,-221L1090,-236Z" fill="#b4decb" stroke="#b4decb" stroke-width="1.51"/><path d="M1073,921L784,928L1359,932Z" fill="#2a6191" stroke="#2a6191" stroke-width="1.51"/><path d="M1349,-188L1426,-167L1638,-163Z" fill="#9db1bb" stroke="#9db1bb" stroke-width="1.51"/><path d="M1498,924L1359,932L1776,932Z" fill="#194084" stroke="#194084" stroke-width="1.51"/><path d="M1349,-188L1638,-163L1847,-197Z" fill="#9ca5b8" stroke="#9ca5b8" stroke-width="1.51"/><path d="M1090,-236L1349,-188L1847,-197Z" fill="#9fb5c2" stroke="#9fb5c2" stroke-width="1.51"/><path d="M1993,-171L1984,-85L2030,-38Z" fill="#8d8997" stroke="#8d8997" stroke-width="1.51"/><path d="M1090,-236L1847,-197L2045,-233Z" fill="#9da2bb" stroke="#9da2bb" stroke-width="1.51"/><path d="M1993,-171L2030,-38L2045,-233Z" fill="#8e899b" stroke="#8e899b" stroke-width="1.51"/><path d="M2030,-38L1933,124L2085,171Z" fill="#717f97" stroke="#717f97" stroke-width="1.51"/><path d="M2043,584L1917,733L2101,780Z" fill="#1e3b8a" stroke="#1e3b8a" stroke-width="1.51"/><path d="M2030,-38L2085,171L2110,212Z" fill="#677a90" stroke="#677a90" stroke-width="1.51"/><path d="M2045,-233L2030,-38L2110,212Z" fill="#7f8391" stroke="#7f8391" stroke-width="1.51"/><path d="M1919,473L2043,584L2129,390Z" fill="#255c98" stroke="#255c98" stroke-width="1.51"/><path d="M2110,212L1885,270L2129,390Z" fill="#426f98" stroke="#426f98" stroke-width="1.51"/><path d="M1885,270L1919,473L2129,390Z" fill="#356b9f" stroke="#356b9f" stroke-width="1.51"/><path d="M2043,584L2101,780L2129,390Z" fill="#1d4a8b" stroke="#1d4a8b" stroke-width="1.51"/><path d="M1948,599L1917,733L2043,584Z" fill="#214694" stroke="#214694" stroke-width="1.51"/><path d="M1917,733L1988,832L2101,780Z" fill="#1f3186" stroke="#1f3186" stroke-width="1.51"/><path d="M1988,832L2074,899L2101,780Z" fill="#182978" stroke="#182978" stroke-width="1.51"/><path d="M2085,171L1885,270L2110,212Z" fill="#517497" stroke="#517497" stroke-width="1.51"/><path d="M1988,832L1776,932L2074,899Z" fill="#192979" stroke="#192979" stroke-width="1.51"/><path d="M1933,124L1885,270L2085,171Z" fill="#5a7a9d" stroke="#5a7a9d" stroke-width="1.51"/><path d="M1919,473L1948,599L2043,584Z" fill="#25549a" stroke="#25549a" stroke-width="1.51"/><path d="M1847,-197L1993,-171L2045,-233Z" fill="#948da7" stroke="#948da7" stroke-width="1.51"/><path d="M1984,-85L1824,31L2030,-38Z" fill="#89899d" stroke="#89899d" stroke-width="1.51"/><path d="M1824,31L1933,124L2030,-38Z" fill="#80879f" stroke="#80879f" stroke-width="1.51"/><path d="M1885,270L1824,303L1919,473Z" fill="#3e73ab" stroke="#3e73ab" stroke-width="1.51"/><path d="M1847,-197L1984,-85L1993,-171Z" fill="#938da4" stroke="#938da4" stroke-width="1.51"/><path d="M1917,733L1776,932L1988,832Z" fill="#21308a" stroke="#21308a" stroke-width="1.51"/><path d="M1847,-197L1824,31L1984,-85Z" fill="#938ea3" stroke="#938ea3" stroke-width="1.51"/><path d="M1789,709L1776,932L1917,733Z" fill="#263896" stroke="#263896" stroke-width="1.51"/><path d="M1824,303L1769,459L1919,473Z" fill="#386eac" stroke="#386eac" stroke-width="1.51"/><path d="M1789,709L1917,733L1948,599Z" fill="#254499" stroke="#254499" stroke-width="1.51"/><path d="M1777,580L1789,709L1948,599Z" fill="#274ea0" stroke="#274ea0" stroke-width="1.51"/><path d="M1919,473L1777,580L1948,599Z" fill="#2959a4" stroke="#2959a4" stroke-width="1.51"/><path d="M1745,110L1885,270L1933,124Z" fill="#6681a9" stroke="#6681a9" stroke-width="1.51"/><path d="M1824,31L1745,110L1933,124Z" fill="#7a89a8" stroke="#7a89a8" stroke-width="1.51"/><path d="M1769,459L1777,580L1919,473Z" fill="#2b65ab" stroke="#2b65ab" stroke-width="1.51"/><path d="M1679,838L1776,932L1789,709Z" fill="#233a92" stroke="#233a92" stroke-width="1.51"/><path d="M1638,-163L1824,31L1847,-197Z" fill="#9897aa" stroke="#9897aa" stroke-width="1.51"/><path d="M1745,110L1824,303L1885,270Z" fill="#597fab" stroke="#597fab" stroke-width="1.51"/><path d="M1638,-163L1608,10L1824,31Z" fill="#909aab" stroke="#909aab" stroke-width="1.51"/><path d="M1608,10L1696,91L1824,31Z" fill="#8595ab" stroke="#8595ab" stroke-width="1.51"/><path d="M1696,91L1745,110L1824,31Z" fill="#7d8faa" stroke="#7d8faa" stroke-width="1.51"/><path d="M1745,110L1578,215L1824,303Z" fill="#5b88ae" stroke="#5b88ae" stroke-width="1.51"/><path d="M1578,215L1634,407L1824,303Z" fill="#4683b2" stroke="#4683b2" stroke-width="1.51"/><path d="M1634,407L1769,459L1824,303Z" fill="#3877b0" stroke="#3877b0" stroke-width="1.51"/><path d="M1696,91L1578,215L1745,110Z" fill="#6e90ae" stroke="#6e90ae" stroke-width="1.51"/><path d="M1769,459L1610,558L1777,580Z" fill="#2867ac" stroke="#2867ac" stroke-width="1.51"/><path d="M1600,774L1679,838L1789,709Z" fill="#26449c" stroke="#26449c" stroke-width="1.51"/><path d="M1777,580L1610,558L1789,709Z" fill="#2658a6" stroke="#2658a6" stroke-width="1.51"/><path d="M1610,558L1600,774L1789,709Z" fill="#2553a3" stroke="#2553a3" stroke-width="1.51"/><path d="M1679,838L1498,924L1776,932Z" fill="#1c3b87" stroke="#1c3b87" stroke-width="1.51"/><path d="M1634,407L1610,558L1769,459Z" fill="#2b73b1" stroke="#2b73b1" stroke-width="1.51"/><path d="M1543,582L1600,774L1610,558Z" fill="#235ea8" stroke="#235ea8" stroke-width="1.51"/><path d="M1578,215L1544,372L1634,407Z" fill="#3e88b5" stroke="#3e88b5" stroke-width="1.51"/><path d="M1608,10L1505,108L1696,91Z" fill="#7f9baf" stroke="#7f9baf" stroke-width="1.51"/><path d="M1505,108L1578,215L1696,91Z" fill="#6d96b0" stroke="#6d96b0" stroke-width="1.51"/><path d="M1522,-33L1608,10L1638,-163Z" fill="#93a3af" stroke="#93a3af" stroke-width="1.51"/><path d="M1600,774L1498,924L1679,838Z" fill="#214393" stroke="#214393" stroke-width="1.51"/><path d="M1544,372L1543,582L1610,558Z" fill="#2476b4" stroke="#2476b4" stroke-width="1.51"/><path d="M1544,372L1610,558L1634,407Z" fill="#2d7bb4" stroke="#2d7bb4" stroke-width="1.51"/><path d="M1426,-167L1522,-33L1638,-163Z" fill="#9aaab4" stroke="#9aaab4" stroke-width="1.51"/><path d="M1543,582L1423,748L1600,774Z" fill="#255aa6" stroke="#255aa6" stroke-width="1.51"/><path d="M1477,241L1544,372L1578,215Z" fill="#4b91b6" stroke="#4b91b6" stroke-width="1.51"/><path d="M1522,-33L1505,108L1608,10Z" fill="#87a3b1" stroke="#87a3b1" stroke-width="1.51"/><path d="M1423,748L1498,924L1600,774Z" fill="#264d9d" stroke="#264d9d" stroke-width="1.51"/><path d="M1337,549L1543,582L1544,372Z" fill="#227eb8" stroke="#227eb8" stroke-width="1.51"/><path d="M1505,108L1477,241L1578,215Z" fill="#5f98b3" stroke="#5f98b3" stroke-width="1.51"/><path d="M1337,549L1423,748L1543,582Z" fill="#236caf" stroke="#236caf" stroke-width="1.51"/><path d="M1477,241L1309,391L1544,372Z" fill="#3b94ba" stroke="#3b94ba" stroke-width="1.51"/><path d="M1309,391L1337,549L1544,372Z" fill="#2b8cbc" stroke="#2b8cbc" stroke-width="1.51"/><path d="M1423,748L1359,932L1498,924Z" fill="#224e95" stroke="#224e95" stroke-width="1.51"/><path d="M1357,-83L1505,108L1522,-33Z" fill="#8dacb4" stroke="#8dacb4" stroke-width="1.51"/><path d="M1426,-167L1357,-83L1522,-33Z" fill="#9ab2b4" stroke="#9ab2b4" stroke-width="1.51"/><path d="M1347,219L1309,391L1477,241Z" fill="#499ebc" stroke="#499ebc" stroke-width="1.51"/><path d="M1357,-83L1321,169L1505,108Z" fill="#82aeb7" stroke="#82aeb7" stroke-width="1.51"/><path d="M1347,219L1477,241L1505,108Z" fill="#5e9fb7" stroke="#5e9fb7" stroke-width="1.51"/><path d="M1321,169L1347,219L1505,108Z" fill="#66a5b9" stroke="#66a5b9" stroke-width="1.51"/><path d="M1337,549L1301,727L1423,748Z" fill="#256caf" stroke="#256caf" stroke-width="1.51"/><path d="M1090,-236L1139,-187L1349,-188Z" fill="#a4cac8" stroke="#a4cac8" stroke-width="1.51"/><path d="M1232,102L1321,169L1357,-83Z" fill="#83b6ba" stroke="#83b6ba" stroke-width="1.51"/><path d="M1220,-17L1232,102L1357,-83Z" fill="#8ebdbb" stroke="#8ebdbb" stroke-width="1.51"/><path d="M1301,727L1359,932L1423,748Z" fill="#2a5aa6" stroke="#2a5aa6" stroke-width="1.51"/><path d="M1349,-188L1357,-83L1426,-167Z" fill="#9eb9bc" stroke="#9eb9bc" stroke-width="1.51"/><path d="M1156,530L1301,727L1337,549Z" fill="#227fb8" stroke="#227fb8" stroke-width="1.51"/><path d="M1309,391L1239,395L1337,549Z" fill="#2794c0" stroke="#2794c0" stroke-width="1.51"/><path d="M1226,284L1309,391L1347,219Z" fill="#44a4bf" stroke="#44a4bf" stroke-width="1.51"/><path d="M1139,-187L1220,-17L1349,-188Z" fill="#9fc5be" stroke="#9fc5be" stroke-width="1.51"/><path d="M1349,-188L1220,-17L1357,-83Z" fill="#9cbeb9" stroke="#9cbeb9" stroke-width="1.51"/><path d="M1204,848L1073,921L1359,932Z" fill="#245b95" stroke="#245b95" stroke-width="1.51"/><path d="M1301,727L1204,848L1359,932Z" fill="#275ca1" stroke="#275ca1" stroke-width="1.51"/><path d="M1239,395L1156,530L1337,549Z" fill="#2093c0" stroke="#2093c0" stroke-width="1.51"/><path d="M1321,169L1226,284L1347,219Z" fill="#55a9bd" stroke="#55a9bd" stroke-width="1.51"/><path d="M1226,284L1239,395L1309,391Z" fill="#32a2c2" stroke="#32a2c2" stroke-width="1.51"/><path d="M1156,530L1130,751L1301,727Z" fill="#2a79b3" stroke="#2a79b3" stroke-width="1.51"/><path d="M1232,102L1226,284L1321,169Z" fill="#60b0be" stroke="#60b0be" stroke-width="1.51"/><path d="M1130,751L1204,848L1301,727Z" fill="#2e68ac" stroke="#2e68ac" stroke-width="1.51"/><path d="M1043,675L1130,751L1156,530Z" fill="#2f7fb5" stroke="#2f7fb5" stroke-width="1.51"/><path d="M1139,-187L1093,-65L1220,-17Z" fill="#9ec9bb" stroke="#9ec9bb" stroke-width="1.51"/><path d="M1220,-17L1038,78L1232,102Z" fill="#88c2bc" stroke="#88c2bc" stroke-width="1.51"/><path d="M1037,227L1226,284L1232,102Z" fill="#5db4be" stroke="#5db4be" stroke-width="1.51"/><path d="M1038,78L1037,227L1232,102Z" fill="#74bebe" stroke="#74bebe" stroke-width="1.51"/><path d="M1226,284L1038,437L1239,395Z" fill="#35a6c2" stroke="#35a6c2" stroke-width="1.51"/><path d="M1038,437L1156,530L1239,395Z" fill="#2e9dc2" stroke="#2e9dc2" stroke-width="1.51"/><path d="M1039,592L1043,675L1156,530Z" fill="#2f8bba" stroke="#2f8bba" stroke-width="1.51"/><path d="M1037,227L1038,437L1226,284Z" fill="#45afc2" stroke="#45afc2" stroke-width="1.51"/><path d="M1093,-65L1038,78L1220,-17Z" fill="#93c7bc" stroke="#93c7bc" stroke-width="1.51"/><path d="M1130,751L1073,921L1204,848Z" fill="#3066a2" stroke="#3066a2" stroke-width="1.51"/><path d="M538,866L237,913L784,928Z" fill="#647992" stroke="#647992" stroke-width="1.51"/><path d="M1038,437L1039,592L1156,530Z" fill="#2d98c0" stroke="#2d98c0" stroke-width="1.51"/><path d="M939,693L1073,921L1130,751Z" fill="#3970ad" stroke="#3970ad" stroke-width="1.51"/><path d="M1043,675L939,693L1130,751Z" fill="#367cb2" stroke="#367cb2" stroke-width="1.51"/><path d="M1090,-236L1093,-65L1139,-187Z" fill="#a4cfc3" stroke="#a4cfc3" stroke-width="1.51"/><path d="M883,870L784,928L1073,921Z" fill="#386b96" stroke="#386b96" stroke-width="1.51"/><path d="M939,693L883,870L1073,921Z" fill="#3b71a6" stroke="#3b71a6" stroke-width="1.51"/><path d="M941,158L1037,227L1038,78Z" fill="#71c2be" stroke="#71c2be" stroke-width="1.51"/><path d="M1037,227L916,408L1038,437Z" fill="#3fb2c4" stroke="#3fb2c4" stroke-width="1.51"/><path d="M847,-86L1038,78L1093,-65Z" fill="#9ad1bc" stroke="#9ad1bc" stroke-width="1.51"/><path d="M1090,-236L866,-221L1093,-65Z" fill="#a8d4c5" stroke="#a8d4c5" stroke-width="1.51"/><path d="M866,-221L847,-86L1093,-65Z" fill="#a9d8be" stroke="#a9d8be" stroke-width="1.51"/><path d="M889,244L916,408L1037,227Z" fill="#52bbc3" stroke="#52bbc3" stroke-width="1.51"/><path d="M847,-86L941,158L1038,78Z" fill="#91d0bc" stroke="#91d0bc" stroke-width="1.51"/><path d="M916,408L870,551L1038,437Z" fill="#3aa8c2" stroke="#3aa8c2" stroke-width="1.51"/><path d="M1038,437L870,551L1039,592Z" fill="#339dc0" stroke="#339dc0" stroke-width="1.51"/><path d="M1039,592L939,693L1043,675Z" fill="#3586b6" stroke="#3586b6" stroke-width="1.51"/><path d="M870,551L939,693L1039,592Z" fill="#3890b9" stroke="#3890b9" stroke-width="1.51"/><path d="M941,158L889,244L1037,227Z" fill="#63c0c0" stroke="#63c0c0" stroke-width="1.51"/><path d="M889,244L769,415L916,408Z" fill="#4fb9c3" stroke="#4fb9c3" stroke-width="1.51"/><path d="M726,673L883,870L939,693Z" fill="#4a7faf" stroke="#4a7faf" stroke-width="1.51"/><path d="M870,551L726,673L939,693Z" fill="#478fb6" stroke="#478fb6" stroke-width="1.51"/><path d="M780,144L889,244L941,158Z" fill="#73c6be" stroke="#73c6be" stroke-width="1.51"/><path d="M847,-86L780,144L941,158Z" fill="#92d1bb" stroke="#92d1bb" stroke-width="1.51"/><path d="M681,34L780,144L847,-86Z" fill="#a0d8b9" stroke="#a0d8b9" stroke-width="1.51"/><path d="M791,-118L847,-86L866,-221Z" fill="#b0ddbf" stroke="#b0ddbf" stroke-width="1.51"/><path d="M769,415L870,551L916,408Z" fill="#47acc1" stroke="#47acc1" stroke-width="1.51"/><path d="M769,415L729,523L870,551Z" fill="#4caac0" stroke="#4caac0" stroke-width="1.51"/><path d="M726,673L784,928L883,870Z" fill="#4e76a5" stroke="#4e76a5" stroke-width="1.51"/><path d="M780,144L684,312L889,244Z" fill="#6fc5be" stroke="#6fc5be" stroke-width="1.51"/><path d="M684,312L769,415L889,244Z" fill="#5dbfc1" stroke="#5dbfc1" stroke-width="1.51"/><path d="M791,-118L681,34L847,-86Z" fill="#acdcb9" stroke="#acdcb9" stroke-width="1.51"/><path d="M729,523L726,673L870,551Z" fill="#4f9cba" stroke="#4f9cba" stroke-width="1.51"/><path d="M577,-234L791,-118L866,-221Z" fill="#b9e1c4" stroke="#b9e1c4" stroke-width="1.51"/><path d="M591,221L684,312L780,144Z" fill="#79cabd" stroke="#79cabd" stroke-width="1.51"/><path d="M726,673L538,866L784,928Z" fill="#597aa5" stroke="#597aa5" stroke-width="1.51"/><path d="M637,18L681,34L791,-118Z" fill="#acddb8" stroke="#acddb8" stroke-width="1.51"/><path d="M577,-234L637,18L791,-118Z" fill="#bae2b8" stroke="#bae2b8" stroke-width="1.51"/><path d="M589,662L538,866L726,673Z" fill="#6389ad" stroke="#6389ad" stroke-width="1.51"/><path d="M681,34L610,90L780,144Z" fill="#9ad6b9" stroke="#9ad6b9" stroke-width="1.51"/><path d="M610,90L591,221L780,144Z" fill="#8cd1ba" stroke="#8cd1ba" stroke-width="1.51"/><path d="M595,615L726,673L729,523Z" fill="#589bb6" stroke="#589bb6" stroke-width="1.51"/><path d="M527,416L729,523L769,415Z" fill="#5db4be" stroke="#5db4be" stroke-width="1.51"/><path d="M684,312L527,416L769,415Z" fill="#63bdbf" stroke="#63bdbf" stroke-width="1.51"/><path d="M595,615L589,662L726,673Z" fill="#5e94b3" stroke="#5e94b3" stroke-width="1.51"/><path d="M527,416L595,615L729,523Z" fill="#62adbc" stroke="#62adbc" stroke-width="1.51"/><path d="M527,416L497,465L595,615Z" fill="#6eb4bd" stroke="#6eb4bd" stroke-width="1.51"/><path d="M577,-234L455,-11L637,18Z" fill="#c2e6b6" stroke="#c2e6b6" stroke-width="1.51"/><path d="M637,18L610,90L681,34Z" fill="#a8dcb8" stroke="#a8dcb8" stroke-width="1.51"/><path d="M591,221L527,416L684,312Z" fill="#74c7be" stroke="#74c7be" stroke-width="1.51"/><path d="M444,838L237,913L538,866Z" fill="#758197" stroke="#758197" stroke-width="1.51"/><path d="M443,782L538,866L589,662Z" fill="#7088aa" stroke="#7088aa" stroke-width="1.51"/><path d="M447,328L527,416L591,221Z" fill="#7ecabd" stroke="#7ecabd" stroke-width="1.51"/><path d="M497,465L465,546L595,615Z" fill="#71adb9" stroke="#71adb9" stroke-width="1.51"/><path d="M455,-11L610,90L637,18Z" fill="#b2e0b7" stroke="#b2e0b7" stroke-width="1.51"/><path d="M381,-136L455,-11L577,-234Z" fill="#d0ecb8" stroke="#d0ecb8" stroke-width="1.51"/><path d="M475,167L591,221L610,90Z" fill="#97d6b9" stroke="#97d6b9" stroke-width="1.51"/><path d="M455,-11L475,167L610,90Z" fill="#afdfb7" stroke="#afdfb7" stroke-width="1.51"/><path d="M475,167L447,328L591,221Z" fill="#8ed1bb" stroke="#8ed1bb" stroke-width="1.51"/><path d="M465,546L589,662L595,615Z" fill="#6ca0b5" stroke="#6ca0b5" stroke-width="1.51"/><path d="M465,546L443,782L589,662Z" fill="#7298b0" stroke="#7298b0" stroke-width="1.51"/><path d="M301,-219L381,-136L577,-234Z" fill="#daf0c0" stroke="#daf0c0" stroke-width="1.51"/><path d="M344,745L443,782L465,546Z" fill="#7d98ae" stroke="#7d98ae" stroke-width="1.51"/><path d="M443,782L444,838L538,866Z" fill="#7282a1" stroke="#7282a1" stroke-width="1.51"/><path d="M447,328L497,465L527,416Z" fill="#7bc3be" stroke="#7bc3be" stroke-width="1.51"/><path d="M455,-11L327,17L475,167Z" fill="#bfe5b5" stroke="#bfe5b5" stroke-width="1.51"/><path d="M327,17L304,131L475,167Z" fill="#bae3b6" stroke="#bae3b6" stroke-width="1.51"/><path d="M343,389L465,546L497,465Z" fill="#7fbdbc" stroke="#7fbdbc" stroke-width="1.51"/><path d="M447,328L343,389L497,465Z" fill="#84c7bd" stroke="#84c7bd" stroke-width="1.51"/><path d="M304,131L260,324L447,328Z" fill="#9ed7ba" stroke="#9ed7ba" stroke-width="1.51"/><path d="M232,543L344,745L465,546Z" fill="#86a8b3" stroke="#86a8b3" stroke-width="1.51"/><path d="M304,131L447,328L475,167Z" fill="#9ed8b9" stroke="#9ed8b9" stroke-width="1.51"/><path d="M343,389L232,543L465,546Z" fill="#88bdbb" stroke="#88bdbb" stroke-width="1.51"/><path d="M381,-136L327,17L455,-11Z" fill="#d0ecb4" stroke="#d0ecb4" stroke-width="1.51"/><path d="M443,782L344,745L444,838Z" fill="#7e89a8" stroke="#7e89a8" stroke-width="1.51"/><path d="M260,324L343,389L447,328Z" fill="#91cfbd" stroke="#91cfbd" stroke-width="1.51"/><path d="M344,745L237,913L444,838Z" fill="#8087a0" stroke="#8087a0" stroke-width="1.51"/><path d="M112,868L-106,902L237,913Z" fill="#898692" stroke="#898692" stroke-width="1.51"/><path d="M301,-219L109,-84L327,17Z" fill="#e1f3b2" stroke="#e1f3b2" stroke-width="1.51"/><path d="M232,543L159,623L344,745Z" fill="#8ca5b1" stroke="#8ca5b1" stroke-width="1.51"/><path d="M301,-219L327,17L381,-136Z" fill="#ddf2b4" stroke="#ddf2b4" stroke-width="1.51"/><path d="M-23,-198L93,-142L301,-219Z" fill="#eff9bd" stroke="#eff9bd" stroke-width="1.51"/><path d="M157,251L260,324L304,131Z" fill="#a8dbb8" stroke="#a8dbb8" stroke-width="1.51"/><path d="M260,324L148,416L343,389Z" fill="#96cebc" stroke="#96cebc" stroke-width="1.51"/><path d="M148,416L232,543L343,389Z" fill="#92c5bb" stroke="#92c5bb" stroke-width="1.51"/><path d="M122,740L237,913L344,745Z" fill="#8c8ca7" stroke="#8c8ca7" stroke-width="1.51"/><path d="M159,623L122,740L344,745Z" fill="#8e9cad" stroke="#8e9cad" stroke-width="1.51"/><path d="M93,-142L109,-84L301,-219Z" fill="#eaf7b8" stroke="#eaf7b8" stroke-width="1.51"/><path d="M109,-84L304,131L327,17Z" fill="#d2eeb3" stroke="#d2eeb3" stroke-width="1.51"/><path d="M122,740L112,868L237,913Z" fill="#8b8a9d" stroke="#8b8a9d" stroke-width="1.51"/><path d="M87,174L157,251L304,131Z" fill="#b5e1b6" stroke="#b5e1b6" stroke-width="1.51"/><path d="M109,-84L87,174L304,131Z" fill="#cfecb4" stroke="#cfecb4" stroke-width="1.51"/><path d="M157,251L148,416L260,324Z" fill="#9fd5bb" stroke="#9fd5bb" stroke-width="1.51"/><path d="M-18,857L-106,902L112,868Z" fill="#8e899a" stroke="#8e899a" stroke-width="1.51"/><path d="M148,416L159,623L232,543Z" fill="#94bbb9" stroke="#94bbb9" stroke-width="1.51"/><path d="M-55,-12L87,174L109,-84Z" fill="#def2b4" stroke="#def2b4" stroke-width="1.51"/><path d="M4,251L148,416L157,251Z" fill="#a9d9ba" stroke="#a9d9ba" stroke-width="1.51"/><path d="M-67,553L-5,691L159,623Z" fill="#9aacb3" stroke="#9aacb3" stroke-width="1.51"/><path d="M-34,478L-67,553L159,623Z" fill="#9dbab9" stroke="#9dbab9" stroke-width="1.51"/><path d="M-5,691L122,740L159,623Z" fill="#96a0ad" stroke="#96a0ad" stroke-width="1.51"/><path d="M148,416L-34,478L159,623Z" fill="#9ac1ba" stroke="#9ac1ba" stroke-width="1.51"/><path d="M87,174L4,251L157,251Z" fill="#b5e0b8" stroke="#b5e0b8" stroke-width="1.51"/><path d="M4,251L-34,478L148,416Z" fill="#a4d2bd" stroke="#a4d2bd" stroke-width="1.51"/><path d="M-55,-12L-46,163L87,174Z" fill="#d0ecb9" stroke="#d0ecb9" stroke-width="1.51"/><path d="M-18,857L112,868L122,740Z" fill="#938ea1" stroke="#938ea1" stroke-width="1.51"/><path d="M-5,691L-18,857L122,740Z" fill="#9896aa" stroke="#9896aa" stroke-width="1.51"/><path d="M93,-142L-55,-12L109,-84Z" fill="#ebf7b1" stroke="#ebf7b1" stroke-width="1.51"/><path d="M-23,-198L-55,-12L93,-142Z" fill="#f0f9b7" stroke="#f0f9b7" stroke-width="1.51"/><path d="M-46,163L4,251L87,174Z" fill="#bce3b9" stroke="#bce3b9" stroke-width="1.51"/><path d="M-187,-77L-55,-12L-23,-198Z" fill="#f1fabb" stroke="#f1fabb" stroke-width="1.51"/><path d="M-175,740L-18,857L-5,691Z" fill="#9a97b0" stroke="#9a97b0" stroke-width="1.51"/><path d="M-67,553L-133,628L-5,691Z" fill="#9cadb9" stroke="#9cadb9" stroke-width="1.51"/><path d="M-46,163L-153,173L4,251Z" fill="#bee4bf" stroke="#bee4bf" stroke-width="1.51"/><path d="M-153,173L-219,298L4,251Z" fill="#b9e1c4" stroke="#b9e1c4" stroke-width="1.51"/><path d="M-104,481L-34,478L4,251Z" fill="#a5d1c2" stroke="#a5d1c2" stroke-width="1.51"/><path d="M-219,298L-104,481L4,251Z" fill="#abd9c6" stroke="#abd9c6" stroke-width="1.51"/><path d="M-55,-12L-153,173L-46,163Z" fill="#d2edbe" stroke="#d2edbe" stroke-width="1.51"/><path d="M-175,740L-106,902L-18,857Z" fill="#968fa8" stroke="#968fa8" stroke-width="1.51"/><path d="M-133,628L-175,740L-5,691Z" fill="#9ca3b7" stroke="#9ca3b7" stroke-width="1.51"/><path d="M-215,-163L-187,-77L-23,-198Z" fill="#f6fcc5" stroke="#f6fcc5" stroke-width="1.51"/><path d="M-104,481L-67,553L-34,478Z" fill="#a0c4c2" stroke="#a0c4c2" stroke-width="1.51"/><path d="M-187,-77L-153,173L-55,-12Z" fill="#e3f4bf" stroke="#e3f4bf" stroke-width="1.51"/><path d="M-104,481L-133,628L-67,553Z" fill="#9fbac1" stroke="#9fbac1" stroke-width="1.51"/><path d="M-219,298L-133,628L-104,481Z" fill="#a4cac8" stroke="#a4cac8" stroke-width="1.51"/><path d="M-219,298L-175,740L-133,628Z" fill="#a0bbc5" stroke="#a0bbc5" stroke-width="1.51"/><path d="M-187,-77L-219,298L-153,173Z" fill="#d0ecc5" stroke="#d0ecc5" stroke-width="1.51"/><path d="M-215,-163L-219,298L-187,-77Z" fill="#e6f5c4" stroke="#e6f5c4" stroke-width="1.51"/></svg>