<svg xmlns="http://www.w3.org/2000/svg" width="1920" height="1080"><path d="M4,-234L377,-219L738,-257Z" fill="#d75b3c" stroke="#d75b3c" stroke-width="1.51"/><path d="M81,1329L9,1338L909,1347Z" fill="#948144" stroke="#948144" stroke-width="1.51"/><path d="M4,-234L738,-257L1128,-270Z" fill="#d9794d" stroke="#d9794d" stroke-width="1.51"/><path d="M738,-257L856,-255L1128,-270Z" fill="#dd8f68" stroke="#dd8f68" stroke-width="1.51"/><path d="M1128,-270L1339,-226L1430,-223Z" fill="#c68b4f" stroke="#c68b4f" stroke-width="1.51"/><path d="M1128,-270L1430,-223L1668,-249Z" fill="#ba8647" stroke="#ba8647" stroke-width="1.51"/><path d="M1821,1280L1600,1264L1995,1317Z" fill="#2c944e" stroke="#2c944e" stroke-width="1.51"/><path d="M1600,1264L1177,1295L1995,1317Z" fill="#4ea154" stroke="#4ea154" stroke-width="1.51"/><path d="M1177,1295L909,1347L1995,1317Z" fill="#6ba959" stroke="#6ba959" stroke-width="1.51"/><path d="M1986,677L2023,697L2064,477Z" fill="#8abd74" stroke="#8abd74" stroke-width="1.51"/><path d="M1995,1317L909,1347L2067,1327Z" fill="#419850" stroke="#419850" stroke-width="1.51"/><path d="M2064,477L2023,697L2074,783Z" fill="#84b86d" stroke="#84b86d" stroke-width="1.51"/><path d="M2047,89L1989,120L2081,301Z" fill="#99944e" stroke="#99944e" stroke-width="1.51"/><path d="M2063,428L2064,477L2081,301Z" fill="#93b068" stroke="#93b068" stroke-width="1.51"/><path d="M1668,-249L1877,-162L2121,-201Z" fill="#8f703b" stroke="#8f703b" stroke-width="1.51"/><path d="M2121,-201L1877,-162L2125,-15Z" fill="#8f6834" stroke="#8f6834" stroke-width="1.51"/><path d="M1877,-162L1884,-8L2125,-15Z" fill="#99783d" stroke="#99783d" stroke-width="1.51"/><path d="M2047,89L2081,301L2125,-15Z" fill="#978848" stroke="#978848" stroke-width="1.51"/><path d="M2074,783L1994,862L2141,1018Z" fill="#60a754" stroke="#60a754" stroke-width="1.51"/><path d="M1994,862L1993,1004L2141,1018Z" fill="#52a454" stroke="#52a454" stroke-width="1.51"/><path d="M2081,301L2064,477L2141,1018Z" fill="#88b673" stroke="#88b673" stroke-width="1.51"/><path d="M2064,477L2074,783L2141,1018Z" fill="#73ad5e" stroke="#73ad5e" stroke-width="1.51"/><path d="M1993,1004L2096,1173L2141,1018Z" fill="#38964f" stroke="#38964f" stroke-width="1.51"/><path d="M2096,1173L2067,1327L2141,1018Z" fill="#1b8848" stroke="#1b8848" stroke-width="1.51"/><path d="M2125,-15L2081,301L2141,1018Z" fill="#8fae6b" stroke="#8fae6b" stroke-width="1.51"/><path d="M1995,1317L2067,1327L2096,1173Z" fill="#0d8043" stroke="#0d8043" stroke-width="1.51"/><path d="M1884,-8L2047,89L2125,-15Z" fill="#9a7e42" stroke="#9a7e42" stroke-width="1.51"/><path d="M1893,581L1986,677L2064,477Z" fill="#91c37d" stroke="#91c37d" stroke-width="1.51"/><path d="M1989,120L1910,182L2081,301Z" fill="#9c9e53" stroke="#9c9e53" stroke-width="1.51"/><path d="M1921,351L2063,428L2081,301Z" fill="#96b065" stroke="#96b065" stroke-width="1.51"/><path d="M1904,1115L1995,1317L2096,1173Z" fill="#168f4c" stroke="#168f4c" stroke-width="1.51"/><path d="M1993,1004L1904,1115L2096,1173Z" fill="#349b52" stroke="#349b52" stroke-width="1.51"/><path d="M1910,182L1921,351L2081,301Z" fill="#9cab5e" stroke="#9cab5e" stroke-width="1.51"/><path d="M2023,697L1994,862L2074,783Z" fill="#74b35f" stroke="#74b35f" stroke-width="1.51"/><path d="M1668,-249L1736,-189L1877,-162Z" fill="#9d7940" stroke="#9d7940" stroke-width="1.51"/><path d="M1884,-8L1989,120L2047,89Z" fill="#9f8948" stroke="#9f8948" stroke-width="1.51"/><path d="M2063,428L1921,351L2064,477Z" fill="#95b66e" stroke="#95b66e" stroke-width="1.51"/><path d="M1921,351L1847,499L2064,477Z" fill="#99c175" stroke="#99c175" stroke-width="1.51"/><path d="M1847,499L1893,581L2064,477Z" fill="#98c881" stroke="#98c881" stroke-width="1.51"/><path d="M1986,677L1994,862L2023,697Z" fill="#7bb864" stroke="#7bb864" stroke-width="1.51"/><path d="M1986,677L1817,739L1994,862Z" fill="#7cbe67" stroke="#7cbe67" stroke-width="1.51"/><path d="M1904,1115L1821,1280L1995,1317Z" fill="#1b934d" stroke="#1b934d" stroke-width="1.51"/><path d="M1747,986L1993,1004L1994,862Z" fill="#5bb25c" stroke="#5bb25c" stroke-width="1.51"/><path d="M1741,805L1747,986L1994,862Z" fill="#73be60" stroke="#73be60" stroke-width="1.51"/><path d="M1884,-8L1910,182L1989,120Z" fill="#a2934d" stroke="#a2934d" stroke-width="1.51"/><path d="M1817,739L1741,805L1994,862Z" fill="#7ec266" stroke="#7ec266" stroke-width="1.51"/><path d="M1747,986L1904,1115L1993,1004Z" fill="#4bad5b" stroke="#4bad5b" stroke-width="1.51"/><path d="M1442,1237L1177,1295L1600,1264Z" fill="#6ab05a" stroke="#6ab05a" stroke-width="1.51"/><path d="M1893,581L1817,739L1986,677Z" fill="#8dc774" stroke="#8dc774" stroke-width="1.51"/><path d="M1877,-162L1796,-4L1884,-8Z" fill="#a38242" stroke="#a38242" stroke-width="1.51"/><path d="M1785,1175L1821,1280L1904,1115Z" fill="#2f9f54" stroke="#2f9f54" stroke-width="1.51"/><path d="M1727,240L1831,381L1910,182Z" fill="#aab663" stroke="#aab663" stroke-width="1.51"/><path d="M1884,-8L1796,-4L1910,182Z" fill="#a8914c" stroke="#a8914c" stroke-width="1.51"/><path d="M1796,-4L1747,152L1910,182Z" fill="#ad9e53" stroke="#ad9e53" stroke-width="1.51"/><path d="M1831,381L1847,499L1921,351Z" fill="#a2c574" stroke="#a2c574" stroke-width="1.51"/><path d="M1910,182L1831,381L1921,351Z" fill="#a2b665" stroke="#a2b665" stroke-width="1.51"/><path d="M1747,986L1785,1175L1904,1115Z" fill="#49ac5a" stroke="#49ac5a" stroke-width="1.51"/><path d="M1747,152L1727,240L1910,182Z" fill="#aead5b" stroke="#aead5b" stroke-width="1.51"/><path d="M1736,-189L1796,-4L1877,-162Z" fill="#a47d3e" stroke="#a47d3e" stroke-width="1.51"/><path d="M1847,499L1817,739L1893,581Z" fill="#99ce7e" stroke="#99ce7e" stroke-width="1.51"/><path d="M1588,588L1817,739L1847,499Z" fill="#a5d582" stroke="#a5d582" stroke-width="1.51"/><path d="M1588,588L1626,746L1817,739Z" fill="#a3d779" stroke="#a3d779" stroke-width="1.51"/><path d="M1687,426L1588,588L1847,499Z" fill="#b2d98a" stroke="#b2d98a" stroke-width="1.51"/><path d="M1831,381L1687,426L1847,499Z" fill="#aacc7b" stroke="#aacc7b" stroke-width="1.51"/><path d="M1671,110L1747,152L1796,-4Z" fill="#b59f53" stroke="#b59f53" stroke-width="1.51"/><path d="M1727,240L1687,426L1831,381Z" fill="#afc671" stroke="#afc671" stroke-width="1.51"/><path d="M1741,805L1692,978L1747,986Z" fill="#77c364" stroke="#77c364" stroke-width="1.51"/><path d="M1747,986L1611,1130L1785,1175Z" fill="#56b35e" stroke="#56b35e" stroke-width="1.51"/><path d="M1736,-189L1629,-2L1796,-4Z" fill="#b18b47" stroke="#b18b47" stroke-width="1.51"/><path d="M1689,800L1741,805L1817,739Z" fill="#8ecc6c" stroke="#8ecc6c" stroke-width="1.51"/><path d="M1626,746L1689,800L1817,739Z" fill="#95d070" stroke="#95d070" stroke-width="1.51"/><path d="M1785,1175L1600,1264L1821,1280Z" fill="#3ba054" stroke="#3ba054" stroke-width="1.51"/><path d="M1689,800L1692,978L1741,805Z" fill="#86ca67" stroke="#86ca67" stroke-width="1.51"/><path d="M1692,978L1611,1130L1747,986Z" fill="#67bd63" stroke="#67bd63" stroke-width="1.51"/><path d="M1629,-2L1671,110L1796,-4Z" fill="#b99a50" stroke="#b99a50" stroke-width="1.51"/><path d="M1648,250L1687,426L1727,240Z" fill="#b7c56d" stroke="#b7c56d" stroke-width="1.51"/><path d="M1611,1130L1600,1264L1785,1175Z" fill="#4bac5a" stroke="#4bac5a" stroke-width="1.51"/><path d="M1671,110L1648,250L1727,240Z" fill="#bab761" stroke="#bab761" stroke-width="1.51"/><path d="M1668,-249L1629,-2L1736,-189Z" fill="#ad8343" stroke="#ad8343" stroke-width="1.51"/><path d="M1671,110L1727,240L1747,152Z" fill="#b7af5c" stroke="#b7af5c" stroke-width="1.51"/><path d="M1689,800L1511,893L1692,978Z" fill="#8acd67" stroke="#8acd67" stroke-width="1.51"/><path d="M1485,-14L1629,-2L1668,-249Z" fill="#bc8e47" stroke="#bc8e47" stroke-width="1.51"/><path d="M1430,-223L1485,-14L1668,-249Z" fill="#bb8945" stroke="#bb8945" stroke-width="1.51"/><path d="M1529,205L1648,250L1671,110Z" fill="#c2b861" stroke="#c2b861" stroke-width="1.51"/><path d="M1648,250L1443,399L1687,426Z" fill="#c1d276" stroke="#c1d276" stroke-width="1.51"/><path d="M1626,746L1511,893L1689,800Z" fill="#9ad36d" stroke="#9ad36d" stroke-width="1.51"/><path d="M1504,1114L1611,1130L1692,978Z" fill="#6abd61" stroke="#6abd61" stroke-width="1.51"/><path d="M1511,893L1504,1114L1692,978Z" fill="#7ec766" stroke="#7ec766" stroke-width="1.51"/><path d="M1443,399L1588,588L1687,426Z" fill="#c3df87" stroke="#c3df87" stroke-width="1.51"/><path d="M1441,1034L1504,1114L1511,893Z" fill="#86cb67" stroke="#86cb67" stroke-width="1.51"/><path d="M1529,205L1443,399L1648,250Z" fill="#c9cb6d" stroke="#c9cb6d" stroke-width="1.51"/><path d="M1629,-2L1510,27L1671,110Z" fill="#c4a053" stroke="#c4a053" stroke-width="1.51"/><path d="M1510,27L1529,205L1671,110Z" fill="#c8ae5a" stroke="#c8ae5a" stroke-width="1.51"/><path d="M1443,399L1501,595L1588,588Z" fill="#cae791" stroke="#cae791" stroke-width="1.51"/><path d="M1588,588L1474,714L1626,746Z" fill="#b3de7c" stroke="#b3de7c" stroke-width="1.51"/><path d="M1295,1232L1177,1295L1442,1237Z" fill="#76b662" stroke="#76b662" stroke-width="1.51"/><path d="M1501,595L1474,714L1588,588Z" fill="#bee385" stroke="#bee385" stroke-width="1.51"/><path d="M1504,1114L1600,1264L1611,1130Z" fill="#5db45c" stroke="#5db45c" stroke-width="1.51"/><path d="M1474,714L1511,893L1626,746Z" fill="#a7d971" stroke="#a7d971" stroke-width="1.51"/><path d="M1485,-14L1510,27L1629,-2Z" fill="#c89d50" stroke="#c89d50" stroke-width="1.51"/><path d="M1504,1114L1442,1237L1600,1264Z" fill="#60b35b" stroke="#60b35b" stroke-width="1.51"/><path d="M1443,399L1285,535L1501,595Z" fill="#d6eb92" stroke="#d6eb92" stroke-width="1.51"/><path d="M1474,714L1348,864L1511,893Z" fill="#addc6e" stroke="#addc6e" stroke-width="1.51"/><path d="M1384,180L1443,399L1529,205Z" fill="#d4cc6c" stroke="#d4cc6c" stroke-width="1.51"/><path d="M1510,27L1393,94L1529,205Z" fill="#d2b25b" stroke="#d2b25b" stroke-width="1.51"/><path d="M1393,94L1384,180L1529,205Z" fill="#d7bd61" stroke="#d7bd61" stroke-width="1.51"/><path d="M1384,180L1333,389L1443,399Z" fill="#d9d877" stroke="#d9d877" stroke-width="1.51"/><path d="M1430,-223L1326,-3L1485,-14Z" fill="#d0984c" stroke="#d0984c" stroke-width="1.51"/><path d="M1388,1097L1442,1237L1504,1114Z" fill="#73bd60" stroke="#73bd60" stroke-width="1.51"/><path d="M1485,-14L1393,94L1510,27Z" fill="#d2a654" stroke="#d2a654" stroke-width="1.51"/><path d="M1348,864L1441,1034L1511,893Z" fill="#9cd569" stroke="#9cd569" stroke-width="1.51"/><path d="M1319,738L1474,714L1501,595Z" fill="#c3e67e" stroke="#c3e67e" stroke-width="1.51"/><path d="M1285,535L1319,738L1501,595Z" fill="#d1ec8d" stroke="#d1ec8d" stroke-width="1.51"/><path d="M1441,1034L1388,1097L1504,1114Z" fill="#7fc564" stroke="#7fc564" stroke-width="1.51"/><path d="M1339,-226L1326,-3L1430,-223Z" fill="#cd914b" stroke="#cd914b" stroke-width="1.51"/><path d="M1319,738L1348,864L1474,714Z" fill="#bce378" stroke="#bce378" stroke-width="1.51"/><path d="M1348,864L1317,998L1441,1034Z" fill="#9cd56d" stroke="#9cd56d" stroke-width="1.51"/><path d="M1333,389L1285,535L1443,399Z" fill="#dce78b" stroke="#dce78b" stroke-width="1.51"/><path d="M1326,-3L1393,94L1485,-14Z" fill="#d8a856" stroke="#d8a856" stroke-width="1.51"/><path d="M1388,1097L1295,1232L1442,1237Z" fill="#74bd62" stroke="#74bd62" stroke-width="1.51"/><path d="M1317,998L1388,1097L1441,1034Z" fill="#8ccd6a" stroke="#8ccd6a" stroke-width="1.51"/><path d="M1229,353L1333,389L1384,180Z" fill="#e1d97a" stroke="#e1d97a" stroke-width="1.51"/><path d="M1184,-78L1326,-3L1339,-226Z" fill="#db9952" stroke="#db9952" stroke-width="1.51"/><path d="M1150,289L1229,353L1384,180Z" fill="#e8d77a" stroke="#e8d77a" stroke-width="1.51"/><path d="M1160,73L1384,180L1393,94Z" fill="#e3ba65" stroke="#e3ba65" stroke-width="1.51"/><path d="M1326,-3L1160,73L1393,94Z" fill="#e4b060" stroke="#e4b060" stroke-width="1.51"/><path d="M1317,998L1224,1018L1388,1097Z" fill="#95d16f" stroke="#95d16f" stroke-width="1.51"/><path d="M1224,1018L1295,1232L1388,1097Z" fill="#89c86b" stroke="#89c86b" stroke-width="1.51"/><path d="M1160,73L1150,289L1384,180Z" fill="#ebc971" stroke="#ebc971" stroke-width="1.51"/><path d="M426,1238L81,1329L909,1347Z" fill="#97964f" stroke="#97964f" stroke-width="1.51"/><path d="M1224,1018L1169,1174L1295,1232Z" fill="#8dc96e" stroke="#8dc96e" stroke-width="1.51"/><path d="M1285,535L1224,746L1319,738Z" fill="#d5ed8b" stroke="#d5ed8b" stroke-width="1.51"/><path d="M1247,518L1285,535L1333,389Z" fill="#e3ee96" stroke="#e3ee96" stroke-width="1.51"/><path d="M1224,1018L1317,998L1348,864Z" fill="#a5d872" stroke="#a5d872" stroke-width="1.51"/><path d="M1145,825L1224,1018L1348,864Z" fill="#b6e077" stroke="#b6e077" stroke-width="1.51"/><path d="M1224,746L1145,825L1348,864Z" fill="#c5e67e" stroke="#c5e67e" stroke-width="1.51"/><path d="M1319,738L1224,746L1348,864Z" fill="#c3e67d" stroke="#c3e67d" stroke-width="1.51"/><path d="M643,1250L426,1238L909,1347Z" fill="#96ab61" stroke="#96ab61" stroke-width="1.51"/><path d="M1229,353L1247,518L1333,389Z" fill="#e5e98d" stroke="#e5e98d" stroke-width="1.51"/><path d="M1128,-270L1184,-78L1339,-226Z" fill="#d59255" stroke="#d59255" stroke-width="1.51"/><path d="M1247,518L1224,746L1285,535Z" fill="#e0f298" stroke="#e0f298" stroke-width="1.51"/><path d="M1184,-78L1160,73L1326,-3Z" fill="#e8aa60" stroke="#e8aa60" stroke-width="1.51"/><path d="M1093,547L1224,746L1247,518Z" fill="#e6f59d" stroke="#e6f59d" stroke-width="1.51"/><path d="M1169,1174L1177,1295L1295,1232Z" fill="#82be69" stroke="#82be69" stroke-width="1.51"/><path d="M1145,825L1048,889L1224,1018Z" fill="#bde380" stroke="#bde380" stroke-width="1.51"/><path d="M1094,337L1093,547L1229,353Z" fill="#f1ed97" stroke="#f1ed97" stroke-width="1.51"/><path d="M1229,353L1093,547L1247,518Z" fill="#edf19c" stroke="#edf19c" stroke-width="1.51"/><path d="M1027,206L1150,289L1160,73Z" fill="#f5ce7d" stroke="#f5ce7d" stroke-width="1.51"/><path d="M1096,1256L909,1347L1177,1295Z" fill="#89b973" stroke="#89b973" stroke-width="1.51"/><path d="M973,713L1145,825L1224,746Z" fill="#d8ef8f" stroke="#d8ef8f" stroke-width="1.51"/><path d="M1093,547L973,713L1224,746Z" fill="#e6f59c" stroke="#e6f59c" stroke-width="1.51"/><path d="M1048,889L1038,1002L1224,1018Z" fill="#b5df83" stroke="#b5df83" stroke-width="1.51"/><path d="M1038,1002L1169,1174L1224,1018Z" fill="#a1d57b" stroke="#a1d57b" stroke-width="1.51"/><path d="M1150,289L1094,337L1229,353Z" fill="#f0e289" stroke="#f0e289" stroke-width="1.51"/><path d="M1128,-270L1072,-68L1184,-78Z" fill="#e59a5e" stroke="#e59a5e" stroke-width="1.51"/><path d="M976,-202L1072,-68L1128,-270Z" fill="#e49764" stroke="#e49764" stroke-width="1.51"/><path d="M1055,73L1027,206L1160,73Z" fill="#f7c279" stroke="#f7c279" stroke-width="1.51"/><path d="M1072,-68L1055,73L1160,73Z" fill="#f5b26f" stroke="#f5b26f" stroke-width="1.51"/><path d="M1038,1002L1008,1175L1169,1174Z" fill="#9ed27f" stroke="#9ed27f" stroke-width="1.51"/><path d="M1169,1174L1096,1256L1177,1295Z" fill="#87bf6f" stroke="#87bf6f" stroke-width="1.51"/><path d="M1072,-68L1160,73L1184,-78Z" fill="#eda965" stroke="#eda965" stroke-width="1.51"/><path d="M1008,1175L1096,1256L1169,1174Z" fill="#8ec678" stroke="#8ec678" stroke-width="1.51"/><path d="M856,-255L976,-202L1128,-270Z" fill="#df936b" stroke="#df936b" stroke-width="1.51"/><path d="M973,713L1048,889L1145,825Z" fill="#d5ed90" stroke="#d5ed90" stroke-width="1.51"/><path d="M1027,206L1094,337L1150,289Z" fill="#f6dd8a" stroke="#f6dd8a" stroke-width="1.51"/><path d="M907,332L1093,547L1094,337Z" fill="#faf0a2" stroke="#faf0a2" stroke-width="1.51"/><path d="M907,332L871,584L1093,547Z" fill="#fffab6" stroke="#fffab6" stroke-width="1.51"/><path d="M897,634L973,713L1093,547Z" fill="#f3faae" stroke="#f3faae" stroke-width="1.51"/><path d="M1027,206L907,332L1094,337Z" fill="#fce295" stroke="#fce295" stroke-width="1.51"/><path d="M1008,1175L909,1347L1096,1256Z" fill="#90c17c" stroke="#90c17c" stroke-width="1.51"/><path d="M871,584L897,634L1093,547Z" fill="#fafcb7" stroke="#fafcb7" stroke-width="1.51"/><path d="M973,713L859,806L1048,889Z" fill="#ddf19b" stroke="#ddf19b" stroke-width="1.51"/><path d="M976,-202L830,-34L1072,-68Z" fill="#f6a271" stroke="#f6a271" stroke-width="1.51"/><path d="M830,-34L904,63L1072,-68Z" fill="#fcae77" stroke="#fcae77" stroke-width="1.51"/><path d="M904,63L1055,73L1072,-68Z" fill="#fbb477" stroke="#fbb477" stroke-width="1.51"/><path d="M899,227L907,332L1027,206Z" fill="#ffdc94" stroke="#ffdc94" stroke-width="1.51"/><path d="M851,1142L1008,1175L1038,1002Z" fill="#a8d68b" stroke="#a8d68b" stroke-width="1.51"/><path d="M887,964L851,1142L1038,1002Z" fill="#b5dc8c" stroke="#b5dc8c" stroke-width="1.51"/><path d="M887,964L1038,1002L1048,889Z" fill="#c2e48f" stroke="#c2e48f" stroke-width="1.51"/><path d="M904,63L1027,206L1055,73Z" fill="#fec482" stroke="#fec482" stroke-width="1.51"/><path d="M859,806L887,964L1048,889Z" fill="#d0e991" stroke="#d0e991" stroke-width="1.51"/><path d="M904,63L899,227L1027,206Z" fill="#ffcd89" stroke="#ffcd89" stroke-width="1.51"/><path d="M851,1142L909,1347L1008,1175Z" fill="#98c680" stroke="#98c680" stroke-width="1.51"/><path d="M851,1142L789,1260L909,1347Z" fill="#96bd76" stroke="#96bd76" stroke-width="1.51"/><path d="M856,-255L830,-34L976,-202Z" fill="#ed9767" stroke="#ed9767" stroke-width="1.51"/><path d="M897,634L859,806L973,713Z" fill="#eaf39e" stroke="#eaf39e" stroke-width="1.51"/><path d="M737,-108L830,-34L856,-255Z" fill="#f0955f" stroke="#f0955f" stroke-width="1.51"/><path d="M743,340L773,586L871,584Z" fill="#fff1a7" stroke="#fff1a7" stroke-width="1.51"/><path d="M782,967L851,1142L887,964Z" fill="#b8d883" stroke="#b8d883" stroke-width="1.51"/><path d="M859,806L770,848L887,964Z" fill="#d3e488" stroke="#d3e488" stroke-width="1.51"/><path d="M770,848L782,967L887,964Z" fill="#c9de83" stroke="#c9de83" stroke-width="1.51"/><path d="M689,678L859,806L897,634Z" fill="#ecee96" stroke="#ecee96" stroke-width="1.51"/><path d="M773,586L689,678L897,634Z" fill="#f5f09d" stroke="#f5f09d" stroke-width="1.51"/><path d="M738,102L739,257L899,227Z" fill="#ffc97c" stroke="#ffc97c" stroke-width="1.51"/><path d="M738,102L899,227L904,63Z" fill="#ffc17b" stroke="#ffc17b" stroke-width="1.51"/><path d="M743,340L871,584L907,332Z" fill="#ffeb9f" stroke="#ffeb9f" stroke-width="1.51"/><path d="M899,227L739,257L907,332Z" fill="#ffd98c" stroke="#ffd98c" stroke-width="1.51"/><path d="M739,257L743,340L907,332Z" fill="#ffdb8a" stroke="#ffdb8a" stroke-width="1.51"/><path d="M789,1260L643,1250L909,1347Z" fill="#94b46c" stroke="#94b46c" stroke-width="1.51"/><path d="M830,-34L738,102L904,63Z" fill="#feaf70" stroke="#feaf70" stroke-width="1.51"/><path d="M782,967L776,1149L851,1142Z" fill="#aecf7c" stroke="#aecf7c" stroke-width="1.51"/><path d="M871,584L773,586L897,634Z" fill="#f8f5a9" stroke="#f8f5a9" stroke-width="1.51"/><path d="M738,-257L737,-108L856,-255Z" fill="#e38b5b" stroke="#e38b5b" stroke-width="1.51"/><path d="M776,1149L789,1260L851,1142Z" fill="#9ec476" stroke="#9ec476" stroke-width="1.51"/><path d="M689,678L770,848L859,806Z" fill="#e2e68a" stroke="#e2e68a" stroke-width="1.51"/><path d="M743,340L616,523L773,586Z" fill="#ffe99b" stroke="#ffe99b" stroke-width="1.51"/><path d="M640,1079L776,1149L782,967Z" fill="#b1cd76" stroke="#b1cd76" stroke-width="1.51"/><path d="M737,-108L738,102L830,-34Z" fill="#f9a365" stroke="#f9a365" stroke-width="1.51"/><path d="M737,-108L547,29L738,102Z" fill="#f99e5e" stroke="#f99e5e" stroke-width="1.51"/><path d="M634,-157L737,-108L738,-257Z" fill="#e78955" stroke="#e78955" stroke-width="1.51"/><path d="M639,808L583,985L770,848Z" fill="#d2d675" stroke="#d2d675" stroke-width="1.51"/><path d="M689,678L639,808L770,848Z" fill="#e2e181" stroke="#e2e181" stroke-width="1.51"/><path d="M770,848L583,985L782,967Z" fill="#c8d778" stroke="#c8d778" stroke-width="1.51"/><path d="M776,1149L643,1250L789,1260Z" fill="#9abb6c" stroke="#9abb6c" stroke-width="1.51"/><path d="M589,359L616,523L743,340Z" fill="#ffdb89" stroke="#ffdb89" stroke-width="1.51"/><path d="M583,985L640,1079L782,967Z" fill="#bccc73" stroke="#bccc73" stroke-width="1.51"/><path d="M291,1236L81,1329L426,1238Z" fill="#9b8445" stroke="#9b8445" stroke-width="1.51"/><path d="M640,1079L643,1250L776,1149Z" fill="#a3be6c" stroke="#a3be6c" stroke-width="1.51"/><path d="M738,102L641,273L739,257Z" fill="#fec675" stroke="#fec675" stroke-width="1.51"/><path d="M616,523L689,678L773,586Z" fill="#f9ea99" stroke="#f9ea99" stroke-width="1.51"/><path d="M566,-106L547,29L737,-108Z" fill="#f38e53" stroke="#f38e53" stroke-width="1.51"/><path d="M634,-157L566,-106L737,-108Z" fill="#ee8850" stroke="#ee8850" stroke-width="1.51"/><path d="M547,29L641,273L738,102Z" fill="#fdb168" stroke="#fdb168" stroke-width="1.51"/><path d="M377,-219L634,-157L738,-257Z" fill="#e0794b" stroke="#e0794b" stroke-width="1.51"/><path d="M739,257L641,273L743,340Z" fill="#fed27f" stroke="#fed27f" stroke-width="1.51"/><path d="M641,273L589,359L743,340Z" fill="#fed27f" stroke="#fed27f" stroke-width="1.51"/><path d="M570,666L639,808L689,678Z" fill="#ebde82" stroke="#ebde82" stroke-width="1.51"/><path d="M616,523L570,666L689,678Z" fill="#f6e28f" stroke="#f6e28f" stroke-width="1.51"/><path d="M4,-234L122,-195L377,-219Z" fill="#d23f30" stroke="#d23f30" stroke-width="1.51"/><path d="M589,359L491,447L616,523Z" fill="#ffd788" stroke="#ffd788" stroke-width="1.51"/><path d="M377,-219L566,-106L634,-157Z" fill="#e67746" stroke="#e67746" stroke-width="1.51"/><path d="M384,877L469,980L639,808Z" fill="#d2c666" stroke="#d2c666" stroke-width="1.51"/><path d="M570,666L480,709L639,808Z" fill="#ead67a" stroke="#ead67a" stroke-width="1.51"/><path d="M469,980L583,985L639,808Z" fill="#ccca6b" stroke="#ccca6b" stroke-width="1.51"/><path d="M429,1088L426,1238L640,1079Z" fill="#aaaf5d" stroke="#aaaf5d" stroke-width="1.51"/><path d="M547,29L388,231L641,273Z" fill="#fdad62" stroke="#fdad62" stroke-width="1.51"/><path d="M640,1079L426,1238L643,1250Z" fill="#a1b061" stroke="#a1b061" stroke-width="1.51"/><path d="M480,709L384,877L639,808Z" fill="#e0cc6e" stroke="#e0cc6e" stroke-width="1.51"/><path d="M388,231L589,359L641,273Z" fill="#fec070" stroke="#fec070" stroke-width="1.51"/><path d="M583,985L429,1088L640,1079Z" fill="#b7bd67" stroke="#b7bd67" stroke-width="1.51"/><path d="M122,-195L305,-196L377,-219Z" fill="#d94e36" stroke="#d94e36" stroke-width="1.51"/><path d="M439,27L388,231L547,29Z" fill="#fa9555" stroke="#fa9555" stroke-width="1.51"/><path d="M491,447L381,599L570,666Z" fill="#fdd58a" stroke="#fdd58a" stroke-width="1.51"/><path d="M469,980L429,1088L583,985Z" fill="#bdbb63" stroke="#bdbb63" stroke-width="1.51"/><path d="M491,447L570,666L616,523Z" fill="#ffde96" stroke="#ffde96" stroke-width="1.51"/><path d="M445,-20L547,29L566,-106Z" fill="#f4874e" stroke="#f4874e" stroke-width="1.51"/><path d="M381,599L480,709L570,666Z" fill="#f4d17d" stroke="#f4d17d" stroke-width="1.51"/><path d="M388,231L491,447L589,359Z" fill="#fec473" stroke="#fec473" stroke-width="1.51"/><path d="M388,231L347,280L491,447Z" fill="#fdb66a" stroke="#fdb66a" stroke-width="1.51"/><path d="M377,-219L445,-20L566,-106Z" fill="#ec7442" stroke="#ec7442" stroke-width="1.51"/><path d="M445,-20L439,27L547,29Z" fill="#f7894f" stroke="#f7894f" stroke-width="1.51"/><path d="M297,143L388,231L439,27Z" fill="#fa9253" stroke="#fa9253" stroke-width="1.51"/><path d="M377,-219L325,-18L445,-20Z" fill="#ec6d40" stroke="#ec6d40" stroke-width="1.51"/><path d="M277,781L384,877L480,709Z" fill="#e2be66" stroke="#e2be66" stroke-width="1.51"/><path d="M315,361L381,599L491,447Z" fill="#ffc57f" stroke="#ffc57f" stroke-width="1.51"/><path d="M347,280L315,361L491,447Z" fill="#feb96e" stroke="#feb96e" stroke-width="1.51"/><path d="M337,1033L429,1088L469,980Z" fill="#bbb05d" stroke="#bbb05d" stroke-width="1.51"/><path d="M381,599L294,653L480,709Z" fill="#f4c677" stroke="#f4c677" stroke-width="1.51"/><path d="M294,653L277,781L480,709Z" fill="#edbf6c" stroke="#edbf6c" stroke-width="1.51"/><path d="M305,-196L325,-18L377,-219Z" fill="#e45e3a" stroke="#e45e3a" stroke-width="1.51"/><path d="M384,877L337,1033L469,980Z" fill="#c7b45e" stroke="#c7b45e" stroke-width="1.51"/><path d="M315,361L293,597L381,599Z" fill="#ffc182" stroke="#ffc182" stroke-width="1.51"/><path d="M310,1105L291,1236L426,1238Z" fill="#a39850" stroke="#a39850" stroke-width="1.51"/><path d="M310,1105L426,1238L429,1088Z" fill="#aaa255" stroke="#aaa255" stroke-width="1.51"/><path d="M325,-18L297,143L439,27Z" fill="#f77e4a" stroke="#f77e4a" stroke-width="1.51"/><path d="M325,-18L439,27L445,-20Z" fill="#f47d48" stroke="#f47d48" stroke-width="1.51"/><path d="M337,1033L310,1105L429,1088Z" fill="#b5a657" stroke="#b5a657" stroke-width="1.51"/><path d="M194,1010L337,1033L384,877Z" fill="#c5a958" stroke="#c5a958" stroke-width="1.51"/><path d="M297,143L347,280L388,231Z" fill="#fb9d59" stroke="#fb9d59" stroke-width="1.51"/><path d="M293,597L294,653L381,599Z" fill="#f8c079" stroke="#f8c079" stroke-width="1.51"/><path d="M277,781L194,1010L384,877Z" fill="#d3ad58" stroke="#d3ad58" stroke-width="1.51"/><path d="M154,396L293,597L315,361Z" fill="#ffb173" stroke="#ffb173" stroke-width="1.51"/><path d="M151,46L297,143L325,-18Z" fill="#f57245" stroke="#f57245" stroke-width="1.51"/><path d="M305,-196L112,-67L325,-18Z" fill="#e85737" stroke="#e85737" stroke-width="1.51"/><path d="M177,282L315,361L347,280Z" fill="#fca460" stroke="#fca460" stroke-width="1.51"/><path d="M297,143L177,282L347,280Z" fill="#fb9757" stroke="#fb9757" stroke-width="1.51"/><path d="M194,1010L310,1105L337,1033Z" fill="#b9a054" stroke="#b9a054" stroke-width="1.51"/><path d="M154,396L110,589L293,597Z" fill="#feb279" stroke="#feb279" stroke-width="1.51"/><path d="M122,-195L112,-67L305,-196Z" fill="#dd4631" stroke="#dd4631" stroke-width="1.51"/><path d="M112,-67L151,46L325,-18Z" fill="#ed5f3b" stroke="#ed5f3b" stroke-width="1.51"/><path d="M82,808L194,1010L277,781Z" fill="#d4a352" stroke="#d4a352" stroke-width="1.51"/><path d="M193,654L277,781L294,653Z" fill="#efb468" stroke="#efb468" stroke-width="1.51"/><path d="M87,1178L291,1236L310,1105Z" fill="#a68d4a" stroke="#a68d4a" stroke-width="1.51"/><path d="M177,282L154,396L315,361Z" fill="#fba161" stroke="#fba161" stroke-width="1.51"/><path d="M194,1010L87,1178L310,1105Z" fill="#b0924c" stroke="#b0924c" stroke-width="1.51"/><path d="M110,589L193,654L293,597Z" fill="#f6b171" stroke="#f6b171" stroke-width="1.51"/><path d="M293,597L193,654L294,653Z" fill="#f5b771" stroke="#f5b771" stroke-width="1.51"/><path d="M151,46L177,282L297,143Z" fill="#f6814b" stroke="#f6814b" stroke-width="1.51"/><path d="M87,1178L81,1329L291,1236Z" fill="#9a7c40" stroke="#9a7c40" stroke-width="1.51"/><path d="M193,654L82,808L277,781Z" fill="#e4aa5d" stroke="#e4aa5d" stroke-width="1.51"/><path d="M151,46L-5,206L177,282Z" fill="#f17a46" stroke="#f17a46" stroke-width="1.51"/><path d="M110,589L82,808L193,654Z" fill="#eba762" stroke="#eba762" stroke-width="1.51"/><path d="M-2,1131L87,1178L194,1010Z" fill="#aa8745" stroke="#aa8745" stroke-width="1.51"/><path d="M7,966L-2,1131L194,1010Z" fill="#b48c47" stroke="#b48c47" stroke-width="1.51"/><path d="M82,808L7,966L194,1010Z" fill="#c6964b" stroke="#c6964b" stroke-width="1.51"/><path d="M-18,372L110,589L154,396Z" fill="#f6a067" stroke="#f6a067" stroke-width="1.51"/><path d="M-18,372L154,396L177,282Z" fill="#f5975a" stroke="#f5975a" stroke-width="1.51"/><path d="M-5,206L-18,372L177,282Z" fill="#f1874f" stroke="#f1874f" stroke-width="1.51"/><path d="M-18,372L-57,573L110,589Z" fill="#f49f6b" stroke="#f49f6b" stroke-width="1.51"/><path d="M-41,631L82,808L110,589Z" fill="#e8a05e" stroke="#e8a05e" stroke-width="1.51"/><path d="M-67,68L-5,206L151,46Z" fill="#ea623b" stroke="#ea623b" stroke-width="1.51"/><path d="M-34,-7L-67,68L151,46Z" fill="#e65135" stroke="#e65135" stroke-width="1.51"/><path d="M112,-67L-34,-7L151,46Z" fill="#e65134" stroke="#e65134" stroke-width="1.51"/><path d="M9,1338L81,1329L87,1178Z" fill="#926e38" stroke="#926e38" stroke-width="1.51"/><path d="M4,-234L-34,-7L112,-67Z" fill="#da392a" stroke="#da392a" stroke-width="1.51"/><path d="M4,-234L112,-67L122,-195Z" fill="#d5382b" stroke="#d5382b" stroke-width="1.51"/><path d="M-63,889L7,966L82,808Z" fill="#c99146" stroke="#c99146" stroke-width="1.51"/><path d="M-57,573L-41,631L110,589Z" fill="#ef9e66" stroke="#ef9e66" stroke-width="1.51"/><path d="M-104,446L-57,573L-18,372Z" fill="#ec9563" stroke="#ec9563" stroke-width="1.51"/><path d="M-41,631L-106,867L82,808Z" fill="#d69550" stroke="#d69550" stroke-width="1.51"/><path d="M-2,1131L9,1338L87,1178Z" fill="#98763b" stroke="#98763b" stroke-width="1.51"/><path d="M-106,867L-63,889L82,808Z" fill="#ca9048" stroke="#ca9048" stroke-width="1.51"/><path d="M-175,705L-106,867L-41,631Z" fill="#d29153" stroke="#d29153" stroke-width="1.51"/><path d="M-219,263L-18,372L-5,206Z" fill="#e57c4b" stroke="#e57c4b" stroke-width="1.51"/><path d="M-67,68L-153,138L-5,206Z" fill="#e1613c" stroke="#e1613c" stroke-width="1.51"/><path d="M-173,967L-205,1153L-2,1131Z" fill="#9d7840" stroke="#9d7840" stroke-width="1.51"/><path d="M-205,1153L-196,1328L-2,1131Z" fill="#8b6c39" stroke="#8b6c39" stroke-width="1.51"/><path d="M-187,-112L-34,-7L4,-234Z" fill="#cf2b27" stroke="#cf2b27" stroke-width="1.51"/><path d="M-215,-198L-187,-112L4,-234Z" fill="#bf1e27" stroke="#bf1e27" stroke-width="1.51"/><path d="M-173,967L-2,1131L7,966Z" fill="#ad8343" stroke="#ad8343" stroke-width="1.51"/><path d="M-2,1131L-196,1328L9,1338Z" fill="#8c6835" stroke="#8c6835" stroke-width="1.51"/><path d="M-63,889L-173,967L7,966Z" fill="#b88745" stroke="#b88745" stroke-width="1.51"/><path d="M-153,138L-219,263L-5,206Z" fill="#df6c42" stroke="#df6c42" stroke-width="1.51"/><path d="M-219,263L-104,446L-18,372Z" fill="#e38754" stroke="#e38754" stroke-width="1.51"/><path d="M-133,593L-175,705L-41,631Z" fill="#dc945f" stroke="#dc945f" stroke-width="1.51"/><path d="M-187,-112L-67,68L-34,-7Z" fill="#d63f2f" stroke="#d63f2f" stroke-width="1.51"/><path d="M-104,446L-133,593L-57,573Z" fill="#e9996e" stroke="#e9996e" stroke-width="1.51"/><path d="M-57,573L-133,593L-41,631Z" fill="#e69865" stroke="#e69865" stroke-width="1.51"/><path d="M-187,-112L-153,138L-67,68Z" fill="#d64634" stroke="#d64634" stroke-width="1.51"/><path d="M-106,867L-173,967L-63,889Z" fill="#b98745" stroke="#b98745" stroke-width="1.51"/><path d="M-175,705L-173,967L-106,867Z" fill="#be8848" stroke="#be8848" stroke-width="1.51"/><path d="M-219,263L-133,593L-104,446Z" fill="#e18c5f" stroke="#e18c5f" stroke-width="1.51"/><path d="M-219,263L-175,705L-133,593Z" fill="#e1926b" stroke="#e1926b" stroke-width="1.51"/><path d="M-187,-112L-219,263L-153,138Z" fill="#d45138" stroke="#d45138" stroke-width="1.51"/><path d="M-215,-198L-219,263L-187,-112Z" fill="#cb382f" stroke="#cb382f" stroke-width="1.51"/><path d="M-175,705L-205,1153L-173,967Z" fill="#ac8045" stroke="#ac8045" stroke-width="1.51"/><path d="M-219,263L-205,1153L-175,705Z" fill="#cc8d55" stroke="#cc8d55" stroke-width="1.51"/></svg>