<svg xmlns="http://www.w3.org/2000/svg" width="1920" height="700"><path d="M577,-234L866,-221L1090,-236Z" fill="#c6e7af" stroke="#c6e7af" stroke-width="1.51"/><path d="M1073,921L784,928L1359,932Z" fill="#36814b" stroke="#36814b" stroke-width="1.51"/><path d="M1349,-188L1426,-167L1638,-163Z" fill="#99c68a" stroke="#99c68a" stroke-width="1.51"/><path d="M1498,924L1359,932L1776,932Z" fill="#136737" stroke="#136737" stroke-width="1.51"/><path d="M1349,-188L1638,-163L1847,-197Z" fill="#93be86" stroke="#93be86" stroke-width="1.51"/><path d="M1090,-236L1349,-188L1847,-197Z" fill="#9cc991" stroke="#9cc991" stroke-width="1.51"/><path d="M1993,-171L1984,-85L2030,-38Z" fill="#82a771" stroke="#82a771" stroke-width="1.51"/><path d="M1090,-236L1847,-197L2045,-233Z" fill="#92bb8a" stroke="#92bb8a" stroke-width="1.51"/><path d="M1993,-171L2030,-38L2045,-233Z" fill="#83a677" stroke="#83a677" stroke-width="1.51"/><path d="M2030,-38L1933,124L2085,171Z" fill="#6e9e64" stroke="#6e9e64" stroke-width="1.51"/><path d="M2043,584L1917,733L2101,780Z" fill="#0d6837" stroke="#0d6837" stroke-width="1.51"/><path d="M2030,-38L2085,171L2110,212Z" fill="#689861" stroke="#689861" stroke-width="1.51"/><path d="M2045,-233L2030,-38L2110,212Z" fill="#79a06a" stroke="#79a06a" stroke-width="1.51"/><path d="M1919,473L2043,584L2129,390Z" fill="#278047" stroke="#278047" stroke-width="1.51"/><path d="M2110,212L1885,270L2129,390Z" fill="#4d8f56" stroke="#4d8f56" stroke-width="1.51"/><path d="M1885,270L1919,473L2129,390Z" fill="#3d8c51" stroke="#3d8c51" stroke-width="1.51"/><path d="M2043,584L2101,780L2129,390Z" fill="#19703d" stroke="#19703d" stroke-width="1.51"/><path d="M1948,599L1917,733L2043,584Z" fill="#14713b" stroke="#14713b" stroke-width="1.51"/><path d="M1917,733L1988,832L2101,780Z" fill="#026134" stroke="#026134" stroke-width="1.51"/><path d="M1988,832L2074,899L2101,780Z" fill="#005831" stroke="#005831" stroke-width="1.51"/><path d="M2085,171L1885,270L2110,212Z" fill="#5a955b" stroke="#5a955b" stroke-width="1.51"/><path d="M1988,832L1776,932L2074,899Z" fill="#005831" stroke="#005831" stroke-width="1.51"/><path d="M1933,124L1885,270L2085,171Z" fill="#609a5f" stroke="#609a5f" stroke-width="1.51"/><path d="M1919,473L1948,599L2043,584Z" fill="#1e7b43" stroke="#1e7b43" stroke-width="1.51"/><path d="M1847,-197L1993,-171L2045,-233Z" fill="#86ab7f" stroke="#86ab7f" stroke-width="1.51"/><path d="M1984,-85L1824,31L2030,-38Z" fill="#7da86e" stroke="#7da86e" stroke-width="1.51"/><path d="M1824,31L1933,124L2030,-38Z" fill="#77a66a" stroke="#77a66a" stroke-width="1.51"/><path d="M1885,270L1824,303L1919,473Z" fill="#449556" stroke="#449556" stroke-width="1.51"/><path d="M1847,-197L1984,-85L1993,-171Z" fill="#85ab79" stroke="#85ab79" stroke-width="1.51"/><path d="M1917,733L1776,932L1988,832Z" fill="#006235" stroke="#006235" stroke-width="1.51"/><path d="M1847,-197L1824,31L1984,-85Z" fill="#84ae73" stroke="#84ae73" stroke-width="1.51"/><path d="M1789,709L1776,932L1917,733Z" fill="#036a38" stroke="#036a38" stroke-width="1.51"/><path d="M1824,303L1769,459L1919,473Z" fill="#3a9252" stroke="#3a9252" stroke-width="1.51"/><path d="M1789,709L1917,733L1948,599Z" fill="#10713b" stroke="#10713b" stroke-width="1.51"/><path d="M1777,580L1789,709L1948,599Z" fill="#18793f" stroke="#18793f" stroke-width="1.51"/><path d="M1919,473L1777,580L1948,599Z" fill="#1f8145" stroke="#1f8145" stroke-width="1.51"/><path d="M1745,110L1885,270L1933,124Z" fill="#66a363" stroke="#66a363" stroke-width="1.51"/><path d="M1824,31L1745,110L1933,124Z" fill="#73a969" stroke="#73a969" stroke-width="1.51"/><path d="M1769,459L1777,580L1919,473Z" fill="#268a4a" stroke="#268a4a" stroke-width="1.51"/><path d="M1679,838L1776,932L1789,709Z" fill="#086a38" stroke="#086a38" stroke-width="1.51"/><path d="M1638,-163L1824,31L1847,-197Z" fill="#8bb578" stroke="#8bb578" stroke-width="1.51"/><path d="M1745,110L1824,303L1885,270Z" fill="#5ea160" stroke="#5ea160" stroke-width="1.51"/><path d="M1638,-163L1608,10L1824,31Z" fill="#87b675" stroke="#87b675" stroke-width="1.51"/><path d="M1608,10L1696,91L1824,31Z" fill="#7eb26e" stroke="#7eb26e" stroke-width="1.51"/><path d="M1696,91L1745,110L1824,31Z" fill="#78ae6b" stroke="#78ae6b" stroke-width="1.51"/><path d="M1745,110L1578,215L1824,303Z" fill="#65a764" stroke="#65a764" stroke-width="1.51"/><path d="M1578,215L1634,407L1824,303Z" fill="#54a25e" stroke="#54a25e" stroke-width="1.51"/><path d="M1634,407L1769,459L1824,303Z" fill="#429856" stroke="#429856" stroke-width="1.51"/><path d="M1696,91L1578,215L1745,110Z" fill="#71ae69" stroke="#71ae69" stroke-width="1.51"/><path d="M1769,459L1610,558L1777,580Z" fill="#288b4a" stroke="#288b4a" stroke-width="1.51"/><path d="M1600,774L1679,838L1789,709Z" fill="#0f723b" stroke="#0f723b" stroke-width="1.51"/><path d="M1777,580L1610,558L1789,709Z" fill="#1f8042" stroke="#1f8042" stroke-width="1.51"/><path d="M1610,558L1600,774L1789,709Z" fill="#1b7c40" stroke="#1b7c40" stroke-width="1.51"/><path d="M1679,838L1498,924L1776,932Z" fill="#0d6636" stroke="#0d6636" stroke-width="1.51"/><path d="M1634,407L1610,558L1769,459Z" fill="#339550" stroke="#339550" stroke-width="1.51"/><path d="M1543,582L1600,774L1610,558Z" fill="#248443" stroke="#248443" stroke-width="1.51"/><path d="M1578,215L1544,372L1634,407Z" fill="#53a55e" stroke="#53a55e" stroke-width="1.51"/><path d="M1608,10L1505,108L1696,91Z" fill="#7eb66f" stroke="#7eb66f" stroke-width="1.51"/><path d="M1505,108L1578,215L1696,91Z" fill="#75b26b" stroke="#75b26b" stroke-width="1.51"/><path d="M1522,-33L1608,10L1638,-163Z" fill="#8dbc78" stroke="#8dbc78" stroke-width="1.51"/><path d="M1600,774L1498,924L1679,838Z" fill="#116f3a" stroke="#116f3a" stroke-width="1.51"/><path d="M1544,372L1543,582L1610,558Z" fill="#31964f" stroke="#31964f" stroke-width="1.51"/><path d="M1544,372L1610,558L1634,407Z" fill="#3d9b54" stroke="#3d9b54" stroke-width="1.51"/><path d="M1426,-167L1522,-33L1638,-163Z" fill="#94c180" stroke="#94c180" stroke-width="1.51"/><path d="M1543,582L1423,748L1600,774Z" fill="#208142" stroke="#208142" stroke-width="1.51"/><path d="M1477,241L1544,372L1578,215Z" fill="#60ab63" stroke="#60ab63" stroke-width="1.51"/><path d="M1522,-33L1505,108L1608,10Z" fill="#86bb73" stroke="#86bb73" stroke-width="1.51"/><path d="M1423,748L1498,924L1600,774Z" fill="#17773e" stroke="#17773e" stroke-width="1.51"/><path d="M1337,549L1543,582L1544,372Z" fill="#379d53" stroke="#379d53" stroke-width="1.51"/><path d="M1505,108L1477,241L1578,215Z" fill="#70b36a" stroke="#70b36a" stroke-width="1.51"/><path d="M1337,549L1423,748L1543,582Z" fill="#2c8f4a" stroke="#2c8f4a" stroke-width="1.51"/><path d="M1477,241L1309,391L1544,372Z" fill="#59ad64" stroke="#59ad64" stroke-width="1.51"/><path d="M1309,391L1337,549L1544,372Z" fill="#48a75d" stroke="#48a75d" stroke-width="1.51"/><path d="M1423,748L1359,932L1498,924Z" fill="#1b763f" stroke="#1b763f" stroke-width="1.51"/><path d="M1357,-83L1505,108L1522,-33Z" fill="#8ec279" stroke="#8ec279" stroke-width="1.51"/><path d="M1426,-167L1357,-83L1522,-33Z" fill="#98c881" stroke="#98c881" stroke-width="1.51"/><path d="M1347,219L1309,391L1477,241Z" fill="#65b56a" stroke="#65b56a" stroke-width="1.51"/><path d="M1357,-83L1321,169L1505,108Z" fill="#89c378" stroke="#89c378" stroke-width="1.51"/><path d="M1347,219L1477,241L1505,108Z" fill="#74b86d" stroke="#74b86d" stroke-width="1.51"/><path d="M1321,169L1347,219L1505,108Z" fill="#7abd71" stroke="#7abd71" stroke-width="1.51"/><path d="M1337,549L1301,727L1423,748Z" fill="#2b8f4b" stroke="#2b8f4b" stroke-width="1.51"/><path d="M1090,-236L1139,-187L1349,-188Z" fill="#aad89c" stroke="#aad89c" stroke-width="1.51"/><path d="M1232,102L1321,169L1357,-83Z" fill="#8eca7c" stroke="#8eca7c" stroke-width="1.51"/><path d="M1220,-17L1232,102L1357,-83Z" fill="#97cf82" stroke="#97cf82" stroke-width="1.51"/><path d="M1301,727L1359,932L1423,748Z" fill="#208245" stroke="#208245" stroke-width="1.51"/><path d="M1349,-188L1357,-83L1426,-167Z" fill="#9dcd8b" stroke="#9dcd8b" stroke-width="1.51"/><path d="M1156,530L1301,727L1337,549Z" fill="#379d54" stroke="#379d54" stroke-width="1.51"/><path d="M1309,391L1239,395L1337,549Z" fill="#4bad60" stroke="#4bad60" stroke-width="1.51"/><path d="M1226,284L1309,391L1347,219Z" fill="#67ba6d" stroke="#67ba6d" stroke-width="1.51"/><path d="M1139,-187L1220,-17L1349,-188Z" fill="#a4d58f" stroke="#a4d58f" stroke-width="1.51"/><path d="M1349,-188L1220,-17L1357,-83Z" fill="#9ed187" stroke="#9ed187" stroke-width="1.51"/><path d="M1204,848L1073,921L1359,932Z" fill="#287e47" stroke="#287e47" stroke-width="1.51"/><path d="M1301,727L1204,848L1359,932Z" fill="#238247" stroke="#238247" stroke-width="1.51"/><path d="M1239,395L1156,530L1337,549Z" fill="#45ac5e" stroke="#45ac5e" stroke-width="1.51"/><path d="M1321,169L1226,284L1347,219Z" fill="#75bf72" stroke="#75bf72" stroke-width="1.51"/><path d="M1226,284L1239,395L1309,391Z" fill="#5db86a" stroke="#5db86a" stroke-width="1.51"/><path d="M1156,530L1130,751L1301,727Z" fill="#379852" stroke="#379852" stroke-width="1.51"/><path d="M1232,102L1226,284L1321,169Z" fill="#7dc576" stroke="#7dc576" stroke-width="1.51"/><path d="M1130,751L1204,848L1301,727Z" fill="#2d8d4d" stroke="#2d8d4d" stroke-width="1.51"/><path d="M1043,675L1130,751L1156,530Z" fill="#429e57" stroke="#429e57" stroke-width="1.51"/><path d="M1139,-187L1093,-65L1220,-17Z" fill="#a9d88e" stroke="#a9d88e" stroke-width="1.51"/><path d="M1220,-17L1038,78L1232,102Z" fill="#99d283" stroke="#99d283" stroke-width="1.51"/><path d="M1037,227L1226,284L1232,102Z" fill="#82c879" stroke="#82c879" stroke-width="1.51"/><path d="M1038,78L1037,227L1232,102Z" fill="#91cf81" stroke="#91cf81" stroke-width="1.51"/><path d="M1226,284L1038,437L1239,395Z" fill="#62ba6d" stroke="#62ba6d" stroke-width="1.51"/><path d="M1038,437L1156,530L1239,395Z" fill="#56b466" stroke="#56b466" stroke-width="1.51"/><path d="M1039,592L1043,675L1156,530Z" fill="#4aa65d" stroke="#4aa65d" stroke-width="1.51"/><path d="M1037,227L1038,437L1226,284Z" fill="#72c275" stroke="#72c275" stroke-width="1.51"/><path d="M1093,-65L1038,78L1220,-17Z" fill="#a2d689" stroke="#a2d689" stroke-width="1.51"/><path d="M1130,751L1073,921L1204,848Z" fill="#32894d" stroke="#32894d" stroke-width="1.51"/><path d="M538,866L237,913L784,928Z" fill="#679860" stroke="#679860" stroke-width="1.51"/><path d="M1038,437L1039,592L1156,530Z" fill="#51b064" stroke="#51b064" stroke-width="1.51"/><path d="M939,693L1073,921L1130,751Z" fill="#3d9354" stroke="#3d9354" stroke-width="1.51"/><path d="M1043,675L939,693L1130,751Z" fill="#459b57" stroke="#459b57" stroke-width="1.51"/><path d="M1090,-236L1093,-65L1139,-187Z" fill="#b0db9a" stroke="#b0db9a" stroke-width="1.51"/><path d="M883,870L784,928L1073,921Z" fill="#458a53" stroke="#458a53" stroke-width="1.51"/><path d="M939,693L883,870L1073,921Z" fill="#439255" stroke="#439255" stroke-width="1.51"/><path d="M941,158L1037,227L1038,78Z" fill="#96d384" stroke="#96d384" stroke-width="1.51"/><path d="M1037,227L916,408L1038,437Z" fill="#74c476" stroke="#74c476" stroke-width="1.51"/><path d="M847,-86L1038,78L1093,-65Z" fill="#afdd92" stroke="#afdd92" stroke-width="1.51"/><path d="M1090,-236L866,-221L1093,-65Z" fill="#b6dfa1" stroke="#b6dfa1" stroke-width="1.51"/><path d="M866,-221L847,-86L1093,-65Z" fill="#bce29d" stroke="#bce29d" stroke-width="1.51"/><path d="M889,244L916,408L1037,227Z" fill="#84cb7d" stroke="#84cb7d" stroke-width="1.51"/><path d="M847,-86L941,158L1038,78Z" fill="#abdc8e" stroke="#abdc8e" stroke-width="1.51"/><path d="M916,408L870,551L1038,437Z" fill="#66bc6e" stroke="#66bc6e" stroke-width="1.51"/><path d="M1038,437L870,551L1039,592Z" fill="#59b467" stroke="#59b467" stroke-width="1.51"/><path d="M1039,592L939,693L1043,675Z" fill="#4ba25b" stroke="#4ba25b" stroke-width="1.51"/><path d="M870,551L939,693L1039,592Z" fill="#55aa61" stroke="#55aa61" stroke-width="1.51"/><path d="M941,158L889,244L1037,227Z" fill="#92d183" stroke="#92d183" stroke-width="1.51"/><path d="M889,244L769,415L916,408Z" fill="#81ca7c" stroke="#81ca7c" stroke-width="1.51"/><path d="M726,673L883,870L939,693Z" fill="#549f5d" stroke="#549f5d" stroke-width="1.51"/><path d="M870,551L726,673L939,693Z" fill="#5cab62" stroke="#5cab62" stroke-width="1.51"/><path d="M780,144L889,244L941,158Z" fill="#9dd687" stroke="#9dd687" stroke-width="1.51"/><path d="M847,-86L780,144L941,158Z" fill="#b0de90" stroke="#b0de90" stroke-width="1.51"/><path d="M681,34L780,144L847,-86Z" fill="#bce496" stroke="#bce496" stroke-width="1.51"/><path d="M791,-118L847,-86L866,-221Z" fill="#c5e7a3" stroke="#c5e7a3" stroke-width="1.51"/><path d="M769,415L870,551L916,408Z" fill="#70c173" stroke="#70c173" stroke-width="1.51"/><path d="M769,415L729,523L870,551Z" fill="#70c071" stroke="#70c071" stroke-width="1.51"/><path d="M726,673L784,928L883,870Z" fill="#53985b" stroke="#53985b" stroke-width="1.51"/><path d="M780,144L684,312L889,244Z" fill="#9dd587" stroke="#9dd587" stroke-width="1.51"/><path d="M684,312L769,415L889,244Z" fill="#8dcf81" stroke="#8dcf81" stroke-width="1.51"/><path d="M791,-118L681,34L847,-86Z" fill="#c4e79c" stroke="#c4e79c" stroke-width="1.51"/><path d="M729,523L726,673L870,551Z" fill="#68b46a" stroke="#68b46a" stroke-width="1.51"/><path d="M577,-234L791,-118L866,-221Z" fill="#cdebae" stroke="#cdebae" stroke-width="1.51"/><path d="M591,221L684,312L780,144Z" fill="#a7da8b" stroke="#a7da8b" stroke-width="1.51"/><path d="M726,673L538,866L784,928Z" fill="#5e9d5f" stroke="#5e9d5f" stroke-width="1.51"/><path d="M637,18L681,34L791,-118Z" fill="#c7e89c" stroke="#c7e89c" stroke-width="1.51"/><path d="M577,-234L637,18L791,-118Z" fill="#d2eca4" stroke="#d2eca4" stroke-width="1.51"/><path d="M589,662L538,866L726,673Z" fill="#69a965" stroke="#69a965" stroke-width="1.51"/><path d="M681,34L610,90L780,144Z" fill="#bbe394" stroke="#bbe394" stroke-width="1.51"/><path d="M610,90L591,221L780,144Z" fill="#b4e091" stroke="#b4e091" stroke-width="1.51"/><path d="M595,615L726,673L729,523Z" fill="#6fb56b" stroke="#6fb56b" stroke-width="1.51"/><path d="M527,416L729,523L769,415Z" fill="#81c879" stroke="#81c879" stroke-width="1.51"/><path d="M684,312L527,416L769,415Z" fill="#8ecf80" stroke="#8ecf80" stroke-width="1.51"/><path d="M595,615L589,662L726,673Z" fill="#6eb068" stroke="#6eb068" stroke-width="1.51"/><path d="M527,416L595,615L729,523Z" fill="#7cc375" stroke="#7cc375" stroke-width="1.51"/><path d="M527,416L497,465L595,615Z" fill="#85c879" stroke="#85c879" stroke-width="1.51"/><path d="M577,-234L455,-11L637,18Z" fill="#d7efa5" stroke="#d7efa5" stroke-width="1.51"/><path d="M637,18L610,90L681,34Z" fill="#c5e799" stroke="#c5e799" stroke-width="1.51"/><path d="M591,221L527,416L684,312Z" fill="#9dd688" stroke="#9dd688" stroke-width="1.51"/><path d="M444,838L237,913L538,866Z" fill="#709f65" stroke="#709f65" stroke-width="1.51"/><path d="M443,782L538,866L589,662Z" fill="#6ea967" stroke="#6ea967" stroke-width="1.51"/><path d="M447,328L527,416L591,221Z" fill="#a2d88a" stroke="#a2d88a" stroke-width="1.51"/><path d="M497,465L465,546L595,615Z" fill="#82c376" stroke="#82c376" stroke-width="1.51"/><path d="M455,-11L610,90L637,18Z" fill="#ccea9d" stroke="#ccea9d" stroke-width="1.51"/><path d="M381,-136L455,-11L577,-234Z" fill="#e1f3ae" stroke="#e1f3ae" stroke-width="1.51"/><path d="M475,167L591,221L610,90Z" fill="#bbe394" stroke="#bbe394" stroke-width="1.51"/><path d="M455,-11L475,167L610,90Z" fill="#cae99b" stroke="#cae99b" stroke-width="1.51"/><path d="M475,167L447,328L591,221Z" fill="#b2df91" stroke="#b2df91" stroke-width="1.51"/><path d="M465,546L589,662L595,615Z" fill="#79b96f" stroke="#79b96f" stroke-width="1.51"/><path d="M465,546L443,782L589,662Z" fill="#78b36c" stroke="#78b36c" stroke-width="1.51"/><path d="M301,-219L381,-136L577,-234Z" fill="#e6f5ba" stroke="#e6f5ba" stroke-width="1.51"/><path d="M344,745L443,782L465,546Z" fill="#7cb36e" stroke="#7cb36e" stroke-width="1.51"/><path d="M443,782L444,838L538,866Z" fill="#6da365" stroke="#6da365" stroke-width="1.51"/><path d="M447,328L497,465L527,416Z" fill="#97d284" stroke="#97d284" stroke-width="1.51"/><path d="M455,-11L327,17L475,167Z" fill="#d4eea0" stroke="#d4eea0" stroke-width="1.51"/><path d="M327,17L304,131L475,167Z" fill="#d1ec9e" stroke="#d1ec9e" stroke-width="1.51"/><path d="M343,389L465,546L497,465Z" fill="#92ce80" stroke="#92ce80" stroke-width="1.51"/><path d="M447,328L343,389L497,465Z" fill="#9ed587" stroke="#9ed587" stroke-width="1.51"/><path d="M304,131L260,324L447,328Z" fill="#bae395" stroke="#bae395" stroke-width="1.51"/><path d="M232,543L344,745L465,546Z" fill="#87bf76" stroke="#87bf76" stroke-width="1.51"/><path d="M304,131L447,328L475,167Z" fill="#bee596" stroke="#bee596" stroke-width="1.51"/><path d="M343,389L232,543L465,546Z" fill="#93cf80" stroke="#93cf80" stroke-width="1.51"/><path d="M381,-136L327,17L455,-11Z" fill="#e1f3a9" stroke="#e1f3a9" stroke-width="1.51"/><path d="M443,782L344,745L444,838Z" fill="#75aa69" stroke="#75aa69" stroke-width="1.51"/><path d="M260,324L343,389L447,328Z" fill="#abdb8e" stroke="#abdb8e" stroke-width="1.51"/><path d="M344,745L237,913L444,838Z" fill="#77a669" stroke="#77a669" stroke-width="1.51"/><path d="M112,868L-106,902L237,913Z" fill="#80a36f" stroke="#80a36f" stroke-width="1.51"/><path d="M301,-219L109,-84L327,17Z" fill="#edf9b1" stroke="#edf9b1" stroke-width="1.51"/><path d="M232,543L159,623L344,745Z" fill="#8bbd76" stroke="#8bbd76" stroke-width="1.51"/><path d="M301,-219L327,17L381,-136Z" fill="#eaf7b1" stroke="#eaf7b1" stroke-width="1.51"/><path d="M-23,-198L93,-142L301,-219Z" fill="#f7fcc3" stroke="#f7fcc3" stroke-width="1.51"/><path d="M157,251L260,324L304,131Z" fill="#c3e79a" stroke="#c3e79a" stroke-width="1.51"/><path d="M260,324L148,416L343,389Z" fill="#abdb8f" stroke="#abdb8f" stroke-width="1.51"/><path d="M148,416L232,543L343,389Z" fill="#a0d588" stroke="#a0d588" stroke-width="1.51"/><path d="M122,740L237,913L344,745Z" fill="#7ead6f" stroke="#7ead6f" stroke-width="1.51"/><path d="M159,623L122,740L344,745Z" fill="#87b774" stroke="#87b774" stroke-width="1.51"/><path d="M93,-142L109,-84L301,-219Z" fill="#f3fbbc" stroke="#f3fbbc" stroke-width="1.51"/><path d="M109,-84L304,131L327,17Z" fill="#e1f3a9" stroke="#e1f3a9" stroke-width="1.51"/><path d="M122,740L112,868L237,913Z" fill="#7fa96f" stroke="#7fa96f" stroke-width="1.51"/><path d="M87,174L157,251L304,131Z" fill="#ceeba0" stroke="#ceeba0" stroke-width="1.51"/><path d="M109,-84L87,174L304,131Z" fill="#dff3a8" stroke="#dff3a8" stroke-width="1.51"/><path d="M157,251L148,416L260,324Z" fill="#b6e096" stroke="#b6e096" stroke-width="1.51"/><path d="M-18,857L-106,902L112,868Z" fill="#83a775" stroke="#83a775" stroke-width="1.51"/><path d="M148,416L159,623L232,543Z" fill="#99ce83" stroke="#99ce83" stroke-width="1.51"/><path d="M-55,-12L87,174L109,-84Z" fill="#ebf7b1" stroke="#ebf7b1" stroke-width="1.51"/><path d="M4,251L148,416L157,251Z" fill="#bee49a" stroke="#bee49a" stroke-width="1.51"/><path d="M-67,553L-5,691L159,623Z" fill="#96c381" stroke="#96c381" stroke-width="1.51"/><path d="M-34,478L-67,553L159,623Z" fill="#9dcd88" stroke="#9dcd88" stroke-width="1.51"/><path d="M-5,691L122,740L159,623Z" fill="#8ebb79" stroke="#8ebb79" stroke-width="1.51"/><path d="M148,416L-34,478L159,623Z" fill="#9fd288" stroke="#9fd288" stroke-width="1.51"/><path d="M87,174L4,251L157,251Z" fill="#cdeaa0" stroke="#cdeaa0" stroke-width="1.51"/><path d="M4,251L-34,478L148,416Z" fill="#b4de97" stroke="#b4de97" stroke-width="1.51"/><path d="M-55,-12L-46,163L87,174Z" fill="#e1f3af" stroke="#e1f3af" stroke-width="1.51"/><path d="M-18,857L112,868L122,740Z" fill="#85ad73" stroke="#85ad73" stroke-width="1.51"/><path d="M-5,691L-18,857L122,740Z" fill="#8ab478" stroke="#8ab478" stroke-width="1.51"/><path d="M93,-142L-55,-12L109,-84Z" fill="#f5fbb8" stroke="#f5fbb8" stroke-width="1.51"/><path d="M-23,-198L-55,-12L93,-142Z" fill="#f9fcbf" stroke="#f9fcbf" stroke-width="1.51"/><path d="M-46,163L4,251L87,174Z" fill="#d3eda7" stroke="#d3eda7" stroke-width="1.51"/><path d="M-187,-77L-55,-12L-23,-198Z" fill="#f9fdc4" stroke="#f9fdc4" stroke-width="1.51"/><path d="M-175,740L-18,857L-5,691Z" fill="#8bb57f" stroke="#8bb57f" stroke-width="1.51"/><path d="M-67,553L-133,628L-5,691Z" fill="#97c487" stroke="#97c487" stroke-width="1.51"/><path d="M-46,163L-153,173L4,251Z" fill="#d5eead" stroke="#d5eead" stroke-width="1.51"/><path d="M-153,173L-219,298L4,251Z" fill="#ceebae" stroke="#ceebae" stroke-width="1.51"/><path d="M-104,481L-34,478L4,251Z" fill="#b2dd9b" stroke="#b2dd9b" stroke-width="1.51"/><path d="M-219,298L-104,481L4,251Z" fill="#bce3a5" stroke="#bce3a5" stroke-width="1.51"/><path d="M-55,-12L-153,173L-46,163Z" fill="#e2f3b4" stroke="#e2f3b4" stroke-width="1.51"/><path d="M-175,740L-106,902L-18,857Z" fill="#87ad7e" stroke="#87ad7e" stroke-width="1.51"/><path d="M-133,628L-175,740L-5,691Z" fill="#92bd85" stroke="#92bd85" stroke-width="1.51"/><path d="M-215,-163L-187,-77L-23,-198Z" fill="#fcfdcf" stroke="#fcfdcf" stroke-width="1.51"/><path d="M-104,481L-67,553L-34,478Z" fill="#a3d493" stroke="#a3d493" stroke-width="1.51"/><path d="M-187,-77L-153,173L-55,-12Z" fill="#edf8bd" stroke="#edf8bd" stroke-width="1.51"/><path d="M-104,481L-133,628L-67,553Z" fill="#9ece90" stroke="#9ece90" stroke-width="1.51"/><path d="M-219,298L-133,628L-104,481Z" fill="#a9d89c" stroke="#a9d89c" stroke-width="1.51"/><path d="M-219,298L-175,740L-133,628Z" fill="#9fcd95" stroke="#9fcd95" stroke-width="1.51"/><path d="M-187,-77L-219,298L-153,173Z" fill="#e0f2ba" stroke="#e0f2ba" stroke-width="1.51"/><path d="M-215,-163L-219,298L-187,-77Z" fill="#eff9c3" stroke="#eff9c3" stroke-width="1.51"/></svg>