<svg xmlns="http://www.w3.org/2000/svg" width="1920" height="1080"><path d="M851,1324L612,1338L992,1326Z" fill="#4e7599" stroke="#4e7599" stroke-width="1.51"/><path d="M639,-252L1086,-218L1166,-219Z" fill="#b9cde4" stroke="#b9cde4" stroke-width="1.51"/><path d="M639,-252L1166,-219L1430,-237Z" fill="#b1c8e1" stroke="#b1c8e1" stroke-width="1.51"/><path d="M992,1326L612,1338L1450,1328Z" fill="#3b6e95" stroke="#3b6e95" stroke-width="1.51"/><path d="M639,-252L1430,-237L1672,-259Z" fill="#a5c1dd" stroke="#a5c1dd" stroke-width="1.51"/><path d="M639,-252L1672,-259L1900,-261Z" fill="#9eb9d9" stroke="#9eb9d9" stroke-width="1.51"/><path d="M1633,1283L1450,1328L1910,1312Z" fill="#035484" stroke="#035484" stroke-width="1.51"/><path d="M1900,-261L1906,-43L2040,-25Z" fill="#8799b7" stroke="#8799b7" stroke-width="1.51"/><path d="M2032,642L1970,841L2053,850Z" fill="#1c6996" stroke="#1c6996" stroke-width="1.51"/><path d="M1900,-261L2040,-25L2113,-255Z" fill="#8797b2" stroke="#8797b2" stroke-width="1.51"/><path d="M2040,-25L1984,54L2114,113Z" fill="#798baa" stroke="#798baa" stroke-width="1.51"/><path d="M1981,204L2071,273L2114,113Z" fill="#6c84a4" stroke="#6c84a4" stroke-width="1.51"/><path d="M2113,-255L2040,-25L2114,113Z" fill="#7e8ea8" stroke="#7e8ea8" stroke-width="1.51"/><path d="M2032,642L2053,850L2124,528Z" fill="#2d6c95" stroke="#2d6c95" stroke-width="1.51"/><path d="M2071,273L2044,434L2124,528Z" fill="#53789c" stroke="#53789c" stroke-width="1.51"/><path d="M2114,113L2071,273L2124,528Z" fill="#5e7c9d" stroke="#5e7c9d" stroke-width="1.51"/><path d="M2113,-255L2114,113L2124,528Z" fill="#7083a0" stroke="#7083a0" stroke-width="1.51"/><path d="M1982,955L2076,1165L2126,989Z" fill="#045585" stroke="#045585" stroke-width="1.51"/><path d="M2053,850L1982,955L2126,989Z" fill="#085b8d" stroke="#085b8d" stroke-width="1.51"/><path d="M2076,1165L2055,1253L2126,989Z" fill="#034e7b" stroke="#034e7b" stroke-width="1.51"/><path d="M2124,528L2053,850L2126,989Z" fill="#19628e" stroke="#19628e" stroke-width="1.51"/><path d="M2044,434L2032,642L2124,528Z" fill="#42749a" stroke="#42749a" stroke-width="1.51"/><path d="M1982,955L1889,1085L2076,1165Z" fill="#045889" stroke="#045889" stroke-width="1.51"/><path d="M1984,54L1981,204L2114,113Z" fill="#7589a9" stroke="#7589a9" stroke-width="1.51"/><path d="M1890,512L2032,642L2044,434Z" fill="#4579a2" stroke="#4579a2" stroke-width="1.51"/><path d="M1917,335L2044,434L2071,273Z" fill="#5d80a5" stroke="#5d80a5" stroke-width="1.51"/><path d="M1889,1085L2055,1253L2076,1165Z" fill="#03507f" stroke="#03507f" stroke-width="1.51"/><path d="M1897,641L1970,841L2032,642Z" fill="#28709e" stroke="#28709e" stroke-width="1.51"/><path d="M1981,204L1917,335L2071,273Z" fill="#6684a9" stroke="#6684a9" stroke-width="1.51"/><path d="M1890,512L1897,641L2032,642Z" fill="#3c78a4" stroke="#3c78a4" stroke-width="1.51"/><path d="M1970,841L1982,955L2053,850Z" fill="#106293" stroke="#106293" stroke-width="1.51"/><path d="M1889,1085L1910,1312L2055,1253Z" fill="#034f7d" stroke="#034f7d" stroke-width="1.51"/><path d="M1917,335L1890,512L2044,434Z" fill="#5580a9" stroke="#5580a9" stroke-width="1.51"/><path d="M1906,-43L1984,54L2040,-25Z" fill="#7f92b2" stroke="#7f92b2" stroke-width="1.51"/><path d="M1672,-259L1768,-225L1900,-261Z" fill="#93a7c7" stroke="#93a7c7" stroke-width="1.51"/><path d="M1889,1085L1796,1123L1910,1312Z" fill="#04588a" stroke="#04588a" stroke-width="1.51"/><path d="M1796,1123L1769,1249L1910,1312Z" fill="#035586" stroke="#035586" stroke-width="1.51"/><path d="M1897,641L1777,830L1970,841Z" fill="#1f71a3" stroke="#1f71a3" stroke-width="1.51"/><path d="M1799,257L1917,335L1981,204Z" fill="#6a8ab2" stroke="#6a8ab2" stroke-width="1.51"/><path d="M1827,44L1799,257L1981,204Z" fill="#7691b7" stroke="#7691b7" stroke-width="1.51"/><path d="M1970,841L1832,938L1982,955Z" fill="#0c649a" stroke="#0c649a" stroke-width="1.51"/><path d="M1832,938L1889,1085L1982,955Z" fill="#056097" stroke="#056097" stroke-width="1.51"/><path d="M1827,44L1981,204L1984,54Z" fill="#7a90b3" stroke="#7a90b3" stroke-width="1.51"/><path d="M1906,-43L1827,44L1984,54Z" fill="#8196b8" stroke="#8196b8" stroke-width="1.51"/><path d="M1900,-261L1768,-225L1906,-43Z" fill="#8da1c1" stroke="#8da1c1" stroke-width="1.51"/><path d="M1769,1249L1633,1283L1910,1312Z" fill="#045282" stroke="#045282" stroke-width="1.51"/><path d="M1777,830L1832,938L1970,841Z" fill="#146ba1" stroke="#146ba1" stroke-width="1.51"/><path d="M639,-252L863,-209L1086,-218Z" fill="#c1d0e6" stroke="#c1d0e6" stroke-width="1.51"/><path d="M1734,398L1792,519L1890,512Z" fill="#5185b3" stroke="#5185b3" stroke-width="1.51"/><path d="M1890,512L1792,519L1897,641Z" fill="#457fad" stroke="#457fad" stroke-width="1.51"/><path d="M1748,674L1777,830L1897,641Z" fill="#2a78aa" stroke="#2a78aa" stroke-width="1.51"/><path d="M1768,-225L1761,-49L1906,-43Z" fill="#8ba0c2" stroke="#8ba0c2" stroke-width="1.51"/><path d="M1734,398L1890,512L1917,335Z" fill="#5987b1" stroke="#5987b1" stroke-width="1.51"/><path d="M1799,257L1734,398L1917,335Z" fill="#658bb6" stroke="#658bb6" stroke-width="1.51"/><path d="M1832,938L1796,1123L1889,1085Z" fill="#046197" stroke="#046197" stroke-width="1.51"/><path d="M1761,-49L1827,44L1906,-43Z" fill="#859bbe" stroke="#859bbe" stroke-width="1.51"/><path d="M1792,519L1748,674L1897,641Z" fill="#3d7eae" stroke="#3d7eae" stroke-width="1.51"/><path d="M1279,1288L992,1326L1450,1328Z" fill="#206892" stroke="#206892" stroke-width="1.51"/><path d="M1631,72L1799,257L1827,44Z" fill="#7d97bf" stroke="#7d97bf" stroke-width="1.51"/><path d="M1667,954L1796,1123L1832,938Z" fill="#04659f" stroke="#04659f" stroke-width="1.51"/><path d="M1777,830L1667,954L1832,938Z" fill="#0e6ca6" stroke="#0e6ca6" stroke-width="1.51"/><path d="M1631,72L1593,228L1799,257Z" fill="#7998c2" stroke="#7998c2" stroke-width="1.51"/><path d="M1761,-49L1631,72L1827,44Z" fill="#859dc3" stroke="#859dc3" stroke-width="1.51"/><path d="M1663,-71L1761,-49L1768,-225Z" fill="#8ea4c8" stroke="#8ea4c8" stroke-width="1.51"/><path d="M1657,880L1667,954L1777,830Z" fill="#1270aa" stroke="#1270aa" stroke-width="1.51"/><path d="M1603,532L1748,674L1792,519Z" fill="#4484b5" stroke="#4484b5" stroke-width="1.51"/><path d="M1614,1150L1769,1249L1796,1123Z" fill="#045d92" stroke="#045d92" stroke-width="1.51"/><path d="M1667,954L1614,1150L1796,1123Z" fill="#04649d" stroke="#04649d" stroke-width="1.51"/><path d="M1673,369L1734,398L1799,257Z" fill="#658ebb" stroke="#658ebb" stroke-width="1.51"/><path d="M1593,228L1673,369L1799,257Z" fill="#6d92bf" stroke="#6d92bf" stroke-width="1.51"/><path d="M1748,674L1593,710L1777,830Z" fill="#257bb0" stroke="#257bb0" stroke-width="1.51"/><path d="M1593,710L1657,880L1777,830Z" fill="#1d76ae" stroke="#1d76ae" stroke-width="1.51"/><path d="M1734,398L1603,532L1792,519Z" fill="#5389b8" stroke="#5389b8" stroke-width="1.51"/><path d="M1663,-71L1631,72L1761,-49Z" fill="#89a1c7" stroke="#89a1c7" stroke-width="1.51"/><path d="M1672,-259L1663,-71L1768,-225Z" fill="#92a8cb" stroke="#92a8cb" stroke-width="1.51"/><path d="M1614,1150L1633,1283L1769,1249Z" fill="#045b8f" stroke="#045b8f" stroke-width="1.51"/><path d="M1673,369L1603,532L1734,398Z" fill="#5b8cbc" stroke="#5b8cbc" stroke-width="1.51"/><path d="M1603,532L1593,710L1748,674Z" fill="#3b82b7" stroke="#3b82b7" stroke-width="1.51"/><path d="M1530,200L1593,228L1631,72Z" fill="#7d9cc9" stroke="#7d9cc9" stroke-width="1.51"/><path d="M1593,710L1537,788L1657,880Z" fill="#207bb4" stroke="#207bb4" stroke-width="1.51"/><path d="M1487,-49L1631,72L1663,-71Z" fill="#8ba4cd" stroke="#8ba4cd" stroke-width="1.51"/><path d="M1461,1037L1614,1150L1667,954Z" fill="#056aa7" stroke="#056aa7" stroke-width="1.51"/><path d="M1487,-49L1663,-71L1672,-259Z" fill="#91a9cf" stroke="#91a9cf" stroke-width="1.51"/><path d="M1430,-237L1487,-49L1672,-259Z" fill="#97afd4" stroke="#97afd4" stroke-width="1.51"/><path d="M1454,338L1603,532L1673,369Z" fill="#5f91c2" stroke="#5f91c2" stroke-width="1.51"/><path d="M1593,228L1454,338L1673,369Z" fill="#6d96c5" stroke="#6d96c5" stroke-width="1.51"/><path d="M1657,880L1461,1037L1667,954Z" fill="#056ead" stroke="#056ead" stroke-width="1.51"/><path d="M1537,788L1461,1037L1657,880Z" fill="#1174b2" stroke="#1174b2" stroke-width="1.51"/><path d="M1483,698L1593,710L1603,532Z" fill="#3b86bc" stroke="#3b86bc" stroke-width="1.51"/><path d="M1457,560L1483,698L1603,532Z" fill="#458bbf" stroke="#458bbf" stroke-width="1.51"/><path d="M1454,338L1457,560L1603,532Z" fill="#5892c3" stroke="#5892c3" stroke-width="1.51"/><path d="M1476,49L1530,200L1631,72Z" fill="#84a0cc" stroke="#84a0cc" stroke-width="1.51"/><path d="M1487,-49L1476,49L1631,72Z" fill="#8aa6cf" stroke="#8aa6cf" stroke-width="1.51"/><path d="M1614,1150L1431,1164L1633,1283Z" fill="#056199" stroke="#056199" stroke-width="1.51"/><path d="M1431,1164L1450,1328L1633,1283Z" fill="#0b5f92" stroke="#0b5f92" stroke-width="1.51"/><path d="M1530,200L1454,338L1593,228Z" fill="#759bc9" stroke="#759bc9" stroke-width="1.51"/><path d="M1461,1037L1431,1164L1614,1150Z" fill="#0d6aa3" stroke="#0d6aa3" stroke-width="1.51"/><path d="M1388,815L1461,1037L1537,788Z" fill="#1e7ab5" stroke="#1e7ab5" stroke-width="1.51"/><path d="M1483,698L1537,788L1593,710Z" fill="#2a82b9" stroke="#2a82b9" stroke-width="1.51"/><path d="M1166,-219L1350,-200L1430,-237Z" fill="#a0bddb" stroke="#a0bddb" stroke-width="1.51"/><path d="M1388,815L1338,980L1461,1037Z" fill="#1b79b5" stroke="#1b79b5" stroke-width="1.51"/><path d="M1476,49L1296,216L1530,200Z" fill="#84a5ce" stroke="#84a5ce" stroke-width="1.51"/><path d="M1483,698L1388,815L1537,788Z" fill="#2883ba" stroke="#2883ba" stroke-width="1.51"/><path d="M1454,338L1314,398L1457,560Z" fill="#6399c7" stroke="#6399c7" stroke-width="1.51"/><path d="M1430,-237L1350,-200L1487,-49Z" fill="#9ab4d7" stroke="#9ab4d7" stroke-width="1.51"/><path d="M1296,216L1454,338L1530,200Z" fill="#79a1cb" stroke="#79a1cb" stroke-width="1.51"/><path d="M1431,1164L1315,1194L1450,1328Z" fill="#166799" stroke="#166799" stroke-width="1.51"/><path d="M1314,398L1317,558L1457,560Z" fill="#5a98c6" stroke="#5a98c6" stroke-width="1.51"/><path d="M1292,73L1296,216L1476,49Z" fill="#8bacd1" stroke="#8bacd1" stroke-width="1.51"/><path d="M1457,560L1385,700L1483,698Z" fill="#3f8bbf" stroke="#3f8bbf" stroke-width="1.51"/><path d="M1385,700L1388,815L1483,698Z" fill="#2f88bd" stroke="#2f88bd" stroke-width="1.51"/><path d="M1350,-200L1366,-27L1487,-49Z" fill="#97b3d6" stroke="#97b3d6" stroke-width="1.51"/><path d="M1366,-27L1476,49L1487,-49Z" fill="#90add2" stroke="#90add2" stroke-width="1.51"/><path d="M1366,-27L1292,73L1476,49Z" fill="#90aed3" stroke="#90aed3" stroke-width="1.51"/><path d="M1315,1194L1279,1288L1450,1328Z" fill="#196695" stroke="#196695" stroke-width="1.51"/><path d="M1317,558L1385,700L1457,560Z" fill="#4a91c2" stroke="#4a91c2" stroke-width="1.51"/><path d="M1338,980L1431,1164L1461,1037Z" fill="#1772ab" stroke="#1772ab" stroke-width="1.51"/><path d="M1338,980L1315,1194L1431,1164Z" fill="#1b72a8" stroke="#1b72a8" stroke-width="1.51"/><path d="M1296,216L1314,398L1454,338Z" fill="#74a2cc" stroke="#74a2cc" stroke-width="1.51"/><path d="M1172,1103L1315,1194L1338,980Z" fill="#2177ab" stroke="#2177ab" stroke-width="1.51"/><path d="M1350,-200L1196,-113L1366,-27Z" fill="#9cb9d9" stroke="#9cb9d9" stroke-width="1.51"/><path d="M1317,558L1221,709L1385,700Z" fill="#4593c2" stroke="#4593c2" stroke-width="1.51"/><path d="M1191,950L1338,980L1388,815Z" fill="#2580b9" stroke="#2580b9" stroke-width="1.51"/><path d="M1221,709L1191,950L1388,815Z" fill="#2f89bd" stroke="#2f89bd" stroke-width="1.51"/><path d="M1385,700L1221,709L1388,815Z" fill="#338cbe" stroke="#338cbe" stroke-width="1.51"/><path d="M1136,895L1191,950L1221,709Z" fill="#398bbe" stroke="#398bbe" stroke-width="1.51"/><path d="M1196,-113L1292,73L1366,-27Z" fill="#97b6d7" stroke="#97b6d7" stroke-width="1.51"/><path d="M1134,1248L992,1326L1279,1288Z" fill="#306d97" stroke="#306d97" stroke-width="1.51"/><path d="M1292,73L1216,187L1296,216Z" fill="#89aed2" stroke="#89aed2" stroke-width="1.51"/><path d="M1296,216L1156,352L1314,398Z" fill="#77a7ce" stroke="#77a7ce" stroke-width="1.51"/><path d="M1314,398L1158,499L1317,558Z" fill="#619fc9" stroke="#619fc9" stroke-width="1.51"/><path d="M1191,950L1172,1103L1338,980Z" fill="#287eb3" stroke="#287eb3" stroke-width="1.51"/><path d="M1166,-219L1196,-113L1350,-200Z" fill="#a2bfdc" stroke="#a2bfdc" stroke-width="1.51"/><path d="M1196,-113L1187,93L1292,73Z" fill="#98b7d7" stroke="#98b7d7" stroke-width="1.51"/><path d="M1216,187L1156,352L1296,216Z" fill="#82acd1" stroke="#82acd1" stroke-width="1.51"/><path d="M1156,352L1158,499L1314,398Z" fill="#6fa4cd" stroke="#6fa4cd" stroke-width="1.51"/><path d="M1158,499L1221,709L1317,558Z" fill="#559ac6" stroke="#559ac6" stroke-width="1.51"/><path d="M1187,93L1216,187L1292,73Z" fill="#90b2d4" stroke="#90b2d4" stroke-width="1.51"/><path d="M1134,1248L1279,1288L1315,1194Z" fill="#226e9b" stroke="#226e9b" stroke-width="1.51"/><path d="M1172,1103L1134,1248L1315,1194Z" fill="#2a74a5" stroke="#2a74a5" stroke-width="1.51"/><path d="M1158,499L1084,660L1221,709Z" fill="#579cc7" stroke="#579cc7" stroke-width="1.51"/><path d="M1084,660L1032,871L1136,895Z" fill="#4892c2" stroke="#4892c2" stroke-width="1.51"/><path d="M1070,-69L1056,70L1187,93Z" fill="#a0bcda" stroke="#a0bcda" stroke-width="1.51"/><path d="M1043,1006L1172,1103L1191,950Z" fill="#3681b5" stroke="#3681b5" stroke-width="1.51"/><path d="M1070,-69L1187,93L1196,-113Z" fill="#a0bdda" stroke="#a0bdda" stroke-width="1.51"/><path d="M1051,205L1156,352L1216,187Z" fill="#89afd3" stroke="#89afd3" stroke-width="1.51"/><path d="M1084,660L1136,895L1221,709Z" fill="#4494c2" stroke="#4494c2" stroke-width="1.51"/><path d="M1187,93L1051,205L1216,187Z" fill="#92b3d5" stroke="#92b3d5" stroke-width="1.51"/><path d="M1156,352L1032,442L1158,499Z" fill="#75a8ce" stroke="#75a8ce" stroke-width="1.51"/><path d="M1056,70L1051,205L1187,93Z" fill="#9ab7d7" stroke="#9ab7d7" stroke-width="1.51"/><path d="M1166,-219L1086,-218L1196,-113Z" fill="#a9c3df" stroke="#a9c3df" stroke-width="1.51"/><path d="M1086,-218L1070,-69L1196,-113Z" fill="#a9c3de" stroke="#a9c3de" stroke-width="1.51"/><path d="M1136,895L1043,1006L1191,950Z" fill="#3a85bc" stroke="#3a85bc" stroke-width="1.51"/><path d="M1000,1139L1134,1248L1172,1103Z" fill="#387aaa" stroke="#387aaa" stroke-width="1.51"/><path d="M984,583L1084,660L1158,499Z" fill="#65a1ca" stroke="#65a1ca" stroke-width="1.51"/><path d="M1043,1006L1000,1139L1172,1103Z" fill="#3d80b1" stroke="#3d80b1" stroke-width="1.51"/><path d="M1051,205L1032,442L1156,352Z" fill="#84aed2" stroke="#84aed2" stroke-width="1.51"/><path d="M1032,442L984,583L1158,499Z" fill="#70a6cd" stroke="#70a6cd" stroke-width="1.51"/><path d="M1032,871L1043,1006L1136,895Z" fill="#428abe" stroke="#428abe" stroke-width="1.51"/><path d="M1000,1139L992,1326L1134,1248Z" fill="#3c76a1" stroke="#3c76a1" stroke-width="1.51"/><path d="M850,334L1032,442L1051,205Z" fill="#8db3d5" stroke="#8db3d5" stroke-width="1.51"/><path d="M937,184L850,334L1051,205Z" fill="#99b8d8" stroke="#99b8d8" stroke-width="1.51"/><path d="M937,184L1051,205L1056,70Z" fill="#9db9d9" stroke="#9db9d9" stroke-width="1.51"/><path d="M900,-19L1056,70L1070,-69Z" fill="#aac2de" stroke="#aac2de" stroke-width="1.51"/><path d="M984,583L860,636L1084,660Z" fill="#67a3cc" stroke="#67a3cc" stroke-width="1.51"/><path d="M884,853L1032,871L1084,660Z" fill="#5297c5" stroke="#5297c5" stroke-width="1.51"/><path d="M860,636L884,853L1084,660Z" fill="#5e9fc9" stroke="#5e9fc9" stroke-width="1.51"/><path d="M863,-209L1070,-69L1086,-218Z" fill="#b3c9e2" stroke="#b3c9e2" stroke-width="1.51"/><path d="M863,-209L900,-19L1070,-69Z" fill="#b5c9e2" stroke="#b5c9e2" stroke-width="1.51"/><path d="M1032,871L928,945L1043,1006Z" fill="#498bbf" stroke="#498bbf" stroke-width="1.51"/><path d="M904,545L984,583L1032,442Z" fill="#75a9cf" stroke="#75a9cf" stroke-width="1.51"/><path d="M848,85L937,184L1056,70Z" fill="#a6bedc" stroke="#a6bedc" stroke-width="1.51"/><path d="M900,-19L848,85L1056,70Z" fill="#acc2de" stroke="#acc2de" stroke-width="1.51"/><path d="M928,945L1000,1139L1043,1006Z" fill="#4786b8" stroke="#4786b8" stroke-width="1.51"/><path d="M837,1193L992,1326L1000,1139Z" fill="#467ba6" stroke="#467ba6" stroke-width="1.51"/><path d="M850,334L904,545L1032,442Z" fill="#84afd2" stroke="#84afd2" stroke-width="1.51"/><path d="M884,853L928,945L1032,871Z" fill="#5192c2" stroke="#5192c2" stroke-width="1.51"/><path d="M748,1114L837,1193L928,945Z" fill="#5588b7" stroke="#5588b7" stroke-width="1.51"/><path d="M837,1193L851,1324L992,1326Z" fill="#49779e" stroke="#49779e" stroke-width="1.51"/><path d="M928,945L837,1193L1000,1139Z" fill="#4d85b4" stroke="#4d85b4" stroke-width="1.51"/><path d="M904,545L860,636L984,583Z" fill="#72a7cf" stroke="#72a7cf" stroke-width="1.51"/><path d="M860,636L704,692L884,853Z" fill="#6aa2cb" stroke="#6aa2cb" stroke-width="1.51"/><path d="M863,-209L743,-104L900,-19Z" fill="#becde4" stroke="#becde4" stroke-width="1.51"/><path d="M850,334L783,358L904,545Z" fill="#8eb3d5" stroke="#8eb3d5" stroke-width="1.51"/><path d="M718,986L748,1114L928,945Z" fill="#5c8dbd" stroke="#5c8dbd" stroke-width="1.51"/><path d="M702,239L850,334L937,184Z" fill="#a1bbda" stroke="#a1bbda" stroke-width="1.51"/><path d="M848,85L702,239L937,184Z" fill="#aabfdc" stroke="#aabfdc" stroke-width="1.51"/><path d="M884,853L762,875L928,945Z" fill="#5b94c4" stroke="#5b94c4" stroke-width="1.51"/><path d="M762,875L718,986L928,945Z" fill="#5e92c3" stroke="#5e92c3" stroke-width="1.51"/><path d="M704,692L762,875L884,853Z" fill="#679dc9" stroke="#679dc9" stroke-width="1.51"/><path d="M680,588L860,636L904,545Z" fill="#7babd0" stroke="#7babd0" stroke-width="1.51"/><path d="M783,358L680,588L904,545Z" fill="#88b0d4" stroke="#88b0d4" stroke-width="1.51"/><path d="M837,1193L768,1273L851,1324Z" fill="#507ba2" stroke="#507ba2" stroke-width="1.51"/><path d="M743,-104L848,85L900,-19Z" fill="#b8c9e1" stroke="#b8c9e1" stroke-width="1.51"/><path d="M768,1273L612,1338L851,1324Z" fill="#55799d" stroke="#55799d" stroke-width="1.51"/><path d="M639,-252L730,-169L863,-209Z" fill="#c9d4e8" stroke="#c9d4e8" stroke-width="1.51"/><path d="M730,-169L743,-104L863,-209Z" fill="#c4d1e6" stroke="#c4d1e6" stroke-width="1.51"/><path d="M743,-104L687,94L848,85Z" fill="#bbc9e2" stroke="#bbc9e2" stroke-width="1.51"/><path d="M687,94L702,239L848,85Z" fill="#b4c3df" stroke="#b4c3df" stroke-width="1.51"/><path d="M702,239L783,358L850,334Z" fill="#9fbad9" stroke="#9fbad9" stroke-width="1.51"/><path d="M117,-209L271,-163L639,-252Z" fill="#e5e1ef" stroke="#e5e1ef" stroke-width="1.51"/><path d="M680,588L704,692L860,636Z" fill="#7baad0" stroke="#7baad0" stroke-width="1.51"/><path d="M584,439L680,588L783,358Z" fill="#95b6d7" stroke="#95b6d7" stroke-width="1.51"/><path d="M748,1114L768,1273L837,1193Z" fill="#5783ac" stroke="#5783ac" stroke-width="1.51"/><path d="M704,692L606,839L762,875Z" fill="#70a1cb" stroke="#70a1cb" stroke-width="1.51"/><path d="M748,1114L590,1088L768,1273Z" fill="#6088b2" stroke="#6088b2" stroke-width="1.51"/><path d="M590,1088L612,1338L768,1273Z" fill="#6083a9" stroke="#6083a9" stroke-width="1.51"/><path d="M702,239L584,439L783,358Z" fill="#a2bbda" stroke="#a2bbda" stroke-width="1.51"/><path d="M271,-163L453,-159L639,-252Z" fill="#dddded" stroke="#dddded" stroke-width="1.51"/><path d="M545,-15L687,94L743,-104Z" fill="#c4cee5" stroke="#c4cee5" stroke-width="1.51"/><path d="M637,972L718,986L762,875Z" fill="#6795c5" stroke="#6795c5" stroke-width="1.51"/><path d="M545,-15L620,93L687,94Z" fill="#c3cce4" stroke="#c3cce4" stroke-width="1.51"/><path d="M718,986L590,1088L748,1114Z" fill="#648ebb" stroke="#648ebb" stroke-width="1.51"/><path d="M606,839L637,972L762,875Z" fill="#6d9ac8" stroke="#6d9ac8" stroke-width="1.51"/><path d="M456,1261L128,1340L612,1338Z" fill="#6f83a3" stroke="#6f83a3" stroke-width="1.51"/><path d="M637,972L590,1088L718,986Z" fill="#6992c0" stroke="#6992c0" stroke-width="1.51"/><path d="M730,-169L545,-15L743,-104Z" fill="#c9d2e6" stroke="#c9d2e6" stroke-width="1.51"/><path d="M687,94L620,93L702,239Z" fill="#b9c6e0" stroke="#b9c6e0" stroke-width="1.51"/><path d="M620,93L569,215L702,239Z" fill="#b8c5e0" stroke="#b8c5e0" stroke-width="1.51"/><path d="M569,215L584,439L702,239Z" fill="#adc0dd" stroke="#adc0dd" stroke-width="1.51"/><path d="M639,-252L545,-15L730,-169Z" fill="#ced5e9" stroke="#ced5e9" stroke-width="1.51"/><path d="M545,742L606,839L704,692Z" fill="#78a7ce" stroke="#78a7ce" stroke-width="1.51"/><path d="M453,-159L545,-15L639,-252Z" fill="#d4d8ea" stroke="#d4d8ea" stroke-width="1.51"/><path d="M584,439L541,493L680,588Z" fill="#96b6d7" stroke="#96b6d7" stroke-width="1.51"/><path d="M680,588L545,742L704,692Z" fill="#7fabd0" stroke="#7fabd0" stroke-width="1.51"/><path d="M590,1088L456,1261L612,1338Z" fill="#6886ab" stroke="#6886ab" stroke-width="1.51"/><path d="M482,682L545,742L680,588Z" fill="#86aed2" stroke="#86aed2" stroke-width="1.51"/><path d="M541,493L482,682L680,588Z" fill="#8fb3d5" stroke="#8fb3d5" stroke-width="1.51"/><path d="M281,1251L128,1340L456,1261Z" fill="#778aa9" stroke="#778aa9" stroke-width="1.51"/><path d="M453,-159L469,-48L545,-15Z" fill="#d5d7e9" stroke="#d5d7e9" stroke-width="1.51"/><path d="M569,215L436,278L584,439Z" fill="#b2c2de" stroke="#b2c2de" stroke-width="1.51"/><path d="M429,1158L456,1261L590,1088Z" fill="#708eb5" stroke="#708eb5" stroke-width="1.51"/><path d="M606,839L464,970L637,972Z" fill="#739ac8" stroke="#739ac8" stroke-width="1.51"/><path d="M464,970L590,1088L637,972Z" fill="#7095c2" stroke="#7095c2" stroke-width="1.51"/><path d="M432,591L482,682L541,493Z" fill="#96b6d6" stroke="#96b6d6" stroke-width="1.51"/><path d="M436,278L454,445L584,439Z" fill="#acc0dd" stroke="#acc0dd" stroke-width="1.51"/><path d="M397,104L569,215L620,93Z" fill="#c4cbe3" stroke="#c4cbe3" stroke-width="1.51"/><path d="M545,-15L397,104L620,93Z" fill="#cacfe5" stroke="#cacfe5" stroke-width="1.51"/><path d="M454,799L464,970L606,839Z" fill="#7ba1cc" stroke="#7ba1cc" stroke-width="1.51"/><path d="M545,742L454,799L606,839Z" fill="#7da7ce" stroke="#7da7ce" stroke-width="1.51"/><path d="M464,970L429,1158L590,1088Z" fill="#7394be" stroke="#7394be" stroke-width="1.51"/><path d="M454,445L541,493L584,439Z" fill="#a2bbda" stroke="#a2bbda" stroke-width="1.51"/><path d="M397,104L436,278L569,215Z" fill="#c2cae2" stroke="#c2cae2" stroke-width="1.51"/><path d="M-212,-167L-70,-165L117,-209Z" fill="#f4eef5" stroke="#f4eef5" stroke-width="1.51"/><path d="M454,445L432,591L541,493Z" fill="#9fbada" stroke="#9fbada" stroke-width="1.51"/><path d="M469,-48L397,104L545,-15Z" fill="#d0d3e7" stroke="#d0d3e7" stroke-width="1.51"/><path d="M482,682L454,799L545,742Z" fill="#84acd1" stroke="#84acd1" stroke-width="1.51"/><path d="M436,278L317,414L454,445Z" fill="#b3c3de" stroke="#b3c3de" stroke-width="1.51"/><path d="M273,987L429,1158L464,970Z" fill="#7d99c3" stroke="#7d99c3" stroke-width="1.51"/><path d="M454,799L267,815L464,970Z" fill="#84a6ce" stroke="#84a6ce" stroke-width="1.51"/><path d="M267,815L273,987L464,970Z" fill="#84a2cd" stroke="#84a2cd" stroke-width="1.51"/><path d="M300,679L454,799L482,682Z" fill="#8cb0d3" stroke="#8cb0d3" stroke-width="1.51"/><path d="M432,591L300,679L482,682Z" fill="#94b4d6" stroke="#94b4d6" stroke-width="1.51"/><path d="M285,487L432,591L454,445Z" fill="#a5bddb" stroke="#a5bddb" stroke-width="1.51"/><path d="M234,-22L397,104L469,-48Z" fill="#d8d7e9" stroke="#d8d7e9" stroke-width="1.51"/><path d="M453,-159L271,-163L469,-48Z" fill="#dedced" stroke="#dedced" stroke-width="1.51"/><path d="M271,-163L234,-22L469,-48Z" fill="#dfddec" stroke="#dfddec" stroke-width="1.51"/><path d="M234,-22L271,88L397,104Z" fill="#d8d7e9" stroke="#d8d7e9" stroke-width="1.51"/><path d="M273,987L259,1155L429,1158Z" fill="#7f98bf" stroke="#7f98bf" stroke-width="1.51"/><path d="M397,104L256,273L436,278Z" fill="#c7cce4" stroke="#c7cce4" stroke-width="1.51"/><path d="M317,414L285,487L454,445Z" fill="#afc2dd" stroke="#afc2dd" stroke-width="1.51"/><path d="M300,679L267,815L454,799Z" fill="#8dafd3" stroke="#8dafd3" stroke-width="1.51"/><path d="M429,1158L281,1251L456,1261Z" fill="#758caf" stroke="#758caf" stroke-width="1.51"/><path d="M256,273L317,414L436,278Z" fill="#bec8e2" stroke="#bec8e2" stroke-width="1.51"/><path d="M271,88L256,273L397,104Z" fill="#d0d1e7" stroke="#d0d1e7" stroke-width="1.51"/><path d="M259,1155L281,1251L429,1158Z" fill="#7b92b5" stroke="#7b92b5" stroke-width="1.51"/><path d="M285,487L300,679L432,591Z" fill="#a0bbda" stroke="#a0bbda" stroke-width="1.51"/><path d="M171,211L256,273L271,88Z" fill="#d0d2e7" stroke="#d0d2e7" stroke-width="1.51"/><path d="M163,1139L259,1155L273,987Z" fill="#839bc1" stroke="#839bc1" stroke-width="1.51"/><path d="M267,815L181,865L273,987Z" fill="#8ba9d0" stroke="#8ba9d0" stroke-width="1.51"/><path d="M285,487L149,490L300,679Z" fill="#a8c0dd" stroke="#a8c0dd" stroke-width="1.51"/><path d="M149,490L80,656L300,679Z" fill="#a5bfdc" stroke="#a5bfdc" stroke-width="1.51"/><path d="M169,440L285,487L317,414Z" fill="#b3c5df" stroke="#b3c5df" stroke-width="1.51"/><path d="M256,273L169,440L317,414Z" fill="#bcc9e2" stroke="#bcc9e2" stroke-width="1.51"/><path d="M80,656L267,815L300,679Z" fill="#97b7d7" stroke="#97b7d7" stroke-width="1.51"/><path d="M80,656L181,865L267,815Z" fill="#94b4d5" stroke="#94b4d5" stroke-width="1.51"/><path d="M103,-95L234,-22L271,-163Z" fill="#e6e2ef" stroke="#e6e2ef" stroke-width="1.51"/><path d="M259,1155L163,1139L281,1251Z" fill="#8095b8" stroke="#8095b8" stroke-width="1.51"/><path d="M169,440L149,490L285,487Z" fill="#b3c6e0" stroke="#b3c6e0" stroke-width="1.51"/><path d="M123,106L171,211L271,88Z" fill="#d8d7ea" stroke="#d8d7ea" stroke-width="1.51"/><path d="M92,956L163,1139L273,987Z" fill="#88a1c8" stroke="#88a1c8" stroke-width="1.51"/><path d="M163,1139L128,1340L281,1251Z" fill="#7e91b1" stroke="#7e91b1" stroke-width="1.51"/><path d="M234,-22L123,106L271,88Z" fill="#dcdaeb" stroke="#dcdaeb" stroke-width="1.51"/><path d="M117,-209L103,-95L271,-163Z" fill="#eae6f2" stroke="#eae6f2" stroke-width="1.51"/><path d="M181,865L92,956L273,987Z" fill="#8ca7cf" stroke="#8ca7cf" stroke-width="1.51"/><path d="M171,211L169,440L256,273Z" fill="#c5cee4" stroke="#c5cee4" stroke-width="1.51"/><path d="M29,378L169,440L171,211Z" fill="#c5cfe5" stroke="#c5cfe5" stroke-width="1.51"/><path d="M103,-95L123,106L234,-22Z" fill="#e3dfee" stroke="#e3dfee" stroke-width="1.51"/><path d="M11,-60L-2,35L103,-95Z" fill="#eae5f1" stroke="#eae5f1" stroke-width="1.51"/><path d="M103,-95L-2,35L123,106Z" fill="#e5e1ef" stroke="#e5e1ef" stroke-width="1.51"/><path d="M-13,1156L-18,1315L128,1340Z" fill="#8393b0" stroke="#8393b0" stroke-width="1.51"/><path d="M92,956L-12,999L163,1139Z" fill="#8da3c9" stroke="#8da3c9" stroke-width="1.51"/><path d="M-13,1156L128,1340L163,1139Z" fill="#8497b7" stroke="#8497b7" stroke-width="1.51"/><path d="M-4,225L29,378L171,211Z" fill="#d0d5e8" stroke="#d0d5e8" stroke-width="1.51"/><path d="M80,656L39,675L181,865Z" fill="#9bbad9" stroke="#9bbad9" stroke-width="1.51"/><path d="M-63,854L92,956L181,865Z" fill="#93aed4" stroke="#93aed4" stroke-width="1.51"/><path d="M39,675L-63,854L181,865Z" fill="#99b6d7" stroke="#99b6d7" stroke-width="1.51"/><path d="M-21,559L80,656L149,490Z" fill="#afc6e0" stroke="#afc6e0" stroke-width="1.51"/><path d="M-12,999L-13,1156L163,1139Z" fill="#8ca1c4" stroke="#8ca1c4" stroke-width="1.51"/><path d="M123,106L-4,225L171,211Z" fill="#d7d8ea" stroke="#d7d8ea" stroke-width="1.51"/><path d="M29,378L149,490L169,440Z" fill="#bbcbe3" stroke="#bbcbe3" stroke-width="1.51"/><path d="M29,378L-21,559L149,490Z" fill="#b9cbe3" stroke="#b9cbe3" stroke-width="1.51"/><path d="M-70,-165L103,-95L117,-209Z" fill="#f0eaf3" stroke="#f0eaf3" stroke-width="1.51"/><path d="M-70,-165L11,-60L103,-95Z" fill="#efe9f3" stroke="#efe9f3" stroke-width="1.51"/><path d="M-2,35L-4,225L123,106Z" fill="#dfddec" stroke="#dfddec" stroke-width="1.51"/><path d="M-63,854L-12,999L92,956Z" fill="#93acd3" stroke="#93acd3" stroke-width="1.51"/><path d="M-21,559L39,675L80,656Z" fill="#a9c2de" stroke="#a9c2de" stroke-width="1.51"/><path d="M-160,142L-4,225L-2,35Z" fill="#e1deee" stroke="#e1deee" stroke-width="1.51"/><path d="M-204,409L-21,559L29,378Z" fill="#c1d0e5" stroke="#c1d0e5" stroke-width="1.51"/><path d="M-4,225L-160,239L29,378Z" fill="#d2d7ea" stroke="#d2d7ea" stroke-width="1.51"/><path d="M-21,559L-183,704L39,675Z" fill="#aac4de" stroke="#aac4de" stroke-width="1.51"/><path d="M-183,704L-63,854L39,675Z" fill="#a0bedb" stroke="#a0bedb" stroke-width="1.51"/><path d="M-130,1282L-18,1315L-13,1156Z" fill="#8797b3" stroke="#8797b3" stroke-width="1.51"/><path d="M-154,1089L-13,1156L-12,999Z" fill="#90a4c8" stroke="#90a4c8" stroke-width="1.51"/><path d="M-160,239L-204,409L29,378Z" fill="#ced6e9" stroke="#ced6e9" stroke-width="1.51"/><path d="M-183,704L-183,798L-63,854Z" fill="#a0bddb" stroke="#a0bddb" stroke-width="1.51"/><path d="M-140,1008L-154,1089L-12,999Z" fill="#93a9cc" stroke="#93a9cc" stroke-width="1.51"/><path d="M-114,-83L-2,35L11,-60Z" fill="#ece7f3" stroke="#ece7f3" stroke-width="1.51"/><path d="M-70,-165L-114,-83L11,-60Z" fill="#f0ebf4" stroke="#f0ebf4" stroke-width="1.51"/><path d="M-204,409L-220,520L-21,559Z" fill="#becfe5" stroke="#becfe5" stroke-width="1.51"/><path d="M-63,854L-140,1008L-12,999Z" fill="#95add3" stroke="#95add3" stroke-width="1.51"/><path d="M-160,142L-160,239L-4,225Z" fill="#dcddec" stroke="#dcddec" stroke-width="1.51"/><path d="M-114,-83L-160,142L-2,35Z" fill="#e9e5f1" stroke="#e9e5f1" stroke-width="1.51"/><path d="M-154,1089L-130,1282L-13,1156Z" fill="#8d9fbf" stroke="#8d9fbf" stroke-width="1.51"/><path d="M-220,520L-183,704L-21,559Z" fill="#b3c9e2" stroke="#b3c9e2" stroke-width="1.51"/><path d="M-183,798L-140,1008L-63,854Z" fill="#9ab3d7" stroke="#9ab3d7" stroke-width="1.51"/><path d="M-212,-167L-114,-83L-70,-165Z" fill="#f4eef6" stroke="#f4eef6" stroke-width="1.51"/><path d="M-212,-167L-160,142L-114,-83Z" fill="#f0eaf4" stroke="#f0eaf4" stroke-width="1.51"/><path d="M-183,798L-220,520L-154,1089Z" fill="#a1bcdb" stroke="#a1bcdb" stroke-width="1.51"/><path d="M-183,798L-154,1089L-140,1008Z" fill="#97aed4" stroke="#97aed4" stroke-width="1.51"/><path d="M-212,-167L-204,409L-160,142Z" fill="#e6e2f0" stroke="#e6e2f0" stroke-width="1.51"/><path d="M-160,142L-204,409L-160,239Z" fill="#d8dbec" stroke="#d8dbec" stroke-width="1.51"/><path d="M-183,704L-220,520L-183,798Z" fill="#acc6df" stroke="#acc6df" stroke-width="1.51"/><path d="M-212,-167L-220,520L-204,409Z" fill="#daddec" stroke="#daddec" stroke-width="1.51"/></svg>