<svg xmlns="http://www.w3.org/2000/svg" width="1920" height="600"><path d="M389,-236L734,-215L1089,-276Z" fill="#8162cf" stroke="#8162cf" stroke-width="1.51"/><path d="M188,-280L389,-236L1089,-276Z" fill="#8864cf" stroke="#8864cf" stroke-width="1.51"/><path d="M1048,831L628,824L1445,860Z" fill="#3e36d5" stroke="#3e36d5" stroke-width="1.51"/><path d="M628,824L264,834L1445,860Z" fill="#493fd8" stroke="#493fd8" stroke-width="1.51"/><path d="M264,834L-52,851L1445,860Z" fill="#5440d9" stroke="#5440d9" stroke-width="1.51"/><path d="M1221,826L1048,831L1445,860Z" fill="#3530d5" stroke="#3530d5" stroke-width="1.51"/><path d="M1089,-276L1226,-265L1685,-272Z" fill="#7753cf" stroke="#7753cf" stroke-width="1.51"/><path d="M1226,-265L1363,-241L1685,-272Z" fill="#7652d1" stroke="#7652d1" stroke-width="1.51"/><path d="M1611,795L1445,860L1786,792Z" fill="#302edd" stroke="#302edd" stroke-width="1.51"/><path d="M1786,792L1445,860L1958,826Z" fill="#2d2ce0" stroke="#2d2ce0" stroke-width="1.51"/><path d="M1958,826L1445,860L2057,852Z" fill="#2b2ae1" stroke="#2b2ae1" stroke-width="1.51"/><path d="M1963,709L2105,719L2134,550Z" fill="#2d2ce0" stroke="#2d2ce0" stroke-width="1.51"/><path d="M1985,513L1963,709L2134,550Z" fill="#302edc" stroke="#302edc" stroke-width="1.51"/><path d="M2064,362L1985,513L2134,550Z" fill="#342fd7" stroke="#342fd7" stroke-width="1.51"/><path d="M2067,235L2064,362L2134,550Z" fill="#3932d6" stroke="#3932d6" stroke-width="1.51"/><path d="M2079,-187L1973,20L2139,-50Z" fill="#6340d9" stroke="#6340d9" stroke-width="1.51"/><path d="M1973,20L2029,84L2139,-50Z" fill="#5b40d9" stroke="#5b40d9" stroke-width="1.51"/><path d="M2029,84L2067,235L2139,-50Z" fill="#5540d9" stroke="#5540d9" stroke-width="1.51"/><path d="M2067,235L2134,550L2139,-50Z" fill="#463cd8" stroke="#463cd8" stroke-width="1.51"/><path d="M1963,709L1958,826L2057,852Z" fill="#2a29e2" stroke="#2a29e2" stroke-width="1.51"/><path d="M1973,369L1985,513L2064,362Z" fill="#3631d4" stroke="#3631d4" stroke-width="1.51"/><path d="M1896,-61L1973,20L2079,-187Z" fill="#6441d8" stroke="#6441d8" stroke-width="1.51"/><path d="M1963,709L2057,852L2105,719Z" fill="#2a29e2" stroke="#2a29e2" stroke-width="1.51"/><path d="M2029,84L1924,179L2067,235Z" fill="#4e41d8" stroke="#4e41d8" stroke-width="1.51"/><path d="M1973,369L2064,362L2067,235Z" fill="#4037d6" stroke="#4037d6" stroke-width="1.51"/><path d="M1884,-238L1896,-61L2079,-187Z" fill="#6d47d9" stroke="#6d47d9" stroke-width="1.51"/><path d="M1924,179L1973,369L2067,235Z" fill="#463cd7" stroke="#463cd7" stroke-width="1.51"/><path d="M1973,20L1924,179L2029,84Z" fill="#5542d8" stroke="#5542d8" stroke-width="1.51"/><path d="M1884,-238L1834,-210L1896,-61Z" fill="#6d48d8" stroke="#6d48d8" stroke-width="1.51"/><path d="M1924,179L1761,256L1973,369Z" fill="#463dd5" stroke="#463dd5" stroke-width="1.51"/><path d="M1761,256L1769,367L1973,369Z" fill="#403ad4" stroke="#403ad4" stroke-width="1.51"/><path d="M1833,708L1963,709L1985,513Z" fill="#302fdd" stroke="#302fdd" stroke-width="1.51"/><path d="M1763,561L1833,708L1985,513Z" fill="#3331db" stroke="#3331db" stroke-width="1.51"/><path d="M1973,369L1769,367L1985,513Z" fill="#3833d3" stroke="#3833d3" stroke-width="1.51"/><path d="M1769,367L1763,561L1985,513Z" fill="#3633d5" stroke="#3633d5" stroke-width="1.51"/><path d="M389,-236L537,-216L734,-215Z" fill="#8562cf" stroke="#8562cf" stroke-width="1.51"/><path d="M1833,708L1958,826L1963,709Z" fill="#2d2ce1" stroke="#2d2ce1" stroke-width="1.51"/><path d="M1740,25L1924,179L1973,20Z" fill="#5743d7" stroke="#5743d7" stroke-width="1.51"/><path d="M1896,-61L1740,25L1973,20Z" fill="#5e43d7" stroke="#5e43d7" stroke-width="1.51"/><path d="M1833,708L1786,792L1958,826Z" fill="#2d2ce1" stroke="#2d2ce1" stroke-width="1.51"/><path d="M1685,-272L1834,-210L1884,-238Z" fill="#744ed8" stroke="#744ed8" stroke-width="1.51"/><path d="M1834,-210L1789,-93L1896,-61Z" fill="#6946d7" stroke="#6946d7" stroke-width="1.51"/><path d="M1740,25L1761,256L1924,179Z" fill="#5044d6" stroke="#5044d6" stroke-width="1.51"/><path d="M1789,-93L1740,25L1896,-61Z" fill="#6243d6" stroke="#6243d6" stroke-width="1.51"/><path d="M1740,25L1676,40L1761,256Z" fill="#5545d5" stroke="#5545d5" stroke-width="1.51"/><path d="M1763,561L1642,659L1833,708Z" fill="#3332db" stroke="#3332db" stroke-width="1.51"/><path d="M1685,-272L1789,-93L1834,-210Z" fill="#704cd7" stroke="#704cd7" stroke-width="1.51"/><path d="M1642,659L1786,792L1833,708Z" fill="#3130de" stroke="#3130de" stroke-width="1.51"/><path d="M1676,40L1603,189L1761,256Z" fill="#5046d5" stroke="#5046d5" stroke-width="1.51"/><path d="M1586,506L1763,561L1769,367Z" fill="#3835d4" stroke="#3835d4" stroke-width="1.51"/><path d="M1605,344L1586,506L1769,367Z" fill="#3b37d0" stroke="#3b37d0" stroke-width="1.51"/><path d="M1642,659L1611,795L1786,792Z" fill="#3130de" stroke="#3130de" stroke-width="1.51"/><path d="M1671,-65L1740,25L1789,-93Z" fill="#6244d5" stroke="#6244d5" stroke-width="1.51"/><path d="M1685,-272L1671,-65L1789,-93Z" fill="#6b4ad6" stroke="#6b4ad6" stroke-width="1.51"/><path d="M1363,-241L1432,-212L1685,-272Z" fill="#7551d2" stroke="#7551d2" stroke-width="1.51"/><path d="M1761,256L1605,344L1769,367Z" fill="#423cd3" stroke="#423cd3" stroke-width="1.51"/><path d="M1586,506L1642,659L1763,561Z" fill="#3634d7" stroke="#3634d7" stroke-width="1.51"/><path d="M1603,189L1605,344L1761,256Z" fill="#4840d3" stroke="#4840d3" stroke-width="1.51"/><path d="M1671,-65L1676,40L1740,25Z" fill="#5e45d5" stroke="#5e45d5" stroke-width="1.51"/><path d="M1471,86L1603,189L1676,40Z" fill="#5646d3" stroke="#5646d3" stroke-width="1.51"/><path d="M1671,-65L1522,-49L1676,40Z" fill="#6146d3" stroke="#6146d3" stroke-width="1.51"/><path d="M1522,-49L1671,-65L1685,-272Z" fill="#6b4ad4" stroke="#6b4ad4" stroke-width="1.51"/><path d="M1432,-212L1522,-49L1685,-272Z" fill="#6f4dd3" stroke="#6f4dd3" stroke-width="1.51"/><path d="M1522,-49L1471,86L1676,40Z" fill="#5d46d2" stroke="#5d46d2" stroke-width="1.51"/><path d="M1528,699L1611,795L1642,659Z" fill="#3332db" stroke="#3332db" stroke-width="1.51"/><path d="M1480,373L1586,506L1605,344Z" fill="#3c38ce" stroke="#3c38ce" stroke-width="1.51"/><path d="M1586,506L1465,575L1642,659Z" fill="#3735d6" stroke="#3735d6" stroke-width="1.51"/><path d="M1465,575L1528,699L1642,659Z" fill="#3634d8" stroke="#3634d8" stroke-width="1.51"/><path d="M1603,189L1445,236L1605,344Z" fill="#4942d1" stroke="#4942d1" stroke-width="1.51"/><path d="M1445,236L1480,373L1605,344Z" fill="#443ecf" stroke="#443ecf" stroke-width="1.51"/><path d="M1528,699L1445,860L1611,795Z" fill="#3230db" stroke="#3230db" stroke-width="1.51"/><path d="M1471,86L1445,236L1603,189Z" fill="#5147d1" stroke="#5147d1" stroke-width="1.51"/><path d="M1480,373L1465,575L1586,506Z" fill="#3a36d0" stroke="#3a36d0" stroke-width="1.51"/><path d="M726,803L628,824L1048,831Z" fill="#493fd8" stroke="#493fd8" stroke-width="1.51"/><path d="M1342,509L1465,575L1480,373Z" fill="#3b37ce" stroke="#3b37ce" stroke-width="1.51"/><path d="M1344,-76L1471,86L1522,-49Z" fill="#6047cf" stroke="#6047cf" stroke-width="1.51"/><path d="M1432,-212L1344,-76L1522,-49Z" fill="#694ad0" stroke="#694ad0" stroke-width="1.51"/><path d="M1347,791L1445,860L1528,699Z" fill="#3330d9" stroke="#3330d9" stroke-width="1.51"/><path d="M1346,722L1347,791L1528,699Z" fill="#3533d7" stroke="#3533d7" stroke-width="1.51"/><path d="M1465,575L1346,722L1528,699Z" fill="#3635d6" stroke="#3635d6" stroke-width="1.51"/><path d="M1343,401L1342,509L1480,373Z" fill="#3c38cb" stroke="#3c38cb" stroke-width="1.51"/><path d="M1333,236L1343,401L1445,236Z" fill="#4841cc" stroke="#4841cc" stroke-width="1.51"/><path d="M1344,-76L1367,125L1471,86Z" fill="#5b47ce" stroke="#5b47ce" stroke-width="1.51"/><path d="M1367,125L1445,236L1471,86Z" fill="#5347cf" stroke="#5347cf" stroke-width="1.51"/><path d="M1445,236L1343,401L1480,373Z" fill="#433dcc" stroke="#433dcc" stroke-width="1.51"/><path d="M1342,509L1346,722L1465,575Z" fill="#3936d2" stroke="#3936d2" stroke-width="1.51"/><path d="M1347,791L1221,826L1445,860Z" fill="#3430d7" stroke="#3430d7" stroke-width="1.51"/><path d="M1363,-241L1344,-76L1432,-212Z" fill="#6f4ecf" stroke="#6f4ecf" stroke-width="1.51"/><path d="M1367,125L1333,236L1445,236Z" fill="#4f47cd" stroke="#4f47cd" stroke-width="1.51"/><path d="M854,792L726,803L1048,831Z" fill="#463dd7" stroke="#463dd7" stroke-width="1.51"/><path d="M1333,236L1174,356L1343,401Z" fill="#453fca" stroke="#453fca" stroke-width="1.51"/><path d="M1133,-50L1148,96L1344,-76Z" fill="#6048ca" stroke="#6048ca" stroke-width="1.51"/><path d="M1342,509L1204,512L1346,722Z" fill="#3a37cf" stroke="#3a37cf" stroke-width="1.51"/><path d="M1204,512L1168,700L1346,722Z" fill="#3936d1" stroke="#3936d1" stroke-width="1.51"/><path d="M1226,-265L1344,-76L1363,-241Z" fill="#714fce" stroke="#714fce" stroke-width="1.51"/><path d="M1344,-76L1148,96L1367,125Z" fill="#5c48cc" stroke="#5c48cc" stroke-width="1.51"/><path d="M1148,96L1333,236L1367,125Z" fill="#5348cc" stroke="#5348cc" stroke-width="1.51"/><path d="M1148,96L1145,225L1333,236Z" fill="#5048ca" stroke="#5048ca" stroke-width="1.51"/><path d="M1204,512L1342,509L1343,401Z" fill="#3c38ca" stroke="#3c38ca" stroke-width="1.51"/><path d="M1226,-265L1133,-50L1344,-76Z" fill="#6b4ccc" stroke="#6b4ccc" stroke-width="1.51"/><path d="M1168,700L1221,826L1346,722Z" fill="#3733d4" stroke="#3733d4" stroke-width="1.51"/><path d="M1346,722L1221,826L1347,791Z" fill="#3532d6" stroke="#3532d6" stroke-width="1.51"/><path d="M1174,356L1204,512L1343,401Z" fill="#3e39c7" stroke="#3e39c7" stroke-width="1.51"/><path d="M1145,225L1174,356L1333,236Z" fill="#4a43c9" stroke="#4a43c9" stroke-width="1.51"/><path d="M1038,685L1168,700L1204,512Z" fill="#3d39d0" stroke="#3d39d0" stroke-width="1.51"/><path d="M1058,476L1038,685L1204,512Z" fill="#403bcd" stroke="#403bcd" stroke-width="1.51"/><path d="M1174,356L1058,476L1204,512Z" fill="#403bc8" stroke="#403bc8" stroke-width="1.51"/><path d="M1168,700L1048,831L1221,826Z" fill="#3a34d4" stroke="#3a34d4" stroke-width="1.51"/><path d="M1089,-276L1133,-50L1226,-265Z" fill="#7251cc" stroke="#7251cc" stroke-width="1.51"/><path d="M1089,-34L1063,30L1133,-50Z" fill="#654ccb" stroke="#654ccb" stroke-width="1.51"/><path d="M1133,-50L1063,30L1148,96Z" fill="#604bca" stroke="#604bca" stroke-width="1.51"/><path d="M924,-171L1089,-34L1089,-276Z" fill="#7254cc" stroke="#7254cc" stroke-width="1.51"/><path d="M1089,-276L1089,-34L1133,-50Z" fill="#6c4fcb" stroke="#6c4fcb" stroke-width="1.51"/><path d="M1029,172L1145,225L1148,96Z" fill="#554cca" stroke="#554cca" stroke-width="1.51"/><path d="M1038,685L1048,831L1168,700Z" fill="#3e38d3" stroke="#3e38d3" stroke-width="1.51"/><path d="M1145,225L1022,419L1174,356Z" fill="#4941c8" stroke="#4941c8" stroke-width="1.51"/><path d="M1022,419L1058,476L1174,356Z" fill="#443dc7" stroke="#443dc7" stroke-width="1.51"/><path d="M1029,172L1022,419L1145,225Z" fill="#4f47c9" stroke="#4f47c9" stroke-width="1.51"/><path d="M1063,30L1029,172L1148,96Z" fill="#5b4ccb" stroke="#5b4ccb" stroke-width="1.51"/><path d="M921,225L1022,419L1029,172Z" fill="#514aca" stroke="#514aca" stroke-width="1.51"/><path d="M734,-215L924,-171L1089,-276Z" fill="#7b5bcd" stroke="#7b5bcd" stroke-width="1.51"/><path d="M921,225L883,352L1022,419Z" fill="#4f47ca" stroke="#4f47ca" stroke-width="1.51"/><path d="M929,674L1038,685L1058,476Z" fill="#433dd1" stroke="#433dd1" stroke-width="1.51"/><path d="M873,506L929,674L1058,476Z" fill="#4640ce" stroke="#4640ce" stroke-width="1.51"/><path d="M924,-171L1063,30L1089,-34Z" fill="#694ecb" stroke="#694ecb" stroke-width="1.51"/><path d="M1038,685L929,674L1048,831Z" fill="#413bd4" stroke="#413bd4" stroke-width="1.51"/><path d="M929,674L854,792L1048,831Z" fill="#443cd5" stroke="#443cd5" stroke-width="1.51"/><path d="M924,-171L838,-104L1063,30Z" fill="#6e52cc" stroke="#6e52cc" stroke-width="1.51"/><path d="M838,-104L841,49L1063,30Z" fill="#6952cc" stroke="#6952cc" stroke-width="1.51"/><path d="M841,49L1029,172L1063,30Z" fill="#604fcb" stroke="#604fcb" stroke-width="1.51"/><path d="M1022,419L873,506L1058,476Z" fill="#4640ca" stroke="#4640ca" stroke-width="1.51"/><path d="M841,49L921,225L1029,172Z" fill="#5c51cc" stroke="#5c51cc" stroke-width="1.51"/><path d="M883,352L873,506L1022,419Z" fill="#4942c9" stroke="#4942c9" stroke-width="1.51"/><path d="M841,49L697,245L921,225Z" fill="#5e55cd" stroke="#5e55cd" stroke-width="1.51"/><path d="M873,506L777,686L929,674Z" fill="#4942d2" stroke="#4942d2" stroke-width="1.51"/><path d="M777,686L854,792L929,674Z" fill="#4940d5" stroke="#4940d5" stroke-width="1.51"/><path d="M697,245L883,352L921,225Z" fill="#574fcb" stroke="#574fcb" stroke-width="1.51"/><path d="M734,-215L838,-104L924,-171Z" fill="#785acd" stroke="#785acd" stroke-width="1.51"/><path d="M406,794L264,834L628,824Z" fill="#5a41d8" stroke="#5a41d8" stroke-width="1.51"/><path d="M762,35L697,245L841,49Z" fill="#6456cd" stroke="#6456cd" stroke-width="1.51"/><path d="M838,-104L762,35L841,49Z" fill="#6b55cd" stroke="#6b55cd" stroke-width="1.51"/><path d="M678,511L777,686L873,506Z" fill="#4d45d0" stroke="#4d45d0" stroke-width="1.51"/><path d="M714,396L873,506L883,352Z" fill="#4d45c9" stroke="#4d45c9" stroke-width="1.51"/><path d="M697,245L714,396L883,352Z" fill="#554dcb" stroke="#554dcb" stroke-width="1.51"/><path d="M714,396L678,511L873,506Z" fill="#4f47cc" stroke="#4f47cc" stroke-width="1.51"/><path d="M702,-43L762,35L838,-104Z" fill="#6f57cd" stroke="#6f57cd" stroke-width="1.51"/><path d="M777,686L726,803L854,792Z" fill="#4b41d6" stroke="#4b41d6" stroke-width="1.51"/><path d="M734,-215L702,-43L838,-104Z" fill="#765acd" stroke="#765acd" stroke-width="1.51"/><path d="M632,221L697,245L762,35Z" fill="#6258cd" stroke="#6258cd" stroke-width="1.51"/><path d="M549,86L632,221L762,35Z" fill="#6858cd" stroke="#6858cd" stroke-width="1.51"/><path d="M678,511L640,538L777,686Z" fill="#5147d1" stroke="#5147d1" stroke-width="1.51"/><path d="M640,538L620,725L777,686Z" fill="#5046d4" stroke="#5046d4" stroke-width="1.51"/><path d="M620,725L726,803L777,686Z" fill="#4e44d6" stroke="#4e44d6" stroke-width="1.51"/><path d="M557,-107L702,-43L734,-215Z" fill="#795bce" stroke="#795bce" stroke-width="1.51"/><path d="M702,-43L549,86L762,35Z" fill="#6e58cd" stroke="#6e58cd" stroke-width="1.51"/><path d="M697,245L579,358L714,396Z" fill="#594ecb" stroke="#594ecb" stroke-width="1.51"/><path d="M620,725L628,824L726,803Z" fill="#5042d7" stroke="#5042d7" stroke-width="1.51"/><path d="M537,-216L557,-107L734,-215Z" fill="#805fcf" stroke="#805fcf" stroke-width="1.51"/><path d="M632,221L579,358L697,245Z" fill="#5e52cc" stroke="#5e52cc" stroke-width="1.51"/><path d="M579,358L678,511L714,396Z" fill="#5349ca" stroke="#5349ca" stroke-width="1.51"/><path d="M557,-107L549,86L702,-43Z" fill="#7358cd" stroke="#7358cd" stroke-width="1.51"/><path d="M579,358L640,538L678,511Z" fill="#5448cc" stroke="#5448cc" stroke-width="1.51"/><path d="M482,561L620,725L640,538Z" fill="#5646d2" stroke="#5646d2" stroke-width="1.51"/><path d="M425,429L482,561L579,358Z" fill="#5a48cb" stroke="#5a48cb" stroke-width="1.51"/><path d="M579,358L482,561L640,538Z" fill="#5747cd" stroke="#5747cd" stroke-width="1.51"/><path d="M490,75L549,86L557,-107Z" fill="#7358cd" stroke="#7358cd" stroke-width="1.51"/><path d="M482,561L408,650L620,725Z" fill="#5846d4" stroke="#5846d4" stroke-width="1.51"/><path d="M620,725L406,794L628,824Z" fill="#5542d7" stroke="#5542d7" stroke-width="1.51"/><path d="M439,210L579,358L632,221Z" fill="#6252cc" stroke="#6252cc" stroke-width="1.51"/><path d="M549,86L439,210L632,221Z" fill="#6858cd" stroke="#6858cd" stroke-width="1.51"/><path d="M408,650L406,794L620,725Z" fill="#5944d6" stroke="#5944d6" stroke-width="1.51"/><path d="M490,75L439,210L549,86Z" fill="#6d58cd" stroke="#6d58cd" stroke-width="1.51"/><path d="M454,-132L490,75L557,-107Z" fill="#7958cd" stroke="#7958cd" stroke-width="1.51"/><path d="M439,210L425,429L579,358Z" fill="#604ecb" stroke="#604ecb" stroke-width="1.51"/><path d="M537,-216L454,-132L557,-107Z" fill="#805dce" stroke="#805dce" stroke-width="1.51"/><path d="M389,-236L454,-132L537,-216Z" fill="#8660cf" stroke="#8660cf" stroke-width="1.51"/><path d="M323,274L425,429L439,210Z" fill="#6550cb" stroke="#6550cb" stroke-width="1.51"/><path d="M258,69L439,210L490,75Z" fill="#7158cd" stroke="#7158cd" stroke-width="1.51"/><path d="M454,-132L268,-50L490,75Z" fill="#7b58cd" stroke="#7b58cd" stroke-width="1.51"/><path d="M268,-50L258,69L490,75Z" fill="#7958cd" stroke="#7958cd" stroke-width="1.51"/><path d="M425,429L327,623L482,561Z" fill="#5d47cf" stroke="#5d47cf" stroke-width="1.51"/><path d="M327,623L408,650L482,561Z" fill="#5d46d3" stroke="#5d46d3" stroke-width="1.51"/><path d="M250,529L327,623L425,429Z" fill="#6047cf" stroke="#6047cf" stroke-width="1.51"/><path d="M312,407L250,529L425,429Z" fill="#6148cb" stroke="#6148cb" stroke-width="1.51"/><path d="M323,274L312,407L425,429Z" fill="#634cca" stroke="#634cca" stroke-width="1.51"/><path d="M389,-236L268,-50L454,-132Z" fill="#845cce" stroke="#845cce" stroke-width="1.51"/><path d="M229,-179L268,-50L389,-236Z" fill="#885dce" stroke="#885dce" stroke-width="1.51"/><path d="M258,69L323,274L439,210Z" fill="#6e58cd" stroke="#6e58cd" stroke-width="1.51"/><path d="M327,623L406,794L408,650Z" fill="#5d45d5" stroke="#5d45d5" stroke-width="1.51"/><path d="M327,623L264,834L406,794Z" fill="#5f43d7" stroke="#5f43d7" stroke-width="1.51"/><path d="M92,796L-52,851L264,834Z" fill="#6944d9" stroke="#6944d9" stroke-width="1.51"/><path d="M188,-280L229,-179L389,-236Z" fill="#8e62cf" stroke="#8e62cf" stroke-width="1.51"/><path d="M85,386L312,407L323,274Z" fill="#684ccb" stroke="#684ccb" stroke-width="1.51"/><path d="M173,189L85,386L323,274Z" fill="#6e53cc" stroke="#6e53cc" stroke-width="1.51"/><path d="M258,69L173,189L323,274Z" fill="#7158cd" stroke="#7158cd" stroke-width="1.51"/><path d="M139,723L264,834L327,623Z" fill="#6343d6" stroke="#6343d6" stroke-width="1.51"/><path d="M250,529L139,723L327,623Z" fill="#6446d3" stroke="#6446d3" stroke-width="1.51"/><path d="M177,96L173,189L258,69Z" fill="#7859cd" stroke="#7859cd" stroke-width="1.51"/><path d="M85,386L250,529L312,407Z" fill="#6549cb" stroke="#6549cb" stroke-width="1.51"/><path d="M85,386L119,550L250,529Z" fill="#684acd" stroke="#684acd" stroke-width="1.51"/><path d="M119,550L139,723L250,529Z" fill="#6748d3" stroke="#6748d3" stroke-width="1.51"/><path d="M170,-61L177,96L258,69Z" fill="#7d59cd" stroke="#7d59cd" stroke-width="1.51"/><path d="M139,723L92,796L264,834Z" fill="#6643d8" stroke="#6643d8" stroke-width="1.51"/><path d="M170,-61L258,69L268,-50Z" fill="#8058cd" stroke="#8058cd" stroke-width="1.51"/><path d="M229,-179L170,-61L268,-50Z" fill="#865ace" stroke="#865ace" stroke-width="1.51"/><path d="M188,-280L170,-61L229,-179Z" fill="#8d60ce" stroke="#8d60ce" stroke-width="1.51"/><path d="M-66,-174L-19,-28L170,-61Z" fill="#8c60cf" stroke="#8c60cf" stroke-width="1.51"/><path d="M11,189L85,386L173,189Z" fill="#7557cd" stroke="#7557cd" stroke-width="1.51"/><path d="M170,-61L-19,-28L177,96Z" fill="#835cce" stroke="#835cce" stroke-width="1.51"/><path d="M-66,-174L170,-61L188,-280Z" fill="#9063cf" stroke="#9063cf" stroke-width="1.51"/><path d="M-112,-259L-66,-174L188,-280Z" fill="#9969d1" stroke="#9969d1" stroke-width="1.51"/><path d="M11,189L173,189L177,96Z" fill="#785bce" stroke="#785bce" stroke-width="1.51"/><path d="M-19,-28L11,189L177,96Z" fill="#805dce" stroke="#805dce" stroke-width="1.51"/><path d="M-19,-28L-68,102L11,189Z" fill="#8360cf" stroke="#8360cf" stroke-width="1.51"/><path d="M85,386L16,413L119,550Z" fill="#6c4ccc" stroke="#6c4ccc" stroke-width="1.51"/><path d="M-32,532L-62,690L119,550Z" fill="#6f4dd3" stroke="#6f4dd3" stroke-width="1.51"/><path d="M119,550L-62,690L139,723Z" fill="#6c4ad5" stroke="#6c4ad5" stroke-width="1.51"/><path d="M-62,690L92,796L139,723Z" fill="#6c48d7" stroke="#6c48d7" stroke-width="1.51"/><path d="M11,189L16,413L85,386Z" fill="#7354cc" stroke="#7354cc" stroke-width="1.51"/><path d="M16,413L-32,532L119,550Z" fill="#6e4dce" stroke="#6e4dce" stroke-width="1.51"/><path d="M11,189L-121,327L16,413Z" fill="#7657cd" stroke="#7657cd" stroke-width="1.51"/><path d="M-62,690L-52,851L92,796Z" fill="#6f49d9" stroke="#6f49d9" stroke-width="1.51"/><path d="M-62,690L-138,799L-52,851Z" fill="#724bd9" stroke="#724bd9" stroke-width="1.51"/><path d="M-135,178L-121,327L11,189Z" fill="#7d5ece" stroke="#7d5ece" stroke-width="1.51"/><path d="M-141,538L-32,532L16,413Z" fill="#7150cf" stroke="#7150cf" stroke-width="1.51"/><path d="M-121,327L-141,538L16,413Z" fill="#7351cc" stroke="#7351cc" stroke-width="1.51"/><path d="M-68,102L-135,178L11,189Z" fill="#8061cf" stroke="#8061cf" stroke-width="1.51"/><path d="M-137,708L-138,799L-62,690Z" fill="#744dd8" stroke="#744dd8" stroke-width="1.51"/><path d="M-141,538L-62,690L-32,532Z" fill="#724fd3" stroke="#724fd3" stroke-width="1.51"/><path d="M-66,-174L-167,-47L-19,-28Z" fill="#9163cf" stroke="#9163cf" stroke-width="1.51"/><path d="M-167,-47L-68,102L-19,-28Z" fill="#8b62cf" stroke="#8b62cf" stroke-width="1.51"/><path d="M-167,-47L-201,46L-68,102Z" fill="#8b63cf" stroke="#8b63cf" stroke-width="1.51"/><path d="M-141,538L-137,708L-62,690Z" fill="#744fd6" stroke="#744fd6" stroke-width="1.51"/><path d="M-112,-259L-167,-47L-66,-174Z" fill="#9868d0" stroke="#9868d0" stroke-width="1.51"/><path d="M-201,46L-135,178L-68,102Z" fill="#8663cf" stroke="#8663cf" stroke-width="1.51"/><path d="M-201,46L-167,-47L-112,-259Z" fill="#9365d0" stroke="#9365d0" stroke-width="1.51"/><path d="M-135,178L-201,46L-121,327Z" fill="#8264cf" stroke="#8264cf" stroke-width="1.51"/><path d="M-201,46L-141,538L-121,327Z" fill="#7c5bcd" stroke="#7c5bcd" stroke-width="1.51"/><path d="M-201,46L-138,799L-137,708Z" fill="#7653d0" stroke="#7653d0" stroke-width="1.51"/><path d="M-141,538L-201,46L-137,708Z" fill="#7654cc" stroke="#7654cc" stroke-width="1.51"/></svg>