<svg xmlns="http://www.w3.org/2000/svg" width="1920" height="1080"><path d="M-112,-244L11,-246L304,-267Z" fill="#8f2bea" stroke="#8f2bea" stroke-width="1.51"/><path d="M-31,1315L-218,1317L639,1331Z" fill="#685ce1" stroke="#685ce1" stroke-width="1.51"/><path d="M1163,1326L639,1331L1329,1328Z" fill="#5789df" stroke="#5789df" stroke-width="1.51"/><path d="M763,-255L1153,-246L1583,-246Z" fill="#8469e4" stroke="#8469e4" stroke-width="1.51"/><path d="M304,-267L763,-255L1583,-246Z" fill="#9168e5" stroke="#9168e5" stroke-width="1.51"/><path d="M2038,943L2064,1106L2071,846Z" fill="#347bde" stroke="#347bde" stroke-width="1.51"/><path d="M1962,589L2037,676L2101,494Z" fill="#5889dc" stroke="#5889dc" stroke-width="1.51"/><path d="M2037,676L2071,846L2101,494Z" fill="#5186dd" stroke="#5186dd" stroke-width="1.51"/><path d="M1583,-246L1753,-233L2109,-213Z" fill="#6b59e7" stroke="#6b59e7" stroke-width="1.51"/><path d="M1753,-233L1932,-202L2109,-213Z" fill="#6a58ea" stroke="#6a58ea" stroke-width="1.51"/><path d="M2109,-213L2056,-115L2112,37Z" fill="#695ae6" stroke="#695ae6" stroke-width="1.51"/><path d="M1667,1306L1329,1328L2134,1344Z" fill="#2878e0" stroke="#2878e0" stroke-width="1.51"/><path d="M1753,1291L1667,1306L2134,1344Z" fill="#2076e3" stroke="#2076e3" stroke-width="1.51"/><path d="M1946,1255L1753,1291L2134,1344Z" fill="#1e76e6" stroke="#1e76e6" stroke-width="1.51"/><path d="M2064,1106L1989,1150L2134,1344Z" fill="#1f76e5" stroke="#1f76e5" stroke-width="1.51"/><path d="M1989,1150L1946,1255L2134,1344Z" fill="#1e76e6" stroke="#1e76e6" stroke-width="1.51"/><path d="M2071,846L2064,1106L2134,1344Z" fill="#2377e1" stroke="#2377e1" stroke-width="1.51"/><path d="M1901,349L2101,494L2138,340Z" fill="#6b7edd" stroke="#6b7edd" stroke-width="1.51"/><path d="M2029,231L1901,349L2138,340Z" fill="#7377dd" stroke="#7377dd" stroke-width="1.51"/><path d="M2112,37L2029,231L2138,340Z" fill="#736ddf" stroke="#736ddf" stroke-width="1.51"/><path d="M2109,-213L2112,37L2138,340Z" fill="#6c61e0" stroke="#6c61e0" stroke-width="1.51"/><path d="M2071,846L2134,1344L2138,340Z" fill="#407fe0" stroke="#407fe0" stroke-width="1.51"/><path d="M2101,494L2071,846L2138,340Z" fill="#5b8adf" stroke="#5b8adf" stroke-width="1.51"/><path d="M1903,61L2029,231L2112,37Z" fill="#6f67dc" stroke="#6f67dc" stroke-width="1.51"/><path d="M2037,676L1973,834L2071,846Z" fill="#4682dc" stroke="#4682dc" stroke-width="1.51"/><path d="M2056,-115L1922,-24L2112,37Z" fill="#695cdf" stroke="#695cdf" stroke-width="1.51"/><path d="M1922,-24L1903,61L2112,37Z" fill="#6a60db" stroke="#6a60db" stroke-width="1.51"/><path d="M1932,-202L2056,-115L2109,-213Z" fill="#6958eb" stroke="#6958eb" stroke-width="1.51"/><path d="M1901,349L1962,589L2101,494Z" fill="#6386db" stroke="#6386db" stroke-width="1.51"/><path d="M1907,286L1901,349L2029,231Z" fill="#7475da" stroke="#7475da" stroke-width="1.51"/><path d="M2038,943L1953,942L2064,1106Z" fill="#317adc" stroke="#317adc" stroke-width="1.51"/><path d="M1953,942L1989,1150L2064,1106Z" fill="#2978dd" stroke="#2978dd" stroke-width="1.51"/><path d="M1973,834L2038,943L2071,846Z" fill="#3d7edc" stroke="#3d7edc" stroke-width="1.51"/><path d="M1893,710L1973,834L2037,676Z" fill="#4b84da" stroke="#4b84da" stroke-width="1.51"/><path d="M1973,834L1953,942L2038,943Z" fill="#3b7edb" stroke="#3b7edb" stroke-width="1.51"/><path d="M1932,-202L1922,-24L2056,-115Z" fill="#695be3" stroke="#695be3" stroke-width="1.51"/><path d="M1901,349L1801,433L1962,589Z" fill="#6685d7" stroke="#6685d7" stroke-width="1.51"/><path d="M1903,61L1907,286L2029,231Z" fill="#736dda" stroke="#736dda" stroke-width="1.51"/><path d="M1962,589L1893,710L2037,676Z" fill="#5287d9" stroke="#5287d9" stroke-width="1.51"/><path d="M1953,942L1780,1033L1989,1150Z" fill="#2e7ad9" stroke="#2e7ad9" stroke-width="1.51"/><path d="M1903,61L1787,206L1907,286Z" fill="#736ed7" stroke="#736ed7" stroke-width="1.51"/><path d="M1731,1192L1946,1255L1989,1150Z" fill="#2577df" stroke="#2577df" stroke-width="1.51"/><path d="M1780,1033L1731,1192L1989,1150Z" fill="#2978d9" stroke="#2978d9" stroke-width="1.51"/><path d="M1766,-88L1922,-24L1932,-202Z" fill="#6a5cdf" stroke="#6a5cdf" stroke-width="1.51"/><path d="M1805,809L1953,942L1973,834Z" fill="#3f80d8" stroke="#3f80d8" stroke-width="1.51"/><path d="M1893,710L1805,809L1973,834Z" fill="#4783d7" stroke="#4783d7" stroke-width="1.51"/><path d="M1801,433L1732,509L1962,589Z" fill="#608ad4" stroke="#608ad4" stroke-width="1.51"/><path d="M1732,509L1792,676L1962,589Z" fill="#588ad4" stroke="#588ad4" stroke-width="1.51"/><path d="M1792,676L1893,710L1962,589Z" fill="#5388d6" stroke="#5388d6" stroke-width="1.51"/><path d="M1805,809L1780,1033L1953,942Z" fill="#3a7dd6" stroke="#3a7dd6" stroke-width="1.51"/><path d="M1770,104L1787,206L1903,61Z" fill="#7069d5" stroke="#7069d5" stroke-width="1.51"/><path d="M1731,1192L1753,1291L1946,1255Z" fill="#2577de" stroke="#2577de" stroke-width="1.51"/><path d="M1753,-233L1766,-88L1932,-202Z" fill="#6a5ae2" stroke="#6a5ae2" stroke-width="1.51"/><path d="M1766,-88L1903,61L1922,-24Z" fill="#695ed8" stroke="#695ed8" stroke-width="1.51"/><path d="M1766,-88L1770,104L1903,61Z" fill="#6b61d5" stroke="#6b61d5" stroke-width="1.51"/><path d="M1787,206L1901,349L1907,286Z" fill="#7575d7" stroke="#7575d7" stroke-width="1.51"/><path d="M1787,206L1801,433L1901,349Z" fill="#717ad5" stroke="#717ad5" stroke-width="1.51"/><path d="M1787,206L1684,383L1801,433Z" fill="#707bd3" stroke="#707bd3" stroke-width="1.51"/><path d="M1792,676L1805,809L1893,710Z" fill="#4c85d4" stroke="#4c85d4" stroke-width="1.51"/><path d="M477,1301L-31,1315L639,1331Z" fill="#7068df" stroke="#7068df" stroke-width="1.51"/><path d="M1481,1272L1329,1328L1667,1306Z" fill="#3a7dde" stroke="#3a7dde" stroke-width="1.51"/><path d="M1667,-8L1686,45L1766,-88Z" fill="#6c60d3" stroke="#6c60d3" stroke-width="1.51"/><path d="M1766,-88L1686,45L1770,104Z" fill="#6c62d3" stroke="#6c62d3" stroke-width="1.51"/><path d="M1685,1167L1731,1192L1780,1033Z" fill="#2c78d6" stroke="#2c78d6" stroke-width="1.51"/><path d="M1624,187L1684,383L1787,206Z" fill="#7876d2" stroke="#7876d2" stroke-width="1.51"/><path d="M1580,689L1657,871L1792,676Z" fill="#4f87d1" stroke="#4f87d1" stroke-width="1.51"/><path d="M1732,509L1622,560L1792,676Z" fill="#5b8cd1" stroke="#5b8cd1" stroke-width="1.51"/><path d="M1792,676L1657,871L1805,809Z" fill="#4883d2" stroke="#4883d2" stroke-width="1.51"/><path d="M1657,871L1780,1033L1805,809Z" fill="#3e7fd3" stroke="#3e7fd3" stroke-width="1.51"/><path d="M1657,871L1608,1029L1780,1033Z" fill="#3b7ed3" stroke="#3b7ed3" stroke-width="1.51"/><path d="M1684,383L1732,509L1801,433Z" fill="#6785d2" stroke="#6785d2" stroke-width="1.51"/><path d="M1770,104L1624,187L1787,206Z" fill="#736ed3" stroke="#736ed3" stroke-width="1.51"/><path d="M1622,560L1580,689L1792,676Z" fill="#588bd1" stroke="#588bd1" stroke-width="1.51"/><path d="M1608,1029L1685,1167L1780,1033Z" fill="#327ad4" stroke="#327ad4" stroke-width="1.51"/><path d="M1753,-233L1583,-246L1766,-88Z" fill="#6d5ce1" stroke="#6d5ce1" stroke-width="1.51"/><path d="M1583,-246L1539,-185L1766,-88Z" fill="#705fdf" stroke="#705fdf" stroke-width="1.51"/><path d="M1539,-185L1667,-8L1766,-88Z" fill="#6e60d9" stroke="#6e60d9" stroke-width="1.51"/><path d="M1686,45L1624,187L1770,104Z" fill="#726ad2" stroke="#726ad2" stroke-width="1.51"/><path d="M1731,1192L1667,1306L1753,1291Z" fill="#2a78dd" stroke="#2a78dd" stroke-width="1.51"/><path d="M1153,-246L1383,-177L1583,-246Z" fill="#7a64e2" stroke="#7a64e2" stroke-width="1.51"/><path d="M1685,1167L1667,1306L1731,1192Z" fill="#2d79da" stroke="#2d79da" stroke-width="1.51"/><path d="M1684,383L1622,560L1732,509Z" fill="#658ad2" stroke="#658ad2" stroke-width="1.51"/><path d="M1464,227L1534,415L1624,187Z" fill="#7c7bd1" stroke="#7c7bd1" stroke-width="1.51"/><path d="M1535,871L1608,1029L1657,871Z" fill="#4482d2" stroke="#4482d2" stroke-width="1.51"/><path d="M1580,689L1535,871L1657,871Z" fill="#4d87d1" stroke="#4d87d1" stroke-width="1.51"/><path d="M1483,1178L1481,1272L1667,1306Z" fill="#387cdc" stroke="#387cdc" stroke-width="1.51"/><path d="M1624,187L1534,415L1684,383Z" fill="#767fd1" stroke="#767fd1" stroke-width="1.51"/><path d="M1534,415L1622,560L1684,383Z" fill="#6b89d1" stroke="#6b89d1" stroke-width="1.51"/><path d="M1483,1178L1667,1306L1685,1167Z" fill="#347bda" stroke="#347bda" stroke-width="1.51"/><path d="M1608,1029L1483,1178L1685,1167Z" fill="#377cd5" stroke="#377cd5" stroke-width="1.51"/><path d="M1667,-8L1467,100L1686,45Z" fill="#7267d2" stroke="#7267d2" stroke-width="1.51"/><path d="M1467,100L1624,187L1686,45Z" fill="#756dd2" stroke="#756dd2" stroke-width="1.51"/><path d="M1539,-185L1429,-51L1667,-8Z" fill="#7363d7" stroke="#7363d7" stroke-width="1.51"/><path d="M1429,-51L1467,100L1667,-8Z" fill="#7367d2" stroke="#7367d2" stroke-width="1.51"/><path d="M332,1286L-31,1315L477,1301Z" fill="#6c62de" stroke="#6c62de" stroke-width="1.51"/><path d="M1457,717L1535,871L1580,689Z" fill="#548ad0" stroke="#548ad0" stroke-width="1.51"/><path d="M1535,871L1443,1035L1608,1029Z" fill="#4482d2" stroke="#4482d2" stroke-width="1.51"/><path d="M1443,1035L1483,1178L1608,1029Z" fill="#3d7fd3" stroke="#3d7fd3" stroke-width="1.51"/><path d="M1505,584L1580,689L1622,560Z" fill="#5e8fd1" stroke="#5e8fd1" stroke-width="1.51"/><path d="M1534,415L1505,584L1622,560Z" fill="#6691d0" stroke="#6691d0" stroke-width="1.51"/><path d="M1467,100L1464,227L1624,187Z" fill="#7a74d1" stroke="#7a74d1" stroke-width="1.51"/><path d="M763,-255L904,-223L1153,-246Z" fill="#8e6de4" stroke="#8e6de4" stroke-width="1.51"/><path d="M1505,584L1457,717L1580,689Z" fill="#5c8ed0" stroke="#5c8ed0" stroke-width="1.51"/><path d="M1383,-177L1539,-185L1583,-246Z" fill="#7561e1" stroke="#7561e1" stroke-width="1.51"/><path d="M1324,494L1505,584L1534,415Z" fill="#6c91d0" stroke="#6c91d0" stroke-width="1.51"/><path d="M1464,227L1373,335L1534,415Z" fill="#7b82d0" stroke="#7b82d0" stroke-width="1.51"/><path d="M1457,717L1385,828L1535,871Z" fill="#538bd0" stroke="#538bd0" stroke-width="1.51"/><path d="M1385,828L1443,1035L1535,871Z" fill="#4c87d1" stroke="#4c87d1" stroke-width="1.51"/><path d="M1383,-177L1429,-51L1539,-185Z" fill="#7664db" stroke="#7664db" stroke-width="1.51"/><path d="M1373,335L1324,494L1534,415Z" fill="#758bd0" stroke="#758bd0" stroke-width="1.51"/><path d="M1385,828L1363,1024L1443,1035Z" fill="#4b86d1" stroke="#4b86d1" stroke-width="1.51"/><path d="M1443,1035L1358,1141L1483,1178Z" fill="#4080d4" stroke="#4080d4" stroke-width="1.51"/><path d="M1373,684L1457,717L1505,584Z" fill="#5e90d0" stroke="#5e90d0" stroke-width="1.51"/><path d="M1324,494L1373,684L1505,584Z" fill="#6694d0" stroke="#6694d0" stroke-width="1.51"/><path d="M304,-267L576,-232L763,-255Z" fill="#9c4de6" stroke="#9c4de6" stroke-width="1.51"/><path d="M1429,-51L1284,77L1467,100Z" fill="#796dd1" stroke="#796dd1" stroke-width="1.51"/><path d="M1296,254L1464,227L1467,100Z" fill="#7e79d1" stroke="#7e79d1" stroke-width="1.51"/><path d="M1284,77L1296,254L1467,100Z" fill="#7f77d1" stroke="#7f77d1" stroke-width="1.51"/><path d="M1358,1141L1329,1328L1481,1272Z" fill="#4180da" stroke="#4180da" stroke-width="1.51"/><path d="M1358,1141L1481,1272L1483,1178Z" fill="#3f7fd8" stroke="#3f7fd8" stroke-width="1.51"/><path d="M1383,-177L1336,-93L1429,-51Z" fill="#7867d8" stroke="#7867d8" stroke-width="1.51"/><path d="M1373,684L1385,828L1457,717Z" fill="#5a8ed0" stroke="#5a8ed0" stroke-width="1.51"/><path d="M1296,254L1373,335L1464,227Z" fill="#827fd0" stroke="#827fd0" stroke-width="1.51"/><path d="M1363,1024L1358,1141L1443,1035Z" fill="#4583d2" stroke="#4583d2" stroke-width="1.51"/><path d="M1336,-93L1284,77L1429,-51Z" fill="#786ad2" stroke="#786ad2" stroke-width="1.51"/><path d="M897,1256L639,1331L1163,1326Z" fill="#6187de" stroke="#6187de" stroke-width="1.51"/><path d="M1169,1132L1329,1328L1358,1141Z" fill="#4983d8" stroke="#4983d8" stroke-width="1.51"/><path d="M1161,360L1324,494L1373,335Z" fill="#7c8dd0" stroke="#7c8dd0" stroke-width="1.51"/><path d="M1324,494L1234,555L1373,684Z" fill="#6a97cf" stroke="#6a97cf" stroke-width="1.51"/><path d="M1161,1021L1363,1024L1385,828Z" fill="#5189d1" stroke="#5189d1" stroke-width="1.51"/><path d="M1140,790L1161,1021L1385,828Z" fill="#5a8ed0" stroke="#5a8ed0" stroke-width="1.51"/><path d="M1373,684L1189,672L1385,828Z" fill="#5f91cf" stroke="#5f91cf" stroke-width="1.51"/><path d="M1189,672L1140,790L1385,828Z" fill="#6192cf" stroke="#6192cf" stroke-width="1.51"/><path d="M1153,-246L1336,-93L1383,-177Z" fill="#7d68de" stroke="#7d68de" stroke-width="1.51"/><path d="M1169,1132L1163,1326L1329,1328Z" fill="#4d85db" stroke="#4d85db" stroke-width="1.51"/><path d="M1169,1132L1358,1141L1363,1024Z" fill="#4984d2" stroke="#4984d2" stroke-width="1.51"/><path d="M1296,254L1161,360L1373,335Z" fill="#8286d0" stroke="#8286d0" stroke-width="1.51"/><path d="M1234,555L1189,672L1373,684Z" fill="#6896cf" stroke="#6896cf" stroke-width="1.51"/><path d="M1153,-246L1155,-91L1336,-93Z" fill="#816bdb" stroke="#816bdb" stroke-width="1.51"/><path d="M1161,1021L1169,1132L1363,1024Z" fill="#4e87d1" stroke="#4e87d1" stroke-width="1.51"/><path d="M1284,77L1192,224L1296,254Z" fill="#847cd1" stroke="#847cd1" stroke-width="1.51"/><path d="M1155,-91L1284,77L1336,-93Z" fill="#7d6cd3" stroke="#7d6cd3" stroke-width="1.51"/><path d="M1140,790L1085,943L1161,1021Z" fill="#5d8fd0" stroke="#5d8fd0" stroke-width="1.51"/><path d="M1161,360L1234,555L1324,494Z" fill="#7795d0" stroke="#7795d0" stroke-width="1.51"/><path d="M1136,71L1192,224L1284,77Z" fill="#8478d1" stroke="#8478d1" stroke-width="1.51"/><path d="M1155,-91L1136,71L1284,77Z" fill="#8071d1" stroke="#8071d1" stroke-width="1.51"/><path d="M1192,224L1161,360L1296,254Z" fill="#8784d1" stroke="#8784d1" stroke-width="1.51"/><path d="M1076,1255L1163,1326L1169,1132Z" fill="#5287da" stroke="#5287da" stroke-width="1.51"/><path d="M1161,360L1030,388L1234,555Z" fill="#7e94cf" stroke="#7e94cf" stroke-width="1.51"/><path d="M1030,388L1015,590L1234,555Z" fill="#799ccf" stroke="#799ccf" stroke-width="1.51"/><path d="M1015,590L1189,672L1234,555Z" fill="#709acf" stroke="#709acf" stroke-width="1.51"/><path d="M904,-223L982,-197L1153,-246Z" fill="#8a6de2" stroke="#8a6de2" stroke-width="1.51"/><path d="M1072,-34L1136,71L1155,-91Z" fill="#826fd1" stroke="#826fd1" stroke-width="1.51"/><path d="M1076,1255L897,1256L1163,1326Z" fill="#5889dc" stroke="#5889dc" stroke-width="1.51"/><path d="M1071,1150L1076,1255L1169,1132Z" fill="#5488d7" stroke="#5488d7" stroke-width="1.51"/><path d="M1015,590L1078,714L1189,672Z" fill="#6f9acf" stroke="#6f9acf" stroke-width="1.51"/><path d="M1078,714L1140,790L1189,672Z" fill="#6996cf" stroke="#6996cf" stroke-width="1.51"/><path d="M1136,71L1021,101L1192,224Z" fill="#887cd1" stroke="#887cd1" stroke-width="1.51"/><path d="M1021,101L995,251L1192,224Z" fill="#8c81d1" stroke="#8c81d1" stroke-width="1.51"/><path d="M995,251L1161,360L1192,224Z" fill="#8c87d1" stroke="#8c87d1" stroke-width="1.51"/><path d="M1153,-246L982,-197L1155,-91Z" fill="#866dde" stroke="#866dde" stroke-width="1.51"/><path d="M995,251L1030,388L1161,360Z" fill="#8a8ed0" stroke="#8a8ed0" stroke-width="1.51"/><path d="M1161,1021L1071,1150L1169,1132Z" fill="#5388d2" stroke="#5388d2" stroke-width="1.51"/><path d="M995,875L1085,943L1140,790Z" fill="#6292d0" stroke="#6292d0" stroke-width="1.51"/><path d="M982,-197L1072,-34L1155,-91Z" fill="#866fd8" stroke="#866fd8" stroke-width="1.51"/><path d="M1085,943L1071,1150L1161,1021Z" fill="#578bd1" stroke="#578bd1" stroke-width="1.51"/><path d="M1072,-34L1021,101L1136,71Z" fill="#8675d1" stroke="#8675d1" stroke-width="1.51"/><path d="M1078,714L995,875L1140,790Z" fill="#6695cf" stroke="#6695cf" stroke-width="1.51"/><path d="M724,1271L639,1331L897,1256Z" fill="#6b7fdd" stroke="#6b7fdd" stroke-width="1.51"/><path d="M892,974L896,1187L1071,1150Z" fill="#5d8cd2" stroke="#5d8cd2" stroke-width="1.51"/><path d="M1071,1150L896,1187L1076,1255Z" fill="#598ad8" stroke="#598ad8" stroke-width="1.51"/><path d="M883,701L995,875L1078,714Z" fill="#6d99cf" stroke="#6d99cf" stroke-width="1.51"/><path d="M892,974L1071,1150L1085,943Z" fill="#5d8ed1" stroke="#5d8ed1" stroke-width="1.51"/><path d="M995,875L892,974L1085,943Z" fill="#6392d0" stroke="#6392d0" stroke-width="1.51"/><path d="M917,590L1015,590L1030,388Z" fill="#7da0cf" stroke="#7da0cf" stroke-width="1.51"/><path d="M894,389L917,590L1030,388Z" fill="#859ad0" stroke="#859ad0" stroke-width="1.51"/><path d="M982,-197L868,-35L1072,-34Z" fill="#8a72d7" stroke="#8a72d7" stroke-width="1.51"/><path d="M921,91L1021,101L1072,-34Z" fill="#8a78d1" stroke="#8a78d1" stroke-width="1.51"/><path d="M896,1187L897,1256L1076,1255Z" fill="#5c8cd9" stroke="#5c8cd9" stroke-width="1.51"/><path d="M1015,590L883,701L1078,714Z" fill="#739ccf" stroke="#739ccf" stroke-width="1.51"/><path d="M868,-35L921,91L1072,-34Z" fill="#8a75d1" stroke="#8a75d1" stroke-width="1.51"/><path d="M883,701L893,866L995,875Z" fill="#6d95cf" stroke="#6d95cf" stroke-width="1.51"/><path d="M917,590L883,701L1015,590Z" fill="#789dcf" stroke="#789dcf" stroke-width="1.51"/><path d="M913,224L995,251L1021,101Z" fill="#9083d1" stroke="#9083d1" stroke-width="1.51"/><path d="M921,91L913,224L1021,101Z" fill="#8f7fd1" stroke="#8f7fd1" stroke-width="1.51"/><path d="M995,251L894,389L1030,388Z" fill="#8d91d0" stroke="#8d91d0" stroke-width="1.51"/><path d="M913,224L894,389L995,251Z" fill="#928bd1" stroke="#928bd1" stroke-width="1.51"/><path d="M904,-223L868,-35L982,-197Z" fill="#8d6edd" stroke="#8d6edd" stroke-width="1.51"/><path d="M893,866L892,974L995,875Z" fill="#6892d0" stroke="#6892d0" stroke-width="1.51"/><path d="M698,1011L695,1140L892,974Z" fill="#6d83d2" stroke="#6d83d2" stroke-width="1.51"/><path d="M738,400L748,546L894,389Z" fill="#8f90d0" stroke="#8f90d0" stroke-width="1.51"/><path d="M758,191L738,400L894,389Z" fill="#9686d1" stroke="#9686d1" stroke-width="1.51"/><path d="M892,974L695,1140L896,1187Z" fill="#6685d3" stroke="#6685d3" stroke-width="1.51"/><path d="M729,-113L868,-35L904,-223Z" fill="#9068da" stroke="#9068da" stroke-width="1.51"/><path d="M758,191L894,389L913,224Z" fill="#9884d1" stroke="#9884d1" stroke-width="1.51"/><path d="M776,650L883,701L917,590Z" fill="#7c98cf" stroke="#7c98cf" stroke-width="1.51"/><path d="M894,389L748,546L917,590Z" fill="#8699d0" stroke="#8699d0" stroke-width="1.51"/><path d="M868,-35L722,134L921,91Z" fill="#9171d1" stroke="#9171d1" stroke-width="1.51"/><path d="M722,134L758,191L921,91Z" fill="#9675d1" stroke="#9675d1" stroke-width="1.51"/><path d="M758,191L913,224L921,91Z" fill="#947cd1" stroke="#947cd1" stroke-width="1.51"/><path d="M883,701L683,865L893,866Z" fill="#748fd0" stroke="#748fd0" stroke-width="1.51"/><path d="M763,-255L729,-113L904,-223Z" fill="#9364e0" stroke="#9364e0" stroke-width="1.51"/><path d="M748,546L776,650L917,590Z" fill="#8298d0" stroke="#8298d0" stroke-width="1.51"/><path d="M776,650L683,865L883,701Z" fill="#7b90cf" stroke="#7b90cf" stroke-width="1.51"/><path d="M683,865L892,974L893,866Z" fill="#708cd1" stroke="#708cd1" stroke-width="1.51"/><path d="M683,865L698,1011L892,974Z" fill="#7287d2" stroke="#7287d2" stroke-width="1.51"/><path d="M896,1187L724,1271L897,1256Z" fill="#6685da" stroke="#6685da" stroke-width="1.51"/><path d="M695,1140L724,1271L896,1187Z" fill="#6a80d9" stroke="#6a80d9" stroke-width="1.51"/><path d="M304,-267L429,-227L576,-232Z" fill="#9846e5" stroke="#9846e5" stroke-width="1.51"/><path d="M624,-6L722,134L729,-113Z" fill="#9462d2" stroke="#9462d2" stroke-width="1.51"/><path d="M729,-113L722,134L868,-35Z" fill="#9268d2" stroke="#9268d2" stroke-width="1.51"/><path d="M541,214L621,390L758,191Z" fill="#a175d2" stroke="#a175d2" stroke-width="1.51"/><path d="M621,390L738,400L758,191Z" fill="#9b80d1" stroke="#9b80d1" stroke-width="1.51"/><path d="M576,-232L729,-113L763,-255Z" fill="#975be1" stroke="#975be1" stroke-width="1.51"/><path d="M629,839L683,865L776,650Z" fill="#7d89d0" stroke="#7d89d0" stroke-width="1.51"/><path d="M573,671L629,839L776,650Z" fill="#8389d0" stroke="#8389d0" stroke-width="1.51"/><path d="M748,546L573,671L776,650Z" fill="#8790d0" stroke="#8790d0" stroke-width="1.51"/><path d="M89,1279L-31,1315L332,1286Z" fill="#685cdf" stroke="#685cdf" stroke-width="1.51"/><path d="M639,1089L695,1140L698,1011Z" fill="#707cd3" stroke="#707cd3" stroke-width="1.51"/><path d="M621,390L583,517L738,400Z" fill="#9686d1" stroke="#9686d1" stroke-width="1.51"/><path d="M738,400L583,517L748,546Z" fill="#908dd1" stroke="#908dd1" stroke-width="1.51"/><path d="M583,517L573,671L748,546Z" fill="#8d8dd1" stroke="#8d8dd1" stroke-width="1.51"/><path d="M722,134L541,214L758,191Z" fill="#9c70d2" stroke="#9c70d2" stroke-width="1.51"/><path d="M683,865L554,957L698,1011Z" fill="#7880d1" stroke="#7880d1" stroke-width="1.51"/><path d="M624,-6L538,61L722,134Z" fill="#9a63d2" stroke="#9a63d2" stroke-width="1.51"/><path d="M695,1140L639,1331L724,1271Z" fill="#6f7bdb" stroke="#6f7bdb" stroke-width="1.51"/><path d="M576,-232L624,-6L729,-113Z" fill="#975ada" stroke="#975ada" stroke-width="1.51"/><path d="M538,61L541,214L722,134Z" fill="#9e67d2" stroke="#9e67d2" stroke-width="1.51"/><path d="M576,-232L490,-47L624,-6Z" fill="#9a54d9" stroke="#9a54d9" stroke-width="1.51"/><path d="M477,1301L639,1331L639,1089Z" fill="#7575db" stroke="#7575db" stroke-width="1.51"/><path d="M629,839L554,957L683,865Z" fill="#7c80d1" stroke="#7c80d1" stroke-width="1.51"/><path d="M639,1089L639,1331L695,1140Z" fill="#717ad8" stroke="#717ad8" stroke-width="1.51"/><path d="M554,957L639,1089L698,1011Z" fill="#767cd2" stroke="#767cd2" stroke-width="1.51"/><path d="M541,214L478,239L621,390Z" fill="#a370d2" stroke="#a370d2" stroke-width="1.51"/><path d="M573,671L397,860L629,839Z" fill="#847fd1" stroke="#847fd1" stroke-width="1.51"/><path d="M378,1126L477,1301L639,1089Z" fill="#7571d7" stroke="#7571d7" stroke-width="1.51"/><path d="M554,957L414,1011L639,1089Z" fill="#7976d2" stroke="#7976d2" stroke-width="1.51"/><path d="M414,1011L378,1126L639,1089Z" fill="#7471d3" stroke="#7471d3" stroke-width="1.51"/><path d="M478,239L434,400L621,390Z" fill="#9e74d2" stroke="#9e74d2" stroke-width="1.51"/><path d="M434,400L583,517L621,390Z" fill="#997fd1" stroke="#997fd1" stroke-width="1.51"/><path d="M397,860L554,957L629,839Z" fill="#7f7bd1" stroke="#7f7bd1" stroke-width="1.51"/><path d="M462,650L397,860L573,671Z" fill="#867fd1" stroke="#867fd1" stroke-width="1.51"/><path d="M490,-47L538,61L624,-6Z" fill="#9958d2" stroke="#9958d2" stroke-width="1.51"/><path d="M538,61L470,140L541,214Z" fill="#9e62d2" stroke="#9e62d2" stroke-width="1.51"/><path d="M462,650L573,671L583,517Z" fill="#8e86d1" stroke="#8e86d1" stroke-width="1.51"/><path d="M429,-227L490,-47L576,-232Z" fill="#9a4ddf" stroke="#9a4ddf" stroke-width="1.51"/><path d="M402,572L462,650L583,517Z" fill="#8f84d1" stroke="#8f84d1" stroke-width="1.51"/><path d="M434,400L402,572L583,517Z" fill="#9481d1" stroke="#9481d1" stroke-width="1.51"/><path d="M397,860L414,1011L554,957Z" fill="#7a75d1" stroke="#7a75d1" stroke-width="1.51"/><path d="M470,140L478,239L541,214Z" fill="#a065d2" stroke="#a065d2" stroke-width="1.51"/><path d="M490,-47L470,140L538,61Z" fill="#9a58d2" stroke="#9a58d2" stroke-width="1.51"/><path d="M332,426L402,572L434,400Z" fill="#9379d1" stroke="#9379d1" stroke-width="1.51"/><path d="M256,659L397,860L462,650Z" fill="#8379d1" stroke="#8379d1" stroke-width="1.51"/><path d="M340,-60L289,75L470,140Z" fill="#9651d2" stroke="#9651d2" stroke-width="1.51"/><path d="M378,1126L332,1286L477,1301Z" fill="#716adb" stroke="#716adb" stroke-width="1.51"/><path d="M275,294L434,400L478,239Z" fill="#9d6ad2" stroke="#9d6ad2" stroke-width="1.51"/><path d="M340,-60L470,140L490,-47Z" fill="#9651d2" stroke="#9651d2" stroke-width="1.51"/><path d="M429,-227L340,-60L490,-47Z" fill="#964ada" stroke="#964ada" stroke-width="1.51"/><path d="M289,75L275,294L470,140Z" fill="#9a5ad2" stroke="#9a5ad2" stroke-width="1.51"/><path d="M470,140L275,294L478,239Z" fill="#9f63d2" stroke="#9f63d2" stroke-width="1.51"/><path d="M402,572L256,659L462,650Z" fill="#8a7cd1" stroke="#8a7cd1" stroke-width="1.51"/><path d="M256,659L237,849L397,860Z" fill="#7d72d1" stroke="#7d72d1" stroke-width="1.51"/><path d="M397,860L257,958L414,1011Z" fill="#786fd2" stroke="#786fd2" stroke-width="1.51"/><path d="M304,-267L340,-60L429,-227Z" fill="#9542e0" stroke="#9542e0" stroke-width="1.51"/><path d="M275,294L332,426L434,400Z" fill="#986ed2" stroke="#986ed2" stroke-width="1.51"/><path d="M332,426L258,515L402,572Z" fill="#907ad1" stroke="#907ad1" stroke-width="1.51"/><path d="M257,958L378,1126L414,1011Z" fill="#736bd2" stroke="#736bd2" stroke-width="1.51"/><path d="M249,1151L332,1286L378,1126Z" fill="#6f67d8" stroke="#6f67d8" stroke-width="1.51"/><path d="M257,958L249,1151L378,1126Z" fill="#6f67d3" stroke="#6f67d3" stroke-width="1.51"/><path d="M237,849L257,958L397,860Z" fill="#786ed1" stroke="#786ed1" stroke-width="1.51"/><path d="M258,515L256,659L402,572Z" fill="#8a7bd1" stroke="#8a7bd1" stroke-width="1.51"/><path d="M304,-267L139,-162L340,-60Z" fill="#913cde" stroke="#913cde" stroke-width="1.51"/><path d="M162,722L237,849L256,659Z" fill="#7e6fd1" stroke="#7e6fd1" stroke-width="1.51"/><path d="M118,265L275,294L289,75Z" fill="#9856d2" stroke="#9856d2" stroke-width="1.51"/><path d="M92,-89L289,75L340,-60Z" fill="#8f41d3" stroke="#8f41d3" stroke-width="1.51"/><path d="M139,-162L92,-89L340,-60Z" fill="#8e39d9" stroke="#8e39d9" stroke-width="1.51"/><path d="M249,1151L89,1279L332,1286Z" fill="#6b61db" stroke="#6b61db" stroke-width="1.51"/><path d="M275,294L108,384L332,426Z" fill="#9667d2" stroke="#9667d2" stroke-width="1.51"/><path d="M108,384L258,515L332,426Z" fill="#916ed1" stroke="#916ed1" stroke-width="1.51"/><path d="M177,938L249,1151L257,958Z" fill="#7066d3" stroke="#7066d3" stroke-width="1.51"/><path d="M173,589L256,659L258,515Z" fill="#8876d1" stroke="#8876d1" stroke-width="1.51"/><path d="M79,136L118,265L289,75Z" fill="#944dd2" stroke="#944dd2" stroke-width="1.51"/><path d="M11,-246L139,-162L304,-267Z" fill="#8e30e3" stroke="#8e30e3" stroke-width="1.51"/><path d="M177,938L114,1149L249,1151Z" fill="#6b61d3" stroke="#6b61d3" stroke-width="1.51"/><path d="M92,-89L79,136L289,75Z" fill="#8f41d3" stroke="#8f41d3" stroke-width="1.51"/><path d="M114,1149L89,1279L249,1151Z" fill="#695ed9" stroke="#695ed9" stroke-width="1.51"/><path d="M237,849L177,938L257,958Z" fill="#7569d2" stroke="#7569d2" stroke-width="1.51"/><path d="M118,265L108,384L275,294Z" fill="#965dd2" stroke="#965dd2" stroke-width="1.51"/><path d="M108,384L173,589L258,515Z" fill="#8c71d1" stroke="#8c71d1" stroke-width="1.51"/><path d="M173,589L162,722L256,659Z" fill="#8372d1" stroke="#8372d1" stroke-width="1.51"/><path d="M108,384L38,485L173,589Z" fill="#8d6ed4" stroke="#8d6ed4" stroke-width="1.51"/><path d="M162,722L100,844L237,849Z" fill="#796bd1" stroke="#796bd1" stroke-width="1.51"/><path d="M16,-22L79,136L92,-89Z" fill="#8e3bd7" stroke="#8e3bd7" stroke-width="1.51"/><path d="M100,844L177,938L237,849Z" fill="#7568d1" stroke="#7568d1" stroke-width="1.51"/><path d="M20,704L162,722L173,589Z" fill="#826ed3" stroke="#826ed3" stroke-width="1.51"/><path d="M23,954L114,1149L177,938Z" fill="#6e61d6" stroke="#6e61d6" stroke-width="1.51"/><path d="M100,844L23,954L177,938Z" fill="#7465d5" stroke="#7465d5" stroke-width="1.51"/><path d="M38,485L20,704L173,589Z" fill="#8771d5" stroke="#8771d5" stroke-width="1.51"/><path d="M20,704L100,844L162,722Z" fill="#7c6bd4" stroke="#7c6bd4" stroke-width="1.51"/><path d="M27,861L23,954L100,844Z" fill="#7565d7" stroke="#7565d7" stroke-width="1.51"/><path d="M23,954L-65,1151L114,1149Z" fill="#6b5ddb" stroke="#6b5ddb" stroke-width="1.51"/><path d="M11,-246L92,-89L139,-162Z" fill="#8e31e3" stroke="#8e31e3" stroke-width="1.51"/><path d="M16,-22L-32,97L79,136Z" fill="#9140da" stroke="#9140da" stroke-width="1.51"/><path d="M20,704L27,861L100,844Z" fill="#7a68d7" stroke="#7a68d7" stroke-width="1.51"/><path d="M-62,255L-52,416L108,384Z" fill="#965ddb" stroke="#965ddb" stroke-width="1.51"/><path d="M-65,1151L89,1279L114,1149Z" fill="#6a5cdf" stroke="#6a5cdf" stroke-width="1.51"/><path d="M-62,255L108,384L118,265Z" fill="#9859d8" stroke="#9859d8" stroke-width="1.51"/><path d="M79,136L-62,255L118,265Z" fill="#9850d9" stroke="#9850d9" stroke-width="1.51"/><path d="M-52,416L38,485L108,384Z" fill="#9267d8" stroke="#9267d8" stroke-width="1.51"/><path d="M-65,1151L-31,1315L89,1279Z" fill="#695ae5" stroke="#695ae5" stroke-width="1.51"/><path d="M11,-246L16,-22L92,-89Z" fill="#8e33e1" stroke="#8e33e1" stroke-width="1.51"/><path d="M-141,553L20,704L38,485Z" fill="#896fdb" stroke="#896fdb" stroke-width="1.51"/><path d="M-32,97L-62,255L79,136Z" fill="#9649db" stroke="#9649db" stroke-width="1.51"/><path d="M11,-246L-112,-244L16,-22Z" fill="#8f2ce9" stroke="#8f2ce9" stroke-width="1.51"/><path d="M-62,255L-121,342L-52,416Z" fill="#985adf" stroke="#985adf" stroke-width="1.51"/><path d="M-112,-244L-167,-32L16,-22Z" fill="#8f2ee6" stroke="#8f2ee6" stroke-width="1.51"/><path d="M-137,723L-138,814L20,704Z" fill="#7e68de" stroke="#7e68de" stroke-width="1.51"/><path d="M-141,553L-137,723L20,704Z" fill="#856cde" stroke="#856cde" stroke-width="1.51"/><path d="M-216,1041L-65,1151L23,954Z" fill="#6d5ce0" stroke="#6d5ce0" stroke-width="1.51"/><path d="M20,704L-138,814L27,861Z" fill="#7b68db" stroke="#7b68db" stroke-width="1.51"/><path d="M-52,416L-141,553L38,485Z" fill="#8f6bdd" stroke="#8f6bdd" stroke-width="1.51"/><path d="M-138,814L23,954L27,861Z" fill="#7764dc" stroke="#7764dc" stroke-width="1.51"/><path d="M-135,193L-62,255L-32,97Z" fill="#9749df" stroke="#9749df" stroke-width="1.51"/><path d="M-138,814L-216,1041L23,954Z" fill="#7461e1" stroke="#7461e1" stroke-width="1.51"/><path d="M-167,-32L-32,97L16,-22Z" fill="#8f37de" stroke="#8f37de" stroke-width="1.51"/><path d="M-167,-32L-201,61L-32,97Z" fill="#9138e2" stroke="#9138e2" stroke-width="1.51"/><path d="M-65,1151L-169,1187L-31,1315Z" fill="#6a59e8" stroke="#6a59e8" stroke-width="1.51"/><path d="M-169,1187L-218,1317L-31,1315Z" fill="#6957ee" stroke="#6957ee" stroke-width="1.51"/><path d="M-201,61L-135,193L-32,97Z" fill="#9541e2" stroke="#9541e2" stroke-width="1.51"/><path d="M-216,1041L-169,1187L-65,1151Z" fill="#6b59e6" stroke="#6b59e6" stroke-width="1.51"/><path d="M-121,342L-141,553L-52,416Z" fill="#9265e0" stroke="#9265e0" stroke-width="1.51"/><path d="M-135,193L-121,342L-62,255Z" fill="#9c50e1" stroke="#9c50e1" stroke-width="1.51"/><path d="M-201,61L-167,-32L-112,-244Z" fill="#8f2de8" stroke="#8f2de8" stroke-width="1.51"/><path d="M-135,193L-201,61L-121,342Z" fill="#9949e3" stroke="#9949e3" stroke-width="1.51"/><path d="M-201,61L-141,553L-121,342Z" fill="#9a56e3" stroke="#9a56e3" stroke-width="1.51"/><path d="M-141,553L-216,1041L-137,723Z" fill="#7e66e3" stroke="#7e66e3" stroke-width="1.51"/><path d="M-216,1041L-138,814L-137,723Z" fill="#7963e3" stroke="#7963e3" stroke-width="1.51"/><path d="M-201,61L-216,1041L-141,553Z" fill="#8d6ee4" stroke="#8d6ee4" stroke-width="1.51"/><path d="M-216,1041L-218,1317L-169,1187Z" fill="#6a58ec" stroke="#6a58ec" stroke-width="1.51"/></svg>