<svg xmlns="http://www.w3.org/2000/svg" width="1920" height="200"><path d="M790,400L379,446L1152,432Z" fill="#c14b38" stroke="#c14b38" stroke-width="1.51"/><path d="M1362,-240L1476,-222L1633,-223Z" fill="#f4917c" stroke="#f4917c" stroke-width="1.51"/><path d="M1521,400L1377,411L1898,421Z" fill="#ab1017" stroke="#ab1017" stroke-width="1.51"/><path d="M1377,411L1152,432L1898,421Z" fill="#af1519" stroke="#af1519" stroke-width="1.51"/><path d="M1362,-240L1633,-223L2045,-200Z" fill="#e88a77" stroke="#e88a77" stroke-width="1.51"/><path d="M1633,-223L1938,-190L2045,-200Z" fill="#d88371" stroke="#d88371" stroke-width="1.51"/><path d="M2074,-69L1976,60L2104,87Z" fill="#bc4d3a" stroke="#bc4d3a" stroke-width="1.51"/><path d="M1976,60L2068,275L2104,87Z" fill="#b83126" stroke="#b83126" stroke-width="1.51"/><path d="M2068,275L1898,421L2121,401Z" fill="#960a14" stroke="#960a14" stroke-width="1.51"/><path d="M2104,87L2068,275L2121,401Z" fill="#a41418" stroke="#a41418" stroke-width="1.51"/><path d="M-112,-234L385,-189L777,-252Z" fill="#ffd3c1" stroke="#ffd3c1" stroke-width="1.51"/><path d="M1633,-223L1839,-159L1938,-190Z" fill="#de8370" stroke="#de8370" stroke-width="1.51"/><path d="M1976,60L1883,275L2068,275Z" fill="#ba211e" stroke="#ba211e" stroke-width="1.51"/><path d="M1883,275L1898,421L2068,275Z" fill="#a70f16" stroke="#a70f16" stroke-width="1.51"/><path d="M1948,-44L1976,60L2074,-69Z" fill="#c35945" stroke="#c35945" stroke-width="1.51"/><path d="M2045,-200L1938,-190L2074,-69Z" fill="#c57463" stroke="#c57463" stroke-width="1.51"/><path d="M1938,-190L1948,-44L2074,-69Z" fill="#c76b58" stroke="#c76b58" stroke-width="1.51"/><path d="M1689,349L1521,400L1898,421Z" fill="#ac1116" stroke="#ac1116" stroke-width="1.51"/><path d="M1938,-190L1839,-159L1948,-44Z" fill="#d27561" stroke="#d27561" stroke-width="1.51"/><path d="M1948,-44L1779,47L1976,60Z" fill="#cc533e" stroke="#cc533e" stroke-width="1.51"/><path d="M1779,47L1883,275L1976,60Z" fill="#cc3a2a" stroke="#cc3a2a" stroke-width="1.51"/><path d="M1883,275L1808,351L1898,421Z" fill="#ab1016" stroke="#ab1016" stroke-width="1.51"/><path d="M1813,-95L1779,47L1948,-44Z" fill="#d4614a" stroke="#d4614a" stroke-width="1.51"/><path d="M1839,-159L1813,-95L1948,-44Z" fill="#d5715a" stroke="#d5715a" stroke-width="1.51"/><path d="M1679,99L1772,294L1779,47Z" fill="#d43729" stroke="#d43729" stroke-width="1.51"/><path d="M1779,47L1772,294L1883,275Z" fill="#cb2520" stroke="#cb2520" stroke-width="1.51"/><path d="M1808,351L1689,349L1898,421Z" fill="#aa1016" stroke="#aa1016" stroke-width="1.51"/><path d="M777,-252L889,-215L1362,-240Z" fill="#ffaa91" stroke="#ffaa91" stroke-width="1.51"/><path d="M1772,294L1808,351L1883,275Z" fill="#b61318" stroke="#b61318" stroke-width="1.51"/><path d="M1633,-223L1813,-95L1839,-159Z" fill="#df7f6a" stroke="#df7f6a" stroke-width="1.51"/><path d="M1679,99L1604,217L1772,294Z" fill="#d32722" stroke="#d32722" stroke-width="1.51"/><path d="M1623,-69L1779,47L1813,-95Z" fill="#db664e" stroke="#db664e" stroke-width="1.51"/><path d="M1633,-223L1623,-69L1813,-95Z" fill="#e27a64" stroke="#e27a64" stroke-width="1.51"/><path d="M1772,294L1689,349L1808,351Z" fill="#b51318" stroke="#b51318" stroke-width="1.51"/><path d="M1604,217L1689,349L1772,294Z" fill="#c3161b" stroke="#c3161b" stroke-width="1.51"/><path d="M1623,-69L1679,99L1779,47Z" fill="#dc5740" stroke="#dc5740" stroke-width="1.51"/><path d="M889,-215L987,-191L1362,-240Z" fill="#ffa48b" stroke="#ffa48b" stroke-width="1.51"/><path d="M1623,-69L1524,4L1679,99Z" fill="#e25c45" stroke="#e25c45" stroke-width="1.51"/><path d="M1604,217L1521,400L1689,349Z" fill="#c1161b" stroke="#c1161b" stroke-width="1.51"/><path d="M1524,4L1604,217L1679,99Z" fill="#e04531" stroke="#e04531" stroke-width="1.51"/><path d="M1441,224L1521,400L1604,217Z" fill="#cf1c1e" stroke="#cf1c1e" stroke-width="1.51"/><path d="M1524,4L1438,71L1604,217Z" fill="#e64935" stroke="#e64935" stroke-width="1.51"/><path d="M1476,-222L1623,-69L1633,-223Z" fill="#ec8671" stroke="#ec8671" stroke-width="1.51"/><path d="M1438,71L1441,224L1604,217Z" fill="#e23629" stroke="#e23629" stroke-width="1.51"/><path d="M1476,-222L1524,4L1623,-69Z" fill="#ea775f" stroke="#ea775f" stroke-width="1.51"/><path d="M550,404L379,446L790,400Z" fill="#c65a45" stroke="#c65a45" stroke-width="1.51"/><path d="M987,-191L1240,-187L1362,-240Z" fill="#ff9c83" stroke="#ff9c83" stroke-width="1.51"/><path d="M1362,-240L1297,-30L1476,-222Z" fill="#f88d74" stroke="#f88d74" stroke-width="1.51"/><path d="M1441,224L1377,411L1521,400Z" fill="#c61d1d" stroke="#c61d1d" stroke-width="1.51"/><path d="M1476,-222L1297,-30L1524,4Z" fill="#f0795f" stroke="#f0795f" stroke-width="1.51"/><path d="M1297,-30L1438,71L1524,4Z" fill="#ee6248" stroke="#ee6248" stroke-width="1.51"/><path d="M1438,71L1314,121L1441,224Z" fill="#ea4431" stroke="#ea4431" stroke-width="1.51"/><path d="M1240,-187L1297,-30L1362,-240Z" fill="#fc8e74" stroke="#fc8e74" stroke-width="1.51"/><path d="M1297,-30L1314,121L1438,71Z" fill="#f15c42" stroke="#f15c42" stroke-width="1.51"/><path d="M1278,236L1377,411L1441,224Z" fill="#d62522" stroke="#d62522" stroke-width="1.51"/><path d="M1314,121L1278,236L1441,224Z" fill="#ea372a" stroke="#ea372a" stroke-width="1.51"/><path d="M1278,236L1184,260L1377,411Z" fill="#d92923" stroke="#d92923" stroke-width="1.51"/><path d="M1184,260L1152,432L1377,411Z" fill="#cc2922" stroke="#cc2922" stroke-width="1.51"/><path d="M1297,-30L1228,99L1314,121Z" fill="#f55d42" stroke="#f55d42" stroke-width="1.51"/><path d="M1029,383L790,400L1152,432Z" fill="#c73d2c" stroke="#c73d2c" stroke-width="1.51"/><path d="M1240,-187L1220,0L1297,-30Z" fill="#fa7e62" stroke="#fa7e62" stroke-width="1.51"/><path d="M1220,0L1228,99L1297,-30Z" fill="#f7684c" stroke="#f7684c" stroke-width="1.51"/><path d="M1228,99L1278,236L1314,121Z" fill="#f14732" stroke="#f14732" stroke-width="1.51"/><path d="M1228,99L1184,260L1278,236Z" fill="#ef3e2d" stroke="#ef3e2d" stroke-width="1.51"/><path d="M1082,246L1184,260L1228,99Z" fill="#f04230" stroke="#f04230" stroke-width="1.51"/><path d="M1007,-82L1220,0L1240,-187Z" fill="#fc896b" stroke="#fc896b" stroke-width="1.51"/><path d="M987,-191L1007,-82L1240,-187Z" fill="#ff9a7f" stroke="#ff9a7f" stroke-width="1.51"/><path d="M1220,0L999,111L1228,99Z" fill="#f86447" stroke="#f86447" stroke-width="1.51"/><path d="M999,111L1082,246L1228,99Z" fill="#f6543a" stroke="#f6543a" stroke-width="1.51"/><path d="M1082,246L1152,432L1184,260Z" fill="#da3629" stroke="#da3629" stroke-width="1.51"/><path d="M1007,-82L999,111L1220,0Z" fill="#fa7757" stroke="#fa7757" stroke-width="1.51"/><path d="M1082,246L1029,383L1152,432Z" fill="#d33929" stroke="#d33929" stroke-width="1.51"/><path d="M856,369L790,400L1029,383Z" fill="#cf4733" stroke="#cf4733" stroke-width="1.51"/><path d="M-112,-234L248,-174L385,-189Z" fill="#fedbcb" stroke="#fedbcb" stroke-width="1.51"/><path d="M999,111L932,136L1082,246Z" fill="#f6583d" stroke="#f6583d" stroke-width="1.51"/><path d="M858,225L1029,383L1082,246Z" fill="#e34532" stroke="#e34532" stroke-width="1.51"/><path d="M932,136L858,225L1082,246Z" fill="#f4533a" stroke="#f4533a" stroke-width="1.51"/><path d="M875,4L999,111L1007,-82Z" fill="#fc7e5d" stroke="#fc7e5d" stroke-width="1.51"/><path d="M858,225L856,369L1029,383Z" fill="#db4834" stroke="#db4834" stroke-width="1.51"/><path d="M875,4L932,136L999,111Z" fill="#fb704f" stroke="#fb704f" stroke-width="1.51"/><path d="M987,-191L889,-215L1007,-82Z" fill="#ffa487" stroke="#ffa487" stroke-width="1.51"/><path d="M889,-215L875,4L1007,-82Z" fill="#fe987a" stroke="#fe987a" stroke-width="1.51"/><path d="M385,-189L568,-175L777,-252Z" fill="#ffc2ac" stroke="#ffc2ac" stroke-width="1.51"/><path d="M714,-41L875,4L889,-215Z" fill="#fe9c7d" stroke="#fe9c7d" stroke-width="1.51"/><path d="M875,4L754,193L932,136Z" fill="#fb6f4f" stroke="#fb6f4f" stroke-width="1.51"/><path d="M754,193L858,225L932,136Z" fill="#f75f44" stroke="#f75f44" stroke-width="1.51"/><path d="M689,89L754,193L875,4Z" fill="#fc7857" stroke="#fc7857" stroke-width="1.51"/><path d="M777,-252L714,-41L889,-215Z" fill="#ffaf95" stroke="#ffaf95" stroke-width="1.51"/><path d="M790,400L856,369L858,225Z" fill="#db4e39" stroke="#db4e39" stroke-width="1.51"/><path d="M754,193L790,400L858,225Z" fill="#e7563e" stroke="#e7563e" stroke-width="1.51"/><path d="M714,-41L689,89L875,4Z" fill="#fc8a69" stroke="#fc8a69" stroke-width="1.51"/><path d="M568,-175L714,-41L777,-252Z" fill="#ffb399" stroke="#ffb399" stroke-width="1.51"/><path d="M754,193L612,282L790,400Z" fill="#e45a42" stroke="#e45a42" stroke-width="1.51"/><path d="M612,282L550,404L790,400Z" fill="#d65a43" stroke="#d65a43" stroke-width="1.51"/><path d="M-112,-234L82,-173L248,-174Z" fill="#fee0d3" stroke="#fee0d3" stroke-width="1.51"/><path d="M689,89L623,149L754,193Z" fill="#fa7455" stroke="#fa7455" stroke-width="1.51"/><path d="M623,149L612,282L754,193Z" fill="#f4694d" stroke="#f4694d" stroke-width="1.51"/><path d="M-112,-234L9,-187L82,-173Z" fill="#fee4d8" stroke="#fee4d8" stroke-width="1.51"/><path d="M558,-56L689,89L714,-41Z" fill="#fc9574" stroke="#fc9574" stroke-width="1.51"/><path d="M568,-175L558,-56L714,-41Z" fill="#fdab8e" stroke="#fdab8e" stroke-width="1.51"/><path d="M88,415L-19,447L379,446Z" fill="#c47463" stroke="#c47463" stroke-width="1.51"/><path d="M558,-56L623,149L689,89Z" fill="#fc8969" stroke="#fc8969" stroke-width="1.51"/><path d="M419,-25L439,148L558,-56Z" fill="#fd9c7d" stroke="#fd9c7d" stroke-width="1.51"/><path d="M439,148L612,282L623,149Z" fill="#f87356" stroke="#f87356" stroke-width="1.51"/><path d="M558,-56L439,148L623,149Z" fill="#fd8c6b" stroke="#fd8c6b" stroke-width="1.51"/><path d="M392,221L550,404L612,282Z" fill="#e46950" stroke="#e46950" stroke-width="1.51"/><path d="M439,148L392,221L612,282Z" fill="#f5765a" stroke="#f5765a" stroke-width="1.51"/><path d="M392,221L323,364L550,404Z" fill="#df6e55" stroke="#df6e55" stroke-width="1.51"/><path d="M385,-189L419,-25L558,-56Z" fill="#fdb59a" stroke="#fdb59a" stroke-width="1.51"/><path d="M385,-189L558,-56L568,-175Z" fill="#febca3" stroke="#febca3" stroke-width="1.51"/><path d="M323,364L379,446L550,404Z" fill="#cc6752" stroke="#cc6752" stroke-width="1.51"/><path d="M327,271L323,364L392,221Z" fill="#e9765d" stroke="#e9765d" stroke-width="1.51"/><path d="M385,-189L338,-105L419,-25Z" fill="#fdbda4" stroke="#fdbda4" stroke-width="1.51"/><path d="M419,-25L320,114L439,148Z" fill="#fe9677" stroke="#fe9677" stroke-width="1.51"/><path d="M320,114L392,221L439,148Z" fill="#fb8768" stroke="#fb8768" stroke-width="1.51"/><path d="M338,-105L320,114L419,-25Z" fill="#fda98c" stroke="#fda98c" stroke-width="1.51"/><path d="M320,114L327,271L392,221Z" fill="#f98265" stroke="#f98265" stroke-width="1.51"/><path d="M161,-86L320,114L338,-105Z" fill="#feb398" stroke="#feb398" stroke-width="1.51"/><path d="M323,364L88,415L379,446Z" fill="#cc715d" stroke="#cc715d" stroke-width="1.51"/><path d="M248,-174L338,-105L385,-189Z" fill="#fecab6" stroke="#fecab6" stroke-width="1.51"/><path d="M161,-86L166,138L320,114Z" fill="#ffa68a" stroke="#ffa68a" stroke-width="1.51"/><path d="M320,114L166,138L327,271Z" fill="#fd8b6f" stroke="#fd8b6f" stroke-width="1.51"/><path d="M248,-174L161,-86L338,-105Z" fill="#fdc9b3" stroke="#fdc9b3" stroke-width="1.51"/><path d="M118,257L323,364L327,271Z" fill="#e87b64" stroke="#e87b64" stroke-width="1.51"/><path d="M166,138L118,257L327,271Z" fill="#f8886e" stroke="#f8886e" stroke-width="1.51"/><path d="M118,257L88,415L323,364Z" fill="#df7d67" stroke="#df7d67" stroke-width="1.51"/><path d="M82,-173L161,-86L248,-174Z" fill="#fed2bf" stroke="#fed2bf" stroke-width="1.51"/><path d="M12,74L118,257L166,138Z" fill="#ff9a80" stroke="#ff9a80" stroke-width="1.51"/><path d="M161,-86L13,-17L166,138Z" fill="#ffb59c" stroke="#ffb59c" stroke-width="1.51"/><path d="M13,-17L12,74L166,138Z" fill="#ffae94" stroke="#ffae94" stroke-width="1.51"/><path d="M82,-173L13,-17L161,-86Z" fill="#fecdb8" stroke="#fecdb8" stroke-width="1.51"/><path d="M-66,301L88,415L118,257Z" fill="#e68671" stroke="#e68671" stroke-width="1.51"/><path d="M12,74L-66,301L118,257Z" fill="#fd947c" stroke="#fd947c" stroke-width="1.51"/><path d="M-135,203L-66,301L12,74Z" fill="#ff9a82" stroke="#ff9a82" stroke-width="1.51"/><path d="M9,-187L13,-17L82,-173Z" fill="#fed6c5" stroke="#fed6c5" stroke-width="1.51"/><path d="M-66,301L-19,447L88,415Z" fill="#d88270" stroke="#d88270" stroke-width="1.51"/><path d="M-66,301L-121,352L-19,447Z" fill="#de8674" stroke="#de8674" stroke-width="1.51"/><path d="M-112,-234L-167,-22L9,-187Z" fill="#ffded0" stroke="#ffded0" stroke-width="1.51"/><path d="M-201,71L-135,203L12,74Z" fill="#ffaa91" stroke="#ffaa91" stroke-width="1.51"/><path d="M-167,-22L-201,71L12,74Z" fill="#ffb9a2" stroke="#ffb9a2" stroke-width="1.51"/><path d="M-167,-22L12,74L13,-17Z" fill="#ffbca5" stroke="#ffbca5" stroke-width="1.51"/><path d="M9,-187L-167,-22L13,-17Z" fill="#ffcfbc" stroke="#ffcfbc" stroke-width="1.51"/><path d="M-135,203L-121,352L-66,301Z" fill="#f18f7b" stroke="#f18f7b" stroke-width="1.51"/><path d="M-201,71L-167,-22L-112,-234Z" fill="#ffcfbd" stroke="#ffcfbd" stroke-width="1.51"/><path d="M-135,203L-201,71L-121,352Z" fill="#ff9b84" stroke="#ff9b84" stroke-width="1.51"/></svg>