<svg xmlns="http://www.w3.org/2000/svg" width="1920" height="700"><path d="M389,-186L734,-165L1089,-226Z" fill="#d5d5d5" stroke="#d5d5d5" stroke-width="1.51"/><path d="M188,-230L389,-186L1089,-226Z" fill="#e1e1e1" stroke="#e1e1e1" stroke-width="1.51"/><path d="M1048,881L628,874L1445,910Z" fill="#4b4b4b" stroke="#4b4b4b" stroke-width="1.51"/><path d="M628,874L264,884L1445,910Z" fill="#5a5a5a" stroke="#5a5a5a" stroke-width="1.51"/><path d="M264,884L-52,901L1445,910Z" fill="#656565" stroke="#656565" stroke-width="1.51"/><path d="M1221,876L1048,881L1445,910Z" fill="#424242" stroke="#424242" stroke-width="1.51"/><path d="M1089,-226L1226,-215L1685,-222Z" fill="#b1b1b1" stroke="#b1b1b1" stroke-width="1.51"/><path d="M1226,-215L1363,-191L1685,-222Z" fill="#ababab" stroke="#ababab" stroke-width="1.51"/><path d="M1611,845L1445,910L1786,842Z" fill="#303030" stroke="#303030" stroke-width="1.51"/><path d="M1786,842L1445,910L1958,876Z" fill="#262626" stroke="#262626" stroke-width="1.51"/><path d="M1958,876L1445,910L2057,902Z" fill="#1e1e1e" stroke="#1e1e1e" stroke-width="1.51"/><path d="M1963,759L2105,769L2134,600Z" fill="#282828" stroke="#282828" stroke-width="1.51"/><path d="M1985,563L1963,759L2134,600Z" fill="#333333" stroke="#333333" stroke-width="1.51"/><path d="M2064,412L1985,563L2134,600Z" fill="#3c3c3c" stroke="#3c3c3c" stroke-width="1.51"/><path d="M2067,285L2064,412L2134,600Z" fill="#454545" stroke="#454545" stroke-width="1.51"/><path d="M2079,-137L1973,70L2139,0Z" fill="#717171" stroke="#717171" stroke-width="1.51"/><path d="M1973,70L2029,134L2139,0Z" fill="#6c6c6c" stroke="#6c6c6c" stroke-width="1.51"/><path d="M2029,134L2067,285L2139,0Z" fill="#646464" stroke="#646464" stroke-width="1.51"/><path d="M2067,285L2134,600L2139,0Z" fill="#525252" stroke="#525252" stroke-width="1.51"/><path d="M1963,759L1958,876L2057,902Z" fill="#1a1a1a" stroke="#1a1a1a" stroke-width="1.51"/><path d="M1973,419L1985,563L2064,412Z" fill="#454545" stroke="#454545" stroke-width="1.51"/><path d="M1896,-11L1973,70L2079,-137Z" fill="#777777" stroke="#777777" stroke-width="1.51"/><path d="M1963,759L2057,902L2105,769Z" fill="#1b1b1b" stroke="#1b1b1b" stroke-width="1.51"/><path d="M2029,134L1924,229L2067,285Z" fill="#626262" stroke="#626262" stroke-width="1.51"/><path d="M1973,419L2064,412L2067,285Z" fill="#4e4e4e" stroke="#4e4e4e" stroke-width="1.51"/><path d="M1884,-188L1896,-11L2079,-137Z" fill="#7e7e7e" stroke="#7e7e7e" stroke-width="1.51"/><path d="M1924,229L1973,419L2067,285Z" fill="#575757" stroke="#575757" stroke-width="1.51"/><path d="M1973,70L1924,229L2029,134Z" fill="#6a6a6a" stroke="#6a6a6a" stroke-width="1.51"/><path d="M1884,-188L1834,-160L1896,-11Z" fill="#838383" stroke="#838383" stroke-width="1.51"/><path d="M1924,229L1761,306L1973,419Z" fill="#5c5c5c" stroke="#5c5c5c" stroke-width="1.51"/><path d="M1761,306L1769,417L1973,419Z" fill="#595959" stroke="#595959" stroke-width="1.51"/><path d="M1833,758L1963,759L1985,563Z" fill="#303030" stroke="#303030" stroke-width="1.51"/><path d="M1763,611L1833,758L1985,563Z" fill="#3b3b3b" stroke="#3b3b3b" stroke-width="1.51"/><path d="M1973,419L1769,417L1985,563Z" fill="#4b4b4b" stroke="#4b4b4b" stroke-width="1.51"/><path d="M1769,417L1763,611L1985,563Z" fill="#494949" stroke="#494949" stroke-width="1.51"/><path d="M389,-186L537,-166L734,-165Z" fill="#dfdfdf" stroke="#dfdfdf" stroke-width="1.51"/><path d="M1833,758L1958,876L1963,759Z" fill="#222222" stroke="#222222" stroke-width="1.51"/><path d="M1740,75L1924,229L1973,70Z" fill="#717171" stroke="#717171" stroke-width="1.51"/><path d="M1896,-11L1740,75L1973,70Z" fill="#787878" stroke="#787878" stroke-width="1.51"/><path d="M1833,758L1786,842L1958,876Z" fill="#222222" stroke="#222222" stroke-width="1.51"/><path d="M1685,-222L1834,-160L1884,-188Z" fill="#8c8c8c" stroke="#8c8c8c" stroke-width="1.51"/><path d="M1834,-160L1789,-43L1896,-11Z" fill="#838383" stroke="#838383" stroke-width="1.51"/><path d="M1740,75L1761,306L1924,229Z" fill="#707070" stroke="#707070" stroke-width="1.51"/><path d="M1789,-43L1740,75L1896,-11Z" fill="#808080" stroke="#808080" stroke-width="1.51"/><path d="M1740,75L1676,90L1761,306Z" fill="#7b7b7b" stroke="#7b7b7b" stroke-width="1.51"/><path d="M1763,611L1642,709L1833,758Z" fill="#3d3d3d" stroke="#3d3d3d" stroke-width="1.51"/><path d="M1685,-222L1789,-43L1834,-160Z" fill="#8d8d8d" stroke="#8d8d8d" stroke-width="1.51"/><path d="M1642,709L1786,842L1833,758Z" fill="#313131" stroke="#313131" stroke-width="1.51"/><path d="M1676,90L1603,239L1761,306Z" fill="#7a7a7a" stroke="#7a7a7a" stroke-width="1.51"/><path d="M1586,556L1763,611L1769,417Z" fill="#535353" stroke="#535353" stroke-width="1.51"/><path d="M1605,394L1586,556L1769,417Z" fill="#5f5f5f" stroke="#5f5f5f" stroke-width="1.51"/><path d="M1642,709L1611,845L1786,842Z" fill="#323232" stroke="#323232" stroke-width="1.51"/><path d="M1671,-15L1740,75L1789,-43Z" fill="#878787" stroke="#878787" stroke-width="1.51"/><path d="M1685,-222L1671,-15L1789,-43Z" fill="#8f8f8f" stroke="#8f8f8f" stroke-width="1.51"/><path d="M1363,-191L1432,-162L1685,-222Z" fill="#a5a5a5" stroke="#a5a5a5" stroke-width="1.51"/><path d="M1761,306L1605,394L1769,417Z" fill="#646464" stroke="#646464" stroke-width="1.51"/><path d="M1586,556L1642,709L1763,611Z" fill="#4c4c4c" stroke="#4c4c4c" stroke-width="1.51"/><path d="M1603,239L1605,394L1761,306Z" fill="#6f6f6f" stroke="#6f6f6f" stroke-width="1.51"/><path d="M1671,-15L1676,90L1740,75Z" fill="#878787" stroke="#878787" stroke-width="1.51"/><path d="M1471,136L1603,239L1676,90Z" fill="#878787" stroke="#878787" stroke-width="1.51"/><path d="M1671,-15L1522,1L1676,90Z" fill="#8f8f8f" stroke="#8f8f8f" stroke-width="1.51"/><path d="M1522,1L1671,-15L1685,-222Z" fill="#969696" stroke="#969696" stroke-width="1.51"/><path d="M1432,-162L1522,1L1685,-222Z" fill="#9f9f9f" stroke="#9f9f9f" stroke-width="1.51"/><path d="M1522,1L1471,136L1676,90Z" fill="#909090" stroke="#909090" stroke-width="1.51"/><path d="M1528,749L1611,845L1642,709Z" fill="#3d3d3d" stroke="#3d3d3d" stroke-width="1.51"/><path d="M1480,423L1586,556L1605,394Z" fill="#676767" stroke="#676767" stroke-width="1.51"/><path d="M1586,556L1465,625L1642,709Z" fill="#535353" stroke="#535353" stroke-width="1.51"/><path d="M1465,625L1528,749L1642,709Z" fill="#4c4c4c" stroke="#4c4c4c" stroke-width="1.51"/><path d="M1603,239L1445,286L1605,394Z" fill="#797979" stroke="#797979" stroke-width="1.51"/><path d="M1445,286L1480,423L1605,394Z" fill="#747474" stroke="#747474" stroke-width="1.51"/><path d="M1528,749L1445,910L1611,845Z" fill="#383838" stroke="#383838" stroke-width="1.51"/><path d="M1471,136L1445,286L1603,239Z" fill="#868686" stroke="#868686" stroke-width="1.51"/><path d="M1480,423L1465,625L1586,556Z" fill="#616161" stroke="#616161" stroke-width="1.51"/><path d="M726,853L628,874L1048,881Z" fill="#5b5b5b" stroke="#5b5b5b" stroke-width="1.51"/><path d="M1342,559L1465,625L1480,423Z" fill="#656565" stroke="#656565" stroke-width="1.51"/><path d="M1344,-26L1471,136L1522,1Z" fill="#9a9a9a" stroke="#9a9a9a" stroke-width="1.51"/><path d="M1432,-162L1344,-26L1522,1Z" fill="#a2a2a2" stroke="#a2a2a2" stroke-width="1.51"/><path d="M1347,841L1445,910L1528,749Z" fill="#3d3d3d" stroke="#3d3d3d" stroke-width="1.51"/><path d="M1346,772L1347,841L1528,749Z" fill="#454545" stroke="#454545" stroke-width="1.51"/><path d="M1465,625L1346,772L1528,749Z" fill="#4e4e4e" stroke="#4e4e4e" stroke-width="1.51"/><path d="M1343,451L1342,559L1480,423Z" fill="#6e6e6e" stroke="#6e6e6e" stroke-width="1.51"/><path d="M1333,286L1343,451L1445,286Z" fill="#7f7f7f" stroke="#7f7f7f" stroke-width="1.51"/><path d="M1344,-26L1367,175L1471,136Z" fill="#999999" stroke="#999999" stroke-width="1.51"/><path d="M1367,175L1445,286L1471,136Z" fill="#8d8d8d" stroke="#8d8d8d" stroke-width="1.51"/><path d="M1445,286L1343,451L1480,423Z" fill="#777777" stroke="#777777" stroke-width="1.51"/><path d="M1342,559L1346,772L1465,625Z" fill="#5b5b5b" stroke="#5b5b5b" stroke-width="1.51"/><path d="M1347,841L1221,876L1445,910Z" fill="#3e3e3e" stroke="#3e3e3e" stroke-width="1.51"/><path d="M1363,-191L1344,-26L1432,-162Z" fill="#aaaaaa" stroke="#aaaaaa" stroke-width="1.51"/><path d="M1367,175L1333,286L1445,286Z" fill="#8a8a8a" stroke="#8a8a8a" stroke-width="1.51"/><path d="M854,842L726,853L1048,881Z" fill="#585858" stroke="#585858" stroke-width="1.51"/><path d="M1333,286L1174,406L1343,451Z" fill="#7f7f7f" stroke="#7f7f7f" stroke-width="1.51"/><path d="M1133,0L1148,146L1344,-26Z" fill="#a9a9a9" stroke="#a9a9a9" stroke-width="1.51"/><path d="M1342,559L1204,562L1346,772Z" fill="#626262" stroke="#626262" stroke-width="1.51"/><path d="M1204,562L1168,750L1346,772Z" fill="#5c5c5c" stroke="#5c5c5c" stroke-width="1.51"/><path d="M1226,-215L1344,-26L1363,-191Z" fill="#aeaeae" stroke="#aeaeae" stroke-width="1.51"/><path d="M1344,-26L1148,146L1367,175Z" fill="#9f9f9f" stroke="#9f9f9f" stroke-width="1.51"/><path d="M1148,146L1333,286L1367,175Z" fill="#959595" stroke="#959595" stroke-width="1.51"/><path d="M1148,146L1145,275L1333,286Z" fill="#969696" stroke="#969696" stroke-width="1.51"/><path d="M1204,562L1342,559L1343,451Z" fill="#6e6e6e" stroke="#6e6e6e" stroke-width="1.51"/><path d="M1226,-215L1133,0L1344,-26Z" fill="#b0b0b0" stroke="#b0b0b0" stroke-width="1.51"/><path d="M1168,750L1221,876L1346,772Z" fill="#4b4b4b" stroke="#4b4b4b" stroke-width="1.51"/><path d="M1346,772L1221,876L1347,841Z" fill="#454545" stroke="#454545" stroke-width="1.51"/><path d="M1174,406L1204,562L1343,451Z" fill="#777777" stroke="#777777" stroke-width="1.51"/><path d="M1145,275L1174,406L1333,286Z" fill="#8a8a8a" stroke="#8a8a8a" stroke-width="1.51"/><path d="M1038,735L1168,750L1204,562Z" fill="#646464" stroke="#646464" stroke-width="1.51"/><path d="M1058,526L1038,735L1204,562Z" fill="#707070" stroke="#707070" stroke-width="1.51"/><path d="M1174,406L1058,526L1204,562Z" fill="#797979" stroke="#797979" stroke-width="1.51"/><path d="M1168,750L1048,881L1221,876Z" fill="#4c4c4c" stroke="#4c4c4c" stroke-width="1.51"/><path d="M1089,-226L1133,0L1226,-215Z" fill="#b9b9b9" stroke="#b9b9b9" stroke-width="1.51"/><path d="M1089,16L1063,80L1133,0Z" fill="#b0b0b0" stroke="#b0b0b0" stroke-width="1.51"/><path d="M1133,0L1063,80L1148,146Z" fill="#ababab" stroke="#ababab" stroke-width="1.51"/><path d="M924,-121L1089,16L1089,-226Z" fill="#bebebe" stroke="#bebebe" stroke-width="1.51"/><path d="M1089,-226L1089,16L1133,0Z" fill="#b7b7b7" stroke="#b7b7b7" stroke-width="1.51"/><path d="M1029,222L1145,275L1148,146Z" fill="#9f9f9f" stroke="#9f9f9f" stroke-width="1.51"/><path d="M1038,735L1048,881L1168,750Z" fill="#555555" stroke="#555555" stroke-width="1.51"/><path d="M1145,275L1022,469L1174,406Z" fill="#898989" stroke="#898989" stroke-width="1.51"/><path d="M1022,469L1058,526L1174,406Z" fill="#818181" stroke="#818181" stroke-width="1.51"/><path d="M1029,222L1022,469L1145,275Z" fill="#939393" stroke="#939393" stroke-width="1.51"/><path d="M1063,80L1029,222L1148,146Z" fill="#a6a6a6" stroke="#a6a6a6" stroke-width="1.51"/><path d="M921,275L1022,469L1029,222Z" fill="#979797" stroke="#979797" stroke-width="1.51"/><path d="M734,-165L924,-121L1089,-226Z" fill="#c9c9c9" stroke="#c9c9c9" stroke-width="1.51"/><path d="M921,275L883,402L1022,469Z" fill="#939393" stroke="#939393" stroke-width="1.51"/><path d="M929,724L1038,735L1058,526Z" fill="#6e6e6e" stroke="#6e6e6e" stroke-width="1.51"/><path d="M873,556L929,724L1058,526Z" fill="#797979" stroke="#797979" stroke-width="1.51"/><path d="M924,-121L1063,80L1089,16Z" fill="#b7b7b7" stroke="#b7b7b7" stroke-width="1.51"/><path d="M1038,735L929,724L1048,881Z" fill="#5b5b5b" stroke="#5b5b5b" stroke-width="1.51"/><path d="M929,724L854,842L1048,881Z" fill="#5a5a5a" stroke="#5a5a5a" stroke-width="1.51"/><path d="M924,-121L838,-54L1063,80Z" fill="#bebebe" stroke="#bebebe" stroke-width="1.51"/><path d="M838,-54L841,99L1063,80Z" fill="#bbbbbb" stroke="#bbbbbb" stroke-width="1.51"/><path d="M841,99L1029,222L1063,80Z" fill="#aeaeae" stroke="#aeaeae" stroke-width="1.51"/><path d="M1022,469L873,556L1058,526Z" fill="#818181" stroke="#818181" stroke-width="1.51"/><path d="M841,99L921,275L1029,222Z" fill="#ababab" stroke="#ababab" stroke-width="1.51"/><path d="M883,402L873,556L1022,469Z" fill="#898989" stroke="#898989" stroke-width="1.51"/><path d="M841,99L697,295L921,275Z" fill="#afafaf" stroke="#afafaf" stroke-width="1.51"/><path d="M873,556L777,736L929,724Z" fill="#767676" stroke="#767676" stroke-width="1.51"/><path d="M777,736L854,842L929,724Z" fill="#666666" stroke="#666666" stroke-width="1.51"/><path d="M697,295L883,402L921,275Z" fill="#a1a1a1" stroke="#a1a1a1" stroke-width="1.51"/><path d="M734,-165L838,-54L924,-121Z" fill="#cbcbcb" stroke="#cbcbcb" stroke-width="1.51"/><path d="M406,844L264,884L628,874Z" fill="#6d6d6d" stroke="#6d6d6d" stroke-width="1.51"/><path d="M762,85L697,295L841,99Z" fill="#b9b9b9" stroke="#b9b9b9" stroke-width="1.51"/><path d="M838,-54L762,85L841,99Z" fill="#c1c1c1" stroke="#c1c1c1" stroke-width="1.51"/><path d="M678,561L777,736L873,556Z" fill="#828282" stroke="#828282" stroke-width="1.51"/><path d="M714,446L873,556L883,402Z" fill="#919191" stroke="#919191" stroke-width="1.51"/><path d="M697,295L714,446L883,402Z" fill="#9f9f9f" stroke="#9f9f9f" stroke-width="1.51"/><path d="M714,446L678,561L873,556Z" fill="#8e8e8e" stroke="#8e8e8e" stroke-width="1.51"/><path d="M702,7L762,85L838,-54Z" fill="#c7c7c7" stroke="#c7c7c7" stroke-width="1.51"/><path d="M777,736L726,853L854,842Z" fill="#636363" stroke="#636363" stroke-width="1.51"/><path d="M734,-165L702,7L838,-54Z" fill="#cdcdcd" stroke="#cdcdcd" stroke-width="1.51"/><path d="M632,271L697,295L762,85Z" fill="#b8b8b8" stroke="#b8b8b8" stroke-width="1.51"/><path d="M549,136L632,271L762,85Z" fill="#c1c1c1" stroke="#c1c1c1" stroke-width="1.51"/><path d="M678,561L640,588L777,736Z" fill="#868686" stroke="#868686" stroke-width="1.51"/><path d="M640,588L620,775L777,736Z" fill="#7b7b7b" stroke="#7b7b7b" stroke-width="1.51"/><path d="M620,775L726,853L777,736Z" fill="#6b6b6b" stroke="#6b6b6b" stroke-width="1.51"/><path d="M557,-57L702,7L734,-165Z" fill="#d4d4d4" stroke="#d4d4d4" stroke-width="1.51"/><path d="M702,7L549,136L762,85Z" fill="#c8c8c8" stroke="#c8c8c8" stroke-width="1.51"/><path d="M697,295L579,408L714,446Z" fill="#a5a5a5" stroke="#a5a5a5" stroke-width="1.51"/><path d="M620,775L628,874L726,853Z" fill="#686868" stroke="#686868" stroke-width="1.51"/><path d="M537,-166L557,-57L734,-165Z" fill="#dadada" stroke="#dadada" stroke-width="1.51"/><path d="M632,271L579,408L697,295Z" fill="#adadad" stroke="#adadad" stroke-width="1.51"/><path d="M579,408L678,561L714,446Z" fill="#9a9a9a" stroke="#9a9a9a" stroke-width="1.51"/><path d="M557,-57L549,136L702,7Z" fill="#cfcfcf" stroke="#cfcfcf" stroke-width="1.51"/><path d="M579,408L640,588L678,561Z" fill="#969696" stroke="#969696" stroke-width="1.51"/><path d="M482,611L620,775L640,588Z" fill="#878787" stroke="#878787" stroke-width="1.51"/><path d="M425,479L482,611L579,408Z" fill="#9e9e9e" stroke="#9e9e9e" stroke-width="1.51"/><path d="M579,408L482,611L640,588Z" fill="#979797" stroke="#979797" stroke-width="1.51"/><path d="M490,125L549,136L557,-57Z" fill="#cfcfcf" stroke="#cfcfcf" stroke-width="1.51"/><path d="M482,611L408,700L620,775Z" fill="#858585" stroke="#858585" stroke-width="1.51"/><path d="M620,775L406,844L628,874Z" fill="#6d6d6d" stroke="#6d6d6d" stroke-width="1.51"/><path d="M439,260L579,408L632,271Z" fill="#b3b3b3" stroke="#b3b3b3" stroke-width="1.51"/><path d="M549,136L439,260L632,271Z" fill="#bfbfbf" stroke="#bfbfbf" stroke-width="1.51"/><path d="M408,700L406,844L620,775Z" fill="#787878" stroke="#787878" stroke-width="1.51"/><path d="M490,125L439,260L549,136Z" fill="#c7c7c7" stroke="#c7c7c7" stroke-width="1.51"/><path d="M454,-82L490,125L557,-57Z" fill="#d6d6d6" stroke="#d6d6d6" stroke-width="1.51"/><path d="M439,260L425,479L579,408Z" fill="#adadad" stroke="#adadad" stroke-width="1.51"/><path d="M537,-166L454,-82L557,-57Z" fill="#dddddd" stroke="#dddddd" stroke-width="1.51"/><path d="M389,-186L454,-82L537,-166Z" fill="#e2e2e2" stroke="#e2e2e2" stroke-width="1.51"/><path d="M323,324L425,479L439,260Z" fill="#b5b5b5" stroke="#b5b5b5" stroke-width="1.51"/><path d="M258,119L439,260L490,125Z" fill="#cccccc" stroke="#cccccc" stroke-width="1.51"/><path d="M454,-82L268,0L490,125Z" fill="#d9d9d9" stroke="#d9d9d9" stroke-width="1.51"/><path d="M268,0L258,119L490,125Z" fill="#d7d7d7" stroke="#d7d7d7" stroke-width="1.51"/><path d="M425,479L327,673L482,611Z" fill="#979797" stroke="#979797" stroke-width="1.51"/><path d="M327,673L408,700L482,611Z" fill="#8f8f8f" stroke="#8f8f8f" stroke-width="1.51"/><path d="M250,579L327,673L425,479Z" fill="#9c9c9c" stroke="#9c9c9c" stroke-width="1.51"/><path d="M312,457L250,579L425,479Z" fill="#a5a5a5" stroke="#a5a5a5" stroke-width="1.51"/><path d="M323,324L312,457L425,479Z" fill="#afafaf" stroke="#afafaf" stroke-width="1.51"/><path d="M389,-186L268,0L454,-82Z" fill="#e3e3e3" stroke="#e3e3e3" stroke-width="1.51"/><path d="M229,-129L268,0L389,-186Z" fill="#e7e7e7" stroke="#e7e7e7" stroke-width="1.51"/><path d="M258,119L323,324L439,260Z" fill="#c7c7c7" stroke="#c7c7c7" stroke-width="1.51"/><path d="M327,673L406,844L408,700Z" fill="#828282" stroke="#828282" stroke-width="1.51"/><path d="M327,673L264,884L406,844Z" fill="#7a7a7a" stroke="#7a7a7a" stroke-width="1.51"/><path d="M92,846L-52,901L264,884Z" fill="#787878" stroke="#787878" stroke-width="1.51"/><path d="M188,-230L229,-129L389,-186Z" fill="#ececec" stroke="#ececec" stroke-width="1.51"/><path d="M85,436L312,457L323,324Z" fill="#b4b4b4" stroke="#b4b4b4" stroke-width="1.51"/><path d="M173,239L85,436L323,324Z" fill="#bfbfbf" stroke="#bfbfbf" stroke-width="1.51"/><path d="M258,119L173,239L323,324Z" fill="#cbcbcb" stroke="#cbcbcb" stroke-width="1.51"/><path d="M139,773L264,884L327,673Z" fill="#818181" stroke="#818181" stroke-width="1.51"/><path d="M250,579L139,773L327,673Z" fill="#929292" stroke="#929292" stroke-width="1.51"/><path d="M177,146L173,239L258,119Z" fill="#d4d4d4" stroke="#d4d4d4" stroke-width="1.51"/><path d="M85,436L250,579L312,457Z" fill="#ababab" stroke="#ababab" stroke-width="1.51"/><path d="M85,436L119,600L250,579Z" fill="#a7a7a7" stroke="#a7a7a7" stroke-width="1.51"/><path d="M119,600L139,773L250,579Z" fill="#9a9a9a" stroke="#9a9a9a" stroke-width="1.51"/><path d="M170,-11L177,146L258,119Z" fill="#dbdbdb" stroke="#dbdbdb" stroke-width="1.51"/><path d="M139,773L92,846L264,884Z" fill="#7b7b7b" stroke="#7b7b7b" stroke-width="1.51"/><path d="M170,-11L258,119L268,0Z" fill="#dfdfdf" stroke="#dfdfdf" stroke-width="1.51"/><path d="M229,-129L170,-11L268,0Z" fill="#e6e6e6" stroke="#e6e6e6" stroke-width="1.51"/><path d="M188,-230L170,-11L229,-129Z" fill="#ececec" stroke="#ececec" stroke-width="1.51"/><path d="M-66,-124L-19,22L170,-11Z" fill="#ececec" stroke="#ececec" stroke-width="1.51"/><path d="M11,239L85,436L173,239Z" fill="#c7c7c7" stroke="#c7c7c7" stroke-width="1.51"/><path d="M170,-11L-19,22L177,146Z" fill="#e2e2e2" stroke="#e2e2e2" stroke-width="1.51"/><path d="M-66,-124L170,-11L188,-230Z" fill="#efefef" stroke="#efefef" stroke-width="1.51"/><path d="M-112,-209L-66,-124L188,-230Z" fill="#f6f6f6" stroke="#f6f6f6" stroke-width="1.51"/><path d="M11,239L173,239L177,146Z" fill="#d3d3d3" stroke="#d3d3d3" stroke-width="1.51"/><path d="M-19,22L11,239L177,146Z" fill="#dcdcdc" stroke="#dcdcdc" stroke-width="1.51"/><path d="M-19,22L-68,152L11,239Z" fill="#dedede" stroke="#dedede" stroke-width="1.51"/><path d="M85,436L16,463L119,600Z" fill="#afafaf" stroke="#afafaf" stroke-width="1.51"/><path d="M-32,582L-62,740L119,600Z" fill="#a0a0a0" stroke="#a0a0a0" stroke-width="1.51"/><path d="M119,600L-62,740L139,773Z" fill="#949494" stroke="#949494" stroke-width="1.51"/><path d="M-62,740L92,846L139,773Z" fill="#858585" stroke="#858585" stroke-width="1.51"/><path d="M11,239L16,463L85,436Z" fill="#bfbfbf" stroke="#bfbfbf" stroke-width="1.51"/><path d="M16,463L-32,582L119,600Z" fill="#aaaaaa" stroke="#aaaaaa" stroke-width="1.51"/><path d="M11,239L-121,377L16,463Z" fill="#c3c3c3" stroke="#c3c3c3" stroke-width="1.51"/><path d="M-62,740L-52,901L92,846Z" fill="#818181" stroke="#818181" stroke-width="1.51"/><path d="M-62,740L-138,849L-52,901Z" fill="#828282" stroke="#828282" stroke-width="1.51"/><path d="M-135,228L-121,377L11,239Z" fill="#cfcfcf" stroke="#cfcfcf" stroke-width="1.51"/><path d="M-141,588L-32,582L16,463Z" fill="#adadad" stroke="#adadad" stroke-width="1.51"/><path d="M-121,377L-141,588L16,463Z" fill="#b5b5b5" stroke="#b5b5b5" stroke-width="1.51"/><path d="M-68,152L-135,228L11,239Z" fill="#d8d8d8" stroke="#d8d8d8" stroke-width="1.51"/><path d="M-137,758L-138,849L-62,740Z" fill="#8a8a8a" stroke="#8a8a8a" stroke-width="1.51"/><path d="M-141,588L-62,740L-32,582Z" fill="#a2a2a2" stroke="#a2a2a2" stroke-width="1.51"/><path d="M-66,-124L-167,3L-19,22Z" fill="#eeeeee" stroke="#eeeeee" stroke-width="1.51"/><path d="M-167,3L-68,152L-19,22Z" fill="#e7e7e7" stroke="#e7e7e7" stroke-width="1.51"/><path d="M-167,3L-201,96L-68,152Z" fill="#e6e6e6" stroke="#e6e6e6" stroke-width="1.51"/><path d="M-141,588L-137,758L-62,740Z" fill="#999999" stroke="#999999" stroke-width="1.51"/><path d="M-112,-209L-167,3L-66,-124Z" fill="#f5f5f5" stroke="#f5f5f5" stroke-width="1.51"/><path d="M-201,96L-135,228L-68,152Z" fill="#dfdfdf" stroke="#dfdfdf" stroke-width="1.51"/><path d="M-201,96L-167,3L-112,-209Z" fill="#f0f0f0" stroke="#f0f0f0" stroke-width="1.51"/><path d="M-135,228L-201,96L-121,377Z" fill="#d7d7d7" stroke="#d7d7d7" stroke-width="1.51"/><path d="M-201,96L-141,588L-121,377Z" fill="#c7c7c7" stroke="#c7c7c7" stroke-width="1.51"/><path d="M-201,96L-138,849L-137,758Z" fill="#acacac" stroke="#acacac" stroke-width="1.51"/><path d="M-141,588L-201,96L-137,758Z" fill="#b7b7b7" stroke="#b7b7b7" stroke-width="1.51"/></svg>