<svg xmlns="http://www.w3.org/2000/svg" width="1920" height="600"><path d="M389,-236L734,-215L1089,-276Z" fill="#8ab0e0" stroke="#8ab0e0" stroke-width="1.51"/><path d="M188,-280L389,-236L1089,-276Z" fill="#90b4e0" stroke="#90b4e0" stroke-width="1.51"/><path d="M1048,831L628,824L1445,860Z" fill="#3f82e1" stroke="#3f82e1" stroke-width="1.51"/><path d="M628,824L264,834L1445,860Z" fill="#4a86e1" stroke="#4a86e1" stroke-width="1.51"/><path d="M264,834L-52,851L1445,860Z" fill="#548ae1" stroke="#548ae1" stroke-width="1.51"/><path d="M1221,826L1048,831L1445,860Z" fill="#367fe2" stroke="#367fe2" stroke-width="1.51"/><path d="M1089,-276L1226,-265L1685,-272Z" fill="#7fa7e2" stroke="#7fa7e2" stroke-width="1.51"/><path d="M1226,-265L1363,-241L1685,-272Z" fill="#7ca4e2" stroke="#7ca4e2" stroke-width="1.51"/><path d="M1611,795L1445,860L1786,792Z" fill="#2478e1" stroke="#2478e1" stroke-width="1.51"/><path d="M1786,792L1445,860L1958,826Z" fill="#1e76e1" stroke="#1e76e1" stroke-width="1.51"/><path d="M1958,826L1445,860L2057,852Z" fill="#1a74e2" stroke="#1a74e2" stroke-width="1.51"/><path d="M1963,709L2105,719L2134,550Z" fill="#2075e2" stroke="#2075e2" stroke-width="1.51"/><path d="M1985,513L1963,709L2134,550Z" fill="#2779e2" stroke="#2779e2" stroke-width="1.51"/><path d="M2064,362L1985,513L2134,550Z" fill="#317de2" stroke="#317de2" stroke-width="1.51"/><path d="M2067,235L2064,362L2134,550Z" fill="#3b80e2" stroke="#3b80e2" stroke-width="1.51"/><path d="M2079,-187L1973,20L2139,-50Z" fill="#618fe2" stroke="#618fe2" stroke-width="1.51"/><path d="M1973,20L2029,84L2139,-50Z" fill="#5a8de2" stroke="#5a8de2" stroke-width="1.51"/><path d="M2029,84L2067,235L2139,-50Z" fill="#548ae1" stroke="#548ae1" stroke-width="1.51"/><path d="M2067,235L2134,550L2139,-50Z" fill="#4784e1" stroke="#4784e1" stroke-width="1.51"/><path d="M1963,709L1958,826L2057,852Z" fill="#1873e3" stroke="#1873e3" stroke-width="1.51"/><path d="M1973,369L1985,513L2064,362Z" fill="#3880e1" stroke="#3880e1" stroke-width="1.51"/><path d="M1896,-61L1973,20L2079,-187Z" fill="#6290e1" stroke="#6290e1" stroke-width="1.51"/><path d="M1963,709L2057,852L2105,719Z" fill="#1873e2" stroke="#1873e2" stroke-width="1.51"/><path d="M2029,84L1924,179L2067,235Z" fill="#4e88e0" stroke="#4e88e0" stroke-width="1.51"/><path d="M1973,369L2064,362L2067,235Z" fill="#4083e0" stroke="#4083e0" stroke-width="1.51"/><path d="M1884,-238L1896,-61L2079,-187Z" fill="#6b95e2" stroke="#6b95e2" stroke-width="1.51"/><path d="M1924,179L1973,369L2067,235Z" fill="#4685e0" stroke="#4685e0" stroke-width="1.51"/><path d="M1973,20L1924,179L2029,84Z" fill="#548be0" stroke="#548be0" stroke-width="1.51"/><path d="M1884,-238L1834,-210L1896,-61Z" fill="#6c96e1" stroke="#6c96e1" stroke-width="1.51"/><path d="M1924,179L1761,256L1973,369Z" fill="#4686df" stroke="#4686df" stroke-width="1.51"/><path d="M1761,256L1769,367L1973,369Z" fill="#4185de" stroke="#4185de" stroke-width="1.51"/><path d="M1833,708L1963,709L1985,513Z" fill="#2478e0" stroke="#2478e0" stroke-width="1.51"/><path d="M1763,561L1833,708L1985,513Z" fill="#297be0" stroke="#297be0" stroke-width="1.51"/><path d="M1973,369L1769,367L1985,513Z" fill="#3981e0" stroke="#3981e0" stroke-width="1.51"/><path d="M1769,367L1763,561L1985,513Z" fill="#3380e1" stroke="#3380e1" stroke-width="1.51"/><path d="M389,-236L537,-216L734,-215Z" fill="#8cb1e0" stroke="#8cb1e0" stroke-width="1.51"/><path d="M1833,708L1958,826L1963,709Z" fill="#1c75e1" stroke="#1c75e1" stroke-width="1.51"/><path d="M1740,25L1924,179L1973,20Z" fill="#568ddf" stroke="#568ddf" stroke-width="1.51"/><path d="M1896,-61L1740,25L1973,20Z" fill="#5d8fe0" stroke="#5d8fe0" stroke-width="1.51"/><path d="M1833,708L1786,792L1958,826Z" fill="#1c75e1" stroke="#1c75e1" stroke-width="1.51"/><path d="M1685,-272L1834,-210L1884,-238Z" fill="#749be1" stroke="#749be1" stroke-width="1.51"/><path d="M1834,-210L1789,-93L1896,-61Z" fill="#6794e0" stroke="#6794e0" stroke-width="1.51"/><path d="M1740,25L1761,256L1924,179Z" fill="#508bde" stroke="#508bde" stroke-width="1.51"/><path d="M1789,-93L1740,25L1896,-61Z" fill="#6092df" stroke="#6092df" stroke-width="1.51"/><path d="M1740,25L1676,40L1761,256Z" fill="#548ede" stroke="#548ede" stroke-width="1.51"/><path d="M1763,561L1642,659L1833,708Z" fill="#277bdf" stroke="#277bdf" stroke-width="1.51"/><path d="M1685,-272L1789,-93L1834,-210Z" fill="#6f99e0" stroke="#6f99e0" stroke-width="1.51"/><path d="M1642,659L1786,792L1833,708Z" fill="#2178df" stroke="#2178df" stroke-width="1.51"/><path d="M1676,40L1603,189L1761,256Z" fill="#518dde" stroke="#518dde" stroke-width="1.51"/><path d="M1586,506L1763,561L1769,367Z" fill="#3682df" stroke="#3682df" stroke-width="1.51"/><path d="M1605,344L1586,506L1769,367Z" fill="#3e85df" stroke="#3e85df" stroke-width="1.51"/><path d="M1642,659L1611,795L1786,792Z" fill="#2478e0" stroke="#2478e0" stroke-width="1.51"/><path d="M1671,-65L1740,25L1789,-93Z" fill="#6093df" stroke="#6093df" stroke-width="1.51"/><path d="M1685,-272L1671,-65L1789,-93Z" fill="#6a98e0" stroke="#6a98e0" stroke-width="1.51"/><path d="M1363,-241L1432,-212L1685,-272Z" fill="#79a2e1" stroke="#79a2e1" stroke-width="1.51"/><path d="M1761,256L1605,344L1769,367Z" fill="#4387de" stroke="#4387de" stroke-width="1.51"/><path d="M1586,506L1642,659L1763,561Z" fill="#307fe0" stroke="#307fe0" stroke-width="1.51"/><path d="M1603,189L1605,344L1761,256Z" fill="#4a8ade" stroke="#4a8ade" stroke-width="1.51"/><path d="M1671,-65L1676,40L1740,25Z" fill="#5e92df" stroke="#5e92df" stroke-width="1.51"/><path d="M1471,86L1603,189L1676,40Z" fill="#5791df" stroke="#5791df" stroke-width="1.51"/><path d="M1671,-65L1522,-49L1676,40Z" fill="#6195df" stroke="#6195df" stroke-width="1.51"/><path d="M1522,-49L1671,-65L1685,-272Z" fill="#6a99e0" stroke="#6a99e0" stroke-width="1.51"/><path d="M1432,-212L1522,-49L1685,-272Z" fill="#719de1" stroke="#719de1" stroke-width="1.51"/><path d="M1522,-49L1471,86L1676,40Z" fill="#5f95e0" stroke="#5f95e0" stroke-width="1.51"/><path d="M1528,699L1611,795L1642,659Z" fill="#287bdf" stroke="#287bdf" stroke-width="1.51"/><path d="M1480,373L1586,506L1605,344Z" fill="#4088e0" stroke="#4088e0" stroke-width="1.51"/><path d="M1586,506L1465,575L1642,659Z" fill="#3381e0" stroke="#3381e0" stroke-width="1.51"/><path d="M1465,575L1528,699L1642,659Z" fill="#2f7fe0" stroke="#2f7fe0" stroke-width="1.51"/><path d="M1603,189L1445,236L1605,344Z" fill="#4d8dde" stroke="#4d8dde" stroke-width="1.51"/><path d="M1445,236L1480,373L1605,344Z" fill="#498cde" stroke="#498cde" stroke-width="1.51"/><path d="M1528,699L1445,860L1611,795Z" fill="#297be1" stroke="#297be1" stroke-width="1.51"/><path d="M1471,86L1445,236L1603,189Z" fill="#5491df" stroke="#5491df" stroke-width="1.51"/><path d="M1480,373L1465,575L1586,506Z" fill="#3b86e1" stroke="#3b86e1" stroke-width="1.51"/><path d="M726,803L628,824L1048,831Z" fill="#4a87e0" stroke="#4a87e0" stroke-width="1.51"/><path d="M1342,509L1465,575L1480,373Z" fill="#3d88e1" stroke="#3d88e1" stroke-width="1.51"/><path d="M1344,-76L1471,86L1522,-49Z" fill="#6398e0" stroke="#6398e0" stroke-width="1.51"/><path d="M1432,-212L1344,-76L1522,-49Z" fill="#6b9ce0" stroke="#6b9ce0" stroke-width="1.51"/><path d="M1347,791L1445,860L1528,699Z" fill="#2d7de1" stroke="#2d7de1" stroke-width="1.51"/><path d="M1346,722L1347,791L1528,699Z" fill="#2f7ee0" stroke="#2f7ee0" stroke-width="1.51"/><path d="M1465,575L1346,722L1528,699Z" fill="#3180e0" stroke="#3180e0" stroke-width="1.51"/><path d="M1343,401L1342,509L1480,373Z" fill="#438be0" stroke="#438be0" stroke-width="1.51"/><path d="M1333,236L1343,401L1445,236Z" fill="#4e8fdf" stroke="#4e8fdf" stroke-width="1.51"/><path d="M1344,-76L1367,125L1471,86Z" fill="#6098e0" stroke="#6098e0" stroke-width="1.51"/><path d="M1367,125L1445,236L1471,86Z" fill="#5793e0" stroke="#5793e0" stroke-width="1.51"/><path d="M1445,236L1343,401L1480,373Z" fill="#4a8ddf" stroke="#4a8ddf" stroke-width="1.51"/><path d="M1342,509L1346,722L1465,575Z" fill="#3784e0" stroke="#3784e0" stroke-width="1.51"/><path d="M1347,791L1221,826L1445,860Z" fill="#307ee2" stroke="#307ee2" stroke-width="1.51"/><path d="M1363,-241L1344,-76L1432,-212Z" fill="#74a0e1" stroke="#74a0e1" stroke-width="1.51"/><path d="M1367,125L1333,236L1445,236Z" fill="#5592df" stroke="#5592df" stroke-width="1.51"/><path d="M854,792L726,803L1048,831Z" fill="#4786df" stroke="#4786df" stroke-width="1.51"/><path d="M1333,236L1174,356L1343,401Z" fill="#4e8fdf" stroke="#4e8fdf" stroke-width="1.51"/><path d="M1133,-50L1148,96L1344,-76Z" fill="#699ddf" stroke="#699ddf" stroke-width="1.51"/><path d="M1342,509L1204,512L1346,722Z" fill="#3c86e0" stroke="#3c86e0" stroke-width="1.51"/><path d="M1204,512L1168,700L1346,722Z" fill="#3b85e0" stroke="#3b85e0" stroke-width="1.51"/><path d="M1226,-265L1344,-76L1363,-241Z" fill="#77a3e1" stroke="#77a3e1" stroke-width="1.51"/><path d="M1344,-76L1148,96L1367,125Z" fill="#6299e0" stroke="#6299e0" stroke-width="1.51"/><path d="M1148,96L1333,236L1367,125Z" fill="#5b95df" stroke="#5b95df" stroke-width="1.51"/><path d="M1148,96L1145,225L1333,236Z" fill="#5b96de" stroke="#5b96de" stroke-width="1.51"/><path d="M1204,512L1342,509L1343,401Z" fill="#438be0" stroke="#438be0" stroke-width="1.51"/><path d="M1226,-265L1133,-50L1344,-76Z" fill="#72a1e0" stroke="#72a1e0" stroke-width="1.51"/><path d="M1168,700L1221,826L1346,722Z" fill="#3681e0" stroke="#3681e0" stroke-width="1.51"/><path d="M1346,722L1221,826L1347,791Z" fill="#337fe1" stroke="#337fe1" stroke-width="1.51"/><path d="M1174,356L1204,512L1343,401Z" fill="#498de0" stroke="#498de0" stroke-width="1.51"/><path d="M1145,225L1174,356L1333,236Z" fill="#5493de" stroke="#5493de" stroke-width="1.51"/><path d="M1038,685L1168,700L1204,512Z" fill="#4087df" stroke="#4087df" stroke-width="1.51"/><path d="M1058,476L1038,685L1204,512Z" fill="#458adf" stroke="#458adf" stroke-width="1.51"/><path d="M1174,356L1058,476L1204,512Z" fill="#4b8edf" stroke="#4b8edf" stroke-width="1.51"/><path d="M1168,700L1048,831L1221,826Z" fill="#3b82e0" stroke="#3b82e0" stroke-width="1.51"/><path d="M1089,-276L1133,-50L1226,-265Z" fill="#7ba6e0" stroke="#7ba6e0" stroke-width="1.51"/><path d="M1089,-34L1063,30L1133,-50Z" fill="#6c9fdf" stroke="#6c9fdf" stroke-width="1.51"/><path d="M1133,-50L1063,30L1148,96Z" fill="#689ddf" stroke="#689ddf" stroke-width="1.51"/><path d="M924,-171L1089,-34L1089,-276Z" fill="#7aa6df" stroke="#7aa6df" stroke-width="1.51"/><path d="M1089,-276L1089,-34L1133,-50Z" fill="#74a2df" stroke="#74a2df" stroke-width="1.51"/><path d="M1029,172L1145,225L1148,96Z" fill="#5f98de" stroke="#5f98de" stroke-width="1.51"/><path d="M1038,685L1048,831L1168,700Z" fill="#3e84df" stroke="#3e84df" stroke-width="1.51"/><path d="M1145,225L1022,419L1174,356Z" fill="#5492de" stroke="#5492de" stroke-width="1.51"/><path d="M1022,419L1058,476L1174,356Z" fill="#4f90df" stroke="#4f90df" stroke-width="1.51"/><path d="M1029,172L1022,419L1145,225Z" fill="#5995dd" stroke="#5995dd" stroke-width="1.51"/><path d="M1063,30L1029,172L1148,96Z" fill="#649bde" stroke="#649bde" stroke-width="1.51"/><path d="M921,225L1022,419L1029,172Z" fill="#5b96dc" stroke="#5b96dc" stroke-width="1.51"/><path d="M734,-215L924,-171L1089,-276Z" fill="#83abdf" stroke="#83abdf" stroke-width="1.51"/><path d="M921,225L883,352L1022,419Z" fill="#5995dd" stroke="#5995dd" stroke-width="1.51"/><path d="M929,674L1038,685L1058,476Z" fill="#4689de" stroke="#4689de" stroke-width="1.51"/><path d="M873,506L929,674L1058,476Z" fill="#4b8dde" stroke="#4b8dde" stroke-width="1.51"/><path d="M924,-171L1063,30L1089,-34Z" fill="#70a1df" stroke="#70a1df" stroke-width="1.51"/><path d="M1038,685L929,674L1048,831Z" fill="#4286de" stroke="#4286de" stroke-width="1.51"/><path d="M929,674L854,792L1048,831Z" fill="#4486df" stroke="#4486df" stroke-width="1.51"/><path d="M924,-171L838,-104L1063,30Z" fill="#74a4de" stroke="#74a4de" stroke-width="1.51"/><path d="M838,-104L841,49L1063,30Z" fill="#70a2de" stroke="#70a2de" stroke-width="1.51"/><path d="M841,49L1029,172L1063,30Z" fill="#689ddd" stroke="#689ddd" stroke-width="1.51"/><path d="M1022,419L873,506L1058,476Z" fill="#4f90de" stroke="#4f90de" stroke-width="1.51"/><path d="M841,49L921,225L1029,172Z" fill="#659cdd" stroke="#659cdd" stroke-width="1.51"/><path d="M883,352L873,506L1022,419Z" fill="#5492de" stroke="#5492de" stroke-width="1.51"/><path d="M841,49L697,245L921,225Z" fill="#679ddd" stroke="#679ddd" stroke-width="1.51"/><path d="M873,506L777,686L929,674Z" fill="#4c8cde" stroke="#4c8cde" stroke-width="1.51"/><path d="M777,686L854,792L929,674Z" fill="#4988de" stroke="#4988de" stroke-width="1.51"/><path d="M697,245L883,352L921,225Z" fill="#6099dd" stroke="#6099dd" stroke-width="1.51"/><path d="M734,-215L838,-104L924,-171Z" fill="#7fa9df" stroke="#7fa9df" stroke-width="1.51"/><path d="M406,794L264,834L628,824Z" fill="#598ce1" stroke="#598ce1" stroke-width="1.51"/><path d="M762,35L697,245L841,49Z" fill="#6da0de" stroke="#6da0de" stroke-width="1.51"/><path d="M838,-104L762,35L841,49Z" fill="#73a3de" stroke="#73a3de" stroke-width="1.51"/><path d="M678,511L777,686L873,506Z" fill="#528fdf" stroke="#528fdf" stroke-width="1.51"/><path d="M714,396L873,506L883,352Z" fill="#5894de" stroke="#5894de" stroke-width="1.51"/><path d="M697,245L714,396L883,352Z" fill="#5f98dd" stroke="#5f98dd" stroke-width="1.51"/><path d="M714,396L678,511L873,506Z" fill="#5794df" stroke="#5794df" stroke-width="1.51"/><path d="M702,-43L762,35L838,-104Z" fill="#76a5de" stroke="#76a5de" stroke-width="1.51"/><path d="M777,686L726,803L854,792Z" fill="#4b88df" stroke="#4b88df" stroke-width="1.51"/><path d="M734,-215L702,-43L838,-104Z" fill="#7da8df" stroke="#7da8df" stroke-width="1.51"/><path d="M632,221L697,245L762,35Z" fill="#6b9fdd" stroke="#6b9fdd" stroke-width="1.51"/><path d="M549,86L632,221L762,35Z" fill="#70a2de" stroke="#70a2de" stroke-width="1.51"/><path d="M678,511L640,538L777,686Z" fill="#5490df" stroke="#5490df" stroke-width="1.51"/><path d="M640,538L620,725L777,686Z" fill="#528ede" stroke="#528ede" stroke-width="1.51"/><path d="M620,725L726,803L777,686Z" fill="#4e8adf" stroke="#4e8adf" stroke-width="1.51"/><path d="M557,-107L702,-43L734,-215Z" fill="#7faadf" stroke="#7faadf" stroke-width="1.51"/><path d="M702,-43L549,86L762,35Z" fill="#75a4de" stroke="#75a4de" stroke-width="1.51"/><path d="M697,245L579,358L714,396Z" fill="#629add" stroke="#629add" stroke-width="1.51"/><path d="M620,725L628,824L726,803Z" fill="#508ae0" stroke="#508ae0" stroke-width="1.51"/><path d="M537,-216L557,-107L734,-215Z" fill="#87aee0" stroke="#87aee0" stroke-width="1.51"/><path d="M632,221L579,358L697,245Z" fill="#669cdd" stroke="#669cdd" stroke-width="1.51"/><path d="M579,358L678,511L714,396Z" fill="#5d97df" stroke="#5d97df" stroke-width="1.51"/><path d="M557,-107L549,86L702,-43Z" fill="#7aa7df" stroke="#7aa7df" stroke-width="1.51"/><path d="M579,358L640,538L678,511Z" fill="#5c96df" stroke="#5c96df" stroke-width="1.51"/><path d="M482,561L620,725L640,538Z" fill="#5791df" stroke="#5791df" stroke-width="1.51"/><path d="M425,429L482,561L579,358Z" fill="#6199df" stroke="#6199df" stroke-width="1.51"/><path d="M579,358L482,561L640,538Z" fill="#5d97e0" stroke="#5d97e0" stroke-width="1.51"/><path d="M490,75L549,86L557,-107Z" fill="#7aa7df" stroke="#7aa7df" stroke-width="1.51"/><path d="M482,561L408,650L620,725Z" fill="#5991df" stroke="#5991df" stroke-width="1.51"/><path d="M620,725L406,794L628,824Z" fill="#548ce0" stroke="#548ce0" stroke-width="1.51"/><path d="M439,210L579,358L632,221Z" fill="#6a9edd" stroke="#6a9edd" stroke-width="1.51"/><path d="M549,86L439,210L632,221Z" fill="#6fa2de" stroke="#6fa2de" stroke-width="1.51"/><path d="M408,650L406,794L620,725Z" fill="#578fdf" stroke="#578fdf" stroke-width="1.51"/><path d="M490,75L439,210L549,86Z" fill="#74a4de" stroke="#74a4de" stroke-width="1.51"/><path d="M454,-132L490,75L557,-107Z" fill="#7faadf" stroke="#7faadf" stroke-width="1.51"/><path d="M439,210L425,429L579,358Z" fill="#689dde" stroke="#689dde" stroke-width="1.51"/><path d="M537,-216L454,-132L557,-107Z" fill="#87afe0" stroke="#87afe0" stroke-width="1.51"/><path d="M389,-236L454,-132L537,-216Z" fill="#8db1e0" stroke="#8db1e0" stroke-width="1.51"/><path d="M323,274L425,429L439,210Z" fill="#6da0de" stroke="#6da0de" stroke-width="1.51"/><path d="M258,69L439,210L490,75Z" fill="#78a6df" stroke="#78a6df" stroke-width="1.51"/><path d="M454,-132L268,-50L490,75Z" fill="#81abdf" stroke="#81abdf" stroke-width="1.51"/><path d="M268,-50L258,69L490,75Z" fill="#7faadf" stroke="#7faadf" stroke-width="1.51"/><path d="M425,429L327,623L482,561Z" fill="#6197e0" stroke="#6197e0" stroke-width="1.51"/><path d="M327,623L408,650L482,561Z" fill="#5e94df" stroke="#5e94df" stroke-width="1.51"/><path d="M250,529L327,623L425,429Z" fill="#6499e0" stroke="#6499e0" stroke-width="1.51"/><path d="M312,407L250,529L425,429Z" fill="#679ce0" stroke="#679ce0" stroke-width="1.51"/><path d="M323,274L312,407L425,429Z" fill="#6b9edf" stroke="#6b9edf" stroke-width="1.51"/><path d="M389,-236L268,-50L454,-132Z" fill="#8ab0e0" stroke="#8ab0e0" stroke-width="1.51"/><path d="M229,-179L268,-50L389,-236Z" fill="#8eb2e0" stroke="#8eb2e0" stroke-width="1.51"/><path d="M258,69L323,274L439,210Z" fill="#75a5de" stroke="#75a5de" stroke-width="1.51"/><path d="M327,623L406,794L408,650Z" fill="#5c91df" stroke="#5c91df" stroke-width="1.51"/><path d="M327,623L264,834L406,794Z" fill="#5e90e0" stroke="#5e90e0" stroke-width="1.51"/><path d="M92,796L-52,851L264,834Z" fill="#6793e2" stroke="#6793e2" stroke-width="1.51"/><path d="M188,-280L229,-179L389,-236Z" fill="#95b7e1" stroke="#95b7e1" stroke-width="1.51"/><path d="M85,386L312,407L323,274Z" fill="#6fa0df" stroke="#6fa0df" stroke-width="1.51"/><path d="M173,189L85,386L323,274Z" fill="#75a4de" stroke="#75a4de" stroke-width="1.51"/><path d="M258,69L173,189L323,274Z" fill="#79a7df" stroke="#79a7df" stroke-width="1.51"/><path d="M139,723L264,834L327,623Z" fill="#6192e0" stroke="#6192e0" stroke-width="1.51"/><path d="M250,529L139,723L327,623Z" fill="#6496e0" stroke="#6496e0" stroke-width="1.51"/><path d="M177,96L173,189L258,69Z" fill="#7da9df" stroke="#7da9df" stroke-width="1.51"/><path d="M85,386L250,529L312,407Z" fill="#6d9ee0" stroke="#6d9ee0" stroke-width="1.51"/><path d="M85,386L119,550L250,529Z" fill="#6c9ee1" stroke="#6c9ee1" stroke-width="1.51"/><path d="M119,550L139,723L250,529Z" fill="#6798e0" stroke="#6798e0" stroke-width="1.51"/><path d="M170,-61L177,96L258,69Z" fill="#83ade0" stroke="#83ade0" stroke-width="1.51"/><path d="M139,723L92,796L264,834Z" fill="#6492e1" stroke="#6492e1" stroke-width="1.51"/><path d="M170,-61L258,69L268,-50Z" fill="#85ade0" stroke="#85ade0" stroke-width="1.51"/><path d="M229,-179L170,-61L268,-50Z" fill="#8ab1e0" stroke="#8ab1e0" stroke-width="1.51"/><path d="M188,-280L170,-61L229,-179Z" fill="#92b5e1" stroke="#92b5e1" stroke-width="1.51"/><path d="M-66,-174L-19,-28L170,-61Z" fill="#92b5e1" stroke="#92b5e1" stroke-width="1.51"/><path d="M11,189L85,386L173,189Z" fill="#7ba7df" stroke="#7ba7df" stroke-width="1.51"/><path d="M170,-61L-19,-28L177,96Z" fill="#89b0e0" stroke="#89b0e0" stroke-width="1.51"/><path d="M-66,-174L170,-61L188,-280Z" fill="#96b7e1" stroke="#96b7e1" stroke-width="1.51"/><path d="M-112,-259L-66,-174L188,-280Z" fill="#a1bee2" stroke="#a1bee2" stroke-width="1.51"/><path d="M11,189L173,189L177,96Z" fill="#7faadf" stroke="#7faadf" stroke-width="1.51"/><path d="M-19,-28L11,189L177,96Z" fill="#86aee0" stroke="#86aee0" stroke-width="1.51"/><path d="M-19,-28L-68,102L11,189Z" fill="#8ab0e0" stroke="#8ab0e0" stroke-width="1.51"/><path d="M85,386L16,413L119,550Z" fill="#72a1e1" stroke="#72a1e1" stroke-width="1.51"/><path d="M-32,532L-62,690L119,550Z" fill="#719de1" stroke="#719de1" stroke-width="1.51"/><path d="M119,550L-62,690L139,723Z" fill="#6b99e0" stroke="#6b99e0" stroke-width="1.51"/><path d="M-62,690L92,796L139,723Z" fill="#6a96e0" stroke="#6a96e0" stroke-width="1.51"/><path d="M11,189L16,413L85,386Z" fill="#7aa6df" stroke="#7aa6df" stroke-width="1.51"/><path d="M16,413L-32,532L119,550Z" fill="#72a0e1" stroke="#72a0e1" stroke-width="1.51"/><path d="M11,189L-121,327L16,413Z" fill="#7fa8df" stroke="#7fa8df" stroke-width="1.51"/><path d="M-62,690L-52,851L92,796Z" fill="#6e96e1" stroke="#6e96e1" stroke-width="1.51"/><path d="M-62,690L-138,799L-52,851Z" fill="#7298e2" stroke="#7298e2" stroke-width="1.51"/><path d="M-135,178L-121,327L11,189Z" fill="#85ade0" stroke="#85ade0" stroke-width="1.51"/><path d="M-141,538L-32,532L16,413Z" fill="#77a3e2" stroke="#77a3e2" stroke-width="1.51"/><path d="M-121,327L-141,538L16,413Z" fill="#7ca6e1" stroke="#7ca6e1" stroke-width="1.51"/><path d="M-68,102L-135,178L11,189Z" fill="#88afe0" stroke="#88afe0" stroke-width="1.51"/><path d="M-137,708L-138,799L-62,690Z" fill="#749ae1" stroke="#749ae1" stroke-width="1.51"/><path d="M-141,538L-62,690L-32,532Z" fill="#76a0e1" stroke="#76a0e1" stroke-width="1.51"/><path d="M-66,-174L-167,-47L-19,-28Z" fill="#97b8e1" stroke="#97b8e1" stroke-width="1.51"/><path d="M-167,-47L-68,102L-19,-28Z" fill="#92b4e1" stroke="#92b4e1" stroke-width="1.51"/><path d="M-167,-47L-201,46L-68,102Z" fill="#93b6e1" stroke="#93b6e1" stroke-width="1.51"/><path d="M-141,538L-137,708L-62,690Z" fill="#769ee1" stroke="#769ee1" stroke-width="1.51"/><path d="M-112,-259L-167,-47L-66,-174Z" fill="#9fbde2" stroke="#9fbde2" stroke-width="1.51"/><path d="M-201,46L-135,178L-68,102Z" fill="#8eb2e0" stroke="#8eb2e0" stroke-width="1.51"/><path d="M-201,46L-167,-47L-112,-259Z" fill="#9abae1" stroke="#9abae1" stroke-width="1.51"/><path d="M-135,178L-201,46L-121,327Z" fill="#8bb0e0" stroke="#8bb0e0" stroke-width="1.51"/><path d="M-201,46L-141,538L-121,327Z" fill="#85acdf" stroke="#85acdf" stroke-width="1.51"/><path d="M-201,46L-138,799L-137,708Z" fill="#7da4e2" stroke="#7da4e2" stroke-width="1.51"/><path d="M-141,538L-201,46L-137,708Z" fill="#80a8e1" stroke="#80a8e1" stroke-width="1.51"/></svg>